  0
SECTION
  2
ENTITIES
  0
POLYLINE
  8
HB
 66
     1
 70
     0
  0
VERTEX
  8
HB
 10
       0.0000
 20
       0.0000
  0
VERTEX
  8
HB
 10
       0.0000
 20
   11080.0000
  0
SEQEND
  0
POLYLINE
  8
HB
 66
     1
 70
     0
  0
VERTEX
  8
HB
 10
       0.0000
 20
       0.0000
  0
VERTEX
  8
HB
 10
       0.0000
 20
    5575.0000
  0
SEQEND
  0
POLYLINE
  8
HB
 66
     1
 70
     0
  0
VERTEX
  8
HB
 10
      -1.0000
 20
       0.0000
  0
VERTEX
  8
HB
 10
     -72.3000
 20
     162.1000
  0
VERTEX
  8
HB
 10
    -138.4000
 20
     326.0000
  0
VERTEX
  8
HB
 10
    -199.2000
 20
     491.7000
  0
VERTEX
  8
HB
 10
    -254.8000
 20
     659.3000
  0
VERTEX
  8
HB
 10
    -305.0000
 20
     828.7000
  0
VERTEX
  8
HB
 10
    -350.0000
 20
    1000.0000
  0
VERTEX
  8
HB
 10
    -387.9000
 20
    1164.7000
  0
VERTEX
  8
HB
 10
    -420.7000
 20
    1330.2000
  0
VERTEX
  8
HB
 10
    -448.4000
 20
    1496.5000
  0
VERTEX
  8
HB
 10
    -470.9000
 20
    1663.5000
  0
VERTEX
  8
HB
 10
    -488.1000
 20
    1831.4000
  0
VERTEX
  8
HB
 10
    -500.0000
 20
    2000.0000
  0
VERTEX
  8
HB
 10
    -507.7000
 20
    2277.1001
  0
VERTEX
  8
HB
 10
    -504.2000
 20
    2458.7000
  0
VERTEX
  8
HB
 10
    -493.7000
 20
    2639.7000
  0
VERTEX
  8
HB
 10
    -475.7000
 20
    2820.2000
  0
SEQEND
  0
POLYLINE
  8
HB
 66
     1
 70
     0
  0
VERTEX
  8
HB
 10
    -507.7000
 20
    2277.1001
  0
VERTEX
  8
HB
 10
    -504.2000
 20
    2458.7000
  0
VERTEX
  8
HB
 10
    -493.7000
 20
    2639.7000
  0
VERTEX
  8
HB
 10
    -475.7000
 20
    2820.2000
  0
VERTEX
  8
HB
 10
    -450.0000
 20
    3000.0000
  0
VERTEX
  8
HB
 10
    -220.0000
 20
    4000.0000
  0
VERTEX
  8
HB
 10
    -183.7000
 20
    4165.2998
  0
VERTEX
  8
HB
 10
    -150.7000
 20
    4331.2002
  0
VERTEX
  8
HB
 10
    -120.9000
 20
    4497.6001
  0
VERTEX
  8
HB
 10
     -94.3000
 20
    4664.6001
  0
VERTEX
  8
HB
 10
     -70.7000
 20
    4832.0000
  0
VERTEX
  8
HB
 10
     -50.0000
 20
    5000.0000
  0
VERTEX
  8
HB
 10
      -1.0000
 20
    5575.0000
  0
SEQEND
  0
POLYLINE
  8
HB
 66
     1
 70
     0
  0
VERTEX
  8
HB
 10
       0.0000
 20
    5575.0000
  0
VERTEX
  8
HB
 10
       0.0000
 20
   11080.0000
  0
SEQEND
  0
POLYLINE
  8
HB
 66
     1
 70
     0
  0
VERTEX
  8
HB
 10
      -1.0000
 20
    5575.0000
  0
VERTEX
  8
HB
 10
   -2000.0000
 20
    5650.0000
  0
VERTEX
  8
HB
 10
   -2182.2000
 20
    5660.3999
  0
VERTEX
  8
HB
 10
   -2364.3000
 20
    5671.5000
  0
VERTEX
  8
HB
 10
   -2546.3999
 20
    5683.2998
  0
VERTEX
  8
HB
 10
   -2728.3999
 20
    5696.0000
  0
VERTEX
  8
HB
 10
   -2910.3000
 20
    5709.5000
  0
VERTEX
  8
HB
 10
   -3092.2000
 20
    5724.1001
  0
VERTEX
  8
HB
 10
   -3273.8999
 20
    5739.6001
  0
VERTEX
  8
HB
 10
   -3455.6001
 20
    5756.3999
  0
VERTEX
  8
HB
 10
   -3637.2000
 20
    5774.2998
  0
VERTEX
  8
HB
 10
   -3818.6001
 20
    5793.5000
  0
VERTEX
  8
HB
 10
   -4000.0000
 20
    5814.0000
  0
VERTEX
  8
HB
 10
   -4197.6001
 20
    5838.7002
  0
VERTEX
  8
HB
 10
   -4393.7998
 20
    5869.2998
  0
VERTEX
  8
HB
 10
   -4587.7998
 20
    5909.7002
  0
VERTEX
  8
HB
 10
   -4778.5000
 20
    5964.2998
  0
VERTEX
  8
HB
 10
   -4965.0000
 20
    6037.0000
  0
VERTEX
  8
HB
 10
   -5121.7998
 20
    6117.5000
  0
VERTEX
  8
HB
 10
   -5267.2002
 20
    6212.0000
  0
VERTEX
  8
HB
 10
   -5401.2002
 20
    6320.6001
  0
VERTEX
  8
HB
 10
   -5523.7998
 20
    6443.2998
  0
VERTEX
  8
HB
 10
   -5635.0000
 20
    6580.0000
  0
SEQEND
  0
POLYLINE
  8
HB
 66
     1
 70
     0
  0
VERTEX
  8
HB
 10
   -5635.0000
 20
    6580.0000
  0
VERTEX
  8
HB
 10
   -5716.6001
 20
    6727.8999
  0
VERTEX
  8
HB
 10
   -5793.2998
 20
    6877.8999
  0
VERTEX
  8
HB
 10
   -5865.2002
 20
    7030.2002
  0
VERTEX
  8
HB
 10
   -5932.2998
 20
    7184.6001
  0
VERTEX
  8
HB
 10
   -5994.6001
 20
    7341.2002
  0
VERTEX
  8
HB
 10
   -6052.0000
 20
    7500.0000
  0
VERTEX
  8
HB
 10
   -6105.7998
 20
    7664.3999
  0
VERTEX
  8
HB
 10
   -6155.1001
 20
    7830.0000
  0
VERTEX
  8
HB
 10
   -6200.7998
 20
    7996.6001
  0
VERTEX
  8
HB
 10
   -6243.7998
 20
    8164.0000
  0
VERTEX
  8
HB
 10
   -6284.8999
 20
    8331.9004
  0
VERTEX
  8
HB
 10
   -6325.0000
 20
    8500.0000
  0
VERTEX
  8
HB
 10
   -6560.0000
 20
    9500.0000
  0
VERTEX
  8
HB
 10
   -6890.0000
 20
   10930.0000
  0
SEQEND
  0
POLYLINE
  8
HB
 66
     1
 70
     0
  0
VERTEX
  8
HB
 10
       0.0000
 20
   11080.0000
  0
VERTEX
  8
HB
 10
   -2000.0000
 20
   11067.0000
  0
VERTEX
  8
HB
 10
   -4000.0000
 20
   11030.0000
  0
VERTEX
  8
HB
 10
   -5635.0000
 20
   10980.4004
  0
VERTEX
  8
HB
 10
   -6890.0000
 20
   10930.0000
  0
SEQEND
  0
POLYLINE
  8
HB
 66
     1
 70
     0
  0
VERTEX
  8
HB
 10
   -2001.0000
 20
    5650.0000
  0
VERTEX
  8
HB
 10
   -2001.0000
 20
   11067.0000
  0
SEQEND
  0
POLYLINE
  8
HB
 66
     1
 70
     0
  0
VERTEX
  8
HB
 10
   -4001.0000
 20
    5814.0000
  0
VERTEX
  8
HB
 10
   -4001.0000
 20
   11031.0000
  0
SEQEND
  0
POLYLINE
  8
HB
 66
     1
 70
     0
  0
VERTEX
  8
HB
 10
   -5635.0000
 20
    6580.0000
  0
VERTEX
  8
HB
 10
   -5635.0000
 20
   10980.0000
  0
SEQEND
  0
POLYLINE
  8
HB
 66
     1
 70
     0
  0
VERTEX
  8
HB
 10
       0.0000
 20
       0.0000
  0
VERTEX
  8
HB
 10
       0.0000
 20
   -3030.0000
  0
SEQEND
  0
POLYLINE
  8
HB
 66
     1
 70
     0
  0
VERTEX
  8
HB
 10
       0.0000
 20
   -3030.0000
  0
VERTEX
  8
HB
 10
       0.0000
 20
   -1241.0000
  0
SEQEND
  0
POLYLINE
  8
HB
 66
     1
 70
     0
  0
VERTEX
  8
HB
 10
       0.0000
 20
   -1241.0000
  0
VERTEX
  8
HB
 10
       0.0000
 20
    2385.0000
  0
SEQEND
  0
POLYLINE
  8
HB
 66
     1
 70
     0
  0
VERTEX
  8
HB
 10
       0.0000
 20
    2385.0000
  0
VERTEX
  8
HB
 10
       0.0000
 20
   16200.0000
  0
SEQEND
  0
POLYLINE
  8
HB
 66
     1
 70
     0
  0
VERTEX
  8
HB
 10
       1.0000
 20
       0.0000
  0
VERTEX
  8
HB
 10
     500.0000
 20
   -3030.0000
  0
SEQEND
  0
POLYLINE
  8
HB
 66
     1
 70
     0
  0
VERTEX
  8
HB
 10
     500.0000
 20
   -3030.0000
  0
VERTEX
  8
HB
 10
     205.0000
 20
   -1241.0000
  0
SEQEND
  0
POLYLINE
  8
HB
 66
     1
 70
     0
  0
VERTEX
  8
HB
 10
     205.0000
 20
   -1241.0000
  0
VERTEX
  8
HB
 10
       1.0000
 20
       0.0000
  0
SEQEND
  0
POLYLINE
  8
HB
 66
     1
 70
     0
  0
VERTEX
  8
HB
 10
       1.0000
 20
       0.0000
  0
VERTEX
  8
HB
 10
      10.0000
 20
    1241.0000
  0
VERTEX
  8
HB
 10
      30.0000
 20
    2385.0000
  0
SEQEND
  0
POLYLINE
  8
HB
 66
     1
 70
     0
  0
VERTEX
  8
HB
 10
      30.0000
 20
    2385.0000
  0
VERTEX
  8
HB
 10
      60.0000
 20
    4000.0000
  0
VERTEX
  8
HB
 10
     110.0000
 20
    6000.0000
  0
VERTEX
  8
HB
 10
     179.0000
 20
    8000.0000
  0
VERTEX
  8
HB
 10
     278.0000
 20
   10000.0000
  0
VERTEX
  8
HB
 10
     404.0000
 20
   12000.0000
  0
VERTEX
  8
HB
 10
     570.0000
 20
   14000.0000
  0
VERTEX
  8
HB
 10
     800.0000
 20
   16200.0000
  0
SEQEND
  0
POLYLINE
  8
HB
 66
     1
 70
     0
  0
VERTEX
  8
HB
 10
   -6890.0000
 20
   10930.0000
  0
VERTEX
  8
HB
 10
   -7167.8999
 20
   10879.0996
  0
VERTEX
  8
HB
 10
   -7426.0000
 20
   10822.7998
  0
VERTEX
  8
HB
 10
   -7664.3999
 20
   10761.0996
  0
VERTEX
  8
HB
 10
   -7883.0000
 20
   10694.0000
  0
VERTEX
  8
HB
 10
   -8077.2998
 20
   10623.9004
  0
VERTEX
  8
HB
 10
   -8255.0000
 20
   10551.5996
  0
VERTEX
  8
HB
 10
   -8418.2002
 20
   10480.2998
  0
VERTEX
  8
HB
 10
   -8569.0000
 20
   10413.0000
  0
VERTEX
  8
HB
 10
   -8840.0996
 20
   10298.7998
  0
VERTEX
  8
HB
 10
   -9078.0000
 20
   10212.0000
  0
VERTEX
  8
HB
 10
   -9289.0000
 20
   10151.5996
  0
VERTEX
  8
HB
 10
   -9476.0000
 20
   10115.0000
  0
VERTEX
  8
HB
 10
   -9580.5000
 20
   10103.2002
  0
VERTEX
  8
HB
 10
   -9629.2998
 20
   10100.2998
  0
VERTEX
  8
HB
 10
   -9675.7998
 20
   10099.4004
  0
SEQEND
  0
POLYLINE
  8
HB
 66
     1
 70
     0
  0
VERTEX
  8
HB
 10
   -9675.7998
 20
   10099.4004
  0
VERTEX
  8
HB
 10
   -9729.2998
 20
   10100.7998
  0
VERTEX
  8
HB
 10
   -9779.0000
 20
   10105.0000
  0
VERTEX
  8
HB
 10
   -9891.5996
 20
   10129.0000
  0
VERTEX
  8
HB
 10
   -9980.0000
 20
   10171.0000
  0
VERTEX
  8
HB
 10
  -10048.0000
 20
   10229.7998
  0
VERTEX
  8
HB
 10
  -10102.0000
 20
   10304.0000
  0
VERTEX
  8
HB
 10
  -10148.0996
 20
   10391.7002
  0
VERTEX
  8
HB
 10
  -10188.0000
 20
   10490.0000
  0
VERTEX
  8
HB
 10
  -10249.0000
 20
   10709.0000
  0
VERTEX
  8
HB
 10
  -10273.5996
 20
   10914.9004
  0
VERTEX
  8
HB
 10
   10275.0000
 20
   10950.0000
  0
SEQEND
  0
POLYLINE
  8
HB
 66
     1
 70
     0
  0
VERTEX
  8
HB
 10
   10275.0000
 20
   10950.0000
  0
VERTEX
  8
HB
 10
   10224.0000
 20
   11248.0000
  0
VERTEX
  8
HB
 10
   10136.0000
 20
   11559.0000
  0
VERTEX
  8
HB
 10
    9980.0000
 20
   11891.0000
  0
VERTEX
  8
HB
 10
    9749.0000
 20
   12260.0000
  0
VERTEX
  8
HB
 10
    9414.0000
 20
   12692.0000
  0
VERTEX
  8
HB
 10
    9195.5000
 20
   12941.0000
  0
VERTEX
  8
HB
 10
    8941.0000
 20
   13217.0000
  0
VERTEX
  8
HB
 10
    8649.5996
 20
   13523.5000
  0
VERTEX
  8
HB
 10
    8319.0000
 20
   13858.0000
  0
VERTEX
  8
HB
 10
    7941.7998
 20
   14216.7998
  0
VERTEX
  8
HB
 10
    7501.0000
 20
   14587.0000
  0
VERTEX
  8
HB
 10
    6973.2002
 20
   14954.0000
  0
VERTEX
  8
HB
 10
    6817.5000
 20
   15046.5996
  0
VERTEX
  8
HB
 10
    6659.0000
 20
   15134.0000
  0
VERTEX
  8
HB
 10
    6497.7998
 20
   15216.2998
  0
VERTEX
  8
HB
 10
    6334.0000
 20
   15293.7002
  0
VERTEX
  8
HB
 10
    6181.1001
 20
   15360.5996
  0
VERTEX
  8
HB
 10
    6026.7002
 20
   15423.2002
  0
VERTEX
  8
HB
 10
    5870.7002
 20
   15481.7002
  0
VERTEX
  8
HB
 10
    5713.2002
 20
   15536.2998
  0
VERTEX
  8
HB
 10
    5554.2998
 20
   15587.0000
  0
VERTEX
  8
HB
 10
    5097.2998
 20
   15711.7998
  0
VERTEX
  8
HB
 10
    4592.0000
 20
   15820.9004
  0
VERTEX
  8
HB
 10
    4025.3000
 20
   15917.2002
  0
VERTEX
  8
HB
 10
    3722.1001
 20
   15960.2002
  0
VERTEX
  8
HB
 10
    3406.0000
 20
   16000.0000
  0
VERTEX
  8
HB
 10
    2722.0000
 20
   16071.9004
  0
VERTEX
  8
HB
 10
    1991.0000
 20
   16131.7002
  0
VERTEX
  8
HB
 10
    1407.2000
 20
   16169.2002
  0
VERTEX
  8
HB
 10
     800.0000
 20
   16200.0000
  0
SEQEND
  0
POLYLINE
  8
HB
 66
     1
 70
     0
  0
VERTEX
  8
HB
 10
       0.0000
 20
    5575.0000
  0
VERTEX
  8
HB
 10
   -2000.0000
 20
    5650.0000
  0
VERTEX
  8
HB
 10
   -2182.2000
 20
    5660.3999
  0
VERTEX
  8
HB
 10
   -2364.3000
 20
    5671.5000
  0
VERTEX
  8
HB
 10
   -2546.3999
 20
    5683.2998
  0
VERTEX
  8
HB
 10
   -2728.3999
 20
    5696.0000
  0
VERTEX
  8
HB
 10
   -2910.3000
 20
    5709.6001
  0
VERTEX
  8
HB
 10
   -3092.2000
 20
    5724.1001
  0
VERTEX
  8
HB
 10
   -3273.8999
 20
    5739.7002
  0
VERTEX
  8
HB
 10
   -3455.6001
 20
    5756.3999
  0
VERTEX
  8
HB
 10
   -3637.2000
 20
    5774.2998
  0
VERTEX
  8
HB
 10
   -3818.6001
 20
    5793.5000
  0
VERTEX
  8
HB
 10
   -4000.0000
 20
    5814.0000
  0
VERTEX
  8
HB
 10
   -4197.6001
 20
    5838.7002
  0
VERTEX
  8
HB
 10
   -4393.7998
 20
    5869.2002
  0
VERTEX
  8
HB
 10
   -4587.7998
 20
    5909.7002
  0
VERTEX
  8
HB
 10
   -4778.5000
 20
    5964.2002
  0
VERTEX
  8
HB
 10
   -4965.0000
 20
    6037.0000
  0
VERTEX
  8
HB
 10
   -5121.7998
 20
    6117.5000
  0
VERTEX
  8
HB
 10
   -5267.1001
 20
    6212.1001
  0
VERTEX
  8
HB
 10
   -5401.1001
 20
    6320.7002
  0
VERTEX
  8
HB
 10
   -5523.7998
 20
    6443.2998
  0
VERTEX
  8
HB
 10
   -5635.0000
 20
    6580.0000
  0
VERTEX
  8
HB
 10
   -5729.7002
 20
    6721.8999
  0
VERTEX
  8
HB
 10
   -5811.3999
 20
    6869.7002
  0
VERTEX
  8
HB
 10
   -5882.2998
 20
    7022.3999
  0
VERTEX
  8
HB
 10
   -5944.6001
 20
    7179.0000
  0
VERTEX
  8
HB
 10
   -6000.5000
 20
    7338.5000
  0
VERTEX
  8
HB
 10
   -6052.0000
 20
    7500.0000
  0
VERTEX
  8
HB
 10
   -6325.0000
 20
    8500.0000
  0
VERTEX
  8
HB
 10
   -6560.0000
 20
    9500.0000
  0
VERTEX
  8
HB
 10
   -6890.0000
 20
   10930.0000
  0
SEQEND
  0
POLYLINE
  8
HB
 66
     1
 70
     0
  0
VERTEX
  8
HB
 10
       0.0000
 20
    4602.0000
  0
VERTEX
  8
HB
 10
    -103.9000
 20
    4602.0000
  0
SEQEND
  0
POLYLINE
  8
HB
 66
     1
 70
     0
  0
VERTEX
  8
HB
 10
    -103.9000
 20
    4602.0000
  0
VERTEX
  8
HB
 10
   -1198.0000
 20
    4799.0000
  0
VERTEX
  8
HB
 10
   -2537.0000
 20
    5000.0000
  0
VERTEX
  8
HB
 10
   -3741.0000
 20
    5193.0000
  0
VERTEX
  8
HB
 10
   -3935.8000
 20
    5228.6001
  0
VERTEX
  8
HB
 10
   -4130.2002
 20
    5266.2998
  0
VERTEX
  8
HB
 10
   -4323.7998
 20
    5307.0000
  0
VERTEX
  8
HB
 10
   -4516.6001
 20
    5351.5000
  0
VERTEX
  8
HB
 10
   -4708.3999
 20
    5400.6001
  0
VERTEX
  8
HB
 10
   -4899.0000
 20
    5455.0000
  0
VERTEX
  8
HB
 10
   -5088.7998
 20
    5515.8999
  0
VERTEX
  8
HB
 10
   -5275.2998
 20
    5584.2002
  0
VERTEX
  8
HB
 10
   -5458.0000
 20
    5661.5000
  0
VERTEX
  8
HB
 10
   -5636.1001
 20
    5749.2002
  0
VERTEX
  8
HB
 10
   -5809.0000
 20
    5849.0000
  0
VERTEX
  8
HB
 10
   -5949.7998
 20
    5943.2998
  0
VERTEX
  8
HB
 10
   -6083.2002
 20
    6045.6001
  0
VERTEX
  8
HB
 10
   -6208.8999
 20
    6156.0000
  0
VERTEX
  8
HB
 10
   -6326.7998
 20
    6274.6001
  0
VERTEX
  8
HB
 10
   -6436.8999
 20
    6401.6001
  0
VERTEX
  8
HB
 10
   -6539.0000
 20
    6537.0000
  0
VERTEX
  8
HB
 10
   -6637.1001
 20
    6687.5000
  0
VERTEX
  8
HB
 10
   -6724.7002
 20
    6843.0000
  0
VERTEX
  8
HB
 10
   -6803.3999
 20
    7002.7998
  0
VERTEX
  8
HB
 10
   -6874.5000
 20
    7166.2002
  0
VERTEX
  8
HB
 10
   -6939.6001
 20
    7332.5000
  0
VERTEX
  8
HB
 10
   -7000.0000
 20
    7501.0000
  0
VERTEX
  8
HB
 10
   -7296.0000
 20
    8479.0000
  0
VERTEX
  8
HB
 10
   -7573.0000
 20
    9493.0000
  0
VERTEX
  8
HB
 10
   -7883.0000
 20
   10694.0000
  0
SEQEND
  0
POLYLINE
  8
HB
 66
     1
 70
     0
  0
VERTEX
  8
HB
 10
       0.0000
 20
    3327.0000
  0
VERTEX
  8
HB
 10
    -384.6000
 20
    3327.0000
  0
SEQEND
  0
POLYLINE
  8
HB
 66
     1
 70
     0
  0
VERTEX
  8
HB
 10
    -384.6000
 20
    3327.0000
  0
VERTEX
  8
HB
 10
   -1213.0000
 20
    3590.0000
  0
VERTEX
  8
HB
 10
   -2794.0000
 20
    4025.0000
  0
VERTEX
  8
HB
 10
   -2985.8999
 20
    4078.8999
  0
VERTEX
  8
HB
 10
   -3177.5000
 20
    4134.0000
  0
VERTEX
  8
HB
 10
   -3368.7000
 20
    4190.2998
  0
VERTEX
  8
HB
 10
   -3559.5000
 20
    4247.7002
  0
VERTEX
  8
HB
 10
   -3750.0000
 20
    4306.2998
  0
VERTEX
  8
HB
 10
   -3940.0000
 20
    4366.2998
  0
VERTEX
  8
HB
 10
   -4129.7002
 20
    4427.5000
  0
VERTEX
  8
HB
 10
   -4319.0000
 20
    4490.0000
  0
VERTEX
  8
HB
 10
   -4488.3999
 20
    4547.2998
  0
VERTEX
  8
HB
 10
   -4657.2998
 20
    4606.0000
  0
VERTEX
  8
HB
 10
   -4825.6001
 20
    4666.2998
  0
VERTEX
  8
HB
 10
   -4993.1001
 20
    4728.7002
  0
VERTEX
  8
HB
 10
   -5159.7002
 20
    4793.2998
  0
VERTEX
  8
HB
 10
   -5325.2998
 20
    4860.5000
  0
VERTEX
  8
HB
 10
   -5489.7002
 20
    4930.7002
  0
VERTEX
  8
HB
 10
   -5653.0000
 20
    5004.0000
  0
VERTEX
  8
HB
 10
   -5829.2002
 20
    5088.0000
  0
VERTEX
  8
HB
 10
   -6002.6001
 20
    5176.8999
  0
VERTEX
  8
HB
 10
   -6172.3999
 20
    5271.6001
  0
VERTEX
  8
HB
 10
   -6338.2002
 20
    5373.2002
  0
VERTEX
  8
HB
 10
   -6499.2002
 20
    5482.7002
  0
VERTEX
  8
HB
 10
   -6655.0000
 20
    5601.0000
  0
VERTEX
  8
HB
 10
   -6784.0000
 20
    5710.2998
  0
VERTEX
  8
HB
 10
   -6906.5000
 20
    5825.6001
  0
VERTEX
  8
HB
 10
   -7022.2002
 20
    5946.7998
  0
VERTEX
  8
HB
 10
   -7131.2002
 20
    6074.2002
  0
VERTEX
  8
HB
 10
   -7233.2002
 20
    6207.8999
  0
VERTEX
  8
HB
 10
   -7328.0000
 20
    6348.0000
  0
VERTEX
  8
HB
 10
   -7429.3999
 20
    6519.2998
  0
VERTEX
  8
HB
 10
   -7519.8999
 20
    6695.2998
  0
VERTEX
  8
HB
 10
   -7601.1001
 20
    6875.5000
  0
VERTEX
  8
HB
 10
   -7674.2998
 20
    7059.0000
  0
VERTEX
  8
HB
 10
   -7741.1001
 20
    7245.5000
  0
VERTEX
  8
HB
 10
   -7803.0000
 20
    7434.0000
  0
VERTEX
  8
HB
 10
   -8078.0000
 20
    8421.0000
  0
VERTEX
  8
HB
 10
   -8290.0000
 20
    9268.0000
  0
VERTEX
  8
HB
 10
   -8569.0000
 20
   10413.0000
  0
SEQEND
  0
POLYLINE
  8
HB
 66
     1
 70
     0
  0
VERTEX
  8
HB
 10
       0.0000
 20
       0.0000
  0
VERTEX
  8
HB
 10
    -140.0000
 20
       0.0000
  0
VERTEX
  8
HB
 10
    -199.1000
 20
     173.9000
  0
VERTEX
  8
HB
 10
    -248.8000
 20
     350.2000
  0
VERTEX
  8
HB
 10
    -289.1000
 20
     528.9000
  0
SEQEND
  0
POLYLINE
  8
HB
 66
     1
 70
     0
  0
VERTEX
  8
HB
 10
    -140.0000
 20
       0.0000
  0
VERTEX
  8
HB
 10
    -199.1000
 20
     173.9000
  0
VERTEX
  8
HB
 10
    -248.8000
 20
     350.2000
  0
VERTEX
  8
HB
 10
    -289.1000
 20
     528.9000
  0
VERTEX
  8
HB
 10
    -320.0000
 20
     710.0000
  0
VERTEX
  8
HB
 10
    -340.6000
 20
     883.2000
  0
VERTEX
  8
HB
 10
    -352.4000
 20
    1056.7000
  0
VERTEX
  8
HB
 10
    -355.6000
 20
    1230.7000
  0
VERTEX
  8
HB
 10
    -350.0000
 20
    1405.0000
  0
SEQEND
  0
POLYLINE
  8
HB
 66
     1
 70
     0
  0
VERTEX
  8
HB
 10
    -350.0000
 20
    1405.0000
  0
VERTEX
  8
HB
 10
    -434.6000
 20
    1409.6000
  0
SEQEND
  0
POLYLINE
  8
HB
 66
     1
 70
     0
  0
VERTEX
  8
HB
 10
    -434.6000
 20
    1409.6000
  0
VERTEX
  8
HB
 10
   -1127.0000
 20
    1904.0000
  0
VERTEX
  8
HB
 10
   -1274.4000
 20
    1999.6000
  0
VERTEX
  8
HB
 10
   -1423.2000
 20
    2092.8999
  0
VERTEX
  8
HB
 10
   -1573.1000
 20
    2184.2000
  0
VERTEX
  8
HB
 10
   -1724.3000
 20
    2273.3999
  0
VERTEX
  8
HB
 10
   -1876.5000
 20
    2360.8000
  0
VERTEX
  8
HB
 10
   -2029.7000
 20
    2446.5000
  0
VERTEX
  8
HB
 10
   -2183.8999
 20
    2530.5000
  0
VERTEX
  8
HB
 10
   -2339.0000
 20
    2613.0000
  0
VERTEX
  8
HB
 10
   -3594.0000
 20
    3232.0000
  0
VERTEX
  8
HB
 10
   -4637.0000
 20
    3724.0000
  0
VERTEX
  8
HB
 10
   -5683.0000
 20
    4235.0000
  0
VERTEX
  8
HB
 10
   -5845.2998
 20
    4320.8999
  0
VERTEX
  8
HB
 10
   -6006.2998
 20
    4409.1001
  0
VERTEX
  8
HB
 10
   -6165.5000
 20
    4500.0000
  0
VERTEX
  8
HB
 10
   -6322.7998
 20
    4594.2998
  0
VERTEX
  8
HB
 10
   -6477.7998
 20
    4692.2002
  0
VERTEX
  8
HB
 10
   -6630.2998
 20
    4794.2998
  0
VERTEX
  8
HB
 10
   -6780.0000
 20
    4901.0000
  0
VERTEX
  8
HB
 10
   -6929.5000
 20
    5015.2002
  0
VERTEX
  8
HB
 10
   -7074.2998
 20
    5134.3999
  0
VERTEX
  8
HB
 10
   -7213.7998
 20
    5259.2002
  0
VERTEX
  8
HB
 10
   -7347.5000
 20
    5390.1001
  0
VERTEX
  8
HB
 10
   -7475.1001
 20
    5527.5000
  0
VERTEX
  8
HB
 10
   -7596.0000
 20
    5672.0000
  0
VERTEX
  8
HB
 10
   -7714.2002
 20
    5830.1001
  0
VERTEX
  8
HB
 10
   -7823.0000
 20
    5993.6001
  0
VERTEX
  8
HB
 10
   -7923.0000
 20
    6162.0000
  0
VERTEX
  8
HB
 10
   -8014.7998
 20
    6335.1001
  0
VERTEX
  8
HB
 10
   -8098.8999
 20
    6512.6001
  0
VERTEX
  8
HB
 10
   -8176.0000
 20
    6694.0000
  0
VERTEX
  8
HB
 10
   -8239.2998
 20
    6858.7998
  0
VERTEX
  8
HB
 10
   -8297.5996
 20
    7025.2002
  0
VERTEX
  8
HB
 10
   -8351.5996
 20
    7192.8999
  0
VERTEX
  8
HB
 10
   -8402.0996
 20
    7361.7002
  0
VERTEX
  8
HB
 10
   -8449.7002
 20
    7531.5000
  0
VERTEX
  8
HB
 10
   -8495.0000
 20
    7702.0000
  0
VERTEX
  8
HB
 10
   -8772.0000
 20
    8864.0000
  0
VERTEX
  8
HB
 10
   -9078.0000
 20
   10212.0000
  0
SEQEND
  0
POLYLINE
  8
HB
 66
     1
 70
     0
  0
VERTEX
  8
HB
 10
       0.0000
 20
       0.0000
  0
VERTEX
  8
HB
 10
    -350.0000
 20
       0.0000
  0
SEQEND
  0
POLYLINE
  8
HB
 66
     1
 70
     0
  0
VERTEX
  8
HB
 10
    -350.0000
 20
       0.0000
  0
VERTEX
  8
HB
 10
    -350.0000
 20
     255.0000
  0
SEQEND
  0
POLYLINE
  8
HB
 66
     1
 70
     0
  0
VERTEX
  8
HB
 10
    -350.0000
 20
     255.0000
  0
VERTEX
  8
HB
 10
   -1438.0000
 20
     973.0000
  0
VERTEX
  8
HB
 10
   -2522.0000
 20
    1634.0000
  0
VERTEX
  8
HB
 10
   -3658.0000
 20
    2291.0000
  0
VERTEX
  8
HB
 10
   -4828.0000
 20
    2935.0000
  0
VERTEX
  8
HB
 10
   -4998.0000
 20
    3026.8999
  0
VERTEX
  8
HB
 10
   -5167.7998
 20
    3119.0000
  0
VERTEX
  8
HB
 10
   -5337.2002
 20
    3211.8999
  0
VERTEX
  8
HB
 10
   -5505.8999
 20
    3306.1001
  0
VERTEX
  8
HB
 10
   -5673.7002
 20
    3402.0000
  0
VERTEX
  8
HB
 10
   -5840.1001
 20
    3500.1001
  0
VERTEX
  8
HB
 10
   -6005.0000
 20
    3601.0000
  0
VERTEX
  8
HB
 10
   -6158.8999
 20
    3699.1001
  0
VERTEX
  8
HB
 10
   -6310.7002
 20
    3800.0000
  0
VERTEX
  8
HB
 10
   -6460.2002
 20
    3903.8999
  0
VERTEX
  8
HB
 10
   -6607.3999
 20
    4010.8999
  0
VERTEX
  8
HB
 10
   -6752.1001
 20
    4121.2998
  0
VERTEX
  8
HB
 10
   -6894.2002
 20
    4235.2002
  0
VERTEX
  8
HB
 10
   -7033.5000
 20
    4352.7002
  0
VERTEX
  8
HB
 10
   -7170.0000
 20
    4474.0000
  0
VERTEX
  8
HB
 10
   -7314.6001
 20
    4610.1001
  0
VERTEX
  8
HB
 10
   -7454.7002
 20
    4750.2998
  0
VERTEX
  8
HB
 10
   -7589.8999
 20
    4895.0000
  0
VERTEX
  8
HB
 10
   -7720.0000
 20
    5044.1001
  0
VERTEX
  8
HB
 10
   -7844.7998
 20
    5198.1001
  0
VERTEX
  8
HB
 10
   -7964.0000
 20
    5357.0000
  0
VERTEX
  8
HB
 10
   -8065.1001
 20
    5502.5000
  0
VERTEX
  8
HB
 10
   -8160.8999
 20
    5651.0000
  0
VERTEX
  8
HB
 10
   -8251.2998
 20
    5802.5000
  0
VERTEX
  8
HB
 10
   -8336.5000
 20
    5956.7998
  0
VERTEX
  8
HB
 10
   -8416.4004
 20
    6114.0000
  0
VERTEX
  8
HB
 10
   -8491.2998
 20
    6274.1001
  0
VERTEX
  8
HB
 10
   -8561.0000
 20
    6437.0000
  0
VERTEX
  8
HB
 10
   -8631.4004
 20
    6617.7002
  0
VERTEX
  8
HB
 10
   -8696.0000
 20
    6800.2998
  0
VERTEX
  8
HB
 10
   -8755.5996
 20
    6984.5000
  0
VERTEX
  8
HB
 10
   -8810.9004
 20
    7170.0000
  0
VERTEX
  8
HB
 10
   -8862.7998
 20
    7356.5000
  0
VERTEX
  8
HB
 10
   -8912.0000
 20
    7544.0000
  0
VERTEX
  8
HB
 10
   -9181.0000
 20
    8706.0000
  0
VERTEX
  8
HB
 10
   -9476.0000
 20
   10115.0000
  0
SEQEND
  0
POLYLINE
  8
HB
 66
     1
 70
     0
  0
VERTEX
  8
HB
 10
       0.0000
 20
       0.0000
  0
VERTEX
  8
HB
 10
    -350.0000
 20
       0.0000
  0
SEQEND
  0
POLYLINE
  8
HB
 66
     1
 70
     0
  0
VERTEX
  8
HB
 10
    -350.0000
 20
       0.0000
  0
VERTEX
  8
HB
 10
    -350.0000
 20
     130.0000
  0
SEQEND
  0
POLYLINE
  8
HB
 66
     1
 70
     0
  0
VERTEX
  8
HB
 10
    -350.0000
 20
     130.0000
  0
VERTEX
  8
HB
 10
   -1553.0000
 20
     571.0000
  0
VERTEX
  8
HB
 10
   -1719.8000
 20
     636.6000
  0
VERTEX
  8
HB
 10
   -1886.2000
 20
     703.2000
  0
VERTEX
  8
HB
 10
   -2052.3000
 20
     770.8000
  0
VERTEX
  8
HB
 10
   -2217.8999
 20
     839.3000
  0
VERTEX
  8
HB
 10
   -2383.1001
 20
     908.7000
  0
VERTEX
  8
HB
 10
   -2547.8999
 20
     979.1000
  0
VERTEX
  8
HB
 10
   -2712.3999
 20
    1050.4000
  0
VERTEX
  8
HB
 10
   -2876.3999
 20
    1122.7000
  0
VERTEX
  8
HB
 10
   -3040.0000
 20
    1196.0000
  0
VERTEX
  8
HB
 10
   -4397.0000
 20
    1850.0000
  0
VERTEX
  8
HB
 10
   -4554.1001
 20
    1931.5000
  0
VERTEX
  8
HB
 10
   -4710.6001
 20
    2014.2000
  0
VERTEX
  8
HB
 10
   -4866.5000
 20
    2098.0000
  0
VERTEX
  8
HB
 10
   -5021.6001
 20
    2183.0000
  0
VERTEX
  8
HB
 10
   -5176.0000
 20
    2269.5000
  0
VERTEX
  8
HB
 10
   -5329.5000
 20
    2357.3999
  0
VERTEX
  8
HB
 10
   -5482.2002
 20
    2446.8999
  0
VERTEX
  8
HB
 10
   -5634.0000
 20
    2538.0000
  0
VERTEX
  8
HB
 10
   -5792.6001
 20
    2635.8000
  0
VERTEX
  8
HB
 10
   -5949.7998
 20
    2735.6001
  0
VERTEX
  8
HB
 10
   -6105.3999
 20
    2837.8000
  0
VERTEX
  8
HB
 10
   -6259.2998
 20
    2942.3999
  0
VERTEX
  8
HB
 10
   -6411.2998
 20
    3049.8999
  0
VERTEX
  8
HB
 10
   -6561.2998
 20
    3160.3000
  0
VERTEX
  8
HB
 10
   -6709.0000
 20
    3274.0000
  0
VERTEX
  8
HB
 10
   -6852.8999
 20
    3390.0000
  0
VERTEX
  8
HB
 10
   -6993.8999
 20
    3509.2000
  0
VERTEX
  8
HB
 10
   -7131.7998
 20
    3631.6001
  0
VERTEX
  8
HB
 10
   -7266.5000
 20
    3757.5000
  0
VERTEX
  8
HB
 10
   -7397.7998
 20
    3886.8999
  0
VERTEX
  8
HB
 10
   -7525.7002
 20
    4020.0000
  0
VERTEX
  8
HB
 10
   -7650.0000
 20
    4157.0000
  0
VERTEX
  8
HB
 10
   -7779.6001
 20
    4308.7998
  0
VERTEX
  8
HB
 10
   -7904.1001
 20
    4464.2998
  0
VERTEX
  8
HB
 10
   -8023.3999
 20
    4623.6001
  0
VERTEX
  8
HB
 10
   -8137.5000
 20
    4786.6001
  0
VERTEX
  8
HB
 10
   -8246.4004
 20
    4953.3999
  0
VERTEX
  8
HB
 10
   -8350.0000
 20
    5124.0000
  0
VERTEX
  8
HB
 10
   -8444.5000
 20
    5291.2002
  0
VERTEX
  8
HB
 10
   -8533.7998
 20
    5461.0000
  0
VERTEX
  8
HB
 10
   -8618.0000
 20
    5633.1001
  0
VERTEX
  8
HB
 10
   -8697.2998
 20
    5807.5000
  0
VERTEX
  8
HB
 10
   -8771.9004
 20
    5984.2002
  0
VERTEX
  8
HB
 10
   -8842.0000
 20
    6163.0000
  0
VERTEX
  8
HB
 10
   -8909.0000
 20
    6347.2002
  0
VERTEX
  8
HB
 10
   -8971.5996
 20
    6532.6001
  0
VERTEX
  8
HB
 10
   -9030.2002
 20
    6719.2002
  0
VERTEX
  8
HB
 10
   -9085.4004
 20
    6906.8999
  0
VERTEX
  8
HB
 10
   -9137.5000
 20
    7095.5000
  0
VERTEX
  8
HB
 10
   -9186.9004
 20
    7284.8999
  0
VERTEX
  8
HB
 10
   -9234.0000
 20
    7475.0000
  0
VERTEX
  8
HB
 10
   -9487.0000
 20
    8626.0000
  0
VERTEX
  8
HB
 10
   -9779.0000
 20
   10105.0000
  0
SEQEND
  0
POLYLINE
  8
HB
 66
     1
 70
     0
  0
VERTEX
  8
HB
 10
       0.0000
 20
       0.0000
  0
VERTEX
  8
HB
 10
    -180.5000
 20
      36.5000
  0
VERTEX
  8
HB
 10
    -360.8000
 20
      74.1000
  0
VERTEX
  8
HB
 10
    -540.8000
 20
     112.8000
  0
VERTEX
  8
HB
 10
    -720.6000
 20
     152.5000
  0
VERTEX
  8
HB
 10
    -900.2000
 20
     193.3000
  0
VERTEX
  8
HB
 10
   -1079.5000
 20
     235.2000
  0
VERTEX
  8
HB
 10
   -1258.6000
 20
     278.1000
  0
VERTEX
  8
HB
 10
   -1437.4000
 20
     322.0000
  0
VERTEX
  8
HB
 10
   -1616.0000
 20
     367.0000
  0
VERTEX
  8
HB
 10
   -3000.0000
 20
     755.0000
  0
VERTEX
  8
HB
 10
   -4119.0000
 20
    1133.0000
  0
VERTEX
  8
HB
 10
   -4301.5000
 20
    1202.6000
  0
VERTEX
  8
HB
 10
   -4483.0000
 20
    1274.5000
  0
VERTEX
  8
HB
 10
   -4663.5000
 20
    1348.8000
  0
VERTEX
  8
HB
 10
   -4843.0000
 20
    1425.4000
  0
VERTEX
  8
HB
 10
   -5021.5000
 20
    1504.5000
  0
VERTEX
  8
HB
 10
   -5199.0000
 20
    1586.0000
  0
VERTEX
  8
HB
 10
   -5372.1001
 20
    1668.5000
  0
VERTEX
  8
HB
 10
   -5543.7998
 20
    1753.8000
  0
VERTEX
  8
HB
 10
   -5713.7998
 20
    1842.1000
  0
VERTEX
  8
HB
 10
   -5881.8999
 20
    1933.8000
  0
VERTEX
  8
HB
 10
   -6048.1001
 20
    2029.3000
  0
VERTEX
  8
HB
 10
   -6212.0000
 20
    2129.0000
  0
VERTEX
  8
HB
 10
   -6359.2002
 20
    2223.7000
  0
VERTEX
  8
HB
 10
   -6503.7002
 20
    2321.8000
  0
VERTEX
  8
HB
 10
   -6645.5000
 20
    2423.5000
  0
VERTEX
  8
HB
 10
   -6784.6001
 20
    2528.8000
  0
VERTEX
  8
HB
 10
   -6921.0000
 20
    2637.7000
  0
VERTEX
  8
HB
 10
   -7054.3999
 20
    2750.5000
  0
VERTEX
  8
HB
 10
   -7185.0000
 20
    2867.0000
  0
VERTEX
  8
HB
 10
   -7316.5000
 20
    2991.2000
  0
VERTEX
  8
HB
 10
   -7444.1001
 20
    3118.8000
  0
VERTEX
  8
HB
 10
   -7567.8999
 20
    3249.8000
  0
VERTEX
  8
HB
 10
   -7687.8999
 20
    3384.3000
  0
VERTEX
  8
HB
 10
   -7804.0000
 20
    3522.2000
  0
VERTEX
  8
HB
 10
   -7916.3999
 20
    3663.3999
  0
VERTEX
  8
HB
 10
   -8025.0000
 20
    3808.0000
  0
VERTEX
  8
HB
 10
   -8136.8999
 20
    3966.2000
  0
VERTEX
  8
HB
 10
   -8243.9004
 20
    4127.3999
  0
VERTEX
  8
HB
 10
   -8346.0996
 20
    4291.5000
  0
VERTEX
  8
HB
 10
   -8443.5000
 20
    4458.5000
  0
VERTEX
  8
HB
 10
   -8536.0996
 20
    4628.2998
  0
VERTEX
  8
HB
 10
   -8624.0000
 20
    4801.0000
  0
VERTEX
  8
HB
 10
   -8709.0000
 20
    4980.2002
  0
VERTEX
  8
HB
 10
   -8788.9004
 20
    5161.5000
  0
VERTEX
  8
HB
 10
   -8863.9004
 20
    5344.7002
  0
VERTEX
  8
HB
 10
   -8934.2002
 20
    5529.8999
  0
VERTEX
  8
HB
 10
   -9000.0000
 20
    5717.0000
  0
VERTEX
  8
HB
 10
   -9055.4004
 20
    5886.2998
  0
VERTEX
  8
HB
 10
   -9107.5000
 20
    6056.5000
  0
VERTEX
  8
HB
 10
   -9156.5996
 20
    6227.5000
  0
VERTEX
  8
HB
 10
   -9203.0996
 20
    6399.2998
  0
VERTEX
  8
HB
 10
   -9247.2998
 20
    6571.7002
  0
VERTEX
  8
HB
 10
   -9289.5000
 20
    6744.6001
  0
VERTEX
  8
HB
 10
   -9330.0000
 20
    6918.0000
  0
VERTEX
  8
HB
 10
   -9559.0000
 20
    8000.0000
  0
VERTEX
  8
HB
 10
   -9766.0000
 20
    9041.0000
  0
VERTEX
  8
HB
 10
   -9980.0000
 20
   10171.0000
  0
SEQEND
  0
POLYLINE
  8
HB
 66
     1
 70
     0
  0
VERTEX
  8
HB
 10
       0.0000
 20
       0.0000
  0
VERTEX
  8
HB
 10
    -189.0000
 20
      19.4000
  0
VERTEX
  8
HB
 10
    -377.8000
 20
      40.3000
  0
VERTEX
  8
HB
 10
    -566.4000
 20
      62.5000
  0
VERTEX
  8
HB
 10
    -754.9000
 20
      86.1000
  0
VERTEX
  8
HB
 10
    -943.2000
 20
     111.0000
  0
VERTEX
  8
HB
 10
   -1131.3000
 20
     137.3000
  0
VERTEX
  8
HB
 10
   -1319.2000
 20
     165.0000
  0
VERTEX
  8
HB
 10
   -1507.0000
 20
     194.0000
  0
VERTEX
  8
HB
 10
   -1694.6000
 20
     224.3000
  0
VERTEX
  8
HB
 10
   -1881.9000
 20
     256.0000
  0
VERTEX
  8
HB
 10
   -2068.8999
 20
     289.1000
  0
VERTEX
  8
HB
 10
   -2255.7000
 20
     323.5000
  0
VERTEX
  8
HB
 10
   -2442.2000
 20
     359.4000
  0
VERTEX
  8
HB
 10
   -2628.3999
 20
     396.8000
  0
VERTEX
  8
HB
 10
   -2814.3000
 20
     435.6000
  0
VERTEX
  8
HB
 10
   -3000.0000
 20
     476.0000
  0
VERTEX
  8
HB
 10
   -3184.3999
 20
     517.7000
  0
VERTEX
  8
HB
 10
   -3368.3000
 20
     561.0000
  0
VERTEX
  8
HB
 10
   -3551.8000
 20
     606.1000
  0
VERTEX
  8
HB
 10
   -3734.8999
 20
     652.9000
  0
VERTEX
  8
HB
 10
   -3917.3999
 20
     701.6000
  0
VERTEX
  8
HB
 10
   -4099.5000
 20
     752.3000
  0
VERTEX
  8
HB
 10
   -4281.0000
 20
     805.0000
  0
VERTEX
  8
HB
 10
   -4449.1001
 20
     855.9000
  0
VERTEX
  8
HB
 10
   -4616.3999
 20
     908.7000
  0
VERTEX
  8
HB
 10
   -4783.1001
 20
     963.6000
  0
VERTEX
  8
HB
 10
   -4949.0000
 20
    1020.7000
  0
VERTEX
  8
HB
 10
   -5114.1001
 20
    1080.0000
  0
VERTEX
  8
HB
 10
   -5278.2998
 20
    1141.8000
  0
VERTEX
  8
HB
 10
   -5441.6001
 20
    1206.1000
  0
VERTEX
  8
HB
 10
   -5604.0000
 20
    1273.0000
  0
VERTEX
  8
HB
 10
   -5771.2998
 20
    1345.4000
  0
VERTEX
  8
HB
 10
   -5937.0000
 20
    1421.0000
  0
VERTEX
  8
HB
 10
   -6100.7002
 20
    1500.1000
  0
VERTEX
  8
HB
 10
   -6262.2002
 20
    1583.3000
  0
VERTEX
  8
HB
 10
   -6421.5000
 20
    1670.7000
  0
VERTEX
  8
HB
 10
   -6578.1001
 20
    1762.9000
  0
VERTEX
  8
HB
 10
   -6732.1001
 20
    1860.2000
  0
VERTEX
  8
HB
 10
   -6883.0000
 20
    1963.0000
  0
VERTEX
  8
HB
 10
   -7037.1001
 20
    2076.5000
  0
VERTEX
  8
HB
 10
   -7186.2998
 20
    2195.3999
  0
VERTEX
  8
HB
 10
   -7330.7002
 20
    2319.7000
  0
VERTEX
  8
HB
 10
   -7470.2998
 20
    2449.3999
  0
VERTEX
  8
HB
 10
   -7605.0000
 20
    2584.5000
  0
VERTEX
  8
HB
 10
   -7735.0000
 20
    2725.0000
  0
VERTEX
  8
HB
 10
   -7857.0000
 20
    2866.8999
  0
VERTEX
  8
HB
 10
   -7973.7002
 20
    3012.7000
  0
VERTEX
  8
HB
 10
   -8085.3999
 20
    3162.1001
  0
VERTEX
  8
HB
 10
   -8192.2002
 20
    3315.1001
  0
VERTEX
  8
HB
 10
   -8294.2998
 20
    3471.3999
  0
VERTEX
  8
HB
 10
   -8392.0000
 20
    3631.0000
  0
VERTEX
  8
HB
 10
   -8482.9004
 20
    3789.1001
  0
VERTEX
  8
HB
 10
   -8569.5000
 20
    3949.2000
  0
VERTEX
  8
HB
 10
   -8651.7002
 20
    4111.3999
  0
VERTEX
  8
HB
 10
   -8729.7002
 20
    4275.6001
  0
VERTEX
  8
HB
 10
   -8803.5000
 20
    4441.7998
  0
VERTEX
  8
HB
 10
   -8873.2998
 20
    4610.0000
  0
VERTEX
  8
HB
 10
   -8939.0000
 20
    4780.0000
  0
VERTEX
  8
HB
 10
   -9003.9004
 20
    4960.7998
  0
VERTEX
  8
HB
 10
   -9064.4004
 20
    5142.7998
  0
VERTEX
  8
HB
 10
   -9121.0000
 20
    5326.0000
  0
VERTEX
  8
HB
 10
   -9173.9004
 20
    5510.3999
  0
VERTEX
  8
HB
 10
   -9223.5000
 20
    5695.7002
  0
VERTEX
  8
HB
 10
   -9270.0000
 20
    5882.0000
  0
VERTEX
  8
HB
 10
   -9526.0000
 20
    7125.0000
  0
VERTEX
  8
HB
 10
   -9781.0000
 20
    8521.0000
  0
VERTEX
  8
HB
 10
  -10102.0000
 20
   10304.0000
  0
SEQEND
  0
POLYLINE
  8
HB
 66
     1
 70
     0
  0
VERTEX
  8
HB
 10
       0.0000
 20
       0.0000
  0
VERTEX
  8
HB
 10
    -180.2000
 20
       9.0000
  0
VERTEX
  8
HB
 10
    -360.2000
 20
      19.3000
  0
VERTEX
  8
HB
 10
    -540.2000
 20
      30.9000
  0
VERTEX
  8
HB
 10
    -720.1000
 20
      43.7000
  0
VERTEX
  8
HB
 10
    -899.8000
 20
      57.7000
  0
VERTEX
  8
HB
 10
   -1079.5000
 20
      73.0000
  0
VERTEX
  8
HB
 10
   -1259.1000
 20
      89.5000
  0
VERTEX
  8
HB
 10
   -1438.6000
 20
     107.1000
  0
VERTEX
  8
HB
 10
   -1618.0000
 20
     126.0000
  0
VERTEX
  8
HB
 10
   -2884.0000
 20
     296.0000
  0
VERTEX
  8
HB
 10
   -3055.8000
 20
     324.6000
  0
VERTEX
  8
HB
 10
   -3227.3000
 20
     354.7000
  0
VERTEX
  8
HB
 10
   -3398.5000
 20
     386.4000
  0
VERTEX
  8
HB
 10
   -3569.3999
 20
     419.7000
  0
VERTEX
  8
HB
 10
   -3740.0000
 20
     454.6000
  0
VERTEX
  8
HB
 10
   -3910.2000
 20
     491.4000
  0
VERTEX
  8
HB
 10
   -4080.0000
 20
     530.0000
  0
VERTEX
  8
HB
 10
   -4254.2002
 20
     571.7000
  0
VERTEX
  8
HB
 10
   -4427.7998
 20
     615.4000
  0
VERTEX
  8
HB
 10
   -4600.7998
 20
     661.3000
  0
VERTEX
  8
HB
 10
   -4773.2998
 20
     709.2000
  0
VERTEX
  8
HB
 10
   -4945.1001
 20
     759.3000
  0
VERTEX
  8
HB
 10
   -5116.3999
 20
     811.5000
  0
VERTEX
  8
HB
 10
   -5287.0000
 20
     866.0000
  0
VERTEX
  8
HB
 10
   -5465.8999
 20
     925.8000
  0
VERTEX
  8
HB
 10
   -5643.6001
 20
     988.4000
  0
VERTEX
  8
HB
 10
   -5820.0000
 20
    1054.3000
  0
VERTEX
  8
HB
 10
   -5994.8999
 20
    1123.9000
  0
VERTEX
  8
HB
 10
   -6168.2002
 20
    1197.6000
  0
VERTEX
  8
HB
 10
   -6339.6001
 20
    1275.8000
  0
VERTEX
  8
HB
 10
   -6509.0000
 20
    1359.0000
  0
VERTEX
  8
HB
 10
   -6669.3999
 20
    1443.9000
  0
VERTEX
  8
HB
 10
   -6826.5000
 20
    1533.5000
  0
VERTEX
  8
HB
 10
   -6980.2002
 20
    1628.3000
  0
VERTEX
  8
HB
 10
   -7130.2002
 20
    1728.5000
  0
VERTEX
  8
HB
 10
   -7276.2998
 20
    1834.5000
  0
VERTEX
  8
HB
 10
   -7418.2998
 20
    1946.5000
  0
VERTEX
  8
HB
 10
   -7556.0000
 20
    2065.0000
  0
VERTEX
  8
HB
 10
   -7695.8999
 20
    2196.6001
  0
VERTEX
  8
HB
 10
   -7829.0000
 20
    2333.8000
  0
VERTEX
  8
HB
 10
   -7955.6001
 20
    2476.3000
  0
VERTEX
  8
HB
 10
   -8076.1001
 20
    2623.8999
  0
VERTEX
  8
HB
 10
   -8190.6001
 20
    2776.3999
  0
VERTEX
  8
HB
 10
   -8299.5000
 20
    2933.5000
  0
VERTEX
  8
HB
 10
   -8403.0000
 20
    3095.0000
  0
VERTEX
  8
HB
 10
   -8493.2002
 20
    3246.5000
  0
VERTEX
  8
HB
 10
   -8578.5996
 20
    3400.3000
  0
VERTEX
  8
HB
 10
   -8659.4004
 20
    3556.3999
  0
VERTEX
  8
HB
 10
   -8735.9004
 20
    3714.6001
  0
VERTEX
  8
HB
 10
   -8808.2002
 20
    3874.8000
  0
VERTEX
  8
HB
 10
   -8876.5000
 20
    4037.0000
  0
VERTEX
  8
HB
 10
   -8941.0000
 20
    4201.0000
  0
VERTEX
  8
HB
 10
   -9005.0996
 20
    4375.6001
  0
VERTEX
  8
HB
 10
   -9065.2002
 20
    4551.3999
  0
VERTEX
  8
HB
 10
   -9121.5000
 20
    4728.2998
  0
VERTEX
  8
HB
 10
   -9174.2002
 20
    4906.2998
  0
VERTEX
  8
HB
 10
   -9223.5996
 20
    5085.2002
  0
VERTEX
  8
HB
 10
   -9269.7998
 20
    5265.2002
  0
VERTEX
  8
HB
 10
   -9313.0000
 20
    5446.0000
  0
VERTEX
  8
HB
 10
   -9562.0000
 20
    6748.0000
  0
VERTEX
  8
HB
 10
   -9778.0000
 20
    8042.0000
  0
VERTEX
  8
HB
 10
   -9973.0000
 20
    9210.0000
  0
VERTEX
  8
HB
 10
  -10188.0000
 20
   10490.0000
  0
SEQEND
  0
POLYLINE
  8
HB
 66
     1
 70
     0
  0
VERTEX
  8
HB
 10
       0.0000
 20
       0.0000
  0
VERTEX
  8
HB
 10
    -191.8000
 20
       4.4000
  0
VERTEX
  8
HB
 10
    -383.5000
 20
      10.3000
  0
VERTEX
  8
HB
 10
    -575.1000
 20
      17.6000
  0
VERTEX
  8
HB
 10
    -766.6000
 20
      26.4000
  0
VERTEX
  8
HB
 10
    -958.0000
 20
      36.7000
  0
VERTEX
  8
HB
 10
   -1149.4000
 20
      48.4000
  0
VERTEX
  8
HB
 10
   -1340.6000
 20
      61.5000
  0
VERTEX
  8
HB
 10
   -1531.8000
 20
      75.9000
  0
VERTEX
  8
HB
 10
   -1723.0000
 20
      91.8000
  0
VERTEX
  8
HB
 10
   -1914.0000
 20
     109.0000
  0
VERTEX
  8
HB
 10
   -2112.8999
 20
     128.4000
  0
VERTEX
  8
HB
 10
   -2311.6001
 20
     149.3000
  0
VERTEX
  8
HB
 10
   -2510.1001
 20
     171.8000
  0
VERTEX
  8
HB
 10
   -2708.5000
 20
     196.0000
  0
VERTEX
  8
HB
 10
   -2906.5000
 20
     222.1000
  0
VERTEX
  8
HB
 10
   -3104.3999
 20
     250.0000
  0
VERTEX
  8
HB
 10
   -3302.0000
 20
     280.0000
  0
VERTEX
  8
HB
 10
   -3494.8999
 20
     311.3000
  0
VERTEX
  8
HB
 10
   -3687.5000
 20
     344.7000
  0
VERTEX
  8
HB
 10
   -3879.5000
 20
     380.3000
  0
VERTEX
  8
HB
 10
   -4071.1001
 20
     418.3000
  0
VERTEX
  8
HB
 10
   -4262.1001
 20
     458.7000
  0
VERTEX
  8
HB
 10
   -4452.7002
 20
     501.7000
  0
VERTEX
  8
HB
 10
   -4642.6001
 20
     547.4000
  0
VERTEX
  8
HB
 10
   -4832.0000
 20
     596.0000
  0
VERTEX
  8
HB
 10
   -5010.2002
 20
     644.6000
  0
VERTEX
  8
HB
 10
   -5187.5000
 20
     695.9000
  0
VERTEX
  8
HB
 10
   -5363.7998
 20
     750.2000
  0
VERTEX
  8
HB
 10
   -5539.0000
 20
     807.5000
  0
VERTEX
  8
HB
 10
   -5713.1001
 20
     868.2000
  0
VERTEX
  8
HB
 10
   -5886.0000
 20
     932.4000
  0
VERTEX
  8
HB
 10
   -6057.7002
 20
    1000.3000
  0
VERTEX
  8
HB
 10
   -6228.0000
 20
    1072.0000
  0
VERTEX
  8
HB
 10
   -6400.3999
 20
    1149.4000
  0
VERTEX
  8
HB
 10
   -6570.2002
 20
    1231.3000
  0
VERTEX
  8
HB
 10
   -6737.2998
 20
    1318.0000
  0
VERTEX
  8
HB
 10
   -6901.2998
 20
    1410.2000
  0
VERTEX
  8
HB
 10
   -7061.8999
 20
    1508.2000
  0
VERTEX
  8
HB
 10
   -7218.8999
 20
    1612.7000
  0
VERTEX
  8
HB
 10
   -7372.0000
 20
    1724.0000
  0
VERTEX
  8
HB
 10
   -7520.2002
 20
    1842.1000
  0
VERTEX
  8
HB
 10
   -7662.3999
 20
    1966.0000
  0
VERTEX
  8
HB
 10
   -7798.6001
 20
    2095.7000
  0
VERTEX
  8
HB
 10
   -7928.8999
 20
    2231.1001
  0
VERTEX
  8
HB
 10
   -8053.6001
 20
    2372.0000
  0
VERTEX
  8
HB
 10
   -8172.5000
 20
    2518.3000
  0
VERTEX
  8
HB
 10
   -8286.0000
 20
    2670.0000
  0
VERTEX
  8
HB
 10
   -8399.2002
 20
    2834.7000
  0
VERTEX
  8
HB
 10
   -8505.2998
 20
    3003.3999
  0
VERTEX
  8
HB
 10
   -8604.9004
 20
    3175.7000
  0
VERTEX
  8
HB
 10
   -8698.0996
 20
    3351.5000
  0
VERTEX
  8
HB
 10
   -8785.4004
 20
    3530.7000
  0
VERTEX
  8
HB
 10
   -8867.0000
 20
    3713.0000
  0
VERTEX
  8
HB
 10
   -8941.5000
 20
    3893.7000
  0
VERTEX
  8
HB
 10
   -9010.7998
 20
    4076.1001
  0
VERTEX
  8
HB
 10
   -9075.2002
 20
    4260.1001
  0
VERTEX
  8
HB
 10
   -9135.2002
 20
    4445.7002
  0
VERTEX
  8
HB
 10
   -9191.0000
 20
    4632.7002
  0
VERTEX
  8
HB
 10
   -9243.0000
 20
    4821.0000
  0
VERTEX
  8
HB
 10
   -9291.9004
 20
    5012.1001
  0
VERTEX
  8
HB
 10
   -9337.4004
 20
    5204.0000
  0
VERTEX
  8
HB
 10
   -9380.0000
 20
    5396.3999
  0
VERTEX
  8
HB
 10
   -9420.0000
 20
    5589.3999
  0
VERTEX
  8
HB
 10
   -9457.7002
 20
    5782.8999
  0
VERTEX
  8
HB
 10
   -9493.5996
 20
    5976.7998
  0
VERTEX
  8
HB
 10
   -9528.0000
 20
    6171.0000
  0
VERTEX
  8
HB
 10
   -9725.0000
 20
    7396.0000
  0
VERTEX
  8
HB
 10
   -9939.0000
 20
    8780.0000
  0
VERTEX
  8
HB
 10
  -10249.0000
 20
   10709.0000
  0
SEQEND
  0
POLYLINE
  8
HB
 66
     1
 70
     0
  0
VERTEX
  8
HB
 10
       0.0000
 20
       0.0000
  0
VERTEX
  8
HB
 10
     194.6000
 20
       3.8000
  0
VERTEX
  8
HB
 10
     389.2000
 20
       9.1000
  0
VERTEX
  8
HB
 10
     583.7000
 20
      15.9000
  0
VERTEX
  8
HB
 10
     778.1000
 20
      24.2000
  0
VERTEX
  8
HB
 10
     972.4000
 20
      34.0000
  0
VERTEX
  8
HB
 10
    1166.6000
 20
      45.2000
  0
VERTEX
  8
HB
 10
    1360.8000
 20
      57.7000
  0
VERTEX
  8
HB
 10
    1554.9000
 20
      71.7000
  0
VERTEX
  8
HB
 10
    1749.0000
 20
      87.0000
  0
VERTEX
  8
HB
 10
    1944.9000
 20
     103.8000
  0
VERTEX
  8
HB
 10
    2140.6001
 20
     122.1000
  0
VERTEX
  8
HB
 10
    2336.2000
 20
     141.9000
  0
VERTEX
  8
HB
 10
    2531.6001
 20
     163.3000
  0
VERTEX
  8
HB
 10
    2726.8000
 20
     186.4000
  0
VERTEX
  8
HB
 10
    2921.7000
 20
     211.3000
  0
VERTEX
  8
HB
 10
    3116.5000
 20
     238.2000
  0
VERTEX
  8
HB
 10
    3311.0000
 20
     267.0000
  0
VERTEX
  8
HB
 10
    3489.5000
 20
     295.3000
  0
VERTEX
  8
HB
 10
    3667.5000
 20
     325.6000
  0
VERTEX
  8
HB
 10
    3845.1001
 20
     357.8000
  0
VERTEX
  8
HB
 10
    4022.3000
 20
     392.1000
  0
VERTEX
  8
HB
 10
    4199.0000
 20
     428.7000
  0
VERTEX
  8
HB
 10
    4375.1001
 20
     467.7000
  0
VERTEX
  8
HB
 10
    4550.7002
 20
     509.2000
  0
VERTEX
  8
HB
 10
    4725.7998
 20
     553.3000
  0
VERTEX
  8
HB
 10
    4900.2002
 20
     600.2000
  0
VERTEX
  8
HB
 10
    5074.0000
 20
     650.0000
  0
VERTEX
  8
HB
 10
    5253.5000
 20
     704.8000
  0
VERTEX
  8
HB
 10
    5431.7002
 20
     763.0000
  0
VERTEX
  8
HB
 10
    5608.5000
 20
     824.8000
  0
VERTEX
  8
HB
 10
    5783.7998
 20
     890.4000
  0
VERTEX
  8
HB
 10
    5957.3999
 20
     960.1000
  0
VERTEX
  8
HB
 10
    6129.3999
 20
    1034.1000
  0
VERTEX
  8
HB
 10
    6299.7002
 20
    1112.7000
  0
VERTEX
  8
HB
 10
    6468.0000
 20
    1196.0000
  0
VERTEX
  8
HB
 10
    6626.3999
 20
    1280.0000
  0
VERTEX
  8
HB
 10
    6781.8999
 20
    1368.3000
  0
VERTEX
  8
HB
 10
    6934.2002
 20
    1461.1000
  0
VERTEX
  8
HB
 10
    7083.3999
 20
    1558.6000
  0
VERTEX
  8
HB
 10
    7229.2002
 20
    1661.0000
  0
VERTEX
  8
HB
 10
    7371.5000
 20
    1768.6000
  0
VERTEX
  8
HB
 10
    7510.2002
 20
    1881.5000
  0
VERTEX
  8
HB
 10
    7645.0000
 20
    2000.0000
  0
VERTEX
  8
HB
 10
    7783.7998
 20
    2132.1001
  0
VERTEX
  8
HB
 10
    7916.5000
 20
    2269.0000
  0
VERTEX
  8
HB
 10
    8043.2002
 20
    2410.8000
  0
VERTEX
  8
HB
 10
    8163.7998
 20
    2557.3000
  0
VERTEX
  8
HB
 10
    8278.5996
 20
    2708.5000
  0
VERTEX
  8
HB
 10
    8387.7002
 20
    2864.2000
  0
VERTEX
  8
HB
 10
    8491.0996
 20
    3024.3999
  0
VERTEX
  8
HB
 10
    8589.0000
 20
    3189.0000
  0
VERTEX
  8
HB
 10
    8676.5000
 20
    3348.6001
  0
VERTEX
  8
HB
 10
    8758.5000
 20
    3510.3999
  0
VERTEX
  8
HB
 10
    8835.2998
 20
    3674.5000
  0
VERTEX
  8
HB
 10
    8907.0996
 20
    3840.7000
  0
VERTEX
  8
HB
 10
    8974.2002
 20
    4008.8000
  0
VERTEX
  8
HB
 10
    9036.9004
 20
    4178.7998
  0
VERTEX
  8
HB
 10
    9095.4004
 20
    4350.6001
  0
VERTEX
  8
HB
 10
    9150.0000
 20
    4524.0000
  0
VERTEX
  8
HB
 10
    9202.0000
 20
    4702.8999
  0
VERTEX
  8
HB
 10
    9250.4004
 20
    4882.6001
  0
VERTEX
  8
HB
 10
    9295.4004
 20
    5063.0000
  0
VERTEX
  8
HB
 10
    9337.4004
 20
    5244.2002
  0
VERTEX
  8
HB
 10
    9376.7998
 20
    5425.8999
  0
VERTEX
  8
HB
 10
    9413.7998
 20
    5608.1001
  0
VERTEX
  8
HB
 10
    9449.0000
 20
    5790.7002
  0
VERTEX
  8
HB
 10
    9482.5996
 20
    5973.7002
  0
VERTEX
  8
HB
 10
    9515.0000
 20
    6157.0000
  0
VERTEX
  8
HB
 10
    9760.0000
 20
    7683.0000
  0
VERTEX
  8
HB
 10
   10000.0000
 20
    9228.0000
  0
VERTEX
  8
HB
 10
   10275.0000
 20
   10950.0000
  0
SEQEND
  0
POLYLINE
  8
HB
 66
     1
 70
     0
  0
VERTEX
  8
HB
 10
       0.0000
 20
       0.0000
  0
VERTEX
  8
HB
 10
     188.1000
 20
       6.3000
  0
VERTEX
  8
HB
 10
     376.0000
 20
      14.2000
  0
VERTEX
  8
HB
 10
     563.8000
 20
      23.6000
  0
VERTEX
  8
HB
 10
     751.6000
 20
      34.5000
  0
VERTEX
  8
HB
 10
     939.2000
 20
      46.9000
  0
VERTEX
  8
HB
 10
    1126.8000
 20
      60.7000
  0
VERTEX
  8
HB
 10
    1314.2000
 20
      75.8000
  0
VERTEX
  8
HB
 10
    1501.6000
 20
      92.3000
  0
VERTEX
  8
HB
 10
    1688.8000
 20
     110.0000
  0
VERTEX
  8
HB
 10
    1876.0000
 20
     129.0000
  0
VERTEX
  8
HB
 10
    2062.3000
 20
     149.1000
  0
VERTEX
  8
HB
 10
    2248.3999
 20
     170.6000
  0
VERTEX
  8
HB
 10
    2434.3000
 20
     193.5000
  0
VERTEX
  8
HB
 10
    2620.0000
 20
     218.0000
  0
VERTEX
  8
HB
 10
    2805.3999
 20
     244.3000
  0
VERTEX
  8
HB
 10
    2990.5000
 20
     272.5000
  0
VERTEX
  8
HB
 10
    3175.3000
 20
     302.7000
  0
VERTEX
  8
HB
 10
    3359.8000
 20
     335.2000
  0
VERTEX
  8
HB
 10
    3544.0000
 20
     370.0000
  0
VERTEX
  8
HB
 10
    3734.1001
 20
     408.6000
  0
VERTEX
  8
HB
 10
    3923.5000
 20
     450.0000
  0
VERTEX
  8
HB
 10
    4112.1001
 20
     494.2000
  0
VERTEX
  8
HB
 10
    4300.1001
 20
     541.4000
  0
VERTEX
  8
HB
 10
    4487.2002
 20
     591.7000
  0
VERTEX
  8
HB
 10
    4673.5000
 20
     645.2000
  0
VERTEX
  8
HB
 10
    4859.0000
 20
     702.0000
  0
VERTEX
  8
HB
 10
    5031.8999
 20
     758.4000
  0
VERTEX
  8
HB
 10
    5203.7002
 20
     817.9000
  0
VERTEX
  8
HB
 10
    5374.1001
 20
     880.7000
  0
VERTEX
  8
HB
 10
    5543.1001
 20
     947.0000
  0
VERTEX
  8
HB
 10
    5710.6001
 20
    1017.0000
  0
VERTEX
  8
HB
 10
    5876.6001
 20
    1090.9000
  0
VERTEX
  8
HB
 10
    6041.0000
 20
    1169.0000
  0
VERTEX
  8
HB
 10
    6201.7002
 20
    1250.4000
  0
VERTEX
  8
HB
 10
    6359.8999
 20
    1335.8000
  0
VERTEX
  8
HB
 10
    6515.5000
 20
    1425.4000
  0
VERTEX
  8
HB
 10
    6668.3999
 20
    1519.3000
  0
VERTEX
  8
HB
 10
    6818.5000
 20
    1617.8000
  0
VERTEX
  8
HB
 10
    6965.7998
 20
    1721.0000
  0
VERTEX
  8
HB
 10
    7110.0000
 20
    1829.0000
  0
VERTEX
  8
HB
 10
    7259.7998
 20
    1949.2000
  0
VERTEX
  8
HB
 10
    7405.0000
 20
    2074.2000
  0
VERTEX
  8
HB
 10
    7545.6001
 20
    2204.0000
  0
VERTEX
  8
HB
 10
    7681.6001
 20
    2338.6001
  0
VERTEX
  8
HB
 10
    7813.1001
 20
    2477.8999
  0
VERTEX
  8
HB
 10
    7940.0000
 20
    2622.0000
  0
VERTEX
  8
HB
 10
    8064.7002
 20
    2773.8000
  0
VERTEX
  8
HB
 10
    8183.7998
 20
    2929.3999
  0
VERTEX
  8
HB
 10
    8297.4004
 20
    3088.8999
  0
VERTEX
  8
HB
 10
    8405.4004
 20
    3252.2000
  0
VERTEX
  8
HB
 10
    8507.9004
 20
    3419.2000
  0
VERTEX
  8
HB
 10
    8605.0000
 20
    3590.0000
  0
VERTEX
  8
HB
 10
    8695.7998
 20
    3762.8000
  0
VERTEX
  8
HB
 10
    8780.9004
 20
    3938.0000
  0
VERTEX
  8
HB
 10
    8860.4004
 20
    4115.7002
  0
VERTEX
  8
HB
 10
    8934.7002
 20
    4295.6001
  0
VERTEX
  8
HB
 10
    9003.7998
 20
    4477.7002
  0
VERTEX
  8
HB
 10
    9068.0000
 20
    4662.0000
  0
VERTEX
  8
HB
 10
    9126.7002
 20
    4845.2998
  0
VERTEX
  8
HB
 10
    9180.9004
 20
    5029.7002
  0
VERTEX
  8
HB
 10
    9231.2002
 20
    5215.1001
  0
VERTEX
  8
HB
 10
    9278.0996
 20
    5401.3999
  0
VERTEX
  8
HB
 10
    9321.7998
 20
    5588.3999
  0
VERTEX
  8
HB
 10
    9362.9004
 20
    5776.1001
  0
VERTEX
  8
HB
 10
    9401.7998
 20
    5964.2998
  0
VERTEX
  8
HB
 10
    9439.0000
 20
    6153.0000
  0
VERTEX
  8
HB
 10
    9677.0000
 20
    7529.0000
  0
VERTEX
  8
HB
 10
    9873.0000
 20
    8800.0000
  0
VERTEX
  8
HB
 10
   10039.0000
 20
    9928.0000
  0
VERTEX
  8
HB
 10
   10224.0000
 20
   11248.0000
  0
SEQEND
  0
POLYLINE
  8
HB
 66
     1
 70
     0
  0
VERTEX
  8
HB
 10
       0.0000
 20
       0.0000
  0
VERTEX
  8
HB
 10
     191.7000
 20
      12.8000
  0
VERTEX
  8
HB
 10
     383.1000
 20
      27.5000
  0
VERTEX
  8
HB
 10
     574.3000
 20
      44.0000
  0
VERTEX
  8
HB
 10
     765.3000
 20
      62.4000
  0
VERTEX
  8
HB
 10
     956.2000
 20
      82.6000
  0
VERTEX
  8
HB
 10
    1146.8000
 20
     104.5000
  0
VERTEX
  8
HB
 10
    1337.2000
 20
     128.1000
  0
VERTEX
  8
HB
 10
    1527.4000
 20
     153.4000
  0
VERTEX
  8
HB
 10
    1717.5000
 20
     180.3000
  0
VERTEX
  8
HB
 10
    1907.3000
 20
     208.9000
  0
VERTEX
  8
HB
 10
    2097.0000
 20
     239.0000
  0
VERTEX
  8
HB
 10
    2288.7000
 20
     271.1000
  0
VERTEX
  8
HB
 10
    2480.1001
 20
     304.8000
  0
VERTEX
  8
HB
 10
    2671.1001
 20
     340.5000
  0
VERTEX
  8
HB
 10
    2861.7000
 20
     378.2000
  0
VERTEX
  8
HB
 10
    3051.8000
 20
     418.2000
  0
VERTEX
  8
HB
 10
    3241.3999
 20
     460.5000
  0
VERTEX
  8
HB
 10
    3430.5000
 20
     505.4000
  0
VERTEX
  8
HB
 10
    3619.0000
 20
     553.0000
  0
VERTEX
  8
HB
 10
    3803.3000
 20
     602.5000
  0
VERTEX
  8
HB
 10
    3986.6001
 20
     655.0000
  0
VERTEX
  8
HB
 10
    4168.8999
 20
     710.5000
  0
VERTEX
  8
HB
 10
    4350.0000
 20
     769.4000
  0
VERTEX
  8
HB
 10
    4530.0000
 20
     831.7000
  0
VERTEX
  8
HB
 10
    4708.7002
 20
     897.8000
  0
VERTEX
  8
HB
 10
    4886.0000
 20
     967.8000
  0
VERTEX
  8
HB
 10
    5062.0000
 20
    1042.0000
  0
VERTEX
  8
HB
 10
    5231.6001
 20
    1118.2000
  0
VERTEX
  8
HB
 10
    5399.1001
 20
    1198.2000
  0
VERTEX
  8
HB
 10
    5564.2998
 20
    1282.1000
  0
VERTEX
  8
HB
 10
    5727.2998
 20
    1369.9000
  0
VERTEX
  8
HB
 10
    5888.1001
 20
    1461.7000
  0
VERTEX
  8
HB
 10
    6046.5000
 20
    1557.4000
  0
VERTEX
  8
HB
 10
    6202.7002
 20
    1657.2000
  0
VERTEX
  8
HB
 10
    6356.5000
 20
    1761.0000
  0
VERTEX
  8
HB
 10
    6508.0000
 20
    1869.0000
  0
VERTEX
  8
HB
 10
    6661.1001
 20
    1984.2000
  0
VERTEX
  8
HB
 10
    6810.7998
 20
    2103.2000
  0
VERTEX
  8
HB
 10
    6956.8999
 20
    2225.8999
  0
VERTEX
  8
HB
 10
    7099.6001
 20
    2352.3000
  0
VERTEX
  8
HB
 10
    7238.7002
 20
    2482.5000
  0
VERTEX
  8
HB
 10
    7374.3999
 20
    2616.5000
  0
VERTEX
  8
HB
 10
    7506.3999
 20
    2754.2000
  0
VERTEX
  8
HB
 10
    7635.0000
 20
    2895.7000
  0
VERTEX
  8
HB
 10
    7760.0000
 20
    3041.0000
  0
VERTEX
  8
HB
 10
    7878.7002
 20
    3186.7000
  0
VERTEX
  8
HB
 10
    7993.2002
 20
    3335.2000
  0
VERTEX
  8
HB
 10
    8103.5000
 20
    3486.7000
  0
VERTEX
  8
HB
 10
    8209.4004
 20
    3641.2000
  0
VERTEX
  8
HB
 10
    8310.7998
 20
    3798.7000
  0
VERTEX
  8
HB
 10
    8407.7002
 20
    3959.3000
  0
VERTEX
  8
HB
 10
    8500.0000
 20
    4123.0000
  0
VERTEX
  8
HB
 10
    8591.5996
 20
    4297.7002
  0
VERTEX
  8
HB
 10
    8677.7002
 20
    4474.7002
  0
VERTEX
  8
HB
 10
    8758.7002
 20
    4654.0000
  0
VERTEX
  8
HB
 10
    8834.9004
 20
    4835.3999
  0
VERTEX
  8
HB
 10
    8906.5996
 20
    5018.7998
  0
VERTEX
  8
HB
 10
    8974.0000
 20
    5204.0000
  0
VERTEX
  8
HB
 10
    9035.7998
 20
    5385.7002
  0
VERTEX
  8
HB
 10
    9093.9004
 20
    5568.5000
  0
VERTEX
  8
HB
 10
    9148.5996
 20
    5752.1001
  0
VERTEX
  8
HB
 10
    9200.0996
 20
    5936.7002
  0
VERTEX
  8
HB
 10
    9248.7998
 20
    6122.0000
  0
VERTEX
  8
HB
 10
    9294.7998
 20
    6308.0000
  0
VERTEX
  8
HB
 10
    9338.4004
 20
    6494.7002
  0
VERTEX
  8
HB
 10
    9380.0000
 20
    6682.0000
  0
VERTEX
  8
HB
 10
    9644.0000
 20
    8106.0000
  0
VERTEX
  8
HB
 10
    9897.0000
 20
    9794.0000
  0
VERTEX
  8
HB
 10
   10136.0000
 20
   11559.0000
  0
SEQEND
  0
POLYLINE
  8
HB
 66
     1
 70
     0
  0
VERTEX
  8
HB
 10
       0.0000
 20
       0.0000
  0
VERTEX
  8
HB
 10
     189.3000
 20
      23.2000
  0
VERTEX
  8
HB
 10
     378.3000
 20
      48.7000
  0
VERTEX
  8
HB
 10
     566.8000
 20
      76.4000
  0
VERTEX
  8
HB
 10
     755.0000
 20
     106.3000
  0
VERTEX
  8
HB
 10
     942.8000
 20
     138.4000
  0
VERTEX
  8
HB
 10
    1130.2000
 20
     172.7000
  0
VERTEX
  8
HB
 10
    1317.2000
 20
     209.1000
  0
VERTEX
  8
HB
 10
    1503.8000
 20
     247.7000
  0
VERTEX
  8
HB
 10
    1690.1000
 20
     288.3000
  0
VERTEX
  8
HB
 10
    1876.0000
 20
     331.0000
  0
VERTEX
  8
HB
 10
    2066.8000
 20
     377.1000
  0
VERTEX
  8
HB
 10
    2257.0000
 20
     425.4000
  0
VERTEX
  8
HB
 10
    2446.5000
 20
     476.0000
  0
VERTEX
  8
HB
 10
    2635.3000
 20
     529.0000
  0
VERTEX
  8
HB
 10
    2823.3999
 20
     584.5000
  0
VERTEX
  8
HB
 10
    3010.7000
 20
     642.6000
  0
VERTEX
  8
HB
 10
    3197.3000
 20
     703.4000
  0
VERTEX
  8
HB
 10
    3383.0000
 20
     767.0000
  0
VERTEX
  8
HB
 10
    3563.2000
 20
     831.8000
  0
VERTEX
  8
HB
 10
    3742.2000
 20
     899.4000
  0
VERTEX
  8
HB
 10
    3919.8999
 20
     970.1000
  0
VERTEX
  8
HB
 10
    4096.2002
 20
    1043.9000
  0
VERTEX
  8
HB
 10
    4271.1001
 20
    1121.1000
  0
VERTEX
  8
HB
 10
    4444.3999
 20
    1201.9000
  0
VERTEX
  8
HB
 10
    4616.0000
 20
    1286.5000
  0
VERTEX
  8
HB
 10
    4786.0000
 20
    1375.0000
  0
VERTEX
  8
HB
 10
    4944.2002
 20
    1462.0000
  0
VERTEX
  8
HB
 10
    5100.2002
 20
    1552.2000
  0
VERTEX
  8
HB
 10
    5254.0000
 20
    1645.6000
  0
VERTEX
  8
HB
 10
    5405.7998
 20
    1742.2000
  0
VERTEX
  8
HB
 10
    5555.6001
 20
    1841.9000
  0
VERTEX
  8
HB
 10
    5703.2998
 20
    1944.6000
  0
VERTEX
  8
HB
 10
    5849.1001
 20
    2050.2000
  0
VERTEX
  8
HB
 10
    5993.0000
 20
    2158.7000
  0
VERTEX
  8
HB
 10
    6135.0000
 20
    2270.0000
  0
VERTEX
  8
HB
 10
    6282.7998
 20
    2390.3999
  0
VERTEX
  8
HB
 10
    6428.0000
 20
    2513.3999
  0
VERTEX
  8
HB
 10
    6570.7002
 20
    2639.2000
  0
VERTEX
  8
HB
 10
    6710.7998
 20
    2767.8000
  0
VERTEX
  8
HB
 10
    6848.2998
 20
    2899.1001
  0
VERTEX
  8
HB
 10
    6983.2002
 20
    3033.3000
  0
VERTEX
  8
HB
 10
    7115.3999
 20
    3170.2000
  0
VERTEX
  8
HB
 10
    7245.0000
 20
    3310.0000
  0
VERTEX
  8
HB
 10
    7371.1001
 20
    3451.8999
  0
VERTEX
  8
HB
 10
    7494.0000
 20
    3596.2000
  0
VERTEX
  8
HB
 10
    7613.5000
 20
    3743.2000
  0
VERTEX
  8
HB
 10
    7729.3999
 20
    3893.0000
  0
VERTEX
  8
HB
 10
    7841.6001
 20
    4045.6001
  0
VERTEX
  8
HB
 10
    7949.7998
 20
    4201.2002
  0
VERTEX
  8
HB
 10
    8054.0000
 20
    4360.0000
  0
VERTEX
  8
HB
 10
    8151.6001
 20
    4518.0000
  0
VERTEX
  8
HB
 10
    8244.7998
 20
    4678.2002
  0
VERTEX
  8
HB
 10
    8333.7998
 20
    4840.7002
  0
VERTEX
  8
HB
 10
    8418.5996
 20
    5005.2998
  0
VERTEX
  8
HB
 10
    8499.5000
 20
    5171.8999
  0
VERTEX
  8
HB
 10
    8576.5996
 20
    5340.5000
  0
VERTEX
  8
HB
 10
    8650.0000
 20
    5511.0000
  0
VERTEX
  8
HB
 10
    8721.2998
 20
    5687.0000
  0
VERTEX
  8
HB
 10
    8788.7998
 20
    5864.2998
  0
VERTEX
  8
HB
 10
    8852.7998
 20
    6042.7002
  0
VERTEX
  8
HB
 10
    8913.5000
 20
    6222.2002
  0
VERTEX
  8
HB
 10
    8971.0000
 20
    6402.7998
  0
VERTEX
  8
HB
 10
    9025.7002
 20
    6584.2998
  0
VERTEX
  8
HB
 10
    9077.5996
 20
    6766.7002
  0
VERTEX
  8
HB
 10
    9127.0000
 20
    6950.0000
  0
VERTEX
  8
HB
 10
    9171.7002
 20
    7124.2002
  0
VERTEX
  8
HB
 10
    9214.4004
 20
    7298.8999
  0
VERTEX
  8
HB
 10
    9255.2002
 20
    7474.0000
  0
VERTEX
  8
HB
 10
    9294.4004
 20
    7649.3999
  0
VERTEX
  8
HB
 10
    9332.0996
 20
    7825.2002
  0
VERTEX
  8
HB
 10
    9368.2998
 20
    8001.2998
  0
VERTEX
  8
HB
 10
    9403.2998
 20
    8177.6001
  0
VERTEX
  8
HB
 10
    9437.0996
 20
    8354.2002
  0
VERTEX
  8
HB
 10
    9470.0000
 20
    8531.0000
  0
VERTEX
  8
HB
 10
    9744.0000
 20
   10196.0000
  0
VERTEX
  8
HB
 10
    9980.0000
 20
   11891.0000
  0
SEQEND
  0
POLYLINE
  8
HB
 66
     1
 70
     0
  0
VERTEX
  8
HB
 10
       0.0000
 20
       0.0000
  0
VERTEX
  8
HB
 10
     178.6000
 20
      37.7000
  0
VERTEX
  8
HB
 10
     356.5000
 20
      77.9000
  0
VERTEX
  8
HB
 10
     533.7000
 20
     120.4000
  0
VERTEX
  8
HB
 10
     710.3000
 20
     165.3000
  0
VERTEX
  8
HB
 10
     886.2000
 20
     212.5000
  0
VERTEX
  8
HB
 10
    1061.4000
 20
     262.0000
  0
VERTEX
  8
HB
 10
    1236.0000
 20
     313.9000
  0
VERTEX
  8
HB
 10
    1410.0000
 20
     368.0000
  0
VERTEX
  8
HB
 10
    1583.3000
 20
     424.4000
  0
VERTEX
  8
HB
 10
    1756.0000
 20
     483.1000
  0
VERTEX
  8
HB
 10
    1928.0000
 20
     544.0000
  0
VERTEX
  8
HB
 10
    2112.8000
 20
     612.2000
  0
VERTEX
  8
HB
 10
    2296.3999
 20
     682.9000
  0
VERTEX
  8
HB
 10
    2478.8999
 20
     756.2000
  0
VERTEX
  8
HB
 10
    2660.2000
 20
     832.2000
  0
VERTEX
  8
HB
 10
    2840.3000
 20
     910.9000
  0
VERTEX
  8
HB
 10
    3019.2000
 20
     992.5000
  0
VERTEX
  8
HB
 10
    3196.8000
 20
    1077.0000
  0
VERTEX
  8
HB
 10
    3373.1001
 20
    1164.5000
  0
VERTEX
  8
HB
 10
    3548.0000
 20
    1255.0000
  0
VERTEX
  8
HB
 10
    3712.3999
 20
    1343.6000
  0
VERTEX
  8
HB
 10
    3875.1001
 20
    1434.8000
  0
VERTEX
  8
HB
 10
    4036.2000
 20
    1528.5000
  0
VERTEX
  8
HB
 10
    4195.7998
 20
    1624.9000
  0
VERTEX
  8
HB
 10
    4353.7998
 20
    1723.7000
  0
VERTEX
  8
HB
 10
    4510.1001
 20
    1825.1000
  0
VERTEX
  8
HB
 10
    4665.0000
 20
    1928.9000
  0
VERTEX
  8
HB
 10
    4818.2998
 20
    2035.2000
  0
VERTEX
  8
HB
 10
    4970.0000
 20
    2144.0000
  0
VERTEX
  8
HB
 10
    5115.2998
 20
    2251.5000
  0
VERTEX
  8
HB
 10
    5258.8999
 20
    2361.2000
  0
VERTEX
  8
HB
 10
    5400.7002
 20
    2472.8999
  0
VERTEX
  8
HB
 10
    5540.7998
 20
    2586.7000
  0
VERTEX
  8
HB
 10
    5679.0000
 20
    2702.6001
  0
VERTEX
  8
HB
 10
    5815.5000
 20
    2820.7000
  0
VERTEX
  8
HB
 10
    5950.2002
 20
    2941.0000
  0
VERTEX
  8
HB
 10
    6083.0000
 20
    3063.3999
  0
VERTEX
  8
HB
 10
    6214.0000
 20
    3188.0000
  0
VERTEX
  8
HB
 10
    6343.5000
 20
    3315.2000
  0
VERTEX
  8
HB
 10
    6470.7998
 20
    3444.3999
  0
VERTEX
  8
HB
 10
    6595.7998
 20
    3575.6001
  0
VERTEX
  8
HB
 10
    6718.3999
 20
    3709.0000
  0
VERTEX
  8
HB
 10
    6838.6001
 20
    3844.6001
  0
VERTEX
  8
HB
 10
    6956.2998
 20
    3982.3999
  0
VERTEX
  8
HB
 10
    7071.5000
 20
    4122.5000
  0
VERTEX
  8
HB
 10
    7184.0000
 20
    4265.0000
  0
VERTEX
  8
HB
 10
    7298.2998
 20
    4415.8999
  0
VERTEX
  8
HB
 10
    7409.2002
 20
    4569.1001
  0
VERTEX
  8
HB
 10
    7516.7002
 20
    4724.5000
  0
VERTEX
  8
HB
 10
    7620.7998
 20
    4882.1001
  0
VERTEX
  8
HB
 10
    7721.3999
 20
    5042.1001
  0
VERTEX
  8
HB
 10
    7818.5000
 20
    5204.3999
  0
VERTEX
  8
HB
 10
    7912.0000
 20
    5369.0000
  0
VERTEX
  8
HB
 10
    8002.5000
 20
    5537.1001
  0
VERTEX
  8
HB
 10
    8089.1001
 20
    5707.0000
  0
VERTEX
  8
HB
 10
    8172.0000
 20
    5878.6001
  0
VERTEX
  8
HB
 10
    8251.2998
 20
    6051.7002
  0
VERTEX
  8
HB
 10
    8327.2002
 20
    6226.3999
  0
VERTEX
  8
HB
 10
    8399.9004
 20
    6402.6001
  0
VERTEX
  8
HB
 10
    8469.4004
 20
    6580.1001
  0
VERTEX
  8
HB
 10
    8536.0000
 20
    6759.0000
  0
VERTEX
  8
HB
 10
    8597.5000
 20
    6932.3999
  0
VERTEX
  8
HB
 10
    8656.2998
 20
    7106.6001
  0
VERTEX
  8
HB
 10
    8712.7002
 20
    7281.5000
  0
VERTEX
  8
HB
 10
    8766.7002
 20
    7457.1001
  0
VERTEX
  8
HB
 10
    8818.5996
 20
    7633.3999
  0
VERTEX
  8
HB
 10
    8868.2998
 20
    7810.3999
  0
VERTEX
  8
HB
 10
    8916.0996
 20
    7987.8999
  0
VERTEX
  8
HB
 10
    8962.0000
 20
    8166.0000
  0
VERTEX
  8
HB
 10
    9008.0000
 20
    8351.7998
  0
VERTEX
  8
HB
 10
    9052.2002
 20
    8538.0000
  0
VERTEX
  8
HB
 10
    9094.7998
 20
    8724.5000
  0
VERTEX
  8
HB
 10
    9136.0000
 20
    8911.2998
  0
VERTEX
  8
HB
 10
    9175.9004
 20
    9098.4004
  0
VERTEX
  8
HB
 10
    9214.5996
 20
    9285.7998
  0
VERTEX
  8
HB
 10
    9252.4004
 20
    9473.2998
  0
VERTEX
  8
HB
 10
    9289.2002
 20
    9661.0996
  0
VERTEX
  8
HB
 10
    9325.4004
 20
    9849.0000
  0
VERTEX
  8
HB
 10
    9361.0000
 20
   10037.0000
  0
VERTEX
  8
HB
 10
    9749.0000
 20
   12260.0000
  0
SEQEND
  0
POLYLINE
  8
HB
 66
     1
 70
     0
  0
VERTEX
  8
HB
 10
       0.0000
 20
       0.0000
  0
VERTEX
  8
HB
 10
     178.8000
 20
      60.9000
  0
VERTEX
  8
HB
 10
     356.6000
 20
     124.3000
  0
VERTEX
  8
HB
 10
     533.3000
 20
     190.1000
  0
VERTEX
  8
HB
 10
     709.0000
 20
     258.5000
  0
VERTEX
  8
HB
 10
     883.6000
 20
     329.4000
  0
VERTEX
  8
HB
 10
    1057.2000
 20
     402.9000
  0
VERTEX
  8
HB
 10
    1229.7000
 20
     478.8000
  0
VERTEX
  8
HB
 10
    1401.2000
 20
     557.3000
  0
VERTEX
  8
HB
 10
    1571.6000
 20
     638.4000
  0
VERTEX
  8
HB
 10
    1741.0000
 20
     722.0000
  0
VERTEX
  8
HB
 10
    1902.1000
 20
     804.4000
  0
VERTEX
  8
HB
 10
    2061.8000
 20
     889.0000
  0
VERTEX
  8
HB
 10
    2220.3999
 20
     975.7000
  0
VERTEX
  8
HB
 10
    2377.7000
 20
    1064.6000
  0
VERTEX
  8
HB
 10
    2533.7000
 20
    1155.5000
  0
VERTEX
  8
HB
 10
    2688.6001
 20
    1248.6000
  0
VERTEX
  8
HB
 10
    2842.2000
 20
    1343.7000
  0
VERTEX
  8
HB
 10
    2994.7000
 20
    1440.8000
  0
VERTEX
  8
HB
 10
    3146.0000
 20
    1540.0000
  0
VERTEX
  8
HB
 10
    3311.6001
 20
    1651.7000
  0
VERTEX
  8
HB
 10
    3475.5000
 20
    1765.7000
  0
VERTEX
  8
HB
 10
    3637.8999
 20
    1881.8000
  0
VERTEX
  8
HB
 10
    3798.6001
 20
    2000.1000
  0
VERTEX
  8
HB
 10
    3957.7000
 20
    2120.5000
  0
VERTEX
  8
HB
 10
    4115.2998
 20
    2243.0000
  0
VERTEX
  8
HB
 10
    4271.3999
 20
    2367.5000
  0
VERTEX
  8
HB
 10
    4426.0000
 20
    2494.0000
  0
VERTEX
  8
HB
 10
    4579.2002
 20
    2622.6001
  0
VERTEX
  8
HB
 10
    4730.7998
 20
    2753.1001
  0
VERTEX
  8
HB
 10
    4880.3999
 20
    2885.5000
  0
VERTEX
  8
HB
 10
    5028.2002
 20
    3020.0000
  0
VERTEX
  8
HB
 10
    5174.1001
 20
    3156.6001
  0
VERTEX
  8
HB
 10
    5317.8999
 20
    3295.3999
  0
VERTEX
  8
HB
 10
    5459.5000
 20
    3436.5000
  0
VERTEX
  8
HB
 10
    5599.0000
 20
    3580.0000
  0
VERTEX
  8
HB
 10
    5720.2998
 20
    3708.7000
  0
VERTEX
  8
HB
 10
    5839.6001
 20
    3839.2000
  0
VERTEX
  8
HB
 10
    5957.0000
 20
    3971.3000
  0
VERTEX
  8
HB
 10
    6072.2998
 20
    4105.0000
  0
VERTEX
  8
HB
 10
    6185.7002
 20
    4240.5000
  0
VERTEX
  8
HB
 10
    6297.1001
 20
    4377.7002
  0
VERTEX
  8
HB
 10
    6406.5000
 20
    4516.5000
  0
VERTEX
  8
HB
 10
    6514.0000
 20
    4657.0000
  0
VERTEX
  8
HB
 10
    6623.7998
 20
    4805.1001
  0
VERTEX
  8
HB
 10
    6731.1001
 20
    4954.8999
  0
VERTEX
  8
HB
 10
    6835.7998
 20
    5106.2998
  0
VERTEX
  8
HB
 10
    6937.8999
 20
    5259.3999
  0
VERTEX
  8
HB
 10
    7037.1001
 20
    5414.3999
  0
VERTEX
  8
HB
 10
    7133.5000
 20
    5571.2998
  0
VERTEX
  8
HB
 10
    7226.7998
 20
    5730.1001
  0
VERTEX
  8
HB
 10
    7317.0000
 20
    5891.0000
  0
VERTEX
  8
HB
 10
    7406.2998
 20
    6058.2998
  0
VERTEX
  8
HB
 10
    7492.0000
 20
    6227.2002
  0
VERTEX
  8
HB
 10
    7574.3999
 20
    6397.6001
  0
VERTEX
  8
HB
 10
    7653.6001
 20
    6569.5000
  0
VERTEX
  8
HB
 10
    7729.7002
 20
    6742.6001
  0
VERTEX
  8
HB
 10
    7803.1001
 20
    6917.0000
  0
VERTEX
  8
HB
 10
    7873.7998
 20
    7092.6001
  0
VERTEX
  8
HB
 10
    7942.0000
 20
    7269.2998
  0
VERTEX
  8
HB
 10
    8008.0000
 20
    7447.0000
  0
VERTEX
  8
HB
 10
    8073.7998
 20
    7631.2998
  0
VERTEX
  8
HB
 10
    8137.5000
 20
    7816.2002
  0
VERTEX
  8
HB
 10
    8199.2002
 20
    8001.7002
  0
VERTEX
  8
HB
 10
    8259.0996
 20
    8187.8999
  0
VERTEX
  8
HB
 10
    8317.4004
 20
    8374.5000
  0
VERTEX
  8
HB
 10
    8374.2998
 20
    8561.5996
  0
VERTEX
  8
HB
 10
    8429.9004
 20
    8749.0996
  0
VERTEX
  8
HB
 10
    8484.4004
 20
    8936.9004
  0
VERTEX
  8
HB
 10
    8538.0000
 20
    9125.0000
  0
VERTEX
  8
HB
 10
    9000.0000
 20
   10875.0000
  0
VERTEX
  8
HB
 10
    9414.0000
 20
   12692.0000
  0
SEQEND
  0
POLYLINE
  8
HB
 66
     1
 70
     0
  0
VERTEX
  8
HB
 10
       0.0000
 20
       0.0000
  0
VERTEX
  8
HB
 10
     163.0000
 20
      86.5000
  0
VERTEX
  8
HB
 10
     324.8000
 20
     175.0000
  0
VERTEX
  8
HB
 10
     485.5000
 20
     265.4000
  0
VERTEX
  8
HB
 10
     645.0000
 20
     357.7000
  0
VERTEX
  8
HB
 10
     803.4000
 20
     452.0000
  0
VERTEX
  8
HB
 10
     960.5000
 20
     548.3000
  0
VERTEX
  8
HB
 10
    1116.5000
 20
     646.6000
  0
VERTEX
  8
HB
 10
    1271.4000
 20
     746.8000
  0
VERTEX
  8
HB
 10
    1425.0000
 20
     849.0000
  0
VERTEX
  8
HB
 10
    1589.1000
 20
     961.3000
  0
VERTEX
  8
HB
 10
    1751.7000
 20
    1075.6000
  0
VERTEX
  8
HB
 10
    1912.6000
 20
    1192.1000
  0
VERTEX
  8
HB
 10
    2072.1001
 20
    1310.7000
  0
VERTEX
  8
HB
 10
    2229.8999
 20
    1431.4000
  0
VERTEX
  8
HB
 10
    2386.2000
 20
    1554.2000
  0
VERTEX
  8
HB
 10
    2541.0000
 20
    1679.0000
  0
VERTEX
  8
HB
 10
    2676.1001
 20
    1790.6000
  0
VERTEX
  8
HB
 10
    2809.8999
 20
    1903.7000
  0
VERTEX
  8
HB
 10
    2942.3999
 20
    2018.2000
  0
VERTEX
  8
HB
 10
    3073.7000
 20
    2134.1001
  0
VERTEX
  8
HB
 10
    3203.8000
 20
    2251.3999
  0
VERTEX
  8
HB
 10
    3332.7000
 20
    2370.0000
  0
VERTEX
  8
HB
 10
    3460.3999
 20
    2489.8000
  0
VERTEX
  8
HB
 10
    3587.0000
 20
    2611.0000
  0
VERTEX
  8
HB
 10
    3724.3000
 20
    2745.0000
  0
VERTEX
  8
HB
 10
    3860.1001
 20
    2880.5000
  0
VERTEX
  8
HB
 10
    3994.3999
 20
    3017.3999
  0
VERTEX
  8
HB
 10
    4127.2002
 20
    3155.7000
  0
VERTEX
  8
HB
 10
    4258.3999
 20
    3295.6001
  0
VERTEX
  8
HB
 10
    4388.0000
 20
    3437.0000
  0
VERTEX
  8
HB
 10
    4516.0000
 20
    3580.0000
  0
VERTEX
  8
HB
 10
    4639.2998
 20
    3721.1001
  0
VERTEX
  8
HB
 10
    4760.8999
 20
    3863.7000
  0
VERTEX
  8
HB
 10
    4880.7002
 20
    4007.6001
  0
VERTEX
  8
HB
 10
    4998.7002
 20
    4153.0000
  0
VERTEX
  8
HB
 10
    5114.8999
 20
    4299.8999
  0
VERTEX
  8
HB
 10
    5229.3999
 20
    4448.2002
  0
VERTEX
  8
HB
 10
    5342.0000
 20
    4598.0000
  0
VERTEX
  8
HB
 10
    5458.2998
 20
    4756.8999
  0
VERTEX
  8
HB
 10
    5572.3999
 20
    4917.3999
  0
VERTEX
  8
HB
 10
    5684.1001
 20
    5079.3999
  0
VERTEX
  8
HB
 10
    5793.3999
 20
    5243.0000
  0
VERTEX
  8
HB
 10
    5900.2002
 20
    5408.2998
  0
VERTEX
  8
HB
 10
    6004.3999
 20
    5575.2002
  0
VERTEX
  8
HB
 10
    6106.0000
 20
    5744.0000
  0
VERTEX
  8
HB
 10
    6195.5000
 20
    5898.1001
  0
VERTEX
  8
HB
 10
    6282.7002
 20
    6053.3999
  0
VERTEX
  8
HB
 10
    6367.6001
 20
    6209.7998
  0
VERTEX
  8
HB
 10
    6450.3999
 20
    6367.2998
  0
VERTEX
  8
HB
 10
    6531.1001
 20
    6525.8999
  0
VERTEX
  8
HB
 10
    6609.8999
 20
    6685.5000
  0
VERTEX
  8
HB
 10
    6686.7002
 20
    6846.1001
  0
VERTEX
  8
HB
 10
    6761.7002
 20
    7007.6001
  0
VERTEX
  8
HB
 10
    6835.0000
 20
    7170.0000
  0
VERTEX
  8
HB
 10
    6911.8999
 20
    7345.2998
  0
VERTEX
  8
HB
 10
    6986.8999
 20
    7521.3999
  0
VERTEX
  8
HB
 10
    7060.2002
 20
    7698.1001
  0
VERTEX
  8
HB
 10
    7132.1001
 20
    7875.3999
  0
VERTEX
  8
HB
 10
    7202.5000
 20
    8053.2998
  0
VERTEX
  8
HB
 10
    7271.7998
 20
    8231.7002
  0
VERTEX
  8
HB
 10
    7340.0000
 20
    8410.5000
  0
VERTEX
  8
HB
 10
    7407.3999
 20
    8589.5996
  0
VERTEX
  8
HB
 10
    7474.0000
 20
    8769.0000
  0
VERTEX
  8
HB
 10
    8053.0000
 20
   10405.0000
  0
VERTEX
  8
HB
 10
    8500.0000
 20
   11767.0000
  0
VERTEX
  8
HB
 10
    8941.0000
 20
   13217.0000
  0
SEQEND
  0
POLYLINE
  8
HB
 66
     1
 70
     0
  0
VERTEX
  8
HB
 10
       0.0000
 20
       0.0000
  0
VERTEX
  8
HB
 10
     150.5000
 20
     124.8000
  0
VERTEX
  8
HB
 10
     299.6000
 20
     251.2000
  0
VERTEX
  8
HB
 10
     447.4000
 20
     379.0000
  0
VERTEX
  8
HB
 10
     593.9000
 20
     508.3000
  0
VERTEX
  8
HB
 10
     739.1000
 20
     639.1000
  0
VERTEX
  8
HB
 10
     883.0000
 20
     771.3000
  0
VERTEX
  8
HB
 10
    1025.6000
 20
     905.0000
  0
VERTEX
  8
HB
 10
    1167.0000
 20
    1040.0000
  0
VERTEX
  8
HB
 10
    1298.6000
 20
    1168.1000
  0
VERTEX
  8
HB
 10
    1429.0000
 20
    1297.3000
  0
VERTEX
  8
HB
 10
    1558.1000
 20
    1427.8000
  0
VERTEX
  8
HB
 10
    1685.9000
 20
    1559.5000
  0
VERTEX
  8
HB
 10
    1812.3000
 20
    1692.6000
  0
VERTEX
  8
HB
 10
    1937.4000
 20
    1827.0000
  0
VERTEX
  8
HB
 10
    2060.8999
 20
    1962.8000
  0
VERTEX
  8
HB
 10
    2183.0000
 20
    2100.0000
  0
VERTEX
  8
HB
 10
    2312.5000
 20
    2249.1001
  0
VERTEX
  8
HB
 10
    2440.1001
 20
    2399.7000
  0
VERTEX
  8
HB
 10
    2565.8999
 20
    2551.8000
  0
VERTEX
  8
HB
 10
    2689.8999
 20
    2705.3000
  0
VERTEX
  8
HB
 10
    2812.3000
 20
    2860.2000
  0
VERTEX
  8
HB
 10
    2932.8999
 20
    3016.5000
  0
VERTEX
  8
HB
 10
    3052.0000
 20
    3174.0000
  0
VERTEX
  8
HB
 10
    3158.6001
 20
    3317.8999
  0
VERTEX
  8
HB
 10
    3263.8999
 20
    3462.8000
  0
VERTEX
  8
HB
 10
    3367.8999
 20
    3608.5000
  0
VERTEX
  8
HB
 10
    3470.5000
 20
    3755.2000
  0
VERTEX
  8
HB
 10
    3571.8000
 20
    3902.8000
  0
VERTEX
  8
HB
 10
    3671.8000
 20
    4051.3000
  0
VERTEX
  8
HB
 10
    3770.6001
 20
    4200.7002
  0
VERTEX
  8
HB
 10
    3868.0000
 20
    4351.0000
  0
VERTEX
  8
HB
 10
    3964.8999
 20
    4503.3999
  0
VERTEX
  8
HB
 10
    4060.5000
 20
    4656.5000
  0
VERTEX
  8
HB
 10
    4154.7002
 20
    4810.5000
  0
VERTEX
  8
HB
 10
    4247.6001
 20
    4965.2002
  0
VERTEX
  8
HB
 10
    4339.2002
 20
    5120.7002
  0
VERTEX
  8
HB
 10
    4429.3999
 20
    5277.0000
  0
VERTEX
  8
HB
 10
    4518.3999
 20
    5434.1001
  0
VERTEX
  8
HB
 10
    4606.0000
 20
    5592.0000
  0
VERTEX
  8
HB
 10
    4696.5000
 20
    5758.2998
  0
VERTEX
  8
HB
 10
    4785.6001
 20
    5925.3999
  0
VERTEX
  8
HB
 10
    4873.2998
 20
    6093.1001
  0
VERTEX
  8
HB
 10
    4959.7998
 20
    6261.5000
  0
VERTEX
  8
HB
 10
    5045.0000
 20
    6430.5000
  0
VERTEX
  8
HB
 10
    5129.1001
 20
    6600.1001
  0
VERTEX
  8
HB
 10
    5212.0000
 20
    6770.2998
  0
VERTEX
  8
HB
 10
    5294.0000
 20
    6941.0000
  0
VERTEX
  8
HB
 10
    6121.0000
 20
    8772.0000
  0
VERTEX
  8
HB
 10
    6781.0000
 20
   10282.0000
  0
VERTEX
  8
HB
 10
    7522.0000
 20
   12000.0000
  0
VERTEX
  8
HB
 10
    8319.0000
 20
   13858.0000
  0
SEQEND
  0
POLYLINE
  8
HB
 66
     1
 70
     0
  0
VERTEX
  8
HB
 10
       0.0000
 20
   -1423.2000
  0
VERTEX
  8
HB
 10
     235.4000
 20
   -1423.2000
  0
SEQEND
  0
POLYLINE
  8
HB
 66
     1
 70
     0
  0
VERTEX
  8
HB
 10
     235.4000
 20
   -1423.2000
  0
VERTEX
  8
HB
 10
     356.0000
 20
   -1369.0000
  0
VERTEX
  8
HB
 10
     449.6000
 20
   -1299.9000
  0
VERTEX
  8
HB
 10
     517.0000
 20
   -1205.0000
  0
VERTEX
  8
HB
 10
     543.3000
 20
   -1072.9000
  0
VERTEX
  8
HB
 10
     516.0000
 20
    -941.0000
  0
VERTEX
  8
HB
 10
     375.0000
 20
    -657.0000
  0
VERTEX
  8
HB
 10
     321.5000
 20
    -525.1000
  0
VERTEX
  8
HB
 10
     286.9000
 20
    -388.5000
  0
VERTEX
  8
HB
 10
     272.0000
 20
    -247.0000
  0
VERTEX
  8
HB
 10
     279.1000
 20
     -86.1000
  0
VERTEX
  8
HB
 10
     309.1000
 20
      70.7000
  0
VERTEX
  8
HB
 10
     358.0000
 20
     224.0000
  0
VERTEX
  8
HB
 10
     422.6000
 20
     375.0000
  0
VERTEX
  8
HB
 10
     497.3000
 20
     520.7000
  0
VERTEX
  8
HB
 10
     578.4000
 20
     663.0000
  0
VERTEX
  8
HB
 10
     662.0000
 20
     804.0000
  0
VERTEX
  8
HB
 10
    1001.0000
 20
    1400.0000
  0
VERTEX
  8
HB
 10
    1414.0000
 20
    2181.0000
  0
VERTEX
  8
HB
 10
    2005.0000
 20
    3397.0000
  0
VERTEX
  8
HB
 10
    2522.0000
 20
    4581.0000
  0
VERTEX
  8
HB
 10
    2958.0000
 20
    5675.0000
  0
VERTEX
  8
HB
 10
    3529.0000
 20
    7036.0000
  0
VERTEX
  8
HB
 10
    3604.8000
 20
    7208.2002
  0
VERTEX
  8
HB
 10
    3681.3000
 20
    7380.0000
  0
VERTEX
  8
HB
 10
    3758.3999
 20
    7551.6001
  0
VERTEX
  8
HB
 10
    3836.3999
 20
    7722.7002
  0
VERTEX
  8
HB
 10
    3915.2000
 20
    7893.5000
  0
VERTEX
  8
HB
 10
    3994.8999
 20
    8063.8999
  0
VERTEX
  8
HB
 10
    4075.3999
 20
    8233.9004
  0
VERTEX
  8
HB
 10
    4156.8999
 20
    8403.4004
  0
VERTEX
  8
HB
 10
    4239.3999
 20
    8572.4004
  0
VERTEX
  8
HB
 10
    4323.0000
 20
    8741.0000
  0
VERTEX
  8
HB
 10
    4408.1001
 20
    8910.0996
  0
VERTEX
  8
HB
 10
    4494.2002
 20
    9078.5996
  0
VERTEX
  8
HB
 10
    4581.2998
 20
    9246.5996
  0
VERTEX
  8
HB
 10
    4669.1001
 20
    9414.2002
  0
VERTEX
  8
HB
 10
    4757.7002
 20
    9581.5000
  0
VERTEX
  8
HB
 10
    4846.8999
 20
    9748.2998
  0
VERTEX
  8
HB
 10
    4936.7002
 20
    9914.9004
  0
VERTEX
  8
HB
 10
    5027.0000
 20
   10081.2002
  0
VERTEX
  8
HB
 10
    5117.7002
 20
   10247.2998
  0
VERTEX
  8
HB
 10
    5208.7002
 20
   10413.2002
  0
VERTEX
  8
HB
 10
    5300.0000
 20
   10579.0000
  0
VERTEX
  8
HB
 10
    6337.0000
 20
   12452.0000
  0
VERTEX
  8
HB
 10
    7501.0000
 20
   14587.0000
  0
SEQEND
  0
POLYLINE
  8
HB
 66
     1
 70
     0
  0
VERTEX
  8
HB
 10
       0.0000
 20
   -2096.6001
  0
VERTEX
  8
HB
 10
     346.3000
 20
   -2096.6001
  0
VERTEX
  8
HB
 10
     491.3000
 20
   -2083.5000
  0
VERTEX
  8
HB
 10
     634.8000
 20
   -2061.3000
  0
SEQEND
  0
POLYLINE
  8
HB
 66
     1
 70
     0
  0
VERTEX
  8
HB
 10
     346.3000
 20
   -2096.6001
  0
VERTEX
  8
HB
 10
     491.3000
 20
   -2083.5000
  0
VERTEX
  8
HB
 10
     634.8000
 20
   -2061.3000
  0
VERTEX
  8
HB
 10
     777.0000
 20
   -2030.0000
  0
VERTEX
  8
HB
 10
     959.6000
 20
   -1974.5000
  0
VERTEX
  8
HB
 10
    1131.6000
 20
   -1899.6000
  0
VERTEX
  8
HB
 10
    1290.6000
 20
   -1800.7000
  0
VERTEX
  8
HB
 10
    1434.0000
 20
   -1673.0000
  0
VERTEX
  8
HB
 10
    1558.5000
 20
   -1507.2000
  0
VERTEX
  8
HB
 10
    1633.8000
 20
   -1322.0000
  0
VERTEX
  8
HB
 10
    1654.0000
 20
   -1115.0000
  0
VERTEX
  8
HB
 10
    1623.5000
 20
    -932.9000
  0
VERTEX
  8
HB
 10
    1550.0000
 20
    -770.0000
  0
VERTEX
  8
HB
 10
    1436.0000
 20
    -625.0000
  0
VERTEX
  8
HB
 10
    1307.3000
 20
    -511.2000
  0
VERTEX
  8
HB
 10
    1171.7000
 20
    -405.7000
  0
VERTEX
  8
HB
 10
    1043.0000
 20
    -292.0000
  0
VERTEX
  8
HB
 10
     927.1000
 20
    -147.2000
  0
VERTEX
  8
HB
 10
     844.0000
 20
      12.0000
  0
VERTEX
  8
HB
 10
     788.2000
 20
     183.2000
  0
VERTEX
  8
HB
 10
     754.0000
 20
     364.0000
  0
VERTEX
  8
HB
 10
     737.2000
 20
     544.8000
  0
VERTEX
  8
HB
 10
     735.0000
 20
     725.4000
  0
VERTEX
  8
HB
 10
     745.2000
 20
     905.8000
  0
VERTEX
  8
HB
 10
     766.0000
 20
    1086.0000
  0
VERTEX
  8
HB
 10
     795.5000
 20
    1265.7000
  0
VERTEX
  8
HB
 10
     831.9000
 20
    1443.8000
  0
VERTEX
  8
HB
 10
     874.0000
 20
    1620.6000
  0
VERTEX
  8
HB
 10
     920.3000
 20
    1796.3000
  0
VERTEX
  8
HB
 10
     969.4000
 20
    1971.3000
  0
VERTEX
  8
HB
 10
    1020.0000
 20
    2146.0000
  0
VERTEX
  8
HB
 10
    1356.0000
 20
    3292.0000
  0
VERTEX
  8
HB
 10
    1775.0000
 20
    4675.0000
  0
VERTEX
  8
HB
 10
    2261.0000
 20
    6155.0000
  0
VERTEX
  8
HB
 10
    2327.2000
 20
    6341.1001
  0
VERTEX
  8
HB
 10
    2394.7000
 20
    6526.7002
  0
VERTEX
  8
HB
 10
    2463.5000
 20
    6711.7998
  0
VERTEX
  8
HB
 10
    2533.8000
 20
    6896.2998
  0
VERTEX
  8
HB
 10
    2605.5000
 20
    7080.2998
  0
VERTEX
  8
HB
 10
    2678.7000
 20
    7263.7002
  0
VERTEX
  8
HB
 10
    2753.5000
 20
    7446.3999
  0
VERTEX
  8
HB
 10
    2829.8999
 20
    7628.5000
  0
VERTEX
  8
HB
 10
    2908.0000
 20
    7810.0000
  0
VERTEX
  8
HB
 10
    2987.8000
 20
    7990.7002
  0
VERTEX
  8
HB
 10
    3069.2000
 20
    8170.6001
  0
VERTEX
  8
HB
 10
    3152.3999
 20
    8349.5996
  0
VERTEX
  8
HB
 10
    3237.2000
 20
    8527.9004
  0
VERTEX
  8
HB
 10
    3323.6001
 20
    8705.4004
  0
VERTEX
  8
HB
 10
    3411.8000
 20
    8882.0996
  0
VERTEX
  8
HB
 10
    3501.6001
 20
    9057.9004
  0
VERTEX
  8
HB
 10
    3593.0000
 20
    9233.0000
  0
VERTEX
  8
HB
 10
    3680.7000
 20
    9397.2998
  0
VERTEX
  8
HB
 10
    3769.7000
 20
    9560.7998
  0
VERTEX
  8
HB
 10
    3859.8999
 20
    9723.7002
  0
VERTEX
  8
HB
 10
    3951.3000
 20
    9885.9004
  0
VERTEX
  8
HB
 10
    4043.7000
 20
   10047.5000
  0
VERTEX
  8
HB
 10
    4137.1001
 20
   10208.5000
  0
VERTEX
  8
HB
 10
    4231.2998
 20
   10369.0996
  0
VERTEX
  8
HB
 10
    4326.2998
 20
   10529.2002
  0
VERTEX
  8
HB
 10
    4422.0000
 20
   10689.0000
  0
VERTEX
  8
HB
 10
    5361.0000
 20
   12223.0000
  0
VERTEX
  8
HB
 10
    6057.0000
 20
   13382.0000
  0
VERTEX
  8
HB
 10
    6973.2002
 20
   14954.0000
  0
SEQEND
  0
POLYLINE
  8
HB
 66
     1
 70
     0
  0
VERTEX
  8
HB
 10
       0.0000
 20
   -2676.8999
  0
VERTEX
  8
HB
 10
     441.9000
 20
   -2676.8999
  0
SEQEND
  0
POLYLINE
  8
HB
 66
     1
 70
     0
  0
VERTEX
  8
HB
 10
     441.9000
 20
   -2676.8999
  0
VERTEX
  8
HB
 10
    1000.0000
 20
   -2618.0000
  0
VERTEX
  8
HB
 10
    1174.6000
 20
   -2583.5000
  0
VERTEX
  8
HB
 10
    1346.2000
 20
   -2540.7000
  0
VERTEX
  8
HB
 10
    1514.4000
 20
   -2488.5000
  0
VERTEX
  8
HB
 10
    1678.9000
 20
   -2425.7000
  0
VERTEX
  8
HB
 10
    1839.2000
 20
   -2351.2000
  0
VERTEX
  8
HB
 10
    1995.0000
 20
   -2264.0000
  0
VERTEX
  8
HB
 10
    2143.2000
 20
   -2164.2000
  0
VERTEX
  8
HB
 10
    2279.0000
 20
   -2051.3000
  0
VERTEX
  8
HB
 10
    2400.0000
 20
   -1923.0000
  0
VERTEX
  8
HB
 10
    2504.0000
 20
   -1777.0000
  0
VERTEX
  8
HB
 10
    2591.5000
 20
   -1600.6000
  0
VERTEX
  8
HB
 10
    2642.0000
 20
   -1418.1000
  0
VERTEX
  8
HB
 10
    2654.0000
 20
   -1229.4000
  0
VERTEX
  8
HB
 10
    2626.0000
 20
   -1034.0000
  0
VERTEX
  8
HB
 10
    2568.0000
 20
    -860.9000
  0
VERTEX
  8
HB
 10
    2485.3000
 20
    -702.5000
  0
VERTEX
  8
HB
 10
    2381.8999
 20
    -556.4000
  0
VERTEX
  8
HB
 10
    2262.0000
 20
    -420.0000
  0
VERTEX
  8
HB
 10
    2138.5000
 20
    -299.3000
  0
VERTEX
  8
HB
 10
    2009.3000
 20
    -185.3000
  0
VERTEX
  8
HB
 10
    1876.6000
 20
     -75.1000
  0
VERTEX
  8
HB
 10
    1743.0000
 20
      34.0000
  0
VERTEX
  8
HB
 10
    1589.5000
 20
     163.1000
  0
VERTEX
  8
HB
 10
    1441.2000
 20
     297.4000
  0
VERTEX
  8
HB
 10
    1301.0000
 20
     440.0000
  0
VERTEX
  8
HB
 10
    1172.0000
 20
     594.0000
  0
VERTEX
  8
HB
 10
    1068.3000
 20
     743.4000
  0
VERTEX
  8
HB
 10
     978.9000
 20
     900.2000
  0
VERTEX
  8
HB
 10
     903.3000
 20
    1064.2000
  0
VERTEX
  8
HB
 10
     841.0000
 20
    1235.0000
  0
VERTEX
  8
HB
 10
     793.0000
 20
    1406.4000
  0
VERTEX
  8
HB
 10
     757.4000
 20
    1579.3000
  0
VERTEX
  8
HB
 10
     732.6000
 20
    1753.7000
  0
VERTEX
  8
HB
 10
     717.3000
 20
    1929.2000
  0
VERTEX
  8
HB
 10
     709.9000
 20
    2105.7000
  0
VERTEX
  8
HB
 10
     709.0000
 20
    2283.0000
  0
VERTEX
  8
HB
 10
     713.5000
 20
    2464.3999
  0
VERTEX
  8
HB
 10
     722.8000
 20
    2645.3999
  0
VERTEX
  8
HB
 10
     736.6000
 20
    2825.8999
  0
VERTEX
  8
HB
 10
     754.4000
 20
    3005.8999
  0
VERTEX
  8
HB
 10
     775.7000
 20
    3185.7000
  0
VERTEX
  8
HB
 10
     800.2000
 20
    3365.0000
  0
VERTEX
  8
HB
 10
     827.5000
 20
    3544.1001
  0
VERTEX
  8
HB
 10
     857.0000
 20
    3723.0000
  0
VERTEX
  8
HB
 10
     890.9000
 20
    3914.6001
  0
VERTEX
  8
HB
 10
     926.8000
 20
    4105.7998
  0
VERTEX
  8
HB
 10
     964.6000
 20
    4296.6001
  0
VERTEX
  8
HB
 10
    1004.3000
 20
    4487.0000
  0
VERTEX
  8
HB
 10
    1045.8000
 20
    4677.0000
  0
VERTEX
  8
HB
 10
    1089.0000
 20
    4866.7002
  0
VERTEX
  8
HB
 10
    1133.7000
 20
    5056.0000
  0
VERTEX
  8
HB
 10
    1180.0000
 20
    5245.0000
  0
VERTEX
  8
HB
 10
    1227.4000
 20
    5432.6001
  0
VERTEX
  8
HB
 10
    1276.2000
 20
    5619.7998
  0
VERTEX
  8
HB
 10
    1326.4000
 20
    5806.6001
  0
VERTEX
  8
HB
 10
    1378.1000
 20
    5992.8999
  0
VERTEX
  8
HB
 10
    1431.3000
 20
    6178.7998
  0
VERTEX
  8
HB
 10
    1486.1000
 20
    6364.2998
  0
VERTEX
  8
HB
 10
    1542.4000
 20
    6549.2998
  0
VERTEX
  8
HB
 10
    1600.4000
 20
    6733.8999
  0
VERTEX
  8
HB
 10
    1660.0000
 20
    6918.0000
  0
VERTEX
  8
HB
 10
    1722.6000
 20
    7105.2998
  0
VERTEX
  8
HB
 10
    1786.9000
 20
    7292.0000
  0
VERTEX
  8
HB
 10
    1853.1000
 20
    7478.0000
  0
VERTEX
  8
HB
 10
    1921.3000
 20
    7663.2002
  0
VERTEX
  8
HB
 10
    1991.5000
 20
    7847.6001
  0
VERTEX
  8
HB
 10
    2063.8000
 20
    8031.2002
  0
VERTEX
  8
HB
 10
    2138.2000
 20
    8214.0000
  0
VERTEX
  8
HB
 10
    2215.0000
 20
    8396.0000
  0
VERTEX
  8
HB
 10
    2294.0000
 20
    8577.0000
  0
VERTEX
  8
HB
 10
    2375.1001
 20
    8756.4004
  0
VERTEX
  8
HB
 10
    2458.3999
 20
    8934.7002
  0
VERTEX
  8
HB
 10
    2543.8999
 20
    9111.9004
  0
VERTEX
  8
HB
 10
    2631.5000
 20
    9288.0000
  0
VERTEX
  8
HB
 10
    2721.0000
 20
    9463.0996
  0
VERTEX
  8
HB
 10
    2812.5000
 20
    9637.2002
  0
VERTEX
  8
HB
 10
    2905.8999
 20
    9810.4004
  0
VERTEX
  8
HB
 10
    3001.1001
 20
    9982.5996
  0
VERTEX
  8
HB
 10
    3098.0000
 20
   10154.0000
  0
VERTEX
  8
HB
 10
    3189.7000
 20
   10312.7002
  0
VERTEX
  8
HB
 10
    3282.6001
 20
   10470.5996
  0
VERTEX
  8
HB
 10
    3376.8000
 20
   10627.7998
  0
VERTEX
  8
HB
 10
    3472.0000
 20
   10784.2998
  0
VERTEX
  8
HB
 10
    3568.3000
 20
   10940.2002
  0
VERTEX
  8
HB
 10
    3665.3999
 20
   11095.5996
  0
VERTEX
  8
HB
 10
    3763.3000
 20
   11250.4004
  0
VERTEX
  8
HB
 10
    3861.8000
 20
   11404.9004
  0
VERTEX
  8
HB
 10
    3961.0000
 20
   11559.0000
  0
VERTEX
  8
HB
 10
    4737.0000
 20
   12748.0000
  0
VERTEX
  8
HB
 10
    5426.0000
 20
   13828.0000
  0
VERTEX
  8
HB
 10
    6334.0000
 20
   15293.7002
  0
SEQEND
  0
POLYLINE
  8
HB
 66
     1
 70
     0
  0
VERTEX
  8
HB
 10
       0.0000
 20
   -2895.0000
  0
VERTEX
  8
HB
 10
     477.8000
 20
   -2895.0000
  0
VERTEX
  8
HB
 10
     637.8000
 20
   -2891.0000
  0
VERTEX
  8
HB
 10
     797.4000
 20
   -2881.0000
  0
VERTEX
  8
HB
 10
     956.4000
 20
   -2865.0000
  0
SEQEND
  0
POLYLINE
  8
HB
 66
     1
 70
     0
  0
VERTEX
  8
HB
 10
     477.8000
 20
   -2895.0000
  0
VERTEX
  8
HB
 10
     637.8000
 20
   -2891.0000
  0
VERTEX
  8
HB
 10
     797.4000
 20
   -2881.0000
  0
VERTEX
  8
HB
 10
     956.4000
 20
   -2865.0000
  0
VERTEX
  8
HB
 10
    1115.0000
 20
   -2843.0000
  0
VERTEX
  8
HB
 10
    1294.0000
 20
   -2810.6001
  0
VERTEX
  8
HB
 10
    1470.1000
 20
   -2769.7000
  0
VERTEX
  8
HB
 10
    1643.0000
 20
   -2719.3000
  0
VERTEX
  8
HB
 10
    1812.4000
 20
   -2658.2000
  0
VERTEX
  8
HB
 10
    1977.8000
 20
   -2585.3999
  0
VERTEX
  8
HB
 10
    2139.0000
 20
   -2500.0000
  0
VERTEX
  8
HB
 10
    2295.8000
 20
   -2400.3000
  0
VERTEX
  8
HB
 10
    2441.0000
 20
   -2288.3999
  0
VERTEX
  8
HB
 10
    2573.5000
 20
   -2163.3000
  0
VERTEX
  8
HB
 10
    2692.2000
 20
   -2023.9000
  0
VERTEX
  8
HB
 10
    2796.0000
 20
   -1869.0000
  0
VERTEX
  8
HB
 10
    2873.8000
 20
   -1718.4000
  0
VERTEX
  8
HB
 10
    2931.5000
 20
   -1563.3000
  0
VERTEX
  8
HB
 10
    2967.8000
 20
   -1403.6000
  0
VERTEX
  8
HB
 10
    2981.3000
 20
   -1238.9000
  0
VERTEX
  8
HB
 10
    2971.0000
 20
   -1069.0000
  0
VERTEX
  8
HB
 10
    2930.8999
 20
    -880.1000
  0
VERTEX
  8
HB
 10
    2864.3999
 20
    -705.1000
  0
VERTEX
  8
HB
 10
    2774.8000
 20
    -542.2000
  0
VERTEX
  8
HB
 10
    2665.2000
 20
    -389.7000
  0
VERTEX
  8
HB
 10
    2539.0000
 20
    -246.0000
  0
VERTEX
  8
HB
 10
    2400.3000
 20
    -110.7000
  0
VERTEX
  8
HB
 10
    2253.8999
 20
      15.3000
  0
VERTEX
  8
HB
 10
    2101.5000
 20
     134.2000
  0
VERTEX
  8
HB
 10
    1945.0000
 20
     248.0000
  0
VERTEX
  8
HB
 10
    1425.0000
 20
     622.0000
  0
VERTEX
  8
HB
 10
    1283.5000
 20
     740.2000
  0
VERTEX
  8
HB
 10
    1150.2000
 20
     865.8000
  0
VERTEX
  8
HB
 10
    1026.6000
 20
    1000.1000
  0
VERTEX
  8
HB
 10
     914.0000
 20
    1144.4000
  0
VERTEX
  8
HB
 10
     814.0000
 20
    1300.0000
  0
VERTEX
  8
HB
 10
     738.4000
 20
    1444.8000
  0
VERTEX
  8
HB
 10
     675.2000
 20
    1594.3000
  0
VERTEX
  8
HB
 10
     623.4000
 20
    1748.2000
  0
VERTEX
  8
HB
 10
     582.0000
 20
    1906.0000
  0
VERTEX
  8
HB
 10
     547.9000
 20
    2080.2000
  0
VERTEX
  8
HB
 10
     524.6000
 20
    2254.6001
  0
VERTEX
  8
HB
 10
     510.8000
 20
    2429.3999
  0
VERTEX
  8
HB
 10
     505.2000
 20
    2604.3999
  0
VERTEX
  8
HB
 10
     506.7000
 20
    2779.5000
  0
VERTEX
  8
HB
 10
     514.0000
 20
    2954.8999
  0
VERTEX
  8
HB
 10
     525.8000
 20
    3130.3999
  0
VERTEX
  8
HB
 10
     541.0000
 20
    3306.0000
  0
VERTEX
  8
HB
 10
     558.8000
 20
    3484.8999
  0
VERTEX
  8
HB
 10
     578.7000
 20
    3663.6001
  0
VERTEX
  8
HB
 10
     600.5000
 20
    3841.8999
  0
VERTEX
  8
HB
 10
     624.3000
 20
    4020.0000
  0
VERTEX
  8
HB
 10
     649.9000
 20
    4197.8999
  0
VERTEX
  8
HB
 10
     677.3000
 20
    4375.5000
  0
VERTEX
  8
HB
 10
     706.3000
 20
    4552.7998
  0
VERTEX
  8
HB
 10
     737.0000
 20
    4730.0000
  0
VERTEX
  8
HB
 10
     769.3000
 20
    4907.3999
  0
VERTEX
  8
HB
 10
     803.1000
 20
    5084.5000
  0
VERTEX
  8
HB
 10
     838.5000
 20
    5261.2002
  0
VERTEX
  8
HB
 10
     875.3000
 20
    5437.6001
  0
VERTEX
  8
HB
 10
     913.7000
 20
    5613.7002
  0
VERTEX
  8
HB
 10
     953.6000
 20
    5789.3999
  0
VERTEX
  8
HB
 10
     995.0000
 20
    5964.8999
  0
VERTEX
  8
HB
 10
    1038.0000
 20
    6140.0000
  0
VERTEX
  8
HB
 10
    1086.3000
 20
    6329.6001
  0
VERTEX
  8
HB
 10
    1136.5000
 20
    6518.6001
  0
VERTEX
  8
HB
 10
    1188.4000
 20
    6707.1001
  0
VERTEX
  8
HB
 10
    1242.3000
 20
    6895.1001
  0
VERTEX
  8
HB
 10
    1298.2000
 20
    7082.5000
  0
VERTEX
  8
HB
 10
    1356.1000
 20
    7269.2998
  0
VERTEX
  8
HB
 10
    1416.0000
 20
    7455.3999
  0
VERTEX
  8
HB
 10
    1478.0000
 20
    7641.0000
  0
VERTEX
  8
HB
 10
    1538.3000
 20
    7815.0000
  0
VERTEX
  8
HB
 10
    1600.6000
 20
    7988.2998
  0
VERTEX
  8
HB
 10
    1664.7000
 20
    8160.7998
  0
VERTEX
  8
HB
 10
    1730.8000
 20
    8332.5996
  0
VERTEX
  8
HB
 10
    1798.9000
 20
    8503.5000
  0
VERTEX
  8
HB
 10
    1869.1000
 20
    8673.5996
  0
VERTEX
  8
HB
 10
    1941.3000
 20
    8842.9004
  0
VERTEX
  8
HB
 10
    2015.6000
 20
    9011.4004
  0
VERTEX
  8
HB
 10
    2092.0000
 20
    9179.0000
  0
VERTEX
  8
HB
 10
    2173.0000
 20
    9350.7998
  0
VERTEX
  8
HB
 10
    2256.1001
 20
    9521.5000
  0
VERTEX
  8
HB
 10
    2341.3000
 20
    9691.0000
  0
VERTEX
  8
HB
 10
    2428.3999
 20
    9859.5996
  0
VERTEX
  8
HB
 10
    2517.5000
 20
   10027.0996
  0
VERTEX
  8
HB
 10
    2608.3000
 20
   10193.5996
  0
VERTEX
  8
HB
 10
    2700.8000
 20
   10359.2998
  0
VERTEX
  8
HB
 10
    2795.0000
 20
   10524.0000
  0
VERTEX
  8
HB
 10
    2890.8000
 20
   10687.9004
  0
VERTEX
  8
HB
 10
    2988.0000
 20
   10851.0000
  0
VERTEX
  8
HB
 10
    3918.0000
 20
   12306.0000
  0
VERTEX
  8
HB
 10
    4957.0000
 20
   13879.0000
  0
VERTEX
  8
HB
 10
    5964.1001
 20
   15447.2998
  0
SEQEND
  0
POLYLINE
  8
HB
 66
     1
 70
     0
  0
VERTEX
  8
HB
 10
       0.0000
 20
   -3021.1001
  0
VERTEX
  8
HB
 10
     498.5000
 20
   -3021.1001
  0
SEQEND
  0
POLYLINE
  8
HB
 66
     1
 70
     0
  0
VERTEX
  8
HB
 10
     498.5000
 20
   -3021.1001
  0
VERTEX
  8
HB
 10
     963.0000
 20
   -2992.0000
  0
VERTEX
  8
HB
 10
    1145.4000
 20
   -2964.0000
  0
VERTEX
  8
HB
 10
    1324.9000
 20
   -2926.7000
  0
VERTEX
  8
HB
 10
    1501.5000
 20
   -2879.6001
  0
VERTEX
  8
HB
 10
    1675.1000
 20
   -2822.5000
  0
VERTEX
  8
HB
 10
    1845.7000
 20
   -2755.1001
  0
VERTEX
  8
HB
 10
    2013.0000
 20
   -2677.0000
  0
VERTEX
  8
HB
 10
    2171.1001
 20
   -2591.1001
  0
VERTEX
  8
HB
 10
    2321.3000
 20
   -2495.8000
  0
VERTEX
  8
HB
 10
    2462.8000
 20
   -2390.0000
  0
VERTEX
  8
HB
 10
    2594.8000
 20
   -2272.8000
  0
VERTEX
  8
HB
 10
    2716.5000
 20
   -2143.1001
  0
VERTEX
  8
HB
 10
    2827.0000
 20
   -2000.0000
  0
VERTEX
  8
HB
 10
    2932.2000
 20
   -1828.7000
  0
VERTEX
  8
HB
 10
    3012.1001
 20
   -1652.1000
  0
VERTEX
  8
HB
 10
    3065.5000
 20
   -1470.1000
  0
VERTEX
  8
HB
 10
    3091.5000
 20
   -1282.3000
  0
VERTEX
  8
HB
 10
    3089.0000
 20
   -1088.7000
  0
VERTEX
  8
HB
 10
    3057.0000
 20
    -889.0000
  0
VERTEX
  8
HB
 10
    3007.1001
 20
    -719.3000
  0
VERTEX
  8
HB
 10
    2939.6001
 20
    -559.1000
  0
VERTEX
  8
HB
 10
    2856.0000
 20
    -407.6000
  0
VERTEX
  8
HB
 10
    2758.0000
 20
    -263.8000
  0
VERTEX
  8
HB
 10
    2647.0000
 20
    -127.0000
  0
VERTEX
  8
HB
 10
    2510.3000
 20
      17.0000
  0
VERTEX
  8
HB
 10
    2363.3999
 20
     148.4000
  0
VERTEX
  8
HB
 10
    2205.8999
 20
     267.1000
  0
VERTEX
  8
HB
 10
    2038.0000
 20
     373.0000
  0
VERTEX
  8
HB
 10
    1879.4000
 20
     457.4000
  0
VERTEX
  8
HB
 10
    1717.3000
 20
     534.7000
  0
VERTEX
  8
HB
 10
    1554.0000
 20
     609.8000
  0
VERTEX
  8
HB
 10
    1392.1000
 20
     687.6000
  0
VERTEX
  8
HB
 10
    1234.0000
 20
     773.0000
  0
VERTEX
  8
HB
 10
    1071.9000
 20
     877.5000
  0
VERTEX
  8
HB
 10
     922.2000
 20
     995.9000
  0
VERTEX
  8
HB
 10
     786.5000
 20
    1129.9000
  0
VERTEX
  8
HB
 10
     666.0000
 20
    1281.0000
  0
VERTEX
  8
HB
 10
     569.5000
 20
    1437.3000
  0
VERTEX
  8
HB
 10
     492.6000
 20
    1600.0000
  0
VERTEX
  8
HB
 10
     432.9000
 20
    1768.3000
  0
VERTEX
  8
HB
 10
     387.9000
 20
    1941.5000
  0
VERTEX
  8
HB
 10
     355.1000
 20
    2118.6001
  0
VERTEX
  8
HB
 10
     332.0000
 20
    2299.0000
  0
VERTEX
  8
HB
 10
     316.8000
 20
    2478.2000
  0
VERTEX
  8
HB
 10
     308.1000
 20
    2657.3000
  0
VERTEX
  8
HB
 10
     305.0000
 20
    2836.5000
  0
VERTEX
  8
HB
 10
     306.9000
 20
    3015.6001
  0
VERTEX
  8
HB
 10
     312.9000
 20
    3194.7000
  0
VERTEX
  8
HB
 10
     322.2000
 20
    3373.8999
  0
VERTEX
  8
HB
 10
     334.0000
 20
    3553.0000
  0
VERTEX
  8
HB
 10
     347.5000
 20
    3731.1001
  0
VERTEX
  8
HB
 10
     362.6000
 20
    3909.0000
  0
VERTEX
  8
HB
 10
     379.4000
 20
    4086.8000
  0
VERTEX
  8
HB
 10
     397.8000
 20
    4264.3999
  0
VERTEX
  8
HB
 10
     417.7000
 20
    4441.7998
  0
VERTEX
  8
HB
 10
     439.3000
 20
    4619.0000
  0
VERTEX
  8
HB
 10
     462.4000
 20
    4796.1001
  0
VERTEX
  8
HB
 10
     487.0000
 20
    4973.0000
  0
VERTEX
  8
HB
 10
     516.4000
 20
    5170.6001
  0
VERTEX
  8
HB
 10
     547.7000
 20
    5367.8999
  0
VERTEX
  8
HB
 10
     580.9000
 20
    5564.8999
  0
VERTEX
  8
HB
 10
     616.1000
 20
    5761.3999
  0
VERTEX
  8
HB
 10
     653.4000
 20
    5957.7002
  0
VERTEX
  8
HB
 10
     692.7000
 20
    6153.5000
  0
VERTEX
  8
HB
 10
     734.0000
 20
    6349.0000
  0
VERTEX
  8
HB
 10
     775.3000
 20
    6534.6001
  0
VERTEX
  8
HB
 10
     818.5000
 20
    6719.7002
  0
VERTEX
  8
HB
 10
     863.6000
 20
    6904.2998
  0
VERTEX
  8
HB
 10
     910.7000
 20
    7088.2998
  0
VERTEX
  8
HB
 10
     959.9000
 20
    7271.7998
  0
VERTEX
  8
HB
 10
    1011.2000
 20
    7454.7002
  0
VERTEX
  8
HB
 10
    1064.6000
 20
    7637.1001
  0
VERTEX
  8
HB
 10
    1120.2000
 20
    7818.7998
  0
VERTEX
  8
HB
 10
    1178.0000
 20
    8000.0000
  0
VERTEX
  8
HB
 10
    1238.8000
 20
    8182.7002
  0
VERTEX
  8
HB
 10
    1302.0000
 20
    8364.5996
  0
VERTEX
  8
HB
 10
    1367.4000
 20
    8545.5000
  0
VERTEX
  8
HB
 10
    1435.1000
 20
    8725.5996
  0
VERTEX
  8
HB
 10
    1505.1000
 20
    8904.7002
  0
VERTEX
  8
HB
 10
    1577.5000
 20
    9082.9004
  0
VERTEX
  8
HB
 10
    1652.3000
 20
    9260.2002
  0
VERTEX
  8
HB
 10
    1729.4000
 20
    9436.5996
  0
VERTEX
  8
HB
 10
    1809.0000
 20
    9612.0000
  0
VERTEX
  8
HB
 10
    1892.4000
 20
    9789.4004
  0
VERTEX
  8
HB
 10
    1978.1000
 20
    9965.7002
  0
VERTEX
  8
HB
 10
    2066.0000
 20
   10140.7002
  0
VERTEX
  8
HB
 10
    2156.0000
 20
   10314.5996
  0
VERTEX
  8
HB
 10
    2248.1001
 20
   10487.5000
  0
VERTEX
  8
HB
 10
    2342.2000
 20
   10659.2998
  0
VERTEX
  8
HB
 10
    2438.2000
 20
   10830.0996
  0
VERTEX
  8
HB
 10
    2536.0000
 20
   11000.0000
  0
VERTEX
  8
HB
 10
    2631.6001
 20
   11162.2998
  0
VERTEX
  8
HB
 10
    2728.6001
 20
   11323.7998
  0
VERTEX
  8
HB
 10
    2826.8999
 20
   11484.4004
  0
VERTEX
  8
HB
 10
    2926.5000
 20
   11644.2998
  0
VERTEX
  8
HB
 10
    3027.1001
 20
   11803.5000
  0
VERTEX
  8
HB
 10
    3128.6001
 20
   11962.0996
  0
VERTEX
  8
HB
 10
    3231.1001
 20
   12120.2002
  0
VERTEX
  8
HB
 10
    3334.2000
 20
   12277.7998
  0
VERTEX
  8
HB
 10
    3438.0000
 20
   12435.0000
  0
VERTEX
  8
HB
 10
    4199.0000
 20
   13566.0000
  0
VERTEX
  8
HB
 10
    4839.0000
 20
   14516.0000
  0
VERTEX
  8
HB
 10
    5554.2998
 20
   15587.0000
  0
SEQEND
  0
POLYLINE
  8
HB
 66
     1
 70
     0
  0
VERTEX
  8
HB
 10
       0.0000
 20
   -2910.0000
  0
VERTEX
  8
HB
 10
     480.2000
 20
   -2910.0000
  0
SEQEND
  0
POLYLINE
  8
HB
 66
     1
 70
     0
  0
VERTEX
  8
HB
 10
     480.2000
 20
   -2910.0000
  0
VERTEX
  8
HB
 10
     865.0000
 20
   -2863.0000
  0
VERTEX
  8
HB
 10
    1041.1000
 20
   -2829.3999
  0
VERTEX
  8
HB
 10
    1214.5000
 20
   -2787.8000
  0
VERTEX
  8
HB
 10
    1384.9000
 20
   -2737.2000
  0
VERTEX
  8
HB
 10
    1551.9000
 20
   -2676.7000
  0
VERTEX
  8
HB
 10
    1715.4000
 20
   -2605.6001
  0
VERTEX
  8
HB
 10
    1875.0000
 20
   -2523.0000
  0
VERTEX
  8
HB
 10
    2041.9000
 20
   -2419.6001
  0
VERTEX
  8
HB
 10
    2195.8000
 20
   -2302.8000
  0
VERTEX
  8
HB
 10
    2334.7000
 20
   -2170.8000
  0
VERTEX
  8
HB
 10
    2456.7000
 20
   -2021.5000
  0
VERTEX
  8
HB
 10
    2560.0000
 20
   -1853.0000
  0
VERTEX
  8
HB
 10
    2637.0000
 20
   -1677.1000
  0
VERTEX
  8
HB
 10
    2687.0000
 20
   -1497.5000
  0
VERTEX
  8
HB
 10
    2710.8999
 20
   -1314.4000
  0
VERTEX
  8
HB
 10
    2709.6001
 20
   -1127.8000
  0
VERTEX
  8
HB
 10
    2684.0000
 20
    -938.0000
  0
VERTEX
  8
HB
 10
    2634.6001
 20
    -746.6000
  0
VERTEX
  8
HB
 10
    2562.5000
 20
    -566.1000
  0
VERTEX
  8
HB
 10
    2467.2000
 20
    -396.8000
  0
VERTEX
  8
HB
 10
    2348.0000
 20
    -239.0000
  0
VERTEX
  8
HB
 10
    2221.6001
 20
    -108.9000
  0
VERTEX
  8
HB
 10
    2083.3999
 20
       5.8000
  0
VERTEX
  8
HB
 10
    1935.2000
 20
     107.7000
  0
VERTEX
  8
HB
 10
    1779.0000
 20
     199.0000
  0
VERTEX
  8
HB
 10
    1107.0000
 20
     514.0000
  0
VERTEX
  8
HB
 10
     965.8000
 20
     581.8000
  0
VERTEX
  8
HB
 10
     829.0000
 20
     656.6000
  0
VERTEX
  8
HB
 10
     699.2000
 20
     742.6000
  0
VERTEX
  8
HB
 10
     579.0000
 20
     844.0000
  0
VERTEX
  8
HB
 10
     461.4000
 20
     977.4000
  0
VERTEX
  8
HB
 10
     367.3000
 20
    1124.1000
  0
VERTEX
  8
HB
 10
     293.6000
 20
    1282.2000
  0
VERTEX
  8
HB
 10
     237.0000
 20
    1450.0000
  0
VERTEX
  8
HB
 10
     194.3000
 20
    1626.7000
  0
VERTEX
  8
HB
 10
     165.0000
 20
    1804.9000
  0
VERTEX
  8
HB
 10
     146.3000
 20
    1984.5000
  0
VERTEX
  8
HB
 10
     135.2000
 20
    2164.8999
  0
VERTEX
  8
HB
 10
     129.0000
 20
    2346.0000
  0
VERTEX
  8
HB
 10
     125.4000
 20
    2524.8999
  0
VERTEX
  8
HB
 10
     123.6000
 20
    2703.8000
  0
VERTEX
  8
HB
 10
     123.7000
 20
    2882.7000
  0
VERTEX
  8
HB
 10
     125.5000
 20
    3061.5000
  0
VERTEX
  8
HB
 10
     128.8000
 20
    3240.3999
  0
VERTEX
  8
HB
 10
     133.7000
 20
    3419.2000
  0
VERTEX
  8
HB
 10
     140.0000
 20
    3598.0000
  0
VERTEX
  8
HB
 10
     230.0000
 20
    4942.0000
  0
VERTEX
  8
HB
 10
     381.0000
 20
    6157.0000
  0
VERTEX
  8
HB
 10
     411.4000
 20
    6346.8999
  0
VERTEX
  8
HB
 10
     443.7000
 20
    6536.5000
  0
VERTEX
  8
HB
 10
     478.0000
 20
    6725.6001
  0
VERTEX
  8
HB
 10
     514.3000
 20
    6914.2998
  0
VERTEX
  8
HB
 10
     552.8000
 20
    7102.5000
  0
VERTEX
  8
HB
 10
     593.4000
 20
    7290.3999
  0
VERTEX
  8
HB
 10
     636.3000
 20
    7477.7002
  0
VERTEX
  8
HB
 10
     681.5000
 20
    7664.6001
  0
VERTEX
  8
HB
 10
     729.0000
 20
    7851.0000
  0
VERTEX
  8
HB
 10
     778.7000
 20
    8035.8999
  0
VERTEX
  8
HB
 10
     830.7000
 20
    8220.0000
  0
VERTEX
  8
HB
 10
     885.2000
 20
    8403.4004
  0
VERTEX
  8
HB
 10
     942.1000
 20
    8585.9004
  0
VERTEX
  8
HB
 10
    1001.6000
 20
    8767.5996
  0
VERTEX
  8
HB
 10
    1063.5000
 20
    8948.5000
  0
VERTEX
  8
HB
 10
    1128.0000
 20
    9128.5000
  0
VERTEX
  8
HB
 10
    1195.2000
 20
    9307.7002
  0
VERTEX
  8
HB
 10
    1265.0000
 20
    9486.0000
  0
VERTEX
  8
HB
 10
    1333.8000
 20
    9654.5000
  0
VERTEX
  8
HB
 10
    1404.8000
 20
    9821.9004
  0
VERTEX
  8
HB
 10
    1478.1000
 20
    9988.2002
  0
VERTEX
  8
HB
 10
    1553.5000
 20
   10153.5996
  0
VERTEX
  8
HB
 10
    1631.0000
 20
   10318.0000
  0
VERTEX
  8
HB
 10
    1710.5000
 20
   10481.2998
  0
VERTEX
  8
HB
 10
    1792.1000
 20
   10643.7998
  0
VERTEX
  8
HB
 10
    1875.6000
 20
   10805.2998
  0
VERTEX
  8
HB
 10
    1961.0000
 20
   10966.0000
  0
VERTEX
  8
HB
 10
    2049.7000
 20
   11128.5000
  0
VERTEX
  8
HB
 10
    2140.2000
 20
   11290.0996
  0
VERTEX
  8
HB
 10
    2232.2000
 20
   11450.5996
  0
VERTEX
  8
HB
 10
    2325.8000
 20
   11610.2002
  0
VERTEX
  8
HB
 10
    2420.8000
 20
   11769.0000
  0
VERTEX
  8
HB
 10
    2517.2000
 20
   11927.0000
  0
VERTEX
  8
HB
 10
    2614.8000
 20
   12084.2002
  0
VERTEX
  8
HB
 10
    2713.5000
 20
   12240.7998
  0
VERTEX
  8
HB
 10
    2813.3000
 20
   12396.7002
  0
VERTEX
  8
HB
 10
    2914.0000
 20
   12552.0000
  0
VERTEX
  8
HB
 10
    3981.0000
 20
   14119.0000
  0
VERTEX
  8
HB
 10
    5098.8999
 20
   15711.4004
  0
SEQEND
  0
POLYLINE
  8
HB
 66
     1
 70
     0
  0
VERTEX
  8
HB
 10
       0.0000
 20
    6208.5000
  0
VERTEX
  8
HB
 10
     116.1000
 20
    6208.5000
  0
VERTEX
  8
HB
 10
     133.7000
 20
    6400.2998
  0
VERTEX
  8
HB
 10
     153.6000
 20
    6591.8999
  0
VERTEX
  8
HB
 10
     175.9000
 20
    6783.1001
  0
VERTEX
  8
HB
 10
     200.6000
 20
    6974.0000
  0
VERTEX
  8
HB
 10
     227.7000
 20
    7164.7002
  0
VERTEX
  8
HB
 10
     257.2000
 20
    7355.0000
  0
SEQEND
  0
POLYLINE
  8
HB
 66
     1
 70
     0
  0
VERTEX
  8
HB
 10
     116.1000
 20
    6208.5000
  0
VERTEX
  8
HB
 10
     133.7000
 20
    6400.2998
  0
VERTEX
  8
HB
 10
     153.6000
 20
    6591.8999
  0
VERTEX
  8
HB
 10
     175.9000
 20
    6783.1001
  0
VERTEX
  8
HB
 10
     200.6000
 20
    6974.0000
  0
VERTEX
  8
HB
 10
     227.7000
 20
    7164.7002
  0
VERTEX
  8
HB
 10
     257.2000
 20
    7355.0000
  0
VERTEX
  8
HB
 10
     289.0000
 20
    7545.0000
  0
VERTEX
  8
HB
 10
     321.0000
 20
    7722.6001
  0
VERTEX
  8
HB
 10
     355.1000
 20
    7899.7002
  0
VERTEX
  8
HB
 10
     391.4000
 20
    8076.2998
  0
VERTEX
  8
HB
 10
     430.0000
 20
    8252.4004
  0
VERTEX
  8
HB
 10
     471.0000
 20
    8427.9004
  0
VERTEX
  8
HB
 10
     514.4000
 20
    8602.7998
  0
VERTEX
  8
HB
 10
     560.3000
 20
    8777.2002
  0
VERTEX
  8
HB
 10
     608.8000
 20
    8950.9004
  0
VERTEX
  8
HB
 10
     660.0000
 20
    9124.0000
  0
VERTEX
  8
HB
 10
     717.5000
 20
    9307.5996
  0
VERTEX
  8
HB
 10
     778.0000
 20
    9490.0000
  0
VERTEX
  8
HB
 10
     841.4000
 20
    9671.4004
  0
VERTEX
  8
HB
 10
     907.6000
 20
    9851.5996
  0
VERTEX
  8
HB
 10
     976.7000
 20
   10030.7998
  0
VERTEX
  8
HB
 10
    1048.5000
 20
   10208.9004
  0
VERTEX
  8
HB
 10
    1123.0000
 20
   10385.9004
  0
VERTEX
  8
HB
 10
    1200.2000
 20
   10562.0000
  0
VERTEX
  8
HB
 10
    1280.0000
 20
   10737.0000
  0
VERTEX
  8
HB
 10
    1361.7000
 20
   10909.5000
  0
VERTEX
  8
HB
 10
    1445.6000
 20
   11080.7998
  0
VERTEX
  8
HB
 10
    1531.8000
 20
   11250.9004
  0
VERTEX
  8
HB
 10
    1620.1000
 20
   11419.9004
  0
VERTEX
  8
HB
 10
    1710.5000
 20
   11587.7998
  0
VERTEX
  8
HB
 10
    1802.9000
 20
   11754.5000
  0
VERTEX
  8
HB
 10
    1897.1000
 20
   11920.2998
  0
VERTEX
  8
HB
 10
    1993.2000
 20
   12085.0996
  0
VERTEX
  8
HB
 10
    2091.0000
 20
   12249.0000
  0
VERTEX
  8
HB
 10
    2185.3999
 20
   12403.7998
  0
VERTEX
  8
HB
 10
    2281.2000
 20
   12557.7998
  0
VERTEX
  8
HB
 10
    2378.2000
 20
   12710.9004
  0
VERTEX
  8
HB
 10
    2476.5000
 20
   12863.2998
  0
VERTEX
  8
HB
 10
    2575.8000
 20
   13014.9004
  0
VERTEX
  8
HB
 10
    2676.2000
 20
   13165.7998
  0
VERTEX
  8
HB
 10
    2777.6001
 20
   13316.0996
  0
VERTEX
  8
HB
 10
    2879.8999
 20
   13465.7998
  0
VERTEX
  8
HB
 10
    2983.0000
 20
   13615.0000
  0
VERTEX
  8
HB
 10
    3762.0000
 20
   14702.0000
  0
VERTEX
  8
HB
 10
    4592.0000
 20
   15820.9004
  0
SEQEND
  0
POLYLINE
  8
HB
 66
     1
 70
     0
  0
VERTEX
  8
HB
 10
       0.0000
 20
   11420.0000
  0
VERTEX
  8
HB
 10
     363.9000
 20
   11420.0000
  0
VERTEX
  8
HB
 10
     443.9000
 20
   11601.2002
  0
VERTEX
  8
HB
 10
     526.6000
 20
   11781.0000
  0
VERTEX
  8
HB
 10
     612.1000
 20
   11959.5000
  0
VERTEX
  8
HB
 10
     700.2000
 20
   12136.7002
  0
VERTEX
  8
HB
 10
     791.1000
 20
   12312.5000
  0
VERTEX
  8
HB
 10
     884.7000
 20
   12486.9004
  0
SEQEND
  0
POLYLINE
  8
HB
 66
     1
 70
     0
  0
VERTEX
  8
HB
 10
     363.9000
 20
   11420.0000
  0
VERTEX
  8
HB
 10
     443.9000
 20
   11601.2002
  0
VERTEX
  8
HB
 10
     526.6000
 20
   11781.0000
  0
VERTEX
  8
HB
 10
     612.1000
 20
   11959.5000
  0
VERTEX
  8
HB
 10
     700.2000
 20
   12136.7002
  0
VERTEX
  8
HB
 10
     791.1000
 20
   12312.5000
  0
VERTEX
  8
HB
 10
     884.7000
 20
   12486.9004
  0
VERTEX
  8
HB
 10
     981.0000
 20
   12660.0000
  0
VERTEX
  8
HB
 10
    1071.5000
 20
   12817.0996
  0
VERTEX
  8
HB
 10
    1164.0000
 20
   12973.0000
  0
VERTEX
  8
HB
 10
    1258.4000
 20
   13127.5996
  0
VERTEX
  8
HB
 10
    1354.8000
 20
   13281.0000
  0
VERTEX
  8
HB
 10
    1452.9000
 20
   13433.2998
  0
VERTEX
  8
HB
 10
    1552.7000
 20
   13584.5000
  0
VERTEX
  8
HB
 10
    1654.1000
 20
   13734.7002
  0
VERTEX
  8
HB
 10
    1757.0000
 20
   13884.0000
  0
VERTEX
  8
HB
 10
    2533.0000
 20
   14932.0000
  0
VERTEX
  8
HB
 10
    3406.0000
 20
   16000.0000
  0
SEQEND
  0
POLYLINE
  8
HB
 66
     1
 70
     0
  0
VERTEX
  8
HB
 10
       0.0000
 20
    5121.3999
  0
VERTEX
  8
HB
 10
     -36.9000
 20
    5121.3999
  0
SEQEND
  0
POLYLINE
  8
HB
 66
     1
 70
     0
  0
VERTEX
  8
HB
 10
     -36.9000
 20
    5121.3999
  0
VERTEX
  8
HB
 10
   -1000.0000
 20
    5232.7002
  0
VERTEX
  8
HB
 10
   -2000.0000
 20
    5336.6001
  0
VERTEX
  8
HB
 10
   -3000.0000
 20
    5443.0000
  0
VERTEX
  8
HB
 10
   -4000.0000
 20
    5572.3999
  0
VERTEX
  8
HB
 10
   -4184.6001
 20
    5601.0000
  0
VERTEX
  8
HB
 10
   -4368.1001
 20
    5633.0000
  0
VERTEX
  8
HB
 10
   -4550.0000
 20
    5670.2998
  0
VERTEX
  8
HB
 10
   -4729.7998
 20
    5714.6001
  0
VERTEX
  8
HB
 10
   -4906.8999
 20
    5767.8999
  0
VERTEX
  8
HB
 10
   -5080.7998
 20
    5832.0000
  0
VERTEX
  8
HB
 10
   -5250.7998
 20
    5908.7998
  0
VERTEX
  8
HB
 10
   -5416.3999
 20
    6000.0000
  0
VERTEX
  8
HB
 10
   -5580.5000
 20
    6110.0000
  0
VERTEX
  8
HB
 10
   -5731.2002
 20
    6232.1001
  0
VERTEX
  8
HB
 10
   -5869.1001
 20
    6365.5000
  0
VERTEX
  8
HB
 10
   -5995.0000
 20
    6509.6001
  0
VERTEX
  8
HB
 10
   -6109.5000
 20
    6663.7998
  0
VERTEX
  8
HB
 10
   -6213.3999
 20
    6827.5000
  0
VERTEX
  8
HB
 10
   -6307.3999
 20
    7000.0000
  0
VERTEX
  8
HB
 10
   -6383.7002
 20
    7161.2002
  0
VERTEX
  8
HB
 10
   -6452.2002
 20
    7325.2002
  0
VERTEX
  8
HB
 10
   -6514.2002
 20
    7491.6001
  0
VERTEX
  8
HB
 10
   -6571.2002
 20
    7659.8999
  0
VERTEX
  8
HB
 10
   -6624.5000
 20
    7829.5000
  0
VERTEX
  8
HB
 10
   -6675.3999
 20
    8000.0000
  0
VERTEX
  8
HB
 10
   -6955.7998
 20
    9000.0000
  0
VERTEX
  8
HB
 10
   -7224.0000
 20
   10000.0000
  0
VERTEX
  8
HB
 10
   -7437.2998
 20
   10820.0996
  0
SEQEND
  0
POLYLINE
  8
HB
 66
     1
 70
     0
  0
VERTEX
  8
HB
 10
       0.0000
 20
    4011.8000
  0
VERTEX
  8
HB
 10
    -217.3000
 20
    4011.8000
  0
SEQEND
  0
POLYLINE
  8
HB
 66
     1
 70
     0
  0
VERTEX
  8
HB
 10
    -217.3000
 20
    4011.8000
  0
VERTEX
  8
HB
 10
   -1000.0000
 20
    4206.1001
  0
VERTEX
  8
HB
 10
   -2000.0000
 20
    4413.0000
  0
VERTEX
  8
HB
 10
   -3000.0000
 20
    4610.1001
  0
VERTEX
  8
HB
 10
   -4000.0000
 20
    4840.2998
  0
VERTEX
  8
HB
 10
   -5000.0000
 20
    5125.7002
  0
VERTEX
  8
HB
 10
   -5174.0000
 20
    5185.1001
  0
VERTEX
  8
HB
 10
   -5345.8999
 20
    5248.2998
  0
VERTEX
  8
HB
 10
   -5515.2002
 20
    5316.2998
  0
VERTEX
  8
HB
 10
   -5681.2998
 20
    5389.8999
  0
VERTEX
  8
HB
 10
   -5843.8999
 20
    5470.1001
  0
VERTEX
  8
HB
 10
   -6002.3999
 20
    5557.7002
  0
VERTEX
  8
HB
 10
   -6156.2002
 20
    5653.5000
  0
VERTEX
  8
HB
 10
   -6305.1001
 20
    5758.6001
  0
VERTEX
  8
HB
 10
   -6448.2998
 20
    5873.7998
  0
VERTEX
  8
HB
 10
   -6585.5000
 20
    6000.0000
  0
VERTEX
  8
HB
 10
   -6705.7002
 20
    6126.2998
  0
VERTEX
  8
HB
 10
   -6816.7998
 20
    6258.6001
  0
VERTEX
  8
HB
 10
   -6919.2998
 20
    6396.7002
  0
VERTEX
  8
HB
 10
   -7013.6001
 20
    6540.2998
  0
VERTEX
  8
HB
 10
   -7100.3999
 20
    6688.8999
  0
VERTEX
  8
HB
 10
   -7180.0000
 20
    6842.2002
  0
VERTEX
  8
HB
 10
   -7253.1001
 20
    7000.0000
  0
VERTEX
  8
HB
 10
   -7320.5000
 20
    7162.7998
  0
VERTEX
  8
HB
 10
   -7382.0000
 20
    7327.7002
  0
VERTEX
  8
HB
 10
   -7438.7002
 20
    7494.2002
  0
VERTEX
  8
HB
 10
   -7491.3999
 20
    7662.0000
  0
VERTEX
  8
HB
 10
   -7541.5000
 20
    7830.7002
  0
VERTEX
  8
HB
 10
   -7589.7998
 20
    8000.0000
  0
VERTEX
  8
HB
 10
   -7861.3999
 20
    9000.0000
  0
VERTEX
  8
HB
 10
   -8118.6001
 20
   10000.0000
  0
VERTEX
  8
HB
 10
   -8255.2998
 20
   10551.5000
  0
SEQEND
  0
POLYLINE
  8
HB
 66
     1
 70
     0
  0
VERTEX
  8
HB
 10
       0.0000
 20
    2500.3000
  0
VERTEX
  8
HB
 10
    -502.4000
 20
    2500.3000
  0
SEQEND
  0
POLYLINE
  8
HB
 66
     1
 70
     0
  0
VERTEX
  8
HB
 10
    -502.4000
 20
    2500.3000
  0
VERTEX
  8
HB
 10
   -1720.2000
 20
    3000.0000
  0
VERTEX
  8
HB
 10
   -3000.0000
 20
    3514.0000
  0
VERTEX
  8
HB
 10
   -4000.0000
 20
    3910.5000
  0
VERTEX
  8
HB
 10
   -5000.0000
 20
    4319.7002
  0
VERTEX
  8
HB
 10
   -5175.0000
 20
    4395.1001
  0
VERTEX
  8
HB
 10
   -5349.2002
 20
    4472.1001
  0
VERTEX
  8
HB
 10
   -5522.2998
 20
    4551.3999
  0
VERTEX
  8
HB
 10
   -5693.8999
 20
    4633.3999
  0
VERTEX
  8
HB
 10
   -5864.0000
 20
    4718.7002
  0
VERTEX
  8
HB
 10
   -6032.1001
 20
    4807.8999
  0
VERTEX
  8
HB
 10
   -6198.0000
 20
    4901.5000
  0
VERTEX
  8
HB
 10
   -6361.3999
 20
    5000.0000
  0
VERTEX
  8
HB
 10
   -6520.8999
 20
    5103.2002
  0
VERTEX
  8
HB
 10
   -6675.7002
 20
    5211.5000
  0
VERTEX
  8
HB
 10
   -6825.5000
 20
    5325.5000
  0
VERTEX
  8
HB
 10
   -6969.7998
 20
    5445.7002
  0
VERTEX
  8
HB
 10
   -7107.8999
 20
    5572.7002
  0
VERTEX
  8
HB
 10
   -7239.5000
 20
    5707.0000
  0
VERTEX
  8
HB
 10
   -7364.1001
 20
    5849.2998
  0
VERTEX
  8
HB
 10
   -7481.1001
 20
    6000.0000
  0
VERTEX
  8
HB
 10
   -7587.7002
 20
    6155.8999
  0
VERTEX
  8
HB
 10
   -7684.8999
 20
    6316.7002
  0
VERTEX
  8
HB
 10
   -7773.2998
 20
    6481.8999
  0
VERTEX
  8
HB
 10
   -7854.0000
 20
    6651.2002
  0
VERTEX
  8
HB
 10
   -7927.7002
 20
    6824.0000
  0
VERTEX
  8
HB
 10
   -7995.2002
 20
    7000.0000
  0
VERTEX
  8
HB
 10
   -8052.7002
 20
    7164.2998
  0
VERTEX
  8
HB
 10
   -8106.0000
 20
    7329.7002
  0
VERTEX
  8
HB
 10
   -8155.8999
 20
    7496.2998
  0
VERTEX
  8
HB
 10
   -8203.0000
 20
    7663.6001
  0
VERTEX
  8
HB
 10
   -8247.9004
 20
    7831.6001
  0
VERTEX
  8
HB
 10
   -8291.2998
 20
    8000.0000
  0
VERTEX
  8
HB
 10
   -8534.7998
 20
    9000.0000
  0
VERTEX
  8
HB
 10
   -8840.2002
 20
   10298.7002
  0
SEQEND
  0
POLYLINE
  8
HB
 66
     1
 70
     0
  0
VERTEX
  8
HB
 10
       0.0000
 20
       0.0000
  0
VERTEX
  8
HB
 10
    -350.0000
 20
       0.0000
  0
SEQEND
  0
POLYLINE
  8
HB
 66
     1
 70
     0
  0
VERTEX
  8
HB
 10
    -350.0000
 20
       0.0000
  0
VERTEX
  8
HB
 10
    -350.0000
 20
     520.0000
  0
VERTEX
  8
HB
 10
    -471.9000
 20
     651.3000
  0
VERTEX
  8
HB
 10
    -597.9000
 20
     778.3000
  0
VERTEX
  8
HB
 10
    -727.9000
 20
     901.1000
  0
VERTEX
  8
HB
 10
    -861.9000
 20
    1019.6000
  0
SEQEND
  0
POLYLINE
  8
HB
 66
     1
 70
     0
  0
VERTEX
  8
HB
 10
    -350.0000
 20
     520.0000
  0
VERTEX
  8
HB
 10
    -471.9000
 20
     651.3000
  0
VERTEX
  8
HB
 10
    -597.9000
 20
     778.3000
  0
VERTEX
  8
HB
 10
    -727.9000
 20
     901.1000
  0
VERTEX
  8
HB
 10
    -861.9000
 20
    1019.6000
  0
VERTEX
  8
HB
 10
   -1000.0000
 20
    1133.8000
  0
VERTEX
  8
HB
 10
   -1136.7000
 20
    1239.8000
  0
VERTEX
  8
HB
 10
   -1276.1000
 20
    1341.9000
  0
VERTEX
  8
HB
 10
   -1417.7000
 20
    1440.6000
  0
VERTEX
  8
HB
 10
   -1561.4000
 20
    1536.4000
  0
VERTEX
  8
HB
 10
   -1706.5000
 20
    1629.9000
  0
VERTEX
  8
HB
 10
   -1852.9000
 20
    1721.7000
  0
VERTEX
  8
HB
 10
   -2000.0000
 20
    1812.3000
  0
VERTEX
  8
HB
 10
   -3000.0000
 20
    2402.3999
  0
VERTEX
  8
HB
 10
   -4000.0000
 20
    2947.6001
  0
VERTEX
  8
HB
 10
   -5000.0000
 20
    3469.8999
  0
VERTEX
  8
HB
 10
   -5977.0000
 20
    4000.0000
  0
VERTEX
  8
HB
 10
   -6138.2998
 20
    4096.5000
  0
VERTEX
  8
HB
 10
   -6297.5000
 20
    4195.7998
  0
VERTEX
  8
HB
 10
   -6454.2998
 20
    4298.2998
  0
VERTEX
  8
HB
 10
   -6608.5000
 20
    4404.3999
  0
VERTEX
  8
HB
 10
   -6759.8999
 20
    4514.3999
  0
VERTEX
  8
HB
 10
   -6908.1001
 20
    4628.6001
  0
VERTEX
  8
HB
 10
   -7052.8999
 20
    4747.2998
  0
VERTEX
  8
HB
 10
   -7194.1001
 20
    4871.0000
  0
VERTEX
  8
HB
 10
   -7331.3999
 20
    5000.0000
  0
VERTEX
  8
HB
 10
   -7459.8999
 20
    5129.7002
  0
VERTEX
  8
HB
 10
   -7583.1001
 20
    5263.5000
  0
VERTEX
  8
HB
 10
   -7700.7002
 20
    5401.6001
  0
VERTEX
  8
HB
 10
   -7812.7002
 20
    5544.2002
  0
VERTEX
  8
HB
 10
   -7918.7002
 20
    5691.3999
  0
VERTEX
  8
HB
 10
   -8018.7998
 20
    5843.2002
  0
VERTEX
  8
HB
 10
   -8112.6001
 20
    6000.0000
  0
VERTEX
  8
HB
 10
   -8199.2002
 20
    6160.2002
  0
VERTEX
  8
HB
 10
   -8279.0996
 20
    6323.2998
  0
VERTEX
  8
HB
 10
   -8352.7002
 20
    6489.0000
  0
VERTEX
  8
HB
 10
   -8420.5996
 20
    6657.2002
  0
VERTEX
  8
HB
 10
   -8483.4004
 20
    6827.6001
  0
VERTEX
  8
HB
 10
   -8541.7002
 20
    7000.0000
  0
VERTEX
  8
HB
 10
   -8593.2002
 20
    7164.8999
  0
VERTEX
  8
HB
 10
   -8641.5000
 20
    7330.7002
  0
VERTEX
  8
HB
 10
   -8687.0000
 20
    7497.2998
  0
VERTEX
  8
HB
 10
   -8730.2002
 20
    7664.3999
  0
VERTEX
  8
HB
 10
   -8771.7002
 20
    7832.0000
  0
VERTEX
  8
HB
 10
   -8811.9004
 20
    8000.0000
  0
VERTEX
  8
HB
 10
   -9038.2002
 20
    9000.0000
  0
VERTEX
  8
HB
 10
   -9289.0000
 20
   10151.5000
  0
SEQEND
  0
POLYLINE
  8
HB
 66
     1
 70
     0
  0
VERTEX
  8
HB
 10
       0.0000
 20
       0.0000
  0
VERTEX
  8
HB
 10
    -350.0000
 20
       0.0000
  0
SEQEND
  0
POLYLINE
  8
HB
 66
     1
 70
     0
  0
VERTEX
  8
HB
 10
    -350.0000
 20
       0.0000
  0
VERTEX
  8
HB
 10
    -350.0000
 20
     166.0000
  0
SEQEND
  0
POLYLINE
  8
HB
 66
     1
 70
     0
  0
VERTEX
  8
HB
 10
    -350.0000
 20
     166.0000
  0
VERTEX
  8
HB
 10
   -1080.8000
 20
     513.0000
  0
VERTEX
  8
HB
 10
   -2005.0000
 20
     976.4000
  0
VERTEX
  8
HB
 10
   -3010.0000
 20
    1502.8000
  0
VERTEX
  8
HB
 10
   -3932.3000
 20
    1998.0000
  0
VERTEX
  8
HB
 10
   -5000.0000
 20
    2589.8999
  0
VERTEX
  8
HB
 10
   -5700.7998
 20
    3000.0000
  0
VERTEX
  8
HB
 10
   -5863.2998
 20
    3100.2000
  0
VERTEX
  8
HB
 10
   -6024.2998
 20
    3202.3000
  0
VERTEX
  8
HB
 10
   -6183.7002
 20
    3306.7000
  0
VERTEX
  8
HB
 10
   -6341.2002
 20
    3413.8000
  0
VERTEX
  8
HB
 10
   -6496.6001
 20
    3523.8000
  0
VERTEX
  8
HB
 10
   -6649.6001
 20
    3637.0000
  0
VERTEX
  8
HB
 10
   -6800.0000
 20
    3754.0000
  0
VERTEX
  8
HB
 10
   -6947.6001
 20
    3874.8000
  0
VERTEX
  8
HB
 10
   -7092.0000
 20
    4000.0000
  0
VERTEX
  8
HB
 10
   -7234.3999
 20
    4130.8999
  0
VERTEX
  8
HB
 10
   -7372.3999
 20
    4265.7002
  0
VERTEX
  8
HB
 10
   -7506.0000
 20
    4404.5000
  0
VERTEX
  8
HB
 10
   -7635.1001
 20
    4547.2998
  0
VERTEX
  8
HB
 10
   -7759.7998
 20
    4694.1001
  0
VERTEX
  8
HB
 10
   -7880.0000
 20
    4845.0000
  0
VERTEX
  8
HB
 10
   -7995.7002
 20
    5000.0000
  0
VERTEX
  8
HB
 10
   -8106.5000
 20
    5158.7998
  0
VERTEX
  8
HB
 10
   -8212.0000
 20
    5320.7998
  0
VERTEX
  8
HB
 10
   -8312.0996
 20
    5485.7998
  0
VERTEX
  8
HB
 10
   -8406.7998
 20
    5654.1001
  0
VERTEX
  8
HB
 10
   -8496.0996
 20
    5825.3999
  0
VERTEX
  8
HB
 10
   -8580.0000
 20
    6000.0000
  0
VERTEX
  8
HB
 10
   -8652.2002
 20
    6162.7998
  0
VERTEX
  8
HB
 10
   -8719.7002
 20
    6327.2998
  0
VERTEX
  8
HB
 10
   -8782.9004
 20
    6493.3999
  0
VERTEX
  8
HB
 10
   -8842.0996
 20
    6661.0000
  0
VERTEX
  8
HB
 10
   -8897.7002
 20
    6829.8999
  0
VERTEX
  8
HB
 10
   -8950.0000
 20
    7000.0000
  0
VERTEX
  8
HB
 10
   -9205.5996
 20
    8000.0000
  0
VERTEX
  8
HB
 10
   -9419.9004
 20
    9000.0000
  0
VERTEX
  8
HB
 10
   -9639.9004
 20
   10100.0000
  0
SEQEND
  0
POLYLINE
  8
HB
 66
     1
 70
     0
  0
VERTEX
  8
HB
 10
       0.0000
 20
       0.0000
  0
VERTEX
  8
HB
 10
   -1000.0000
 20
     283.8000
  0
VERTEX
  8
HB
 10
   -2000.0000
 20
     593.0000
  0
VERTEX
  8
HB
 10
   -3000.0000
 20
     940.1000
  0
VERTEX
  8
HB
 10
   -4000.0000
 20
    1339.9000
  0
VERTEX
  8
HB
 10
   -4175.2998
 20
    1415.9000
  0
VERTEX
  8
HB
 10
   -4349.7998
 20
    1493.4000
  0
VERTEX
  8
HB
 10
   -4523.5000
 20
    1572.7000
  0
VERTEX
  8
HB
 10
   -4696.2998
 20
    1653.9000
  0
VERTEX
  8
HB
 10
   -4868.1001
 20
    1737.1000
  0
VERTEX
  8
HB
 10
   -5038.8999
 20
    1822.4000
  0
VERTEX
  8
HB
 10
   -5208.6001
 20
    1910.0000
  0
VERTEX
  8
HB
 10
   -5377.2002
 20
    2000.0000
  0
VERTEX
  8
HB
 10
   -5535.7002
 20
    2087.6001
  0
VERTEX
  8
HB
 10
   -5692.7998
 20
    2177.6001
  0
VERTEX
  8
HB
 10
   -5848.2002
 20
    2270.0000
  0
VERTEX
  8
HB
 10
   -6001.8999
 20
    2365.0000
  0
VERTEX
  8
HB
 10
   -6153.7002
 20
    2462.8999
  0
VERTEX
  8
HB
 10
   -6303.5000
 20
    2563.7000
  0
VERTEX
  8
HB
 10
   -6451.2002
 20
    2667.6001
  0
VERTEX
  8
HB
 10
   -6596.7002
 20
    2774.8999
  0
VERTEX
  8
HB
 10
   -6739.8999
 20
    2885.6001
  0
VERTEX
  8
HB
 10
   -6880.7002
 20
    3000.0000
  0
VERTEX
  8
HB
 10
   -7014.3999
 20
    3114.1001
  0
VERTEX
  8
HB
 10
   -7144.8999
 20
    3231.3000
  0
VERTEX
  8
HB
 10
   -7272.2998
 20
    3351.6001
  0
VERTEX
  8
HB
 10
   -7396.6001
 20
    3475.0000
  0
VERTEX
  8
HB
 10
   -7517.6001
 20
    3601.5000
  0
VERTEX
  8
HB
 10
   -7635.5000
 20
    3731.1001
  0
VERTEX
  8
HB
 10
   -7750.1001
 20
    3863.8999
  0
VERTEX
  8
HB
 10
   -7861.3999
 20
    4000.0000
  0
VERTEX
  8
HB
 10
   -7983.6001
 20
    4158.2002
  0
VERTEX
  8
HB
 10
   -8100.7002
 20
    4319.7998
  0
VERTEX
  8
HB
 10
   -8212.7002
 20
    4484.7002
  0
VERTEX
  8
HB
 10
   -8319.5000
 20
    4653.0000
  0
VERTEX
  8
HB
 10
   -8421.0996
 20
    4824.7998
  0
VERTEX
  8
HB
 10
   -8517.4004
 20
    5000.0000
  0
VERTEX
  8
HB
 10
   -8600.0996
 20
    5162.0000
  0
VERTEX
  8
HB
 10
   -8678.2002
 20
    5326.0000
  0
VERTEX
  8
HB
 10
   -8751.9004
 20
    5491.8999
  0
VERTEX
  8
HB
 10
   -8821.5000
 20
    5659.6001
  0
VERTEX
  8
HB
 10
   -8887.0000
 20
    5829.0000
  0
VERTEX
  8
HB
 10
   -8948.9004
 20
    6000.0000
  0
VERTEX
  8
HB
 10
   -9004.5996
 20
    6164.7002
  0
VERTEX
  8
HB
 10
   -9057.2998
 20
    6330.2002
  0
VERTEX
  8
HB
 10
   -9107.2002
 20
    6496.7002
  0
VERTEX
  8
HB
 10
   -9154.5000
 20
    6663.7998
  0
VERTEX
  8
HB
 10
   -9199.5996
 20
    6831.6001
  0
VERTEX
  8
HB
 10
   -9242.7002
 20
    7000.0000
  0
VERTEX
  8
HB
 10
   -9469.2002
 20
    8000.0000
  0
VERTEX
  8
HB
 10
   -9674.2998
 20
    9000.0000
  0
VERTEX
  8
HB
 10
   -9891.5996
 20
   10129.0000
  0
SEQEND
  0
POLYLINE
  8
HB
 66
     1
 70
     0
  0
VERTEX
  8
HB
 10
       0.0000
 20
       0.0000
  0
VERTEX
  8
HB
 10
   -1000.0000
 20
     160.3000
  0
VERTEX
  8
HB
 10
   -1183.2000
 20
     193.9000
  0
VERTEX
  8
HB
 10
   -1366.2000
 20
     228.8000
  0
VERTEX
  8
HB
 10
   -1548.9000
 20
     264.9000
  0
VERTEX
  8
HB
 10
   -1731.2000
 20
     302.3000
  0
VERTEX
  8
HB
 10
   -1913.4000
 20
     340.9000
  0
VERTEX
  8
HB
 10
   -2095.2000
 20
     380.9000
  0
VERTEX
  8
HB
 10
   -2276.7000
 20
     422.1000
  0
VERTEX
  8
HB
 10
   -2458.0000
 20
     464.7000
  0
VERTEX
  8
HB
 10
   -2638.8999
 20
     508.6000
  0
VERTEX
  8
HB
 10
   -2819.6001
 20
     553.8000
  0
VERTEX
  8
HB
 10
   -3000.0000
 20
     600.3000
  0
VERTEX
  8
HB
 10
   -3184.7000
 20
     649.4000
  0
VERTEX
  8
HB
 10
   -3368.8999
 20
     700.0000
  0
VERTEX
  8
HB
 10
   -3552.7000
 20
     752.1000
  0
VERTEX
  8
HB
 10
   -3735.8000
 20
     806.0000
  0
VERTEX
  8
HB
 10
   -3918.3999
 20
     861.7000
  0
VERTEX
  8
HB
 10
   -4100.3999
 20
     919.3000
  0
VERTEX
  8
HB
 10
   -4281.7998
 20
     978.9000
  0
VERTEX
  8
HB
 10
   -4462.5000
 20
    1040.6000
  0
VERTEX
  8
HB
 10
   -4642.3999
 20
    1104.6000
  0
VERTEX
  8
HB
 10
   -4821.6001
 20
    1170.9000
  0
VERTEX
  8
HB
 10
   -5000.0000
 20
    1239.8000
  0
VERTEX
  8
HB
 10
   -5175.7002
 20
    1310.4000
  0
VERTEX
  8
HB
 10
   -5350.0000
 20
    1383.7000
  0
VERTEX
  8
HB
 10
   -5522.7998
 20
    1460.1000
  0
VERTEX
  8
HB
 10
   -5694.0000
 20
    1539.8000
  0
VERTEX
  8
HB
 10
   -5863.2998
 20
    1623.2000
  0
VERTEX
  8
HB
 10
   -6030.5000
 20
    1710.6000
  0
VERTEX
  8
HB
 10
   -6195.7002
 20
    1802.3000
  0
VERTEX
  8
HB
 10
   -6358.5000
 20
    1898.6000
  0
VERTEX
  8
HB
 10
   -6518.7998
 20
    2000.0000
  0
VERTEX
  8
HB
 10
   -6678.7002
 20
    2108.2000
  0
VERTEX
  8
HB
 10
   -6834.5000
 20
    2221.1001
  0
VERTEX
  8
HB
 10
   -6986.2002
 20
    2338.8000
  0
VERTEX
  8
HB
 10
   -7133.8999
 20
    2461.3000
  0
VERTEX
  8
HB
 10
   -7277.2998
 20
    2588.6001
  0
VERTEX
  8
HB
 10
   -7416.6001
 20
    2720.8000
  0
VERTEX
  8
HB
 10
   -7551.6001
 20
    2857.8999
  0
VERTEX
  8
HB
 10
   -7682.3999
 20
    3000.0000
  0
VERTEX
  8
HB
 10
   -7797.7998
 20
    3133.8000
  0
VERTEX
  8
HB
 10
   -7908.7998
 20
    3270.8000
  0
VERTEX
  8
HB
 10
   -8015.6001
 20
    3410.8000
  0
VERTEX
  8
HB
 10
   -8118.2002
 20
    3553.8000
  0
VERTEX
  8
HB
 10
   -8216.9004
 20
    3699.7000
  0
VERTEX
  8
HB
 10
   -8311.5000
 20
    3848.5000
  0
VERTEX
  8
HB
 10
   -8402.4004
 20
    4000.0000
  0
VERTEX
  8
HB
 10
   -8493.5000
 20
    4161.3999
  0
VERTEX
  8
HB
 10
   -8580.0996
 20
    4325.0000
  0
VERTEX
  8
HB
 10
   -8662.2998
 20
    4490.7002
  0
VERTEX
  8
HB
 10
   -8740.2998
 20
    4658.5000
  0
VERTEX
  8
HB
 10
   -8814.0000
 20
    4828.2002
  0
VERTEX
  8
HB
 10
   -8883.5996
 20
    5000.0000
  0
VERTEX
  8
HB
 10
   -8945.7002
 20
    5164.0000
  0
VERTEX
  8
HB
 10
   -9004.0996
 20
    5329.1001
  0
VERTEX
  8
HB
 10
   -9059.0996
 20
    5495.3999
  0
VERTEX
  8
HB
 10
   -9110.9004
 20
    5662.6001
  0
VERTEX
  8
HB
 10
   -9159.7002
 20
    5830.8999
  0
VERTEX
  8
HB
 10
   -9205.7998
 20
    6000.0000
  0
VERTEX
  8
HB
 10
   -9433.7998
 20
    7000.0000
  0
VERTEX
  8
HB
 10
   -9630.0000
 20
    8000.0000
  0
VERTEX
  8
HB
 10
   -9819.4004
 20
    9000.0000
  0
VERTEX
  8
HB
 10
  -10048.0000
 20
   10229.7998
  0
SEQEND
  0
POLYLINE
  8
HB
 66
     1
 70
     0
  0
VERTEX
  8
HB
 10
       0.0000
 20
       0.0000
  0
VERTEX
  8
HB
 10
   -1000.0000
 20
      87.6000
  0
VERTEX
  8
HB
 10
   -2000.0000
 20
     213.9000
  0
VERTEX
  8
HB
 10
   -3000.0000
 20
     382.1000
  0
VERTEX
  8
HB
 10
   -4000.0000
 20
     602.2000
  0
VERTEX
  8
HB
 10
   -4192.6001
 20
     651.5000
  0
VERTEX
  8
HB
 10
   -4384.5000
 20
     703.0000
  0
VERTEX
  8
HB
 10
   -4575.6001
 20
     757.0000
  0
VERTEX
  8
HB
 10
   -4766.1001
 20
     813.5000
  0
VERTEX
  8
HB
 10
   -4955.7002
 20
     872.5000
  0
VERTEX
  8
HB
 10
   -5144.5000
 20
     934.3000
  0
VERTEX
  8
HB
 10
   -5332.5000
 20
     999.0000
  0
VERTEX
  8
HB
 10
   -5519.2998
 20
    1066.6000
  0
VERTEX
  8
HB
 10
   -5704.5000
 20
    1137.4000
  0
VERTEX
  8
HB
 10
   -5887.7002
 20
    1211.9000
  0
VERTEX
  8
HB
 10
   -6068.7002
 20
    1290.7000
  0
VERTEX
  8
HB
 10
   -6247.2998
 20
    1374.1000
  0
VERTEX
  8
HB
 10
   -6423.2002
 20
    1462.7000
  0
VERTEX
  8
HB
 10
   -6596.1001
 20
    1556.9000
  0
VERTEX
  8
HB
 10
   -6765.7998
 20
    1657.3000
  0
VERTEX
  8
HB
 10
   -6932.1001
 20
    1764.3000
  0
VERTEX
  8
HB
 10
   -7094.7002
 20
    1878.3000
  0
VERTEX
  8
HB
 10
   -7253.3999
 20
    2000.0000
  0
VERTEX
  8
HB
 10
   -7404.0000
 20
    2126.3000
  0
VERTEX
  8
HB
 10
   -7548.3999
 20
    2258.3000
  0
VERTEX
  8
HB
 10
   -7686.7002
 20
    2396.0000
  0
VERTEX
  8
HB
 10
   -7819.2002
 20
    2539.1001
  0
VERTEX
  8
HB
 10
   -7945.8999
 20
    2687.6001
  0
VERTEX
  8
HB
 10
   -8067.0000
 20
    2841.3000
  0
VERTEX
  8
HB
 10
   -8182.7002
 20
    3000.0000
  0
VERTEX
  8
HB
 10
   -8290.2002
 20
    3159.1001
  0
VERTEX
  8
HB
 10
   -8392.0000
 20
    3321.5000
  0
VERTEX
  8
HB
 10
   -8488.4004
 20
    3486.8999
  0
VERTEX
  8
HB
 10
   -8579.5996
 20
    3655.2000
  0
VERTEX
  8
HB
 10
   -8665.9004
 20
    3826.3000
  0
VERTEX
  8
HB
 10
   -8747.5996
 20
    4000.0000
  0
VERTEX
  8
HB
 10
   -8819.4004
 20
    4163.1001
  0
VERTEX
  8
HB
 10
   -8887.2998
 20
    4327.7002
  0
VERTEX
  8
HB
 10
   -8951.2998
 20
    4493.7998
  0
VERTEX
  8
HB
 10
   -9011.7002
 20
    4661.2002
  0
VERTEX
  8
HB
 10
   -9068.4004
 20
    4829.8999
  0
VERTEX
  8
HB
 10
   -9121.7002
 20
    5000.0000
  0
VERTEX
  8
HB
 10
   -9169.9004
 20
    5165.0000
  0
VERTEX
  8
HB
 10
   -9215.0996
 20
    5330.7998
  0
VERTEX
  8
HB
 10
   -9257.5996
 20
    5497.2002
  0
VERTEX
  8
HB
 10
   -9297.5996
 20
    5664.2998
  0
VERTEX
  8
HB
 10
   -9335.4004
 20
    5831.8999
  0
VERTEX
  8
HB
 10
   -9371.4004
 20
    6000.0000
  0
VERTEX
  8
HB
 10
   -9558.7002
 20
    7000.0000
  0
VERTEX
  8
HB
 10
   -9733.0996
 20
    8000.0000
  0
VERTEX
  8
HB
 10
   -9906.5000
 20
    9000.0000
  0
VERTEX
  8
HB
 10
  -10148.0996
 20
   10391.7002
  0
SEQEND
  0
POLYLINE
  8
HB
 66
     1
 70
     0
  0
VERTEX
  8
HB
 10
       0.0000
 20
       0.0000
  0
VERTEX
  8
HB
 10
   -1000.0000
 20
      50.6000
  0
VERTEX
  8
HB
 10
   -2000.0000
 20
     138.8000
  0
VERTEX
  8
HB
 10
   -3000.0000
 20
     266.6000
  0
VERTEX
  8
HB
 10
   -3178.6001
 20
     294.4000
  0
VERTEX
  8
HB
 10
   -3356.8999
 20
     324.0000
  0
VERTEX
  8
HB
 10
   -3534.8999
 20
     355.3000
  0
VERTEX
  8
HB
 10
   -3712.5000
 20
     388.5000
  0
VERTEX
  8
HB
 10
   -3889.8000
 20
     423.6000
  0
VERTEX
  8
HB
 10
   -4066.7000
 20
     460.7000
  0
VERTEX
  8
HB
 10
   -4243.2002
 20
     500.0000
  0
VERTEX
  8
HB
 10
   -5000.0000
 20
     695.2000
  0
VERTEX
  8
HB
 10
   -5184.7998
 20
     749.9000
  0
VERTEX
  8
HB
 10
   -5368.7002
 20
     807.5000
  0
VERTEX
  8
HB
 10
   -5551.5000
 20
     868.3000
  0
VERTEX
  8
HB
 10
   -5733.2002
 20
     932.3000
  0
VERTEX
  8
HB
 10
   -5913.7002
 20
    1000.0000
  0
VERTEX
  8
HB
 10
   -6100.0000
 20
    1074.5000
  0
VERTEX
  8
HB
 10
   -6283.7002
 20
    1153.3000
  0
VERTEX
  8
HB
 10
   -6464.7002
 20
    1236.9000
  0
VERTEX
  8
HB
 10
   -6642.5000
 20
    1325.9000
  0
VERTEX
  8
HB
 10
   -6816.8999
 20
    1420.7000
  0
VERTEX
  8
HB
 10
   -6987.6001
 20
    1521.8000
  0
VERTEX
  8
HB
 10
   -7154.3999
 20
    1629.8000
  0
VERTEX
  8
HB
 10
   -7316.7998
 20
    1745.2000
  0
VERTEX
  8
HB
 10
   -7474.6001
 20
    1868.4000
  0
VERTEX
  8
HB
 10
   -7627.6001
 20
    2000.0000
  0
VERTEX
  8
HB
 10
   -7763.0000
 20
    2128.0000
  0
VERTEX
  8
HB
 10
   -7891.8999
 20
    2261.2000
  0
VERTEX
  8
HB
 10
   -8014.6001
 20
    2399.6001
  0
VERTEX
  8
HB
 10
   -8131.2998
 20
    2542.8000
  0
VERTEX
  8
HB
 10
   -8242.2998
 20
    2690.8000
  0
VERTEX
  8
HB
 10
   -8347.7998
 20
    2843.2000
  0
VERTEX
  8
HB
 10
   -8448.0996
 20
    3000.0000
  0
VERTEX
  8
HB
 10
   -8542.9004
 20
    3160.3000
  0
VERTEX
  8
HB
 10
   -8632.0996
 20
    3323.3000
  0
VERTEX
  8
HB
 10
   -8716.0996
 20
    3488.8999
  0
VERTEX
  8
HB
 10
   -8795.0996
 20
    3657.0000
  0
VERTEX
  8
HB
 10
   -8869.2998
 20
    3827.3999
  0
VERTEX
  8
HB
 10
   -8939.0000
 20
    4000.0000
  0
VERTEX
  8
HB
 10
   -9000.5996
 20
    4163.8999
  0
VERTEX
  8
HB
 10
   -9058.5000
 20
    4329.0000
  0
VERTEX
  8
HB
 10
   -9112.7998
 20
    4495.2002
  0
VERTEX
  8
HB
 10
   -9163.7998
 20
    4662.5000
  0
VERTEX
  8
HB
 10
   -9211.7002
 20
    4830.7998
  0
VERTEX
  8
HB
 10
   -9256.7002
 20
    5000.0000
  0
VERTEX
  8
HB
 10
   -9472.5000
 20
    6000.0000
  0
VERTEX
  8
HB
 10
   -9641.4004
 20
    7000.0000
  0
VERTEX
  8
HB
 10
   -9800.2998
 20
    8000.0000
  0
VERTEX
  8
HB
 10
   -9960.5996
 20
    9000.0000
  0
VERTEX
  8
HB
 10
  -10222.2002
 20
   10596.2998
  0
SEQEND
  0
POLYLINE
  8
HB
 66
     1
 70
     0
  0
VERTEX
  8
HB
 10
       0.0000
 20
       0.0000
  0
VERTEX
  8
HB
 10
   -1000.0000
 20
      34.4000
  0
VERTEX
  8
HB
 10
   -2000.0000
 20
     107.5000
  0
VERTEX
  8
HB
 10
   -3000.0000
 20
     220.4000
  0
VERTEX
  8
HB
 10
   -4000.0000
 20
     384.1000
  0
VERTEX
  8
HB
 10
   -4167.8999
 20
     417.9000
  0
VERTEX
  8
HB
 10
   -4335.3999
 20
     453.6000
  0
VERTEX
  8
HB
 10
   -4502.3999
 20
     491.5000
  0
VERTEX
  8
HB
 10
   -4668.7998
 20
     531.6000
  0
VERTEX
  8
HB
 10
   -4834.7002
 20
     574.0000
  0
VERTEX
  8
HB
 10
   -5000.0000
 20
     618.9000
  0
VERTEX
  8
HB
 10
   -5187.1001
 20
     673.0000
  0
VERTEX
  8
HB
 10
   -5372.8999
 20
     730.6000
  0
VERTEX
  8
HB
 10
   -5557.5000
 20
     791.8000
  0
VERTEX
  8
HB
 10
   -5740.7998
 20
     857.0000
  0
VERTEX
  8
HB
 10
   -5922.6001
 20
     926.3000
  0
VERTEX
  8
HB
 10
   -6102.8999
 20
    1000.0000
  0
VERTEX
  8
HB
 10
   -6277.6001
 20
    1076.6000
  0
VERTEX
  8
HB
 10
   -6449.7002
 20
    1157.5000
  0
VERTEX
  8
HB
 10
   -6618.8999
 20
    1243.1000
  0
VERTEX
  8
HB
 10
   -6784.8999
 20
    1333.6000
  0
VERTEX
  8
HB
 10
   -6947.7002
 20
    1429.5000
  0
VERTEX
  8
HB
 10
   -7106.8999
 20
    1531.0000
  0
VERTEX
  8
HB
 10
   -7262.2998
 20
    1638.5000
  0
VERTEX
  8
HB
 10
   -7413.8999
 20
    1752.3000
  0
VERTEX
  8
HB
 10
   -7561.2998
 20
    1872.7000
  0
VERTEX
  8
HB
 10
   -7704.3999
 20
    2000.0000
  0
VERTEX
  8
HB
 10
   -7837.3999
 20
    2128.8000
  0
VERTEX
  8
HB
 10
   -7964.2998
 20
    2262.5000
  0
VERTEX
  8
HB
 10
   -8085.2998
 20
    2400.8999
  0
VERTEX
  8
HB
 10
   -8200.5996
 20
    2544.0000
  0
VERTEX
  8
HB
 10
   -8310.2998
 20
    2691.6001
  0
VERTEX
  8
HB
 10
   -8414.5000
 20
    2843.6001
  0
VERTEX
  8
HB
 10
   -8513.4004
 20
    3000.0000
  0
VERTEX
  8
HB
 10
   -8606.9004
 20
    3160.2000
  0
VERTEX
  8
HB
 10
   -8694.5996
 20
    3323.1001
  0
VERTEX
  8
HB
 10
   -8776.7998
 20
    3488.7000
  0
VERTEX
  8
HB
 10
   -8853.7998
 20
    3656.8000
  0
VERTEX
  8
HB
 10
   -8925.9004
 20
    3827.3000
  0
VERTEX
  8
HB
 10
   -8993.2998
 20
    4000.0000
  0
VERTEX
  8
HB
 10
   -9052.5000
 20
    4164.0000
  0
VERTEX
  8
HB
 10
   -9107.9004
 20
    4329.2002
  0
VERTEX
  8
HB
 10
   -9159.5996
 20
    4495.3999
  0
VERTEX
  8
HB
 10
   -9208.0000
 20
    4662.7002
  0
VERTEX
  8
HB
 10
   -9253.2998
 20
    4830.8999
  0
VERTEX
  8
HB
 10
   -9295.7998
 20
    5000.0000
  0
VERTEX
  8
HB
 10
   -9501.5996
 20
    6000.0000
  0
VERTEX
  8
HB
 10
   -9666.7998
 20
    7000.0000
  0
VERTEX
  8
HB
 10
   -9820.0000
 20
    8000.0000
  0
VERTEX
  8
HB
 10
   -9975.5996
 20
    9000.0000
  0
VERTEX
  8
HB
 10
  -10266.7002
 20
   10827.0000
  0
SEQEND
  0
POLYLINE
  8
HB
 66
     1
 70
     0
  0
VERTEX
  8
HB
 10
       0.0000
 20
       0.0000
  0
VERTEX
  8
HB
 10
    1000.0000
 20
      41.0000
  0
VERTEX
  8
HB
 10
    2000.0000
 20
     120.2000
  0
VERTEX
  8
HB
 10
    3000.0000
 20
     239.1000
  0
VERTEX
  8
HB
 10
    4000.0000
 20
     415.2000
  0
VERTEX
  8
HB
 10
    4168.2002
 20
     452.0000
  0
VERTEX
  8
HB
 10
    4335.7998
 20
     491.0000
  0
VERTEX
  8
HB
 10
    4502.7998
 20
     532.4000
  0
VERTEX
  8
HB
 10
    4669.2002
 20
     576.2000
  0
VERTEX
  8
HB
 10
    4834.8999
 20
     622.5000
  0
VERTEX
  8
HB
 10
    5000.0000
 20
     671.5000
  0
VERTEX
  8
HB
 10
    5183.7998
 20
     729.5000
  0
VERTEX
  8
HB
 10
    5366.2998
 20
     791.2000
  0
VERTEX
  8
HB
 10
    5547.3999
 20
     856.6000
  0
VERTEX
  8
HB
 10
    5727.0000
 20
     926.2000
  0
VERTEX
  8
HB
 10
    5905.1001
 20
    1000.0000
  0
VERTEX
  8
HB
 10
    6080.2002
 20
    1077.8000
  0
VERTEX
  8
HB
 10
    6252.7002
 20
    1160.0000
  0
VERTEX
  8
HB
 10
    6422.3999
 20
    1246.7000
  0
VERTEX
  8
HB
 10
    6589.1001
 20
    1338.2000
  0
VERTEX
  8
HB
 10
    6752.7002
 20
    1434.7000
  0
VERTEX
  8
HB
 10
    6913.1001
 20
    1536.5000
  0
VERTEX
  8
HB
 10
    7070.0000
 20
    1643.6000
  0
VERTEX
  8
HB
 10
    7223.5000
 20
    1756.5000
  0
VERTEX
  8
HB
 10
    7373.3999
 20
    1875.2000
  0
VERTEX
  8
HB
 10
    7519.3999
 20
    2000.0000
  0
VERTEX
  8
HB
 10
    7659.2998
 20
    2128.8999
  0
VERTEX
  8
HB
 10
    7793.7002
 20
    2262.6001
  0
VERTEX
  8
HB
 10
    7922.7002
 20
    2400.8999
  0
VERTEX
  8
HB
 10
    8046.3999
 20
    2543.8000
  0
VERTEX
  8
HB
 10
    8164.7998
 20
    2691.3000
  0
VERTEX
  8
HB
 10
    8277.9004
 20
    2843.3999
  0
VERTEX
  8
HB
 10
    8385.9004
 20
    3000.0000
  0
VERTEX
  8
HB
 10
    8487.5000
 20
    3159.3999
  0
VERTEX
  8
HB
 10
    8583.4004
 20
    3321.8000
  0
VERTEX
  8
HB
 10
    8673.7002
 20
    3487.1001
  0
VERTEX
  8
HB
 10
    8758.5996
 20
    3655.3999
  0
VERTEX
  8
HB
 10
    8838.2002
 20
    3826.3000
  0
VERTEX
  8
HB
 10
    8912.7998
 20
    4000.0000
  0
VERTEX
  8
HB
 10
    8977.5996
 20
    4163.3999
  0
VERTEX
  8
HB
 10
    9038.0996
 20
    4328.2002
  0
VERTEX
  8
HB
 10
    9094.5000
 20
    4494.3999
  0
VERTEX
  8
HB
 10
    9147.2002
 20
    4661.7998
  0
VERTEX
  8
HB
 10
    9196.2998
 20
    4830.2998
  0
VERTEX
  8
HB
 10
    9242.0996
 20
    5000.0000
  0
VERTEX
  8
HB
 10
    9458.2002
 20
    6000.0000
  0
VERTEX
  8
HB
 10
    9629.2002
 20
    7000.0000
  0
VERTEX
  8
HB
 10
    9786.0996
 20
    8000.0000
  0
VERTEX
  8
HB
 10
    9940.0000
 20
    9000.0000
  0
VERTEX
  8
HB
 10
   10092.2002
 20
   10000.0000
  0
VERTEX
  8
HB
 10
   10253.0996
 20
   11097.5000
  0
SEQEND
  0
POLYLINE
  8
HB
 66
     1
 70
     0
  0
VERTEX
  8
HB
 10
       0.0000
 20
       0.0000
  0
VERTEX
  8
HB
 10
    1000.0000
 20
      66.4000
  0
VERTEX
  8
HB
 10
    2000.0000
 20
     176.2000
  0
VERTEX
  8
HB
 10
    3000.0000
 20
     329.2000
  0
VERTEX
  8
HB
 10
    4000.0000
 20
     546.7000
  0
VERTEX
  8
HB
 10
    4173.1001
 20
     592.9000
  0
VERTEX
  8
HB
 10
    4345.2998
 20
     641.8000
  0
VERTEX
  8
HB
 10
    4516.5000
 20
     693.5000
  0
VERTEX
  8
HB
 10
    4686.7998
 20
     748.2000
  0
VERTEX
  8
HB
 10
    4856.0000
 20
     806.1000
  0
VERTEX
  8
HB
 10
    5024.1001
 20
     867.2000
  0
VERTEX
  8
HB
 10
    5191.0000
 20
     931.8000
  0
VERTEX
  8
HB
 10
    5356.7998
 20
    1000.0000
  0
VERTEX
  8
HB
 10
    5537.5000
 20
    1079.2000
  0
VERTEX
  8
HB
 10
    5715.6001
 20
    1162.7000
  0
VERTEX
  8
HB
 10
    5891.1001
 20
    1250.5000
  0
VERTEX
  8
HB
 10
    6063.8999
 20
    1342.9000
  0
VERTEX
  8
HB
 10
    6234.0000
 20
    1440.0000
  0
VERTEX
  8
HB
 10
    6401.2002
 20
    1541.9000
  0
VERTEX
  8
HB
 10
    6565.5000
 20
    1648.7000
  0
VERTEX
  8
HB
 10
    6726.7002
 20
    1760.5000
  0
VERTEX
  8
HB
 10
    6884.8999
 20
    1877.6000
  0
VERTEX
  8
HB
 10
    7039.8999
 20
    2000.0000
  0
VERTEX
  8
HB
 10
    7193.2002
 20
    2129.3000
  0
VERTEX
  8
HB
 10
    7341.8999
 20
    2263.1001
  0
VERTEX
  8
HB
 10
    7486.0000
 20
    2401.5000
  0
VERTEX
  8
HB
 10
    7625.3999
 20
    2544.3000
  0
VERTEX
  8
HB
 10
    7760.2002
 20
    2691.7000
  0
VERTEX
  8
HB
 10
    7890.3999
 20
    2843.6001
  0
VERTEX
  8
HB
 10
    8015.8999
 20
    3000.0000
  0
VERTEX
  8
HB
 10
    8135.0000
 20
    3158.2000
  0
VERTEX
  8
HB
 10
    8248.7998
 20
    3319.8000
  0
VERTEX
  8
HB
 10
    8357.2002
 20
    3484.8000
  0
VERTEX
  8
HB
 10
    8460.2998
 20
    3653.1001
  0
VERTEX
  8
HB
 10
    8558.0996
 20
    3824.8000
  0
VERTEX
  8
HB
 10
    8650.4004
 20
    4000.0000
  0
VERTEX
  8
HB
 10
    8729.7002
 20
    4162.2002
  0
VERTEX
  8
HB
 10
    8804.2002
 20
    4326.2998
  0
VERTEX
  8
HB
 10
    8874.2998
 20
    4492.2002
  0
VERTEX
  8
HB
 10
    8940.2002
 20
    4659.7998
  0
VERTEX
  8
HB
 10
    9002.0000
 20
    4829.1001
  0
VERTEX
  8
HB
 10
    9060.0000
 20
    5000.0000
  0
VERTEX
  8
HB
 10
    9112.2002
 20
    5164.7998
  0
VERTEX
  8
HB
 10
    9161.2998
 20
    5330.3999
  0
VERTEX
  8
HB
 10
    9207.5996
 20
    5496.8999
  0
VERTEX
  8
HB
 10
    9251.2002
 20
    5664.0000
  0
VERTEX
  8
HB
 10
    9292.5996
 20
    5831.7002
  0
VERTEX
  8
HB
 10
    9332.0000
 20
    6000.0000
  0
VERTEX
  8
HB
 10
    9533.5000
 20
    7000.0000
  0
VERTEX
  8
HB
 10
    9701.2002
 20
    8000.0000
  0
VERTEX
  8
HB
 10
    9852.5996
 20
    9000.0000
  0
VERTEX
  8
HB
 10
    9994.5996
 20
   10000.0000
  0
VERTEX
  8
HB
 10
   10186.7002
 20
   11401.5000
  0
SEQEND
  0
POLYLINE
  8
HB
 66
     1
 70
     0
  0
VERTEX
  8
HB
 10
       0.0000
 20
       0.0000
  0
VERTEX
  8
HB
 10
    1000.0000
 20
     114.8000
  0
VERTEX
  8
HB
 10
    2000.0000
 20
     284.8000
  0
VERTEX
  8
HB
 10
    2962.2000
 20
     500.0000
  0
VERTEX
  8
HB
 10
    3000.0000
 20
     509.7000
  0
VERTEX
  8
HB
 10
    3168.3000
 20
     554.3000
  0
VERTEX
  8
HB
 10
    3336.1001
 20
     600.9000
  0
VERTEX
  8
HB
 10
    3503.2000
 20
     649.6000
  0
VERTEX
  8
HB
 10
    3669.5000
 20
     700.7000
  0
VERTEX
  8
HB
 10
    3835.2000
 20
     754.3000
  0
VERTEX
  8
HB
 10
    4000.0000
 20
     810.5000
  0
VERTEX
  8
HB
 10
    4170.1001
 20
     871.8000
  0
VERTEX
  8
HB
 10
    4338.8999
 20
     936.3000
  0
VERTEX
  8
HB
 10
    4506.3999
 20
    1003.9000
  0
VERTEX
  8
HB
 10
    4672.3999
 20
    1075.0000
  0
VERTEX
  8
HB
 10
    4837.0000
 20
    1149.6000
  0
VERTEX
  8
HB
 10
    5000.0000
 20
    1227.8000
  0
VERTEX
  8
HB
 10
    5164.7998
 20
    1311.6000
  0
VERTEX
  8
HB
 10
    5327.2002
 20
    1399.0000
  0
VERTEX
  8
HB
 10
    5487.5000
 20
    1490.2000
  0
VERTEX
  8
HB
 10
    5645.5000
 20
    1584.9000
  0
VERTEX
  8
HB
 10
    5801.2998
 20
    1683.3000
  0
VERTEX
  8
HB
 10
    5954.7998
 20
    1785.3000
  0
VERTEX
  8
HB
 10
    6106.2002
 20
    1890.9000
  0
VERTEX
  8
HB
 10
    6255.2998
 20
    2000.0000
  0
VERTEX
  8
HB
 10
    6403.8999
 20
    2114.0000
  0
VERTEX
  8
HB
 10
    6549.7002
 20
    2231.2000
  0
VERTEX
  8
HB
 10
    6692.6001
 20
    2351.5000
  0
VERTEX
  8
HB
 10
    6832.7002
 20
    2475.0000
  0
VERTEX
  8
HB
 10
    6970.0000
 20
    2601.6001
  0
VERTEX
  8
HB
 10
    7104.5000
 20
    2731.3000
  0
VERTEX
  8
HB
 10
    7236.2002
 20
    2864.1001
  0
VERTEX
  8
HB
 10
    7365.1001
 20
    3000.0000
  0
VERTEX
  8
HB
 10
    7487.5000
 20
    3134.8000
  0
VERTEX
  8
HB
 10
    7606.6001
 20
    3272.1001
  0
VERTEX
  8
HB
 10
    7722.5000
 20
    3412.0000
  0
VERTEX
  8
HB
 10
    7834.8999
 20
    3554.7000
  0
VERTEX
  8
HB
 10
    7943.6001
 20
    3700.1001
  0
VERTEX
  8
HB
 10
    8048.7002
 20
    3848.6001
  0
VERTEX
  8
HB
 10
    8149.7998
 20
    4000.0000
  0
VERTEX
  8
HB
 10
    8250.7002
 20
    4160.6001
  0
VERTEX
  8
HB
 10
    8346.7998
 20
    4323.6001
  0
VERTEX
  8
HB
 10
    8438.2998
 20
    4489.2002
  0
VERTEX
  8
HB
 10
    8525.2998
 20
    4657.2002
  0
VERTEX
  8
HB
 10
    8608.0000
 20
    4827.5000
  0
VERTEX
  8
HB
 10
    8686.5000
 20
    5000.0000
  0
VERTEX
  8
HB
 10
    8756.2998
 20
    5163.6001
  0
VERTEX
  8
HB
 10
    8822.4004
 20
    5328.5000
  0
VERTEX
  8
HB
 10
    8885.0996
 20
    5494.6001
  0
VERTEX
  8
HB
 10
    8944.5996
 20
    5662.0000
  0
VERTEX
  8
HB
 10
    9001.0000
 20
    5830.5000
  0
VERTEX
  8
HB
 10
    9054.5000
 20
    6000.0000
  0
VERTEX
  8
HB
 10
    9317.0000
 20
    7000.0000
  0
VERTEX
  8
HB
 10
    9517.2998
 20
    8000.0000
  0
VERTEX
  8
HB
 10
    9684.7002
 20
    9000.0000
  0
VERTEX
  8
HB
 10
    9834.7998
 20
   10000.0000
  0
VERTEX
  8
HB
 10
    9973.7002
 20
   11000.0000
  0
VERTEX
  8
HB
 10
   10067.0996
 20
   11721.5996
  0
SEQEND
  0
POLYLINE
  8
HB
 66
     1
 70
     0
  0
VERTEX
  8
HB
 10
       0.0000
 20
       0.0000
  0
VERTEX
  8
HB
 10
     197.9000
 20
      31.8000
  0
VERTEX
  8
HB
 10
     395.2000
 20
      66.4000
  0
VERTEX
  8
HB
 10
     591.9000
 20
     103.9000
  0
VERTEX
  8
HB
 10
     787.8000
 20
     144.1000
  0
VERTEX
  8
HB
 10
     983.2000
 20
     187.1000
  0
VERTEX
  8
HB
 10
    1177.9000
 20
     232.7000
  0
VERTEX
  8
HB
 10
    1371.9000
 20
     281.0000
  0
VERTEX
  8
HB
 10
    1565.4000
 20
     332.0000
  0
VERTEX
  8
HB
 10
    1758.3000
 20
     385.5000
  0
VERTEX
  8
HB
 10
    1950.6000
 20
     441.5000
  0
VERTEX
  8
HB
 10
    2142.3000
 20
     500.0000
  0
VERTEX
  8
HB
 10
    2333.1001
 20
     560.9000
  0
VERTEX
  8
HB
 10
    2523.0000
 20
     624.2000
  0
VERTEX
  8
HB
 10
    2711.8000
 20
     690.2000
  0
VERTEX
  8
HB
 10
    2899.5000
 20
     758.8000
  0
VERTEX
  8
HB
 10
    3086.1001
 20
     830.4000
  0
VERTEX
  8
HB
 10
    3271.5000
 20
     905.0000
  0
VERTEX
  8
HB
 10
    3455.6001
 20
     982.7000
  0
VERTEX
  8
HB
 10
    3638.3999
 20
    1063.7000
  0
VERTEX
  8
HB
 10
    3819.8999
 20
    1148.1000
  0
VERTEX
  8
HB
 10
    4000.0000
 20
    1236.1000
  0
VERTEX
  8
HB
 10
    4166.2002
 20
    1321.2000
  0
VERTEX
  8
HB
 10
    4330.6001
 20
    1409.3000
  0
VERTEX
  8
HB
 10
    4493.2002
 20
    1500.3000
  0
VERTEX
  8
HB
 10
    4654.0000
 20
    1594.3000
  0
VERTEX
  8
HB
 10
    4813.1001
 20
    1691.3000
  0
VERTEX
  8
HB
 10
    4970.3999
 20
    1791.2000
  0
VERTEX
  8
HB
 10
    5126.0000
 20
    1894.1000
  0
VERTEX
  8
HB
 10
    5279.7002
 20
    2000.0000
  0
VERTEX
  8
HB
 10
    5440.1001
 20
    2115.0000
  0
VERTEX
  8
HB
 10
    5597.8999
 20
    2232.8999
  0
VERTEX
  8
HB
 10
    5753.3999
 20
    2353.7000
  0
VERTEX
  8
HB
 10
    5906.6001
 20
    2477.3999
  0
VERTEX
  8
HB
 10
    6057.3999
 20
    2603.8999
  0
VERTEX
  8
HB
 10
    6205.8999
 20
    2733.2000
  0
VERTEX
  8
HB
 10
    6352.1001
 20
    2865.2000
  0
VERTEX
  8
HB
 10
    6496.1001
 20
    3000.0000
  0
VERTEX
  8
HB
 10
    6635.5000
 20
    3135.1001
  0
VERTEX
  8
HB
 10
    6772.3999
 20
    3272.6001
  0
VERTEX
  8
HB
 10
    6906.5000
 20
    3412.6001
  0
VERTEX
  8
HB
 10
    7037.7002
 20
    3555.2000
  0
VERTEX
  8
HB
 10
    7165.8999
 20
    3700.6001
  0
VERTEX
  8
HB
 10
    7291.1001
 20
    3848.8000
  0
VERTEX
  8
HB
 10
    7412.8999
 20
    4000.0000
  0
VERTEX
  8
HB
 10
    7518.2002
 20
    4136.6001
  0
VERTEX
  8
HB
 10
    7620.2998
 20
    4275.2998
  0
VERTEX
  8
HB
 10
    7719.3999
 20
    4416.0000
  0
VERTEX
  8
HB
 10
    7815.3999
 20
    4558.7998
  0
VERTEX
  8
HB
 10
    7908.2998
 20
    4703.7002
  0
VERTEX
  8
HB
 10
    7998.0000
 20
    4850.7998
  0
VERTEX
  8
HB
 10
    8084.3999
 20
    5000.0000
  0
VERTEX
  8
HB
 10
    8173.3999
 20
    5162.2002
  0
VERTEX
  8
HB
 10
    8258.5000
 20
    5326.2998
  0
VERTEX
  8
HB
 10
    8339.7998
 20
    5492.2002
  0
VERTEX
  8
HB
 10
    8417.5000
 20
    5659.7998
  0
VERTEX
  8
HB
 10
    8491.7002
 20
    5829.1001
  0
VERTEX
  8
HB
 10
    8562.5996
 20
    6000.0000
  0
VERTEX
  8
HB
 10
    8627.2998
 20
    6164.2998
  0
VERTEX
  8
HB
 10
    8689.0996
 20
    6329.7002
  0
VERTEX
  8
HB
 10
    8748.2002
 20
    6496.0000
  0
VERTEX
  8
HB
 10
    8804.5996
 20
    6663.1001
  0
VERTEX
  8
HB
 10
    8858.7002
 20
    6831.2002
  0
VERTEX
  8
HB
 10
    8910.4004
 20
    7000.0000
  0
VERTEX
  8
HB
 10
    9173.0000
 20
    8000.0000
  0
VERTEX
  8
HB
 10
    9381.0996
 20
    9000.0000
  0
VERTEX
  8
HB
 10
    9557.0996
 20
   10000.0000
  0
VERTEX
  8
HB
 10
    9717.0000
 20
   11000.0000
  0
VERTEX
  8
HB
 10
    9875.0996
 20
   12069.4004
  0
SEQEND
  0
POLYLINE
  8
HB
 66
     1
 70
     0
  0
VERTEX
  8
HB
 10
       0.0000
 20
       0.0000
  0
VERTEX
  8
HB
 10
     193.2000
 20
      52.5000
  0
VERTEX
  8
HB
 10
     385.4000
 20
     107.9000
  0
VERTEX
  8
HB
 10
     576.6000
 20
     166.1000
  0
VERTEX
  8
HB
 10
     766.9000
 20
     227.2000
  0
VERTEX
  8
HB
 10
     956.3000
 20
     291.2000
  0
VERTEX
  8
HB
 10
    1144.8000
 20
     358.0000
  0
VERTEX
  8
HB
 10
    1332.3000
 20
     427.6000
  0
VERTEX
  8
HB
 10
    1518.9000
 20
     500.0000
  0
VERTEX
  8
HB
 10
    1680.0000
 20
     565.1000
  0
VERTEX
  8
HB
 10
    1840.2000
 20
     632.2000
  0
VERTEX
  8
HB
 10
    1999.4000
 20
     701.5000
  0
VERTEX
  8
HB
 10
    2157.6001
 20
     772.8000
  0
VERTEX
  8
HB
 10
    2314.8999
 20
     846.3000
  0
VERTEX
  8
HB
 10
    2471.2000
 20
     922.1000
  0
VERTEX
  8
HB
 10
    2626.5000
 20
    1000.0000
  0
VERTEX
  8
HB
 10
    2797.3000
 20
    1089.0000
  0
VERTEX
  8
HB
 10
    2966.6001
 20
    1180.5000
  0
VERTEX
  8
HB
 10
    3134.3000
 20
    1274.6000
  0
VERTEX
  8
HB
 10
    3300.5000
 20
    1371.1000
  0
VERTEX
  8
HB
 10
    3465.2000
 20
    1470.1000
  0
VERTEX
  8
HB
 10
    3628.5000
 20
    1571.5000
  0
VERTEX
  8
HB
 10
    3790.3000
 20
    1675.2000
  0
VERTEX
  8
HB
 10
    3950.7000
 20
    1781.2000
  0
VERTEX
  8
HB
 10
    4109.7998
 20
    1889.5000
  0
VERTEX
  8
HB
 10
    4267.5000
 20
    2000.0000
  0
VERTEX
  8
HB
 10
    4429.7002
 20
    2117.0000
  0
VERTEX
  8
HB
 10
    4590.2998
 20
    2236.2000
  0
VERTEX
  8
HB
 10
    4749.0000
 20
    2357.6001
  0
VERTEX
  8
HB
 10
    4905.8999
 20
    2481.3000
  0
VERTEX
  8
HB
 10
    5061.0000
 20
    2607.3999
  0
VERTEX
  8
HB
 10
    5214.1001
 20
    2735.8000
  0
VERTEX
  8
HB
 10
    5365.2998
 20
    2866.7000
  0
VERTEX
  8
HB
 10
    5514.5000
 20
    3000.0000
  0
VERTEX
  8
HB
 10
    5661.5000
 20
    3135.7000
  0
VERTEX
  8
HB
 10
    5806.1001
 20
    3273.7000
  0
VERTEX
  8
HB
 10
    5948.2998
 20
    3414.0000
  0
VERTEX
  8
HB
 10
    6088.1001
 20
    3556.8000
  0
VERTEX
  8
HB
 10
    6225.3999
 20
    3702.0000
  0
VERTEX
  8
HB
 10
    6360.1001
 20
    3849.7000
  0
VERTEX
  8
HB
 10
    6492.1001
 20
    4000.0000
  0
VERTEX
  8
HB
 10
    6608.5000
 20
    4137.1001
  0
VERTEX
  8
HB
 10
    6722.3999
 20
    4276.1001
  0
VERTEX
  8
HB
 10
    6833.8999
 20
    4417.0000
  0
VERTEX
  8
HB
 10
    6942.7998
 20
    4559.7998
  0
VERTEX
  8
HB
 10
    7049.1001
 20
    4704.5000
  0
VERTEX
  8
HB
 10
    7152.8999
 20
    4851.2998
  0
VERTEX
  8
HB
 10
    7254.0000
 20
    5000.0000
  0
VERTEX
  8
HB
 10
    7359.2998
 20
    5161.6001
  0
VERTEX
  8
HB
 10
    7461.2002
 20
    5325.2002
  0
VERTEX
  8
HB
 10
    7559.6001
 20
    5490.7998
  0
VERTEX
  8
HB
 10
    7654.6001
 20
    5658.5000
  0
VERTEX
  8
HB
 10
    7745.8999
 20
    5828.2002
  0
VERTEX
  8
HB
 10
    7833.7002
 20
    6000.0000
  0
VERTEX
  8
HB
 10
    7912.8999
 20
    6163.3999
  0
VERTEX
  8
HB
 10
    7988.8999
 20
    6328.2002
  0
VERTEX
  8
HB
 10
    8061.7998
 20
    6494.3999
  0
VERTEX
  8
HB
 10
    8131.7998
 20
    6661.7998
  0
VERTEX
  8
HB
 10
    8199.0000
 20
    6830.2998
  0
VERTEX
  8
HB
 10
    8263.7002
 20
    7000.0000
  0
VERTEX
  8
HB
 10
    8594.5996
 20
    8000.0000
  0
VERTEX
  8
HB
 10
    8862.7002
 20
    9000.0000
  0
VERTEX
  8
HB
 10
    9096.2998
 20
   10000.0000
  0
VERTEX
  8
HB
 10
    9311.0000
 20
   11000.0000
  0
VERTEX
  8
HB
 10
    9509.0000
 20
   12000.0000
  0
VERTEX
  8
HB
 10
    9597.0000
 20
   12466.2998
  0
SEQEND
  0
POLYLINE
  8
HB
 66
     1
 70
     0
  0
VERTEX
  8
HB
 10
       0.0000
 20
       0.0000
  0
VERTEX
  8
HB
 10
     180.7000
 20
      76.9000
  0
VERTEX
  8
HB
 10
     360.2000
 20
     156.3000
  0
VERTEX
  8
HB
 10
     538.4000
 20
     238.4000
  0
VERTEX
  8
HB
 10
     715.5000
 20
     323.0000
  0
VERTEX
  8
HB
 10
     891.3000
 20
     410.2000
  0
VERTEX
  8
HB
 10
    1065.9000
 20
     500.0000
  0
VERTEX
  8
HB
 10
    1940.4000
 20
    1000.0000
  0
VERTEX
  8
HB
 10
    2103.1001
 20
    1102.8000
  0
VERTEX
  8
HB
 10
    2264.2000
 20
    1207.8000
  0
VERTEX
  8
HB
 10
    2423.8999
 20
    1314.9000
  0
VERTEX
  8
HB
 10
    2582.0000
 20
    1424.2000
  0
VERTEX
  8
HB
 10
    2738.7000
 20
    1535.4000
  0
VERTEX
  8
HB
 10
    2894.0000
 20
    1648.7000
  0
VERTEX
  8
HB
 10
    3047.8999
 20
    1763.9000
  0
VERTEX
  8
HB
 10
    3200.5000
 20
    1881.0000
  0
VERTEX
  8
HB
 10
    3351.7000
 20
    2000.0000
  0
VERTEX
  8
HB
 10
    3499.7000
 20
    2119.2000
  0
VERTEX
  8
HB
 10
    3646.2000
 20
    2240.0000
  0
VERTEX
  8
HB
 10
    3791.3000
 20
    2362.5000
  0
VERTEX
  8
HB
 10
    3934.8999
 20
    2486.6001
  0
VERTEX
  8
HB
 10
    4077.1001
 20
    2612.3999
  0
VERTEX
  8
HB
 10
    4217.7998
 20
    2739.8999
  0
VERTEX
  8
HB
 10
    4357.0000
 20
    2869.1001
  0
VERTEX
  8
HB
 10
    4494.7002
 20
    3000.0000
  0
VERTEX
  8
HB
 10
    4635.7998
 20
    3137.5000
  0
VERTEX
  8
HB
 10
    4775.0000
 20
    3276.7000
  0
VERTEX
  8
HB
 10
    4912.3999
 20
    3417.7000
  0
VERTEX
  8
HB
 10
    5047.8999
 20
    3560.5000
  0
VERTEX
  8
HB
 10
    5181.5000
 20
    3705.1001
  0
VERTEX
  8
HB
 10
    5313.1001
 20
    3851.6001
  0
VERTEX
  8
HB
 10
    5442.6001
 20
    4000.0000
  0
VERTEX
  8
HB
 10
    5560.0000
 20
    4138.2002
  0
VERTEX
  8
HB
 10
    5675.5000
 20
    4277.8999
  0
VERTEX
  8
HB
 10
    5789.0000
 20
    4419.2002
  0
VERTEX
  8
HB
 10
    5900.5000
 20
    4562.0000
  0
VERTEX
  8
HB
 10
    6010.0000
 20
    4706.3999
  0
VERTEX
  8
HB
 10
    6117.3999
 20
    4852.3999
  0
VERTEX
  8
HB
 10
    6222.7002
 20
    5000.0000
  0
VERTEX
  8
HB
 10
    6334.6001
 20
    5162.1001
  0
VERTEX
  8
HB
 10
    6443.6001
 20
    5325.8999
  0
VERTEX
  8
HB
 10
    6549.7002
 20
    5491.5000
  0
VERTEX
  8
HB
 10
    6652.7998
 20
    5659.1001
  0
VERTEX
  8
HB
 10
    6752.7998
 20
    5828.5000
  0
VERTEX
  8
HB
 10
    6849.6001
 20
    6000.0000
  0
VERTEX
  8
HB
 10
    6937.7998
 20
    6163.2998
  0
VERTEX
  8
HB
 10
    7023.0000
 20
    6328.1001
  0
VERTEX
  8
HB
 10
    7105.3999
 20
    6494.2002
  0
VERTEX
  8
HB
 10
    7185.2002
 20
    6661.6001
  0
VERTEX
  8
HB
 10
    7262.3999
 20
    6830.2002
  0
VERTEX
  8
HB
 10
    7337.2998
 20
    7000.0000
  0
VERTEX
  8
HB
 10
    7731.2998
 20
    8000.0000
  0
VERTEX
  8
HB
 10
    8072.5000
 20
    9000.0000
  0
VERTEX
  8
HB
 10
    8388.2998
 20
   10000.0000
  0
VERTEX
  8
HB
 10
    8683.2998
 20
   11000.0000
  0
VERTEX
  8
HB
 10
    8957.7998
 20
   12000.0000
  0
VERTEX
  8
HB
 10
    9195.5996
 20
   12940.9004
  0
SEQEND
  0
POLYLINE
  8
HB
 66
     1
 70
     0
  0
VERTEX
  8
HB
 10
       0.0000
 20
       0.0000
  0
VERTEX
  8
HB
 10
     723.4000
 20
     500.0000
  0
VERTEX
  8
HB
 10
    1371.6000
 20
    1000.0000
  0
VERTEX
  8
HB
 10
    1517.7000
 20
    1119.6000
  0
VERTEX
  8
HB
 10
    1662.4000
 20
    1240.7000
  0
VERTEX
  8
HB
 10
    1805.8000
 20
    1363.4000
  0
VERTEX
  8
HB
 10
    1947.9000
 20
    1487.5000
  0
VERTEX
  8
HB
 10
    2088.6001
 20
    1613.3000
  0
VERTEX
  8
HB
 10
    2227.8000
 20
    1740.6000
  0
VERTEX
  8
HB
 10
    2365.7000
 20
    1869.5000
  0
VERTEX
  8
HB
 10
    2502.1001
 20
    2000.0000
  0
VERTEX
  8
HB
 10
    2643.2000
 20
    2138.1001
  0
VERTEX
  8
HB
 10
    2782.5000
 20
    2277.8000
  0
VERTEX
  8
HB
 10
    2920.1001
 20
    2419.1001
  0
VERTEX
  8
HB
 10
    3056.1001
 20
    2562.0000
  0
VERTEX
  8
HB
 10
    3190.5000
 20
    2706.5000
  0
VERTEX
  8
HB
 10
    3323.2000
 20
    2852.5000
  0
VERTEX
  8
HB
 10
    3454.3999
 20
    3000.0000
  0
VERTEX
  8
HB
 10
    3575.6001
 20
    3139.3000
  0
VERTEX
  8
HB
 10
    3695.3000
 20
    3279.8000
  0
VERTEX
  8
HB
 10
    3813.6001
 20
    3421.5000
  0
VERTEX
  8
HB
 10
    3930.3999
 20
    3564.3000
  0
VERTEX
  8
HB
 10
    4045.8000
 20
    3708.3999
  0
VERTEX
  8
HB
 10
    4159.7002
 20
    3853.6001
  0
VERTEX
  8
HB
 10
    4272.2002
 20
    4000.0000
  0
VERTEX
  8
HB
 10
    4377.6001
 20
    4139.7998
  0
VERTEX
  8
HB
 10
    4481.5000
 20
    4280.6001
  0
VERTEX
  8
HB
 10
    4584.0000
 20
    4422.3999
  0
VERTEX
  8
HB
 10
    4685.1001
 20
    4565.2002
  0
VERTEX
  8
HB
 10
    4784.7998
 20
    4709.1001
  0
VERTEX
  8
HB
 10
    4882.8999
 20
    4854.0000
  0
VERTEX
  8
HB
 10
    4979.5000
 20
    5000.0000
  0
VERTEX
  8
HB
 10
    5085.0000
 20
    5163.6001
  0
VERTEX
  8
HB
 10
    5188.5000
 20
    5328.2998
  0
VERTEX
  8
HB
 10
    5290.0000
 20
    5494.3999
  0
VERTEX
  8
HB
 10
    5389.2998
 20
    5661.6001
  0
VERTEX
  8
HB
 10
    5486.6001
 20
    5830.2002
  0
VERTEX
  8
HB
 10
    5581.7002
 20
    6000.0000
  0
VERTEX
  8
HB
 10
    6090.7998
 20
    7000.0000
  0
VERTEX
  8
HB
 10
    6535.7998
 20
    8000.0000
  0
VERTEX
  8
HB
 10
    6945.2998
 20
    9000.0000
  0
VERTEX
  8
HB
 10
    7338.8999
 20
   10000.0000
  0
VERTEX
  8
HB
 10
    7721.7998
 20
   11000.0000
  0
VERTEX
  8
HB
 10
    8095.6001
 20
   12000.0000
  0
VERTEX
  8
HB
 10
    8460.0996
 20
   13000.0000
  0
VERTEX
  8
HB
 10
    8649.7998
 20
   13523.2998
  0
SEQEND
  0
POLYLINE
  8
HB
 66
     1
 70
     0
  0
VERTEX
  8
HB
 10
       0.0000
 20
       0.0000
  0
VERTEX
  8
HB
 10
     136.0000
 20
     138.3000
  0
VERTEX
  8
HB
 10
     270.3000
 20
     278.2000
  0
VERTEX
  8
HB
 10
     403.0000
 20
     419.5000
  0
VERTEX
  8
HB
 10
     534.0000
 20
     562.4000
  0
VERTEX
  8
HB
 10
     663.4000
 20
     706.8000
  0
VERTEX
  8
HB
 10
     791.2000
 20
     852.6000
  0
VERTEX
  8
HB
 10
     917.3000
 20
    1000.0000
  0
VERTEX
  8
HB
 10
    1033.8000
 20
    1139.2000
  0
VERTEX
  8
HB
 10
    1148.9000
 20
    1279.6000
  0
VERTEX
  8
HB
 10
    1262.3000
 20
    1421.2000
  0
VERTEX
  8
HB
 10
    1374.2000
 20
    1564.0000
  0
VERTEX
  8
HB
 10
    1484.5000
 20
    1708.1000
  0
VERTEX
  8
HB
 10
    1593.2000
 20
    1853.4000
  0
VERTEX
  8
HB
 10
    1700.3000
 20
    2000.0000
  0
VERTEX
  8
HB
 10
    2372.8000
 20
    3000.0000
  0
VERTEX
  8
HB
 10
    2970.2000
 20
    4000.0000
  0
VERTEX
  8
HB
 10
    3498.1001
 20
    5000.0000
  0
VERTEX
  8
HB
 10
    3980.0000
 20
    6000.0000
  0
VERTEX
  8
HB
 10
    4446.7998
 20
    7000.0000
  0
VERTEX
  8
HB
 10
    4910.7998
 20
    8000.0000
  0
VERTEX
  8
HB
 10
    5383.6001
 20
    9000.0000
  0
VERTEX
  8
HB
 10
    5869.2002
 20
   10000.0000
  0
VERTEX
  8
HB
 10
    6361.0000
 20
   11000.0000
  0
VERTEX
  8
HB
 10
    6852.7998
 20
   12000.0000
  0
VERTEX
  8
HB
 10
    7344.1001
 20
   13000.0000
  0
VERTEX
  8
HB
 10
    7942.2002
 20
   14216.4004
  0
SEQEND
  0
POLYLINE
  8
HB
 66
     1
 70
     0
  0
VERTEX
  8
HB
 10
       0.0000
 20
    -500.0000
  0
VERTEX
  8
HB
 10
   -2909.3999
 20
    -500.0000
  0
SEQEND
  0
POLYLINE
  8
HB
 66
     1
 70
     0
  0
VERTEX
  8
HB
 10
       0.0000
 20
     -10.0000
  0
VERTEX
  8
HB
 10
   -2537.7000
 20
     -10.0000
  0
SEQEND
  0
POLYLINE
  8
HB
 66
     1
 70
     0
  0
VERTEX
  8
HB
 10
       0.0000
 20
     500.0000
  0
VERTEX
  8
HB
 10
   -4538.6001
 20
     500.0000
  0
SEQEND
  0
POLYLINE
  8
HB
 66
     1
 70
     0
  0
VERTEX
  8
HB
 10
       0.0000
 20
    1000.0000
  0
VERTEX
  8
HB
 10
   -6102.8999
 20
    1000.0000
  0
SEQEND
  0
POLYLINE
  8
HB
 66
     1
 70
     0
  0
VERTEX
  8
HB
 10
       0.0000
 20
    1500.0000
  0
VERTEX
  8
HB
 10
   -7059.5000
 20
    1500.0000
  0
SEQEND
  0
POLYLINE
  8
HB
 66
     1
 70
     0
  0
VERTEX
  8
HB
 10
       0.0000
 20
    2000.0000
  0
VERTEX
  8
HB
 10
   -7704.3999
 20
    2000.0000
  0
SEQEND
  0
POLYLINE
  8
HB
 66
     1
 70
     0
  0
VERTEX
  8
HB
 10
       0.0000
 20
    2500.0000
  0
VERTEX
  8
HB
 10
   -8166.1001
 20
    2500.0000
  0
SEQEND
  0
POLYLINE
  8
HB
 66
     1
 70
     0
  0
VERTEX
  8
HB
 10
       0.0000
 20
    3000.0000
  0
VERTEX
  8
HB
 10
   -8513.4004
 20
    3000.0000
  0
SEQEND
  0
POLYLINE
  8
HB
 66
     1
 70
     0
  0
VERTEX
  8
HB
 10
       0.0000
 20
    3500.0000
  0
VERTEX
  8
HB
 10
   -8782.2002
 20
    3500.0000
  0
SEQEND
  0
POLYLINE
  8
HB
 66
     1
 70
     0
  0
VERTEX
  8
HB
 10
       0.0000
 20
    4000.0000
  0
VERTEX
  8
HB
 10
   -8993.2998
 20
    4000.0000
  0
SEQEND
  0
POLYLINE
  8
HB
 66
     1
 70
     0
  0
VERTEX
  8
HB
 10
       0.0000
 20
    4500.0000
  0
VERTEX
  8
HB
 10
   -9161.0000
 20
    4500.0000
  0
SEQEND
  0
POLYLINE
  8
HB
 66
     1
 70
     0
  0
VERTEX
  8
HB
 10
       0.0000
 20
    5000.0000
  0
VERTEX
  8
HB
 10
   -9295.7998
 20
    5000.0000
  0
SEQEND
  0
POLYLINE
  8
HB
 66
     1
 70
     0
  0
VERTEX
  8
HB
 10
       0.0000
 20
    6000.0000
  0
VERTEX
  8
HB
 10
   -9501.5996
 20
    6000.0000
  0
SEQEND
  0
POLYLINE
  8
HB
 66
     1
 70
     0
  0
VERTEX
  8
HB
 10
       0.0000
 20
    7000.0000
  0
VERTEX
  8
HB
 10
   -9666.7998
 20
    7000.0000
  0
SEQEND
  0
POLYLINE
  8
HB
 66
     1
 70
     0
  0
VERTEX
  8
HB
 10
       0.0000
 20
    8000.0000
  0
VERTEX
  8
HB
 10
   -9820.0000
 20
    8000.0000
  0
SEQEND
  0
POLYLINE
  8
HB
 66
     1
 70
     0
  0
VERTEX
  8
HB
 10
       0.0000
 20
    9000.0000
  0
VERTEX
  8
HB
 10
   -9975.5996
 20
    9000.0000
  0
SEQEND
  0
POLYLINE
  8
HB
 66
     1
 70
     0
  0
VERTEX
  8
HB
 10
       0.0000
 20
   10000.0000
  0
VERTEX
  8
HB
 10
  -10134.0000
 20
   10000.0000
  0
SEQEND
  0
POLYLINE
  8
HB
 66
     1
 70
     0
  0
VERTEX
  8
HB
 10
       0.0000
 20
   11000.0000
  0
VERTEX
  8
HB
 10
  -10268.2998
 20
   11000.0000
  0
SEQEND
  0
POLYLINE
  8
HB
 66
     1
 70
     0
  0
VERTEX
  8
HB
 10
       0.0000
 20
   12000.0000
  0
VERTEX
  8
HB
 10
   -9917.5000
 20
   12000.0000
  0
SEQEND
  0
POLYLINE
  8
HB
 66
     1
 70
     0
  0
VERTEX
  8
HB
 10
       0.0000
 20
   13000.0000
  0
VERTEX
  8
HB
 10
   -9141.9004
 20
   13000.0000
  0
SEQEND
  0
POLYLINE
  8
HB
 66
     1
 70
     0
  0
VERTEX
  8
HB
 10
       0.0000
 20
   14000.0000
  0
VERTEX
  8
HB
 10
   -8173.7002
 20
   14000.0000
  0
SEQEND
  0
POLYLINE
  8
HB
 66
     1
 70
     0
  0
VERTEX
  8
HB
 10
       0.0000
 20
   -2500.0000
  0
VERTEX
  8
HB
 10
   -2315.1001
 20
   -2500.0000
  0
SEQEND
  0
POLYLINE
  8
HB
 66
     1
 70
     0
  0
VERTEX
  8
HB
 10
       0.0000
 20
   -2000.0000
  0
VERTEX
  8
HB
 10
   -2827.0000
 20
   -2000.0000
  0
SEQEND
  0
POLYLINE
  8
HB
 66
     1
 70
     0
  0
VERTEX
  8
HB
 10
       0.0000
 20
   -1500.0000
  0
VERTEX
  8
HB
 10
   -3058.7000
 20
   -1500.0000
  0
SEQEND
  0
POLYLINE
  8
HB
 66
     1
 70
     0
  0
VERTEX
  8
HB
 10
       0.0000
 20
   -1000.0000
  0
VERTEX
  8
HB
 10
   -3078.3999
 20
   -1000.0000
  0
SEQEND
  0
POLYLINE
  8
HB
 66
     1
 70
     0
  0
VERTEX
  8
HB
 10
       0.0000
 20
   -2568.2000
  0
VERTEX
  8
HB
 10
     423.9000
 20
   -2568.2000
  0
SEQEND
  0
POLYLINE
  8
HB
 66
     1
 70
     0
  0
VERTEX
  8
HB
 10
     423.9000
 20
   -2568.2000
  0
VERTEX
  8
HB
 10
     863.3000
 20
   -2500.0000
  0
VERTEX
  8
HB
 10
    1047.3000
 20
   -2456.1001
  0
VERTEX
  8
HB
 10
    1225.6000
 20
   -2400.8000
  0
VERTEX
  8
HB
 10
    1396.3000
 20
   -2330.8000
  0
VERTEX
  8
HB
 10
    1558.0000
 20
   -2242.8999
  0
VERTEX
  8
HB
 10
    1708.9000
 20
   -2133.7000
  0
VERTEX
  8
HB
 10
    1847.2000
 20
   -2000.0000
  0
VERTEX
  8
HB
 10
    1963.7000
 20
   -1848.2000
  0
VERTEX
  8
HB
 10
    2052.6001
 20
   -1681.9000
  0
VERTEX
  8
HB
 10
    2112.2000
 20
   -1500.0000
  0
VERTEX
  8
HB
 10
    2137.8999
 20
   -1333.6000
  0
VERTEX
  8
HB
 10
    2139.2000
 20
   -1167.0000
  0
VERTEX
  8
HB
 10
    2118.7000
 20
   -1000.0000
  0
VERTEX
  8
HB
 10
    2074.8000
 20
    -824.0000
  0
VERTEX
  8
HB
 10
    2008.3000
 20
    -657.1000
  0
VERTEX
  8
HB
 10
    1917.6000
 20
    -500.0000
  0
VERTEX
  8
HB
 10
    1793.8000
 20
    -345.8000
  0
VERTEX
  8
HB
 10
    1650.9000
 20
    -214.9000
  0
VERTEX
  8
HB
 10
    1491.6000
 20
    -104.0000
  0
VERTEX
  8
HB
 10
    1318.6000
 20
     -10.0000
  0
VERTEX
  8
HB
 10
    1142.5000
 20
      67.8000
  0
VERTEX
  8
HB
 10
     963.0000
 20
     138.6000
  0
VERTEX
  8
HB
 10
     783.8000
 20
     209.8000
  0
VERTEX
  8
HB
 10
     608.3000
 20
     288.8000
  0
VERTEX
  8
HB
 10
     440.4000
 20
     383.1000
  0
VERTEX
  8
HB
 10
     283.7000
 20
     500.0000
  0
VERTEX
  8
HB
 10
     140.5000
 20
     650.9000
  0
VERTEX
  8
HB
 10
      41.8000
 20
     815.4000
  0
VERTEX
  8
HB
 10
     -12.5000
 20
     993.4000
  0
VERTEX
  8
HB
 10
     -22.5000
 20
    1184.9000
  0
VERTEX
  8
HB
 10
      12.0000
 20
    1390.0000
  0
SEQEND
  0
POLYLINE
  8
HB
 66
     1
 70
     0
  0
VERTEX
  8
HB
 10
      12.0000
 20
    1390.0000
  0
VERTEX
  8
HB
 10
       0.0000
 20
    1390.0000
  0
SEQEND
  0
POLYLINE
  8
HB
 66
     1
 70
     0
  0
VERTEX
  8
HB
 10
       0.0000
 20
    1390.0000
  0
VERTEX
  8
HB
 10
       0.0000
 20
    3242.6001
  0
SEQEND
  0
POLYLINE
  8
HB
 66
     1
 70
     0
  0
VERTEX
  8
HB
 10
       0.0000
 20
    3242.6001
  0
VERTEX
  8
HB
 10
      44.8000
 20
    3242.6001
  0
SEQEND
  0
POLYLINE
  8
HB
 66
     1
 70
     0
  0
VERTEX
  8
HB
 10
      44.8000
 20
    3242.6001
  0
VERTEX
  8
HB
 10
      97.2000
 20
    4500.0000
  0
VERTEX
  8
HB
 10
     108.6000
 20
    4687.8999
  0
VERTEX
  8
HB
 10
     120.9000
 20
    4875.6001
  0
VERTEX
  8
HB
 10
     134.4000
 20
    5063.2998
  0
VERTEX
  8
HB
 10
     149.1000
 20
    5250.8999
  0
VERTEX
  8
HB
 10
     165.1000
 20
    5438.2998
  0
VERTEX
  8
HB
 10
     182.5000
 20
    5625.7002
  0
VERTEX
  8
HB
 10
     201.4000
 20
    5812.8999
  0
VERTEX
  8
HB
 10
     221.9000
 20
    6000.0000
  0
VERTEX
  8
HB
 10
     363.5000
 20
    7000.0000
  0
VERTEX
  8
HB
 10
     570.3000
 20
    8000.0000
  0
VERTEX
  8
HB
 10
     851.9000
 20
    9000.0000
  0
VERTEX
  8
HB
 10
     908.2000
 20
    9168.9004
  0
VERTEX
  8
HB
 10
     966.8000
 20
    9336.9004
  0
VERTEX
  8
HB
 10
    1027.9000
 20
    9503.9004
  0
VERTEX
  8
HB
 10
    1091.3000
 20
    9670.2002
  0
VERTEX
  8
HB
 10
    1157.0000
 20
    9835.5000
  0
VERTEX
  8
HB
 10
    1225.0000
 20
   10000.0000
  0
VERTEX
  8
HB
 10
    1297.7000
 20
   10169.2998
  0
VERTEX
  8
HB
 10
    1372.8000
 20
   10337.5000
  0
VERTEX
  8
HB
 10
    1450.0000
 20
   10504.5996
  0
VERTEX
  8
HB
 10
    1529.5000
 20
   10670.7002
  0
VERTEX
  8
HB
 10
    1611.1000
 20
   10835.7998
  0
VERTEX
  8
HB
 10
    1694.7000
 20
   11000.0000
  0
VERTEX
  8
HB
 10
    2256.0000
 20
   12000.0000
  0
VERTEX
  8
HB
 10
    2893.0000
 20
   13000.0000
  0
VERTEX
  8
HB
 10
    3582.0000
 20
   14000.0000
  0
VERTEX
  8
HB
 10
    4852.1001
 20
   15767.9004
  0
SEQEND
  0
POLYLINE
  8
HB
 66
     1
 70
     0
  0
VERTEX
  8
HB
 10
   -3000.0000
 20
     220.4000
  0
VERTEX
  8
HB
 10
   -3000.0000
 20
   16044.7998
  0
SEQEND
  0
POLYLINE
  8
HB
 66
     1
 70
     0
  0
VERTEX
  8
HB
 10
   -4000.0000
 20
     384.1000
  0
VERTEX
  8
HB
 10
   -4000.0000
 20
   15921.0000
  0
SEQEND
  0
POLYLINE
  8
HB
 66
     1
 70
     0
  0
VERTEX
  8
HB
 10
   -5000.0000
 20
     618.9000
  0
VERTEX
  8
HB
 10
   -5000.0000
 20
   15734.9004
  0
SEQEND
  0
POLYLINE
  8
HB
 66
     1
 70
     0
  0
VERTEX
  8
HB
 10
   -6000.0000
 20
     957.3000
  0
VERTEX
  8
HB
 10
   -6000.0000
 20
   15433.5000
  0
SEQEND
  0
POLYLINE
  8
HB
 66
     1
 70
     0
  0
VERTEX
  8
HB
 10
   -7000.0000
 20
    1462.0000
  0
VERTEX
  8
HB
 10
   -7000.0000
 20
   14937.4004
  0
SEQEND
  0
POLYLINE
  8
HB
 66
     1
 70
     0
  0
VERTEX
  8
HB
 10
   -8000.0000
 20
    2302.2000
  0
VERTEX
  8
HB
 10
   -8000.0000
 20
   14163.7002
  0
SEQEND
  0
POLYLINE
  8
HB
 66
     1
 70
     0
  0
VERTEX
  8
HB
 10
   -9000.0000
 20
    4018.0000
  0
VERTEX
  8
HB
 10
   -9000.0000
 20
   13153.7998
  0
SEQEND
  0
POLYLINE
  8
HB
 66
     1
 70
     0
  0
VERTEX
  8
HB
 10
   -1000.0000
 20
      34.4000
  0
VERTEX
  8
HB
 10
   -1000.0000
 20
   11076.4004
  0
SEQEND
  0
POLYLINE
  8
HB
 66
     1
 70
     0
  0
VERTEX
  8
HB
 10
   -2000.0000
 20
     107.5000
  0
VERTEX
  8
HB
 10
   -2000.0000
 20
   11067.0000
  0
SEQEND
  0
ENDSEC
  0
EOF
