  0
SECTION
  2
ENTITIES
  0
POLYLINE
  8
HL
 66
     1
 70
     0
  0
VERTEX
  8
HL
 10
   21197.0000
 20
       0.0000
  0
VERTEX
  8
HL
 10
   19526.0000
 20
    1987.0000
  0
SEQEND
  0
POLYLINE
  8
HL
 66
     1
 70
     0
  0
VERTEX
  8
HL
 10
   19526.0000
 20
    1987.0000
  0
VERTEX
  8
HL
 10
   14200.0000
 20
    3327.0000
  0
VERTEX
  8
HL
 10
   13317.2002
 20
    3512.6001
  0
VERTEX
  8
HL
 10
   12432.7998
 20
    3689.2000
  0
VERTEX
  8
HL
 10
   11546.9004
 20
    3857.3999
  0
VERTEX
  8
HL
 10
   10659.5996
 20
    4018.2000
  0
VERTEX
  8
HL
 10
    9771.2002
 20
    4172.2998
  0
VERTEX
  8
HL
 10
    8881.7002
 20
    4320.3999
  0
VERTEX
  8
HL
 10
    7991.2002
 20
    4463.3999
  0
VERTEX
  8
HL
 10
    7100.0000
 20
    4602.0000
  0
VERTEX
  8
HL
 10
       0.0000
 20
    5575.0000
  0
SEQEND
  0
POLYLINE
  8
HL
 66
     1
 70
     0
  0
VERTEX
  8
HL
 10
       0.0000
 20
    5575.0000
  0
VERTEX
  8
HL
 10
   -1480.0000
 20
   11080.0000
  0
SEQEND
  0
POLYLINE
  8
HL
 66
     1
 70
     0
  0
VERTEX
  8
HL
 10
   24775.0000
 20
       0.0000
  0
VERTEX
  8
HL
 10
   23884.6992
 20
     395.5000
  0
VERTEX
  8
HL
 10
   22986.5000
 20
     770.1000
  0
VERTEX
  8
HL
 10
   22080.4004
 20
    1123.8000
  0
VERTEX
  8
HL
 10
   21166.5000
 20
    1456.7000
  0
VERTEX
  8
HL
 10
   20244.6992
 20
    1768.8000
  0
VERTEX
  8
HL
 10
   19315.0000
 20
    2060.0000
  0
VERTEX
  8
HL
 10
   18470.8008
 20
    2304.8000
  0
VERTEX
  8
HL
 10
   17622.6992
 20
    2533.7000
  0
VERTEX
  8
HL
 10
   16771.1992
 20
    2748.6001
  0
VERTEX
  8
HL
 10
   15916.5000
 20
    2951.3000
  0
VERTEX
  8
HL
 10
   15059.4004
 20
    3143.5000
  0
VERTEX
  8
HL
 10
   14200.0000
 20
    3327.0000
  0
VERTEX
  8
HL
 10
    7100.0000
 20
    4602.0000
  0
VERTEX
  8
HL
 10
       0.0000
 20
    5575.0000
  0
SEQEND
  0
POLYLINE
  8
HL
 66
     1
 70
     0
  0
VERTEX
  8
HL
 10
   24775.0000
 20
       0.0000
  0
VERTEX
  8
HL
 10
   23884.6992
 20
     395.5000
  0
VERTEX
  8
HL
 10
   22986.5000
 20
     770.1000
  0
VERTEX
  8
HL
 10
   22080.4004
 20
    1123.8000
  0
VERTEX
  8
HL
 10
   21166.5000
 20
    1456.7000
  0
VERTEX
  8
HL
 10
   20244.6992
 20
    1768.8000
  0
VERTEX
  8
HL
 10
   19315.0000
 20
    2060.0000
  0
VERTEX
  8
HL
 10
   18470.8008
 20
    2304.8000
  0
VERTEX
  8
HL
 10
   17622.6992
 20
    2533.7000
  0
VERTEX
  8
HL
 10
   16771.1992
 20
    2748.6001
  0
VERTEX
  8
HL
 10
   15916.5000
 20
    2951.3000
  0
VERTEX
  8
HL
 10
   15059.4004
 20
    3143.5000
  0
VERTEX
  8
HL
 10
   14200.0000
 20
    3327.0000
  0
VERTEX
  8
HL
 10
    7100.0000
 20
    4602.0000
  0
VERTEX
  8
HL
 10
       0.0000
 20
    5575.0000
  0
SEQEND
  0
POLYLINE
  8
HL
 66
     1
 70
     0
  0
VERTEX
  8
HL
 10
       0.0000
 20
    5575.0000
  0
VERTEX
  8
HL
 10
   -1480.0000
 20
   11080.0000
  0
SEQEND
  0
POLYLINE
  8
HL
 66
     1
 70
     0
  0
VERTEX
  8
HL
 10
       0.0000
 20
    5575.0000
  0
VERTEX
  8
HL
 10
     120.0000
 20
    5650.0000
  0
VERTEX
  8
HL
 10
     357.0000
 20
    5814.0000
  0
VERTEX
  8
HL
 10
     502.0000
 20
    6037.0000
  0
VERTEX
  8
HL
 10
     552.1000
 20
    6389.8999
  0
SEQEND
  0
POLYLINE
  8
HL
 66
     1
 70
     0
  0
VERTEX
  8
HL
 10
     552.1000
 20
    6389.8999
  0
VERTEX
  8
HL
 10
     550.0000
 20
    6580.0000
  0
SEQEND
  0
POLYLINE
  8
HL
 66
     1
 70
     0
  0
VERTEX
  8
HL
 10
     550.0000
 20
    6580.0000
  0
VERTEX
  8
HL
 10
     457.0000
 20
    7500.0000
  0
VERTEX
  8
HL
 10
     308.0000
 20
    8500.0000
  0
VERTEX
  8
HL
 10
     124.0000
 20
    9500.0000
  0
VERTEX
  8
HL
 10
    -155.0000
 20
   10930.0000
  0
SEQEND
  0
POLYLINE
  8
HL
 66
     1
 70
     0
  0
VERTEX
  8
HL
 10
   -1480.0000
 20
   11080.0000
  0
VERTEX
  8
HL
 10
    -155.0000
 20
   10930.0000
  0
SEQEND
  0
POLYLINE
  8
HL
 66
     1
 70
     0
  0
VERTEX
  8
HL
 10
   21197.0000
 20
       0.0000
  0
VERTEX
  8
HL
 10
   71000.0000
 20
       0.0000
  0
SEQEND
  0
POLYLINE
  8
HL
 66
     1
 70
     0
  0
VERTEX
  8
HL
 10
   -1365.0000
 20
   11067.0000
  0
VERTEX
  8
HL
 10
     120.0000
 20
    5650.0000
  0
SEQEND
  0
POLYLINE
  8
HL
 66
     1
 70
     0
  0
VERTEX
  8
HL
 10
   -1048.0000
 20
   11031.0000
  0
VERTEX
  8
HL
 10
     357.0000
 20
    5814.0000
  0
SEQEND
  0
POLYLINE
  8
HL
 66
     1
 70
     0
  0
VERTEX
  8
HL
 10
    -595.0000
 20
   10980.0000
  0
VERTEX
  8
HL
 10
     550.0000
 20
    6580.0000
  0
SEQEND
  0
POLYLINE
  8
HL
 66
     1
 70
     0
  0
VERTEX
  8
HL
 10
   71000.0000
 20
       0.0000
  0
VERTEX
  8
HL
 10
  125660.0000
 20
       0.0000
  0
SEQEND
  0
POLYLINE
  8
HL
 66
     1
 70
     0
  0
VERTEX
  8
HL
 10
  125660.0000
 20
       0.0000
  0
VERTEX
  8
HL
 10
  126300.0000
 20
   -1120.0000
  0
SEQEND
  0
POLYLINE
  8
HL
 66
     1
 70
     0
  0
VERTEX
  8
HL
 10
  126300.0000
 20
   -1120.0000
  0
VERTEX
  8
HL
 10
  129575.0000
 20
   -1768.0000
  0
VERTEX
  8
HL
 10
  133125.0000
 20
   -2403.0000
  0
VERTEX
  8
HL
 10
  136675.0000
 20
   -2895.0000
  0
VERTEX
  8
HL
 10
  139000.0000
 20
   -3030.0000
  0
SEQEND
  0
POLYLINE
  8
HL
 66
     1
 70
     0
  0
VERTEX
  8
HL
 10
  139000.0000
 20
   -3030.0000
  0
VERTEX
  8
HL
 10
  140225.0000
 20
   -2910.0000
  0
VERTEX
  8
HL
 10
  140755.2031
 20
   -2749.8000
  0
VERTEX
  8
HL
 10
  141240.0000
 20
   -2482.0000
  0
VERTEX
  8
HL
 10
  141775.0000
 20
   -1862.0000
  0
VERTEX
  8
HL
 10
  141935.0000
 20
   -1241.0000
  0
SEQEND
  0
POLYLINE
  8
HL
 66
     1
 70
     0
  0
VERTEX
  8
HL
 10
  141935.0000
 20
   -1241.0000
  0
VERTEX
  8
HL
 10
  141825.0000
 20
    -621.0000
  0
VERTEX
  8
HL
 10
  141515.0000
 20
       0.0000
  0
VERTEX
  8
HL
 10
  141135.0000
 20
    1241.0000
  0
VERTEX
  8
HL
 10
  141050.0000
 20
    2385.0000
  0
SEQEND
  0
POLYLINE
  8
HL
 66
     1
 70
     0
  0
VERTEX
  8
HL
 10
  141050.0000
 20
    2385.0000
  0
VERTEX
  8
HL
 10
  141123.7969
 20
    3315.8999
  0
VERTEX
  8
HL
 10
  141315.0000
 20
    4230.0000
  0
VERTEX
  8
HL
 10
  141975.0000
 20
    6150.0000
  0
VERTEX
  8
HL
 10
  142338.4062
 20
    6943.2002
  0
VERTEX
  8
HL
 10
  142743.4062
 20
    7713.2002
  0
VERTEX
  8
HL
 10
  143189.2031
 20
    8460.2998
  0
VERTEX
  8
HL
 10
  143675.0000
 20
    9185.0000
  0
VERTEX
  8
HL
 10
  144260.0938
 20
    9963.4004
  0
VERTEX
  8
HL
 10
  144885.9062
 20
   10707.7998
  0
VERTEX
  8
HL
 10
  145550.0000
 20
   11420.0000
  0
VERTEX
  8
HL
 10
  146131.5938
 20
   11990.9004
  0
VERTEX
  8
HL
 10
  146732.5938
 20
   12539.2998
  0
VERTEX
  8
HL
 10
  147350.7969
 20
   13067.7998
  0
VERTEX
  8
HL
 10
  147984.0000
 20
   13578.7998
  0
VERTEX
  8
HL
 10
  148630.0000
 20
   14075.0000
  0
VERTEX
  8
HL
 10
  151750.0000
 20
   16200.0000
  0
SEQEND
  0
POLYLINE
  8
HL
 66
     1
 70
     0
  0
VERTEX
  8
HL
 10
  125660.0000
 20
       0.0000
  0
VERTEX
  8
HL
 10
  126300.0000
 20
   -1120.0000
  0
SEQEND
  0
POLYLINE
  8
HL
 66
     1
 70
     0
  0
VERTEX
  8
HL
 10
  126300.0000
 20
   -1120.0000
  0
VERTEX
  8
HL
 10
  129575.0000
 20
   -1768.0000
  0
VERTEX
  8
HL
 10
  133125.0000
 20
   -2403.0000
  0
VERTEX
  8
HL
 10
  136675.0000
 20
   -2895.0000
  0
VERTEX
  8
HL
 10
  139000.0000
 20
   -3030.0000
  0
SEQEND
  0
POLYLINE
  8
HL
 66
     1
 70
     0
  0
VERTEX
  8
HL
 10
  139000.0000
 20
   -3030.0000
  0
VERTEX
  8
HL
 10
  140225.0000
 20
   -2910.0000
  0
VERTEX
  8
HL
 10
  140755.2031
 20
   -2749.8000
  0
VERTEX
  8
HL
 10
  141240.0000
 20
   -2482.0000
  0
VERTEX
  8
HL
 10
  141775.0000
 20
   -1862.0000
  0
VERTEX
  8
HL
 10
  141935.0000
 20
   -1241.0000
  0
SEQEND
  0
POLYLINE
  8
HL
 66
     1
 70
     0
  0
VERTEX
  8
HL
 10
  141935.0000
 20
   -1241.0000
  0
VERTEX
  8
HL
 10
  141825.0000
 20
    -621.0000
  0
VERTEX
  8
HL
 10
  141515.0000
 20
       0.0000
  0
VERTEX
  8
HL
 10
  141135.0000
 20
    1241.0000
  0
VERTEX
  8
HL
 10
  141050.0000
 20
    2385.0000
  0
SEQEND
  0
POLYLINE
  8
HL
 66
     1
 70
     0
  0
VERTEX
  8
HL
 10
  141050.0000
 20
    2385.0000
  0
VERTEX
  8
HL
 10
  141123.7969
 20
    3315.8999
  0
VERTEX
  8
HL
 10
  141315.0000
 20
    4230.0000
  0
VERTEX
  8
HL
 10
  141975.0000
 20
    6150.0000
  0
VERTEX
  8
HL
 10
  142338.4062
 20
    6943.2002
  0
VERTEX
  8
HL
 10
  142743.4062
 20
    7713.2002
  0
VERTEX
  8
HL
 10
  143189.2031
 20
    8460.2998
  0
VERTEX
  8
HL
 10
  143675.0000
 20
    9185.0000
  0
VERTEX
  8
HL
 10
  144260.0938
 20
    9963.4004
  0
VERTEX
  8
HL
 10
  144885.9062
 20
   10707.7998
  0
VERTEX
  8
HL
 10
  145550.0000
 20
   11420.0000
  0
VERTEX
  8
HL
 10
  146131.5938
 20
   11990.9004
  0
VERTEX
  8
HL
 10
  146732.5938
 20
   12539.2998
  0
VERTEX
  8
HL
 10
  147350.7969
 20
   13067.7998
  0
VERTEX
  8
HL
 10
  147984.0000
 20
   13578.7998
  0
VERTEX
  8
HL
 10
  148630.0000
 20
   14075.0000
  0
VERTEX
  8
HL
 10
  151750.0000
 20
   16200.0000
  0
SEQEND
  0
POLYLINE
  8
HL
 66
     1
 70
     0
  0
VERTEX
  8
HL
 10
    -155.0000
 20
   10930.0000
  0
VERTEX
  8
HL
 10
    7100.0000
 20
   10694.0000
  0
VERTEX
  8
HL
 10
   14200.0000
 20
   10413.0000
  0
VERTEX
  8
HL
 10
   21300.0000
 20
   10212.0000
  0
VERTEX
  8
HL
 10
   28400.0000
 20
   10115.0000
  0
VERTEX
  8
HL
 10
   32805.3008
 20
   10099.4004
  0
VERTEX
  8
HL
 10
   35500.0000
 20
   10105.0000
  0
VERTEX
  8
HL
 10
   42600.0000
 20
   10171.0000
  0
VERTEX
  8
HL
 10
   49700.0000
 20
   10304.0000
  0
VERTEX
  8
HL
 10
   56800.0000
 20
   10490.0000
  0
VERTEX
  8
HL
 10
   63900.0000
 20
   10709.0000
  0
VERTEX
  8
HL
 10
   70999.0000
 20
   10950.0000
  0
SEQEND
  0
POLYLINE
  8
HL
 66
     1
 70
     0
  0
VERTEX
  8
HL
 10
   71000.0000
 20
   10950.0000
  0
VERTEX
  8
HL
 10
   78100.0000
 20
   11248.0000
  0
VERTEX
  8
HL
 10
   85200.0000
 20
   11559.0000
  0
VERTEX
  8
HL
 10
   92300.0000
 20
   11891.0000
  0
VERTEX
  8
HL
 10
   99400.0000
 20
   12260.0000
  0
VERTEX
  8
HL
 10
  106500.0000
 20
   12692.0000
  0
VERTEX
  8
HL
 10
  113600.0000
 20
   13217.0000
  0
VERTEX
  8
HL
 10
  120700.0000
 20
   13858.0000
  0
VERTEX
  8
HL
 10
  127800.0000
 20
   14587.0000
  0
VERTEX
  8
HL
 10
  131350.0000
 20
   14954.0000
  0
VERTEX
  8
HL
 10
  138450.0000
 20
   15587.0000
  0
VERTEX
  8
HL
 10
  145550.0000
 20
   16000.0000
  0
VERTEX
  8
HL
 10
  151750.0000
 20
   16200.0000
  0
SEQEND
  0
POLYLINE
  8
HL
 66
     1
 70
     0
  0
VERTEX
  8
HL
 10
       0.0000
 20
    5575.0000
  0
VERTEX
  8
HL
 10
       0.0000
 20
   10930.0000
  0
SEQEND
  0
POLYLINE
  8
HL
 66
     1
 70
     0
  0
VERTEX
  8
HL
 10
    7100.0000
 20
    4602.0000
  0
VERTEX
  8
HL
 10
    7100.0000
 20
   10694.0000
  0
SEQEND
  0
POLYLINE
  8
HL
 66
     1
 70
     0
  0
VERTEX
  8
HL
 10
   14200.0000
 20
    3327.0000
  0
VERTEX
  8
HL
 10
   14200.0000
 20
   10413.0000
  0
SEQEND
  0
POLYLINE
  8
HL
 66
     1
 70
     0
  0
VERTEX
  8
HL
 10
   21300.0000
 20
       0.0000
  0
VERTEX
  8
HL
 10
   21300.0000
 20
   10212.0000
  0
SEQEND
  0
POLYLINE
  8
HL
 66
     1
 70
     0
  0
VERTEX
  8
HL
 10
   28400.0000
 20
       0.0000
  0
VERTEX
  8
HL
 10
   28400.0000
 20
   10115.0000
  0
SEQEND
  0
POLYLINE
  8
HL
 66
     1
 70
     0
  0
VERTEX
  8
HL
 10
   35500.0000
 20
       0.0000
  0
VERTEX
  8
HL
 10
   35500.0000
 20
   10105.0000
  0
SEQEND
  0
POLYLINE
  8
HL
 66
     1
 70
     0
  0
VERTEX
  8
HL
 10
   42600.0000
 20
       0.0000
  0
VERTEX
  8
HL
 10
   42600.0000
 20
   10171.0000
  0
SEQEND
  0
POLYLINE
  8
HL
 66
     1
 70
     0
  0
VERTEX
  8
HL
 10
   49700.0000
 20
       0.0000
  0
VERTEX
  8
HL
 10
   49700.0000
 20
   10304.0000
  0
SEQEND
  0
POLYLINE
  8
HL
 66
     1
 70
     0
  0
VERTEX
  8
HL
 10
   56800.0000
 20
       0.0000
  0
VERTEX
  8
HL
 10
   56800.0000
 20
   10490.0000
  0
SEQEND
  0
POLYLINE
  8
HL
 66
     1
 70
     0
  0
VERTEX
  8
HL
 10
   63900.0000
 20
       0.0000
  0
VERTEX
  8
HL
 10
   63900.0000
 20
   10709.0000
  0
SEQEND
  0
POLYLINE
  8
HL
 66
     1
 70
     0
  0
VERTEX
  8
HL
 10
   71000.0000
 20
       0.0000
  0
VERTEX
  8
HL
 10
   71000.0000
 20
   10950.0000
  0
SEQEND
  0
POLYLINE
  8
HL
 66
     1
 70
     0
  0
VERTEX
  8
HL
 10
   78100.0000
 20
       0.0000
  0
VERTEX
  8
HL
 10
   78100.0000
 20
   11248.0000
  0
SEQEND
  0
POLYLINE
  8
HL
 66
     1
 70
     0
  0
VERTEX
  8
HL
 10
   85200.0000
 20
       0.0000
  0
VERTEX
  8
HL
 10
   85200.0000
 20
   11559.0000
  0
SEQEND
  0
POLYLINE
  8
HL
 66
     1
 70
     0
  0
VERTEX
  8
HL
 10
   92300.0000
 20
       0.0000
  0
VERTEX
  8
HL
 10
   92300.0000
 20
   11891.0000
  0
SEQEND
  0
POLYLINE
  8
HL
 66
     1
 70
     0
  0
VERTEX
  8
HL
 10
   99400.0000
 20
       0.0000
  0
VERTEX
  8
HL
 10
   99400.0000
 20
   12260.0000
  0
SEQEND
  0
POLYLINE
  8
HL
 66
     1
 70
     0
  0
VERTEX
  8
HL
 10
  106500.0000
 20
       0.0000
  0
VERTEX
  8
HL
 10
  106500.0000
 20
   12692.0000
  0
SEQEND
  0
POLYLINE
  8
HL
 66
     1
 70
     0
  0
VERTEX
  8
HL
 10
  113600.0000
 20
       0.0000
  0
VERTEX
  8
HL
 10
  113600.0000
 20
   13217.0000
  0
SEQEND
  0
POLYLINE
  8
HL
 66
     1
 70
     0
  0
VERTEX
  8
HL
 10
  120700.0000
 20
       0.0000
  0
VERTEX
  8
HL
 10
  120700.0000
 20
   13858.0000
  0
SEQEND
  0
POLYLINE
  8
HL
 66
     1
 70
     0
  0
VERTEX
  8
HL
 10
  127800.0000
 20
   -1423.2000
  0
VERTEX
  8
HL
 10
  127800.0000
 20
   14587.0000
  0
SEQEND
  0
POLYLINE
  8
HL
 66
     1
 70
     0
  0
VERTEX
  8
HL
 10
  131350.0000
 20
   -2096.6001
  0
VERTEX
  8
HL
 10
  131350.0000
 20
   14954.0000
  0
SEQEND
  0
POLYLINE
  8
HL
 66
     1
 70
     0
  0
VERTEX
  8
HL
 10
  134900.0000
 20
   -2676.8999
  0
VERTEX
  8
HL
 10
  134900.0000
 20
   15293.7002
  0
SEQEND
  0
POLYLINE
  8
HL
 66
     1
 70
     0
  0
VERTEX
  8
HL
 10
  136675.0000
 20
   -2895.0000
  0
VERTEX
  8
HL
 10
  136675.0000
 20
   15447.2998
  0
SEQEND
  0
POLYLINE
  8
HL
 66
     1
 70
     0
  0
VERTEX
  8
HL
 10
  138450.0000
 20
   -3021.1001
  0
VERTEX
  8
HL
 10
  138450.0000
 20
   15587.0000
  0
SEQEND
  0
POLYLINE
  8
HL
 66
     1
 70
     0
  0
VERTEX
  8
HL
 10
  140225.0000
 20
   -2910.0000
  0
VERTEX
  8
HL
 10
  140225.0000
 20
   15711.4004
  0
SEQEND
  0
POLYLINE
  8
HL
 66
     1
 70
     0
  0
VERTEX
  8
HL
 10
  142000.0000
 20
    6208.5000
  0
VERTEX
  8
HL
 10
  142000.0000
 20
   15820.9004
  0
SEQEND
  0
POLYLINE
  8
HL
 66
     1
 70
     0
  0
VERTEX
  8
HL
 10
  145550.0000
 20
   11420.0000
  0
VERTEX
  8
HL
 10
  145550.0000
 20
   16000.0000
  0
SEQEND
  0
POLYLINE
  8
HL
 66
     1
 70
     0
  0
VERTEX
  8
HL
 10
    3550.0000
 20
    5121.3999
  0
VERTEX
  8
HL
 10
    3550.0000
 20
   10820.0996
  0
SEQEND
  0
POLYLINE
  8
HL
 66
     1
 70
     0
  0
VERTEX
  8
HL
 10
   10650.0000
 20
    4011.8000
  0
VERTEX
  8
HL
 10
   10650.0000
 20
   10551.5000
  0
SEQEND
  0
POLYLINE
  8
HL
 66
     1
 70
     0
  0
VERTEX
  8
HL
 10
   17750.0000
 20
    2500.3000
  0
VERTEX
  8
HL
 10
   17750.0000
 20
   10298.7002
  0
SEQEND
  0
POLYLINE
  8
HL
 66
     1
 70
     0
  0
VERTEX
  8
HL
 10
   24850.0000
 20
       0.0000
  0
VERTEX
  8
HL
 10
   24850.0000
 20
   10151.5000
  0
SEQEND
  0
POLYLINE
  8
HL
 66
     1
 70
     0
  0
VERTEX
  8
HL
 10
   31950.0000
 20
       0.0000
  0
VERTEX
  8
HL
 10
   31950.0000
 20
   10100.0000
  0
SEQEND
  0
POLYLINE
  8
HL
 66
     1
 70
     0
  0
VERTEX
  8
HL
 10
   39050.0000
 20
       0.0000
  0
VERTEX
  8
HL
 10
   39050.0000
 20
   10129.0000
  0
SEQEND
  0
POLYLINE
  8
HL
 66
     1
 70
     0
  0
VERTEX
  8
HL
 10
   46150.0000
 20
       0.0000
  0
VERTEX
  8
HL
 10
   46150.0000
 20
   10229.7998
  0
SEQEND
  0
POLYLINE
  8
HL
 66
     1
 70
     0
  0
VERTEX
  8
HL
 10
   53250.0000
 20
       0.0000
  0
VERTEX
  8
HL
 10
   53250.0000
 20
   10391.7002
  0
SEQEND
  0
POLYLINE
  8
HL
 66
     1
 70
     0
  0
VERTEX
  8
HL
 10
   60350.0000
 20
       0.0000
  0
VERTEX
  8
HL
 10
   60350.0000
 20
   10596.2998
  0
SEQEND
  0
POLYLINE
  8
HL
 66
     1
 70
     0
  0
VERTEX
  8
HL
 10
   67450.0000
 20
       0.0000
  0
VERTEX
  8
HL
 10
   67450.0000
 20
   10827.0000
  0
SEQEND
  0
POLYLINE
  8
HL
 66
     1
 70
     0
  0
VERTEX
  8
HL
 10
   74550.0000
 20
       0.0000
  0
VERTEX
  8
HL
 10
   74550.0000
 20
   11097.5000
  0
SEQEND
  0
POLYLINE
  8
HL
 66
     1
 70
     0
  0
VERTEX
  8
HL
 10
   81650.0000
 20
       0.0000
  0
VERTEX
  8
HL
 10
   81650.0000
 20
   11401.5000
  0
SEQEND
  0
POLYLINE
  8
HL
 66
     1
 70
     0
  0
VERTEX
  8
HL
 10
   88750.0000
 20
       0.0000
  0
VERTEX
  8
HL
 10
   88750.0000
 20
   11721.5996
  0
SEQEND
  0
POLYLINE
  8
HL
 66
     1
 70
     0
  0
VERTEX
  8
HL
 10
   95850.0000
 20
       0.0000
  0
VERTEX
  8
HL
 10
   95850.0000
 20
   12069.4004
  0
SEQEND
  0
POLYLINE
  8
HL
 66
     1
 70
     0
  0
VERTEX
  8
HL
 10
  102950.0000
 20
       0.0000
  0
VERTEX
  8
HL
 10
  102950.0000
 20
   12466.2998
  0
SEQEND
  0
POLYLINE
  8
HL
 66
     1
 70
     0
  0
VERTEX
  8
HL
 10
  110050.0000
 20
       0.0000
  0
VERTEX
  8
HL
 10
  110050.0000
 20
   12940.9004
  0
SEQEND
  0
POLYLINE
  8
HL
 66
     1
 70
     0
  0
VERTEX
  8
HL
 10
  117150.0000
 20
       0.0000
  0
VERTEX
  8
HL
 10
  117150.0000
 20
   13523.2998
  0
SEQEND
  0
POLYLINE
  8
HL
 66
     1
 70
     0
  0
VERTEX
  8
HL
 10
  124250.0000
 20
       0.0000
  0
VERTEX
  8
HL
 10
  124250.0000
 20
   14216.4004
  0
SEQEND
  0
POLYLINE
  8
HL
 66
     1
 70
     0
  0
VERTEX
  8
HL
 10
  125945.7031
 20
    -500.0000
  0
VERTEX
  8
HL
 10
  141774.5938
 20
    -500.0000
  0
SEQEND
  0
POLYLINE
  8
HL
 66
     1
 70
     0
  0
VERTEX
  8
HL
 10
  125665.7031
 20
     -10.0000
  0
VERTEX
  8
HL
 10
  141520.0000
 20
     -10.0000
  0
SEQEND
  0
POLYLINE
  8
HL
 66
     1
 70
     0
  0
VERTEX
  8
HL
 10
   20776.5000
 20
     500.0000
  0
VERTEX
  8
HL
 10
  141310.4062
 20
     500.0000
  0
SEQEND
  0
POLYLINE
  8
HL
 66
     1
 70
     0
  0
VERTEX
  8
HL
 10
   20356.0000
 20
    1000.0000
  0
VERTEX
  8
HL
 10
  141178.9062
 20
    1000.0000
  0
SEQEND
  0
POLYLINE
  8
HL
 66
     1
 70
     0
  0
VERTEX
  8
HL
 10
   19935.5996
 20
    1500.0000
  0
VERTEX
  8
HL
 10
  141099.0938
 20
    1500.0000
  0
SEQEND
  0
POLYLINE
  8
HL
 66
     1
 70
     0
  0
VERTEX
  8
HL
 10
   19480.8008
 20
    2000.0000
  0
VERTEX
  8
HL
 10
  141058.7031
 20
    2000.0000
  0
SEQEND
  0
POLYLINE
  8
HL
 66
     1
 70
     0
  0
VERTEX
  8
HL
 10
   17660.8008
 20
    2500.0000
  0
VERTEX
  8
HL
 10
  141051.2031
 20
    2500.0000
  0
SEQEND
  0
POLYLINE
  8
HL
 66
     1
 70
     0
  0
VERTEX
  8
HL
 10
   15650.0000
 20
    3000.0000
  0
VERTEX
  8
HL
 10
  141083.0938
 20
    3000.0000
  0
SEQEND
  0
POLYLINE
  8
HL
 66
     1
 70
     0
  0
VERTEX
  8
HL
 10
   13355.5996
 20
    3500.0000
  0
VERTEX
  8
HL
 10
  141154.0938
 20
    3500.0000
  0
SEQEND
  0
POLYLINE
  8
HL
 66
     1
 70
     0
  0
VERTEX
  8
HL
 10
   10716.0000
 20
    4000.0000
  0
VERTEX
  8
HL
 10
  141258.0000
 20
    4000.0000
  0
SEQEND
  0
POLYLINE
  8
HL
 66
     1
 70
     0
  0
VERTEX
  8
HL
 10
    7748.2002
 20
    4500.0000
  0
VERTEX
  8
HL
 10
  141388.2031
 20
    4500.0000
  0
SEQEND
  0
POLYLINE
  8
HL
 66
     1
 70
     0
  0
VERTEX
  8
HL
 10
    4394.6001
 20
    5000.0000
  0
VERTEX
  8
HL
 10
  141541.0938
 20
    5000.0000
  0
SEQEND
  0
POLYLINE
  8
HL
 66
     1
 70
     0
  0
VERTEX
  8
HL
 10
    -114.3000
 20
    6000.0000
  0
VERTEX
  8
HL
 10
  141912.0938
 20
    6000.0000
  0
SEQEND
  0
POLYLINE
  8
HL
 66
     1
 70
     0
  0
VERTEX
  8
HL
 10
    -383.1000
 20
    7000.0000
  0
VERTEX
  8
HL
 10
  142366.5000
 20
    7000.0000
  0
SEQEND
  0
POLYLINE
  8
HL
 66
     1
 70
     0
  0
VERTEX
  8
HL
 10
    -652.0000
 20
    8000.0000
  0
VERTEX
  8
HL
 10
  142908.2031
 20
    8000.0000
  0
SEQEND
  0
POLYLINE
  8
HL
 66
     1
 70
     0
  0
VERTEX
  8
HL
 10
    -920.8000
 20
    9000.0000
  0
VERTEX
  8
HL
 10
  143545.7969
 20
    9000.0000
  0
SEQEND
  0
POLYLINE
  8
HL
 66
     1
 70
     0
  0
VERTEX
  8
HL
 10
   -1189.6000
 20
   10000.0000
  0
VERTEX
  8
HL
 10
  144289.2969
 20
   10000.0000
  0
SEQEND
  0
POLYLINE
  8
HL
 66
     1
 70
     0
  0
VERTEX
  8
HL
 10
   72210.8984
 20
   11000.0000
  0
VERTEX
  8
HL
 10
  145150.2969
 20
   11000.0000
  0
SEQEND
  0
POLYLINE
  8
HL
 66
     1
 70
     0
  0
VERTEX
  8
HL
 10
   94493.7969
 20
   12000.0000
  0
VERTEX
  8
HL
 10
  146141.2031
 20
   12000.0000
  0
SEQEND
  0
POLYLINE
  8
HL
 66
     1
 70
     0
  0
VERTEX
  8
HL
 10
  110842.2969
 20
   13000.0000
  0
VERTEX
  8
HL
 10
  147269.2969
 20
   13000.0000
  0
SEQEND
  0
POLYLINE
  8
HL
 66
     1
 70
     0
  0
VERTEX
  8
HL
 10
  122129.3984
 20
   14000.0000
  0
VERTEX
  8
HL
 10
  148530.5000
 20
   14000.0000
  0
SEQEND
  0
POLYLINE
  8
HL
 66
     1
 70
     0
  0
VERTEX
  8
HL
 10
  133723.7031
 20
   -2500.0000
  0
VERTEX
  8
HL
 10
  141215.0938
 20
   -2500.0000
  0
SEQEND
  0
POLYLINE
  8
HL
 66
     1
 70
     0
  0
VERTEX
  8
HL
 10
  130817.3984
 20
   -2000.0000
  0
VERTEX
  8
HL
 10
  141695.7969
 20
   -2000.0000
  0
SEQEND
  0
POLYLINE
  8
HL
 66
     1
 70
     0
  0
VERTEX
  8
HL
 10
  128188.7969
 20
   -1500.0000
  0
VERTEX
  8
HL
 10
  141907.2969
 20
   -1500.0000
  0
SEQEND
  0
POLYLINE
  8
HL
 66
     1
 70
     0
  0
VERTEX
  8
HL
 10
  126231.3984
 20
   -1000.0000
  0
VERTEX
  8
HL
 10
  141919.5000
 20
   -1000.0000
  0
SEQEND
  0
POLYLINE
  8
HL
 66
     1
 70
     0
  0
VERTEX
  8
HL
 10
  141113.0000
 20
   -2568.2000
  0
VERTEX
  8
HL
 10
  141113.0000
 20
   15767.9004
  0
SEQEND
  0
POLYLINE
  8
HL
 66
     1
 70
     0
  0
VERTEX
  8
HL
 10
   -1229.1000
 20
   11051.5996
  0
VERTEX
  8
HL
 10
    -948.3000
 20
   10000.0000
  0
VERTEX
  8
HL
 10
    -674.1000
 20
    9000.0000
  0
VERTEX
  8
HL
 10
    -400.4000
 20
    8000.0000
  0
VERTEX
  8
HL
 10
    -127.8000
 20
    7000.0000
  0
VERTEX
  8
HL
 10
     145.2000
 20
    6000.0000
  0
VERTEX
  8
HL
 10
     229.4000
 20
    5716.6001
  0
SEQEND
  0
POLYLINE
  8
HL
 66
     1
 70
     0
  0
VERTEX
  8
HL
 10
     229.4000
 20
    5716.6001
  0
VERTEX
  8
HL
 10
    3550.0000
 20
    5443.0000
  0
VERTEX
  8
HL
 10
    7100.0000
 20
    5070.1001
  0
VERTEX
  8
HL
 10
    7737.3999
 20
    5000.0000
  0
VERTEX
  8
HL
 10
   10650.0000
 20
    4610.1001
  0
VERTEX
  8
HL
 10
   11507.4004
 20
    4500.0000
  0
VERTEX
  8
HL
 10
   14200.0000
 20
    4083.0000
  0
VERTEX
  8
HL
 10
   14767.0000
 20
    4000.0000
  0
VERTEX
  8
HL
 10
   17750.0000
 20
    3514.0000
  0
VERTEX
  8
HL
 10
   17829.9004
 20
    3500.0000
  0
VERTEX
  8
HL
 10
   20955.6992
 20
    3000.0000
  0
VERTEX
  8
HL
 10
   21300.0000
 20
    2947.0000
  0
VERTEX
  8
HL
 10
   24177.8008
 20
    2500.0000
  0
VERTEX
  8
HL
 10
   24850.0000
 20
    2402.3999
  0
VERTEX
  8
HL
 10
   27754.8008
 20
    2000.0000
  0
VERTEX
  8
HL
 10
   28400.0000
 20
    1914.5000
  0
VERTEX
  8
HL
 10
   31925.1992
 20
    1500.0000
  0
VERTEX
  8
HL
 10
   31950.0000
 20
    1497.4000
  0
VERTEX
  8
HL
 10
   35500.0000
 20
    1178.0000
  0
VERTEX
  8
HL
 10
   38066.5000
 20
    1000.0000
  0
VERTEX
  8
HL
 10
   39050.0000
 20
     940.1000
  0
VERTEX
  8
HL
 10
   42600.0000
 20
     755.0000
  0
VERTEX
  8
HL
 10
   46150.0000
 20
     600.3000
  0
VERTEX
  8
HL
 10
   48933.1992
 20
     500.0000
  0
VERTEX
  8
HL
 10
   49700.0000
 20
     476.0000
  0
VERTEX
  8
HL
 10
   53250.0000
 20
     382.1000
  0
VERTEX
  8
HL
 10
   56800.0000
 20
     315.2000
  0
VERTEX
  8
HL
 10
   60350.0000
 20
     266.6000
  0
VERTEX
  8
HL
 10
   63900.0000
 20
     235.1000
  0
VERTEX
  8
HL
 10
   67450.0000
 20
     220.4000
  0
VERTEX
  8
HL
 10
   71000.0000
 20
     221.9000
  0
VERTEX
  8
HL
 10
   74550.0000
 20
     239.1000
  0
VERTEX
  8
HL
 10
   78100.0000
 20
     274.0000
  0
VERTEX
  8
HL
 10
   81650.0000
 20
     329.2000
  0
VERTEX
  8
HL
 10
   85200.0000
 20
     407.0000
  0
VERTEX
  8
HL
 10
   88448.6016
 20
     500.0000
  0
VERTEX
  8
HL
 10
   88750.0000
 20
     509.7000
  0
VERTEX
  8
HL
 10
   92300.0000
 20
     639.2000
  0
VERTEX
  8
HL
 10
   95850.0000
 20
     797.0000
  0
VERTEX
  8
HL
 10
   99400.0000
 20
     983.6000
  0
VERTEX
  8
HL
 10
   99689.5000
 20
    1000.0000
  0
VERTEX
  8
HL
 10
  102950.0000
 20
    1199.0000
  0
VERTEX
  8
HL
 10
  106500.0000
 20
    1444.3000
  0
VERTEX
  8
HL
 10
  107245.2969
 20
    1500.0000
  0
VERTEX
  8
HL
 10
  110050.0000
 20
    1727.7000
  0
VERTEX
  8
HL
 10
  112944.3984
 20
    2000.0000
  0
VERTEX
  8
HL
 10
  113600.0000
 20
    2068.8000
  0
VERTEX
  8
HL
 10
  117130.8984
 20
    2500.0000
  0
VERTEX
  8
HL
 10
  117150.0000
 20
    2502.7000
  0
VERTEX
  8
HL
 10
  120176.2031
 20
    3000.0000
  0
VERTEX
  8
HL
 10
  120700.0000
 20
    3104.8000
  0
VERTEX
  8
HL
 10
  122406.1016
 20
    3500.0000
  0
VERTEX
  8
HL
 10
  124094.6016
 20
    4000.0000
  0
VERTEX
  8
HL
 10
  124250.0000
 20
    4053.3000
  0
VERTEX
  8
HL
 10
  125404.5000
 20
    4500.0000
  0
VERTEX
  8
HL
 10
  126452.5000
 20
    5000.0000
  0
VERTEX
  8
HL
 10
  127800.0000
 20
    5779.5000
  0
VERTEX
  8
HL
 10
  128156.0000
 20
    6000.0000
  0
VERTEX
  8
HL
 10
  129727.2031
 20
    7000.0000
  0
VERTEX
  8
HL
 10
  131320.4062
 20
    8000.0000
  0
VERTEX
  8
HL
 10
  131350.0000
 20
    8018.0000
  0
VERTEX
  8
HL
 10
  133046.0000
 20
    9000.0000
  0
VERTEX
  8
HL
 10
  134900.0000
 20
    9980.7002
  0
VERTEX
  8
HL
 10
  134937.7969
 20
   10000.0000
  0
VERTEX
  8
HL
 10
  136675.0000
 20
   10870.9004
  0
VERTEX
  8
HL
 10
  136934.7969
 20
   11000.0000
  0
VERTEX
  8
HL
 10
  138450.0000
 20
   11760.9004
  0
VERTEX
  8
HL
 10
  138917.7969
 20
   12000.0000
  0
VERTEX
  8
HL
 10
  140225.0000
 20
   12683.0996
  0
VERTEX
  8
HL
 10
  140817.2031
 20
   13000.0000
  0
VERTEX
  8
HL
 10
  141113.0000
 20
   13159.2002
  0
VERTEX
  8
HL
 10
  142000.0000
 20
   13639.4004
  0
VERTEX
  8
HL
 10
  142666.0000
 20
   14000.0000
  0
VERTEX
  8
HL
 10
  145550.0000
 20
   15515.5996
  0
VERTEX
  8
HL
 10
  146626.9062
 20
   16044.7998
  0
SEQEND
  0
POLYLINE
  8
HL
 66
     1
 70
     0
  0
VERTEX
  8
HL
 10
   -1038.0000
 20
   11030.0000
  0
VERTEX
  8
HL
 10
    -770.5000
 20
   10000.0000
  0
VERTEX
  8
HL
 10
    -501.2000
 20
    9000.0000
  0
VERTEX
  8
HL
 10
    -231.9000
 20
    8000.0000
  0
VERTEX
  8
HL
 10
      37.4000
 20
    7000.0000
  0
VERTEX
  8
HL
 10
     306.7000
 20
    6000.0000
  0
VERTEX
  8
HL
 10
     357.0000
 20
    5814.0000
  0
SEQEND
  0
POLYLINE
  8
HL
 66
     1
 70
     0
  0
VERTEX
  8
HL
 10
     357.0000
 20
    5814.0000
  0
VERTEX
  8
HL
 10
    3550.0000
 20
    5572.3999
  0
VERTEX
  8
HL
 10
    7100.0000
 20
    5240.7002
  0
VERTEX
  8
HL
 10
    9378.5996
 20
    5000.0000
  0
VERTEX
  8
HL
 10
   10650.0000
 20
    4840.2998
  0
VERTEX
  8
HL
 10
   13383.2002
 20
    4500.0000
  0
VERTEX
  8
HL
 10
   14200.0000
 20
    4385.5000
  0
VERTEX
  8
HL
 10
   17108.6992
 20
    4000.0000
  0
VERTEX
  8
HL
 10
   17750.0000
 20
    3910.5000
  0
VERTEX
  8
HL
 10
   20718.4004
 20
    3500.0000
  0
VERTEX
  8
HL
 10
   21300.0000
 20
    3423.8999
  0
VERTEX
  8
HL
 10
   24462.5996
 20
    3000.0000
  0
VERTEX
  8
HL
 10
   24850.0000
 20
    2947.6001
  0
VERTEX
  8
HL
 10
   28262.4004
 20
    2500.0000
  0
VERTEX
  8
HL
 10
   28400.0000
 20
    2482.1001
  0
VERTEX
  8
HL
 10
   31950.0000
 20
    2034.8000
  0
VERTEX
  8
HL
 10
   32245.9004
 20
    2000.0000
  0
VERTEX
  8
HL
 10
   35500.0000
 20
    1649.6000
  0
VERTEX
  8
HL
 10
   37108.1016
 20
    1500.0000
  0
VERTEX
  8
HL
 10
   39050.0000
 20
    1339.9000
  0
VERTEX
  8
HL
 10
   42600.0000
 20
    1089.0000
  0
VERTEX
  8
HL
 10
   44078.8008
 20
    1000.0000
  0
VERTEX
  8
HL
 10
   46150.0000
 20
     887.2000
  0
VERTEX
  8
HL
 10
   49700.0000
 20
     724.3000
  0
VERTEX
  8
HL
 10
   53250.0000
 20
     602.2000
  0
VERTEX
  8
HL
 10
   56800.0000
 20
     511.6000
  0
VERTEX
  8
HL
 10
   57348.6992
 20
     500.0000
  0
VERTEX
  8
HL
 10
   60350.0000
 20
     446.5000
  0
VERTEX
  8
HL
 10
   63900.0000
 20
     403.9000
  0
VERTEX
  8
HL
 10
   67450.0000
 20
     384.1000
  0
VERTEX
  8
HL
 10
   71000.0000
 20
     387.7000
  0
VERTEX
  8
HL
 10
   74550.0000
 20
     415.2000
  0
VERTEX
  8
HL
 10
   78100.0000
 20
     467.5000
  0
VERTEX
  8
HL
 10
   79715.1016
 20
     500.0000
  0
VERTEX
  8
HL
 10
   81650.0000
 20
     546.7000
  0
VERTEX
  8
HL
 10
   85200.0000
 20
     658.9000
  0
VERTEX
  8
HL
 10
   88750.0000
 20
     810.5000
  0
VERTEX
  8
HL
 10
   92247.7031
 20
    1000.0000
  0
VERTEX
  8
HL
 10
   92300.0000
 20
    1003.1000
  0
VERTEX
  8
HL
 10
   95850.0000
 20
    1236.1000
  0
VERTEX
  8
HL
 10
   99312.2031
 20
    1500.0000
  0
VERTEX
  8
HL
 10
   99400.0000
 20
    1507.1000
  0
VERTEX
  8
HL
 10
  102950.0000
 20
    1814.4000
  0
VERTEX
  8
HL
 10
  104947.1016
 20
    2000.0000
  0
VERTEX
  8
HL
 10
  106500.0000
 20
    2153.1001
  0
VERTEX
  8
HL
 10
  109682.3984
 20
    2500.0000
  0
VERTEX
  8
HL
 10
  110050.0000
 20
    2543.8000
  0
VERTEX
  8
HL
 10
  113446.7969
 20
    3000.0000
  0
VERTEX
  8
HL
 10
  113600.0000
 20
    3023.1001
  0
VERTEX
  8
HL
 10
  116397.1016
 20
    3500.0000
  0
VERTEX
  8
HL
 10
  117150.0000
 20
    3650.8999
  0
VERTEX
  8
HL
 10
  118695.1016
 20
    4000.0000
  0
VERTEX
  8
HL
 10
  120511.0000
 20
    4500.0000
  0
VERTEX
  8
HL
 10
  120700.0000
 20
    4559.2002
  0
VERTEX
  8
HL
 10
  121963.7031
 20
    5000.0000
  0
VERTEX
  8
HL
 10
  124169.0000
 20
    6000.0000
  0
VERTEX
  8
HL
 10
  124250.0000
 20
    6042.5000
  0
VERTEX
  8
HL
 10
  125964.5000
 20
    7000.0000
  0
VERTEX
  8
HL
 10
  127671.1016
 20
    8000.0000
  0
VERTEX
  8
HL
 10
  127800.0000
 20
    8074.7998
  0
VERTEX
  8
HL
 10
  129452.5000
 20
    9000.0000
  0
VERTEX
  8
HL
 10
  131350.0000
 20
    9971.2998
  0
VERTEX
  8
HL
 10
  131408.9062
 20
   10000.0000
  0
VERTEX
  8
HL
 10
  133536.0000
 20
   11000.0000
  0
VERTEX
  8
HL
 10
  134900.0000
 20
   11619.2998
  0
VERTEX
  8
HL
 10
  135740.9062
 20
   12000.0000
  0
VERTEX
  8
HL
 10
  136675.0000
 20
   12430.0000
  0
VERTEX
  8
HL
 10
  137883.4062
 20
   13000.0000
  0
VERTEX
  8
HL
 10
  138450.0000
 20
   13272.0000
  0
VERTEX
  8
HL
 10
  139930.7031
 20
   14000.0000
  0
VERTEX
  8
HL
 10
  140225.0000
 20
   14146.2002
  0
VERTEX
  8
HL
 10
  141113.0000
 20
   14589.9004
  0
VERTEX
  8
HL
 10
  142000.0000
 20
   15025.7998
  0
VERTEX
  8
HL
 10
  143859.2031
 20
   15921.0000
  0
SEQEND
  0
POLYLINE
  8
HL
 66
     1
 70
     0
  0
VERTEX
  8
HL
 10
    -788.9000
 20
   11001.7998
  0
VERTEX
  8
HL
 10
    -528.3000
 20
   10000.0000
  0
VERTEX
  8
HL
 10
    -268.6000
 20
    9000.0000
  0
VERTEX
  8
HL
 10
      -7.2000
 20
    8000.0000
  0
VERTEX
  8
HL
 10
     257.7000
 20
    7000.0000
  0
VERTEX
  8
HL
 10
     507.8000
 20
    6053.2998
  0
SEQEND
  0
POLYLINE
  8
HL
 66
     1
 70
     0
  0
VERTEX
  8
HL
 10
     507.8000
 20
    6053.2998
  0
VERTEX
  8
HL
 10
    1181.2000
 20
    6000.0000
  0
VERTEX
  8
HL
 10
    3550.0000
 20
    5800.6001
  0
VERTEX
  8
HL
 10
    7100.0000
 20
    5486.5000
  0
VERTEX
  8
HL
 10
   10650.0000
 20
    5125.7002
  0
VERTEX
  8
HL
 10
   11773.4004
 20
    5000.0000
  0
VERTEX
  8
HL
 10
   14200.0000
 20
    4731.2998
  0
VERTEX
  8
HL
 10
   16155.7002
 20
    4500.0000
  0
VERTEX
  8
HL
 10
   17750.0000
 20
    4319.7002
  0
VERTEX
  8
HL
 10
   20424.5996
 20
    4000.0000
  0
VERTEX
  8
HL
 10
   21300.0000
 20
    3896.1001
  0
VERTEX
  8
HL
 10
   24606.9004
 20
    3500.0000
  0
VERTEX
  8
HL
 10
   24850.0000
 20
    3469.8999
  0
VERTEX
  8
HL
 10
   28400.0000
 20
    3028.0000
  0
VERTEX
  8
HL
 10
   28630.0996
 20
    3000.0000
  0
VERTEX
  8
HL
 10
   31950.0000
 20
    2589.8999
  0
VERTEX
  8
HL
 10
   32686.8008
 20
    2500.0000
  0
VERTEX
  8
HL
 10
   35500.0000
 20
    2171.1001
  0
VERTEX
  8
HL
 10
   37079.3008
 20
    2000.0000
  0
VERTEX
  8
HL
 10
   39050.0000
 20
    1802.7000
  0
VERTEX
  8
HL
 10
   42534.6016
 20
    1500.0000
  0
VERTEX
  8
HL
 10
   42600.0000
 20
    1494.8000
  0
VERTEX
  8
HL
 10
   46150.0000
 20
    1239.8000
  0
VERTEX
  8
HL
 10
   49700.0000
 20
    1038.7000
  0
VERTEX
  8
HL
 10
   50502.6992
 20
    1000.0000
  0
VERTEX
  8
HL
 10
   53250.0000
 20
     886.8000
  0
VERTEX
  8
HL
 10
   56800.0000
 20
     775.8000
  0
VERTEX
  8
HL
 10
   60350.0000
 20
     695.2000
  0
VERTEX
  8
HL
 10
   63900.0000
 20
     641.7000
  0
VERTEX
  8
HL
 10
   67450.0000
 20
     618.9000
  0
VERTEX
  8
HL
 10
   71000.0000
 20
     628.4000
  0
VERTEX
  8
HL
 10
   74550.0000
 20
     671.5000
  0
VERTEX
  8
HL
 10
   78100.0000
 20
     747.7000
  0
VERTEX
  8
HL
 10
   81650.0000
 20
     858.2000
  0
VERTEX
  8
HL
 10
   84900.6016
 20
    1000.0000
  0
VERTEX
  8
HL
 10
   85200.0000
 20
    1015.3000
  0
VERTEX
  8
HL
 10
   88750.0000
 20
    1227.8000
  0
VERTEX
  8
HL
 10
   92300.0000
 20
    1493.7000
  0
VERTEX
  8
HL
 10
   92375.5000
 20
    1500.0000
  0
VERTEX
  8
HL
 10
   95850.0000
 20
    1810.4000
  0
VERTEX
  8
HL
 10
   97791.7969
 20
    2000.0000
  0
VERTEX
  8
HL
 10
   99400.0000
 20
    2165.8999
  0
VERTEX
  8
HL
 10
  102450.3984
 20
    2500.0000
  0
VERTEX
  8
HL
 10
  102950.0000
 20
    2557.3999
  0
VERTEX
  8
HL
 10
  106500.0000
 20
    2994.0000
  0
VERTEX
  8
HL
 10
  106545.3984
 20
    3000.0000
  0
VERTEX
  8
HL
 10
  109990.5000
 20
    3500.0000
  0
VERTEX
  8
HL
 10
  110050.0000
 20
    3509.5000
  0
VERTEX
  8
HL
 10
  112832.3984
 20
    4000.0000
  0
VERTEX
  8
HL
 10
  113600.0000
 20
    4154.7002
  0
VERTEX
  8
HL
 10
  115147.3984
 20
    4500.0000
  0
VERTEX
  8
HL
 10
  117042.8984
 20
    5000.0000
  0
VERTEX
  8
HL
 10
  117150.0000
 20
    5031.3999
  0
VERTEX
  8
HL
 10
  119916.0000
 20
    6000.0000
  0
VERTEX
  8
HL
 10
  120700.0000
 20
    6341.0000
  0
VERTEX
  8
HL
 10
  122049.5000
 20
    7000.0000
  0
VERTEX
  8
HL
 10
  123902.7031
 20
    8000.0000
  0
VERTEX
  8
HL
 10
  124250.0000
 20
    8190.6001
  0
VERTEX
  8
HL
 10
  125750.5000
 20
    9000.0000
  0
VERTEX
  8
HL
 10
  127734.7031
 20
   10000.0000
  0
VERTEX
  8
HL
 10
  127800.0000
 20
   10031.5000
  0
VERTEX
  8
HL
 10
  129891.8984
 20
   11000.0000
  0
VERTEX
  8
HL
 10
  131350.0000
 20
   11635.0000
  0
VERTEX
  8
HL
 10
  132205.0000
 20
   12000.0000
  0
VERTEX
  8
HL
 10
  134542.9062
 20
   13000.0000
  0
VERTEX
  8
HL
 10
  134900.0000
 20
   13156.2002
  0
VERTEX
  8
HL
 10
  136675.0000
 20
   13944.7998
  0
VERTEX
  8
HL
 10
  136797.7031
 20
   14000.0000
  0
VERTEX
  8
HL
 10
  138450.0000
 20
   14756.2002
  0
VERTEX
  8
HL
 10
  140225.0000
 20
   15571.2998
  0
VERTEX
  8
HL
 10
  140586.7031
 20
   15734.9004
  0
SEQEND
  0
POLYLINE
  8
HL
 66
     1
 70
     0
  0
VERTEX
  8
HL
 10
    -480.6000
 20
   10966.9004
  0
VERTEX
  8
HL
 10
    -219.6000
 20
   10000.0000
  0
VERTEX
  8
HL
 10
      46.6000
 20
    9000.0000
  0
VERTEX
  8
HL
 10
     309.6000
 20
    8000.0000
  0
VERTEX
  8
HL
 10
     474.5000
 20
    7355.6001
  0
SEQEND
  0
POLYLINE
  8
HL
 66
     1
 70
     0
  0
VERTEX
  8
HL
 10
     474.5000
 20
    7355.6001
  0
VERTEX
  8
HL
 10
    1480.5000
 20
    7000.0000
  0
VERTEX
  8
HL
 10
    3550.0000
 20
    6515.8999
  0
VERTEX
  8
HL
 10
    6944.2998
 20
    6000.0000
  0
VERTEX
  8
HL
 10
    7100.0000
 20
    5980.2002
  0
VERTEX
  8
HL
 10
   10650.0000
 20
    5556.2998
  0
VERTEX
  8
HL
 10
   14200.0000
 20
    5175.5000
  0
VERTEX
  8
HL
 10
   15847.7002
 20
    5000.0000
  0
VERTEX
  8
HL
 10
   17750.0000
 20
    4790.5000
  0
VERTEX
  8
HL
 10
   20438.8008
 20
    4500.0000
  0
VERTEX
  8
HL
 10
   21300.0000
 20
    4405.5000
  0
VERTEX
  8
HL
 10
   24850.0000
 20
    4013.5000
  0
VERTEX
  8
HL
 10
   24970.0000
 20
    4000.0000
  0
VERTEX
  8
HL
 10
   28400.0000
 20
    3597.8999
  0
VERTEX
  8
HL
 10
   29234.4004
 20
    3500.0000
  0
VERTEX
  8
HL
 10
   31950.0000
 20
    3186.7000
  0
VERTEX
  8
HL
 10
   33532.1016
 20
    3000.0000
  0
VERTEX
  8
HL
 10
   35500.0000
 20
    2768.2000
  0
VERTEX
  8
HL
 10
   37824.5000
 20
    2500.0000
  0
VERTEX
  8
HL
 10
   39050.0000
 20
    2363.8999
  0
VERTEX
  8
HL
 10
   42600.0000
 20
    2001.1000
  0
VERTEX
  8
HL
 10
   42612.1016
 20
    2000.0000
  0
VERTEX
  8
HL
 10
   46150.0000
 20
    1694.2000
  0
VERTEX
  8
HL
 10
   48910.5000
 20
    1500.0000
  0
VERTEX
  8
HL
 10
   49700.0000
 20
    1450.9000
  0
VERTEX
  8
HL
 10
   53250.0000
 20
    1260.1000
  0
VERTEX
  8
HL
 10
   56800.0000
 20
    1126.0000
  0
VERTEX
  8
HL
 10
   60350.0000
 20
    1033.9000
  0
VERTEX
  8
HL
 10
   62192.6016
 20
    1000.0000
  0
VERTEX
  8
HL
 10
   63900.0000
 20
     977.0000
  0
VERTEX
  8
HL
 10
   67450.0000
 20
     957.3000
  0
VERTEX
  8
HL
 10
   71000.0000
 20
     978.0000
  0
VERTEX
  8
HL
 10
   72525.0000
 20
    1000.0000
  0
VERTEX
  8
HL
 10
   74550.0000
 20
    1041.5000
  0
VERTEX
  8
HL
 10
   78100.0000
 20
    1149.1000
  0
VERTEX
  8
HL
 10
   81650.0000
 20
    1308.1000
  0
VERTEX
  8
HL
 10
   84792.5000
 20
    1500.0000
  0
VERTEX
  8
HL
 10
   85200.0000
 20
    1528.8000
  0
VERTEX
  8
HL
 10
   88750.0000
 20
    1816.3000
  0
VERTEX
  8
HL
 10
   90692.6016
 20
    2000.0000
  0
VERTEX
  8
HL
 10
   92300.0000
 20
    2164.1001
  0
VERTEX
  8
HL
 10
   95370.7031
 20
    2500.0000
  0
VERTEX
  8
HL
 10
   95850.0000
 20
    2555.2000
  0
VERTEX
  8
HL
 10
   99400.0000
 20
    2986.5000
  0
VERTEX
  8
HL
 10
   99506.1016
 20
    3000.0000
  0
VERTEX
  8
HL
 10
  102950.0000
 20
    3466.2000
  0
VERTEX
  8
HL
 10
  103183.7031
 20
    3500.0000
  0
VERTEX
  8
HL
 10
  106378.5000
 20
    4000.0000
  0
VERTEX
  8
HL
 10
  106500.0000
 20
    4020.7000
  0
VERTEX
  8
HL
 10
  109108.0000
 20
    4500.0000
  0
VERTEX
  8
HL
 10
  110050.0000
 20
    4693.0000
  0
VERTEX
  8
HL
 10
  111422.6016
 20
    5000.0000
  0
VERTEX
  8
HL
 10
  113600.0000
 20
    5568.0000
  0
VERTEX
  8
HL
 10
  114987.6016
 20
    6000.0000
  0
VERTEX
  8
HL
 10
  117150.0000
 20
    6810.1001
  0
VERTEX
  8
HL
 10
  117596.6016
 20
    7000.0000
  0
VERTEX
  8
HL
 10
  119722.7969
 20
    8000.0000
  0
VERTEX
  8
HL
 10
  120700.0000
 20
    8496.5996
  0
VERTEX
  8
HL
 10
  121682.8984
 20
    9000.0000
  0
VERTEX
  8
HL
 10
  123692.0000
 20
   10000.0000
  0
VERTEX
  8
HL
 10
  124250.0000
 20
   10266.5996
  0
VERTEX
  8
HL
 10
  125848.0000
 20
   11000.0000
  0
VERTEX
  8
HL
 10
  127800.0000
 20
   11843.0996
  0
VERTEX
  8
HL
 10
  128177.7969
 20
   12000.0000
  0
VERTEX
  8
HL
 10
  130641.6016
 20
   13000.0000
  0
VERTEX
  8
HL
 10
  131350.0000
 20
   13285.7998
  0
VERTEX
  8
HL
 10
  133101.2031
 20
   14000.0000
  0
VERTEX
  8
HL
 10
  134900.0000
 20
   14749.2998
  0
VERTEX
  8
HL
 10
  136510.2031
 20
   15433.5000
  0
SEQEND
  0
POLYLINE
  8
HL
 66
     1
 70
     0
  0
VERTEX
  8
HL
 10
     545.9000
 20
   10910.9004
  0
VERTEX
  8
HL
 10
    2055.6001
 20
   10000.0000
  0
VERTEX
  8
HL
 10
    3550.0000
 20
    9163.0000
  0
VERTEX
  8
HL
 10
    3856.0000
 20
    9000.0000
  0
VERTEX
  8
HL
 10
    5889.2002
 20
    8000.0000
  0
VERTEX
  8
HL
 10
    7100.0000
 20
    7501.0000
  0
VERTEX
  8
HL
 10
    8612.0000
 20
    7000.0000
  0
VERTEX
  8
HL
 10
   10650.0000
 20
    6518.3999
  0
VERTEX
  8
HL
 10
   13656.0996
 20
    6000.0000
  0
VERTEX
  8
HL
 10
   14200.0000
 20
    5922.5000
  0
VERTEX
  8
HL
 10
   17750.0000
 20
    5472.3999
  0
VERTEX
  8
HL
 10
   21300.0000
 20
    5072.1001
  0
VERTEX
  8
HL
 10
   21986.9004
 20
    5000.0000
  0
VERTEX
  8
HL
 10
   24850.0000
 20
    4703.1001
  0
VERTEX
  8
HL
 10
   26783.5000
 20
    4500.0000
  0
VERTEX
  8
HL
 10
   28400.0000
 20
    4323.8999
  0
VERTEX
  8
HL
 10
   31240.5000
 20
    4000.0000
  0
VERTEX
  8
HL
 10
   31950.0000
 20
    3919.3999
  0
VERTEX
  8
HL
 10
   35500.0000
 20
    3514.3999
  0
VERTEX
  8
HL
 10
   35624.3008
 20
    3500.0000
  0
VERTEX
  8
HL
 10
   39050.0000
 20
    3101.6001
  0
VERTEX
  8
HL
 10
   39932.8984
 20
    3000.0000
  0
VERTEX
  8
HL
 10
   42600.0000
 20
    2703.8000
  0
VERTEX
  8
HL
 10
   44581.0000
 20
    2500.0000
  0
VERTEX
  8
HL
 10
   46150.0000
 20
    2349.8999
  0
VERTEX
  8
HL
 10
   49700.0000
 20
    2048.3000
  0
VERTEX
  8
HL
 10
   50349.8984
 20
    2000.0000
  0
VERTEX
  8
HL
 10
   53250.0000
 20
    1810.7000
  0
VERTEX
  8
HL
 10
   56800.0000
 20
    1641.1000
  0
VERTEX
  8
HL
 10
   60350.0000
 20
    1529.5000
  0
VERTEX
  8
HL
 10
   61725.8984
 20
    1500.0000
  0
VERTEX
  8
HL
 10
   63900.0000
 20
    1469.4000
  0
VERTEX
  8
HL
 10
   67450.0000
 20
    1462.0000
  0
VERTEX
  8
HL
 10
   70821.6016
 20
    1500.0000
  0
VERTEX
  8
HL
 10
   71000.0000
 20
    1503.2000
  0
VERTEX
  8
HL
 10
   74550.0000
 20
    1594.8000
  0
VERTEX
  8
HL
 10
   78100.0000
 20
    1746.0000
  0
VERTEX
  8
HL
 10
   81650.0000
 20
    1967.7000
  0
VERTEX
  8
HL
 10
   82085.1016
 20
    2000.0000
  0
VERTEX
  8
HL
 10
   85200.0000
 20
    2263.3999
  0
VERTEX
  8
HL
 10
   87560.7969
 20
    2500.0000
  0
VERTEX
  8
HL
 10
   88750.0000
 20
    2630.0000
  0
VERTEX
  8
HL
 10
   91893.5000
 20
    3000.0000
  0
VERTEX
  8
HL
 10
   92300.0000
 20
    3050.3999
  0
VERTEX
  8
HL
 10
   95750.2969
 20
    3500.0000
  0
VERTEX
  8
HL
 10
   95850.0000
 20
    3513.7000
  0
VERTEX
  8
HL
 10
   99177.0000
 20
    4000.0000
  0
VERTEX
  8
HL
 10
   99400.0000
 20
    4034.8999
  0
VERTEX
  8
HL
 10
  102192.0000
 20
    4500.0000
  0
VERTEX
  8
HL
 10
  102950.0000
 20
    4637.0000
  0
VERTEX
  8
HL
 10
  104829.1016
 20
    5000.0000
  0
VERTEX
  8
HL
 10
  106500.0000
 20
    5355.7002
  0
VERTEX
  8
HL
 10
  109081.8984
 20
    6000.0000
  0
VERTEX
  8
HL
 10
  110050.0000
 20
    6282.7998
  0
VERTEX
  8
HL
 10
  112179.5000
 20
    7000.0000
  0
VERTEX
  8
HL
 10
  113600.0000
 20
    7552.7002
  0
VERTEX
  8
HL
 10
  114656.7031
 20
    8000.0000
  0
VERTEX
  8
HL
 10
  116857.1016
 20
    9000.0000
  0
VERTEX
  8
HL
 10
  117150.0000
 20
    9137.0996
  0
VERTEX
  8
HL
 10
  118988.3984
 20
   10000.0000
  0
VERTEX
  8
HL
 10
  120700.0000
 20
   10787.5996
  0
VERTEX
  8
HL
 10
  121173.7969
 20
   11000.0000
  0
VERTEX
  8
HL
 10
  123511.7031
 20
   12000.0000
  0
VERTEX
  8
HL
 10
  124250.0000
 20
   12299.5000
  0
VERTEX
  8
HL
 10
  126043.6016
 20
   13000.0000
  0
VERTEX
  8
HL
 10
  127800.0000
 20
   13661.5996
  0
VERTEX
  8
HL
 10
  128705.7969
 20
   14000.0000
  0
VERTEX
  8
HL
 10
  131185.0938
 20
   14937.4004
  0
SEQEND
  0
POLYLINE
  8
HL
 66
     1
 70
     0
  0
VERTEX
  8
HL
 10
    8147.7002
 20
   10653.0000
  0
VERTEX
  8
HL
 10
    9567.5000
 20
   10000.0000
  0
VERTEX
  8
HL
 10
   10650.0000
 20
    9532.9004
  0
VERTEX
  8
HL
 10
   11944.5996
 20
    9000.0000
  0
VERTEX
  8
HL
 10
   14200.0000
 20
    8120.6001
  0
VERTEX
  8
HL
 10
   14529.7998
 20
    8000.0000
  0
VERTEX
  8
HL
 10
   17750.0000
 20
    7013.1001
  0
VERTEX
  8
HL
 10
   17803.3008
 20
    7000.0000
  0
VERTEX
  8
HL
 10
   21300.0000
 20
    6306.0000
  0
VERTEX
  8
HL
 10
   23375.3008
 20
    6000.0000
  0
VERTEX
  8
HL
 10
   24850.0000
 20
    5813.6001
  0
VERTEX
  8
HL
 10
   28400.0000
 20
    5407.6001
  0
VERTEX
  8
HL
 10
   31950.0000
 20
    5006.0000
  0
VERTEX
  8
HL
 10
   32001.8008
 20
    5000.0000
  0
VERTEX
  8
HL
 10
   35500.0000
 20
    4591.5000
  0
VERTEX
  8
HL
 10
   36287.3008
 20
    4500.0000
  0
VERTEX
  8
HL
 10
   39050.0000
 20
    4180.2998
  0
VERTEX
  8
HL
 10
   40615.5000
 20
    4000.0000
  0
VERTEX
  8
HL
 10
   42600.0000
 20
    3774.0000
  0
VERTEX
  8
HL
 10
   45096.3008
 20
    3500.0000
  0
VERTEX
  8
HL
 10
   46150.0000
 20
    3389.8000
  0
VERTEX
  8
HL
 10
   49700.0000
 20
    3046.8999
  0
VERTEX
  8
HL
 10
   50224.3008
 20
    3000.0000
  0
VERTEX
  8
HL
 10
   53250.0000
 20
    2754.8000
  0
VERTEX
  8
HL
 10
   56800.0000
 20
    2529.2000
  0
VERTEX
  8
HL
 10
   57374.6992
 20
    2500.0000
  0
VERTEX
  8
HL
 10
   60350.0000
 20
    2382.5000
  0
VERTEX
  8
HL
 10
   63900.0000
 20
    2310.0000
  0
VERTEX
  8
HL
 10
   67450.0000
 20
    2302.2000
  0
VERTEX
  8
HL
 10
   71000.0000
 20
    2361.2000
  0
VERTEX
  8
HL
 10
   74550.0000
 20
    2488.8999
  0
VERTEX
  8
HL
 10
   74785.5000
 20
    2500.0000
  0
VERTEX
  8
HL
 10
   78100.0000
 20
    2693.7000
  0
VERTEX
  8
HL
 10
   81650.0000
 20
    2979.6001
  0
VERTEX
  8
HL
 10
   81870.3984
 20
    3000.0000
  0
VERTEX
  8
HL
 10
   85200.0000
 20
    3344.3000
  0
VERTEX
  8
HL
 10
   86534.6016
 20
    3500.0000
  0
VERTEX
  8
HL
 10
   88750.0000
 20
    3778.7000
  0
VERTEX
  8
HL
 10
   90383.7031
 20
    4000.0000
  0
VERTEX
  8
HL
 10
   92300.0000
 20
    4276.5000
  0
VERTEX
  8
HL
 10
   93740.6016
 20
    4500.0000
  0
VERTEX
  8
HL
 10
   95850.0000
 20
    4854.2002
  0
VERTEX
  8
HL
 10
   96664.8984
 20
    5000.0000
  0
VERTEX
  8
HL
 10
   99400.0000
 20
    5532.3999
  0
VERTEX
  8
HL
 10
  101519.5000
 20
    6000.0000
  0
VERTEX
  8
HL
 10
  102950.0000
 20
    6353.0000
  0
VERTEX
  8
HL
 10
  105211.5000
 20
    7000.0000
  0
VERTEX
  8
HL
 10
  106500.0000
 20
    7425.1001
  0
VERTEX
  8
HL
 10
  108079.2969
 20
    8000.0000
  0
VERTEX
  8
HL
 10
  110050.0000
 20
    8779.4004
  0
VERTEX
  8
HL
 10
  110591.2031
 20
    9000.0000
  0
VERTEX
  8
HL
 10
  113007.5000
 20
   10000.0000
  0
VERTEX
  8
HL
 10
  113600.0000
 20
   10249.5000
  0
VERTEX
  8
HL
 10
  115371.8984
 20
   11000.0000
  0
VERTEX
  8
HL
 10
  117150.0000
 20
   11741.5996
  0
VERTEX
  8
HL
 10
  117785.1016
 20
   12000.0000
  0
VERTEX
  8
HL
 10
  120387.0000
 20
   13000.0000
  0
VERTEX
  8
HL
 10
  120700.0000
 20
   13113.7002
  0
VERTEX
  8
HL
 10
  123249.0000
 20
   14000.0000
  0
VERTEX
  8
HL
 10
  123738.1016
 20
   14163.7002
  0
SEQEND
  0
POLYLINE
  8
HL
 66
     1
 70
     0
  0
VERTEX
  8
HL
 10
   20086.6992
 20
   10238.5996
  0
VERTEX
  8
HL
 10
   20864.3008
 20
   10000.0000
  0
VERTEX
  8
HL
 10
   21300.0000
 20
    9868.0000
  0
VERTEX
  8
HL
 10
   24241.8008
 20
    9000.0000
  0
VERTEX
  8
HL
 10
   24850.0000
 20
    8826.7998
  0
VERTEX
  8
HL
 10
   27983.4004
 20
    8000.0000
  0
VERTEX
  8
HL
 10
   28400.0000
 20
    7901.0000
  0
VERTEX
  8
HL
 10
   31950.0000
 20
    7173.2998
  0
VERTEX
  8
HL
 10
   32982.3008
 20
    7000.0000
  0
VERTEX
  8
HL
 10
   35500.0000
 20
    6621.5000
  0
VERTEX
  8
HL
 10
   39050.0000
 20
    6150.6001
  0
VERTEX
  8
HL
 10
   40252.1992
 20
    6000.0000
  0
VERTEX
  8
HL
 10
   42600.0000
 20
    5717.0000
  0
VERTEX
  8
HL
 10
   46150.0000
 20
    5317.2002
  0
VERTEX
  8
HL
 10
   49189.8984
 20
    5000.0000
  0
VERTEX
  8
HL
 10
   49700.0000
 20
    4949.6001
  0
VERTEX
  8
HL
 10
   53250.0000
 20
    4627.8999
  0
VERTEX
  8
HL
 10
   54857.6992
 20
    4500.0000
  0
VERTEX
  8
HL
 10
   56800.0000
 20
    4361.2002
  0
VERTEX
  8
HL
 10
   60350.0000
 20
    4162.2998
  0
VERTEX
  8
HL
 10
   63900.0000
 20
    4046.7000
  0
VERTEX
  8
HL
 10
   67450.0000
 20
    4018.0000
  0
VERTEX
  8
HL
 10
   71000.0000
 20
    4077.1001
  0
VERTEX
  8
HL
 10
   74550.0000
 20
    4223.0000
  0
VERTEX
  8
HL
 10
   78100.0000
 20
    4467.3999
  0
VERTEX
  8
HL
 10
   78478.3984
 20
    4500.0000
  0
VERTEX
  8
HL
 10
   81650.0000
 20
    4823.5000
  0
VERTEX
  8
HL
 10
   83111.6016
 20
    5000.0000
  0
VERTEX
  8
HL
 10
   85200.0000
 20
    5279.0000
  0
VERTEX
  8
HL
 10
   88750.0000
 20
    5827.3999
  0
VERTEX
  8
HL
 10
   89735.8984
 20
    6000.0000
  0
VERTEX
  8
HL
 10
   92300.0000
 20
    6497.7002
  0
VERTEX
  8
HL
 10
   94565.7031
 20
    7000.0000
  0
VERTEX
  8
HL
 10
   95850.0000
 20
    7312.6001
  0
VERTEX
  8
HL
 10
   98367.5000
 20
    8000.0000
  0
VERTEX
  8
HL
 10
   99400.0000
 20
    8319.0000
  0
VERTEX
  8
HL
 10
  101385.7969
 20
    9000.0000
  0
VERTEX
  8
HL
 10
  102950.0000
 20
    9575.5000
  0
VERTEX
  8
HL
 10
  104098.7031
 20
   10000.0000
  0
VERTEX
  8
HL
 10
  106500.0000
 20
   10875.0000
  0
VERTEX
  8
HL
 10
  106845.0000
 20
   11000.0000
  0
VERTEX
  8
HL
 10
  109606.0000
 20
   12000.0000
  0
VERTEX
  8
HL
 10
  110050.0000
 20
   12161.4004
  0
VERTEX
  8
HL
 10
  112387.2969
 20
   13000.0000
  0
VERTEX
  8
HL
 10
  112820.3984
 20
   13153.7998
  0
SEQEND
  0
POLYLINE
  8
HL
 66
     1
 70
     0
  0
VERTEX
  8
HL
 10
   -1448.3000
 20
   11076.4004
  0
VERTEX
  8
HL
 10
   -1153.3000
 20
   10000.0000
  0
VERTEX
  8
HL
 10
    -880.8000
 20
    9000.0000
  0
VERTEX
  8
HL
 10
    -608.2000
 20
    8000.0000
  0
VERTEX
  8
HL
 10
    -335.4000
 20
    7000.0000
  0
VERTEX
  8
HL
 10
     -62.7000
 20
    6000.0000
  0
VERTEX
  8
HL
 10
      44.6000
 20
    5603.5000
  0
SEQEND
  0
POLYLINE
  8
HL
 66
     1
 70
     0
  0
VERTEX
  8
HL
 10
      44.6000
 20
    5603.5000
  0
VERTEX
  8
HL
 10
    3550.0000
 20
    5232.7002
  0
VERTEX
  8
HL
 10
    5322.7002
 20
    5000.0000
  0
VERTEX
  8
HL
 10
    7100.0000
 20
    4766.2998
  0
VERTEX
  8
HL
 10
    8730.5996
 20
    4500.0000
  0
VERTEX
  8
HL
 10
   10650.0000
 20
    4206.1001
  0
VERTEX
  8
HL
 10
   11630.5996
 20
    4000.0000
  0
VERTEX
  8
HL
 10
   14200.0000
 20
    3526.0000
  0
VERTEX
  8
HL
 10
   14326.2002
 20
    3500.0000
  0
VERTEX
  8
HL
 10
   16499.3008
 20
    3000.0000
  0
VERTEX
  8
HL
 10
   17750.0000
 20
    2705.7000
  0
VERTEX
  8
HL
 10
   18681.6992
 20
    2500.0000
  0
VERTEX
  8
HL
 10
   20603.5000
 20
    2000.0000
  0
VERTEX
  8
HL
 10
   21300.0000
 20
    1819.1000
  0
VERTEX
  8
HL
 10
   22674.4004
 20
    1500.0000
  0
VERTEX
  8
HL
 10
   24850.0000
 20
    1133.8000
  0
VERTEX
  8
HL
 10
   25541.6992
 20
    1000.0000
  0
VERTEX
  8
HL
 10
   28400.0000
 20
     691.4000
  0
VERTEX
  8
HL
 10
   31373.0996
 20
     500.0000
  0
VERTEX
  8
HL
 10
   31950.0000
 20
     473.7000
  0
VERTEX
  8
HL
 10
   35500.0000
 20
     361.3000
  0
VERTEX
  8
HL
 10
   39050.0000
 20
     283.8000
  0
VERTEX
  8
HL
 10
   42600.0000
 20
     216.5000
  0
VERTEX
  8
HL
 10
   46150.0000
 20
     160.3000
  0
VERTEX
  8
HL
 10
   49700.0000
 20
     118.8000
  0
VERTEX
  8
HL
 10
   53250.0000
 20
      87.6000
  0
VERTEX
  8
HL
 10
   56800.0000
 20
      66.1000
  0
VERTEX
  8
HL
 10
   60350.0000
 20
      50.6000
  0
VERTEX
  8
HL
 10
   63900.0000
 20
      39.1000
  0
VERTEX
  8
HL
 10
   67450.0000
 20
      34.4000
  0
VERTEX
  8
HL
 10
   71000.0000
 20
      35.5000
  0
VERTEX
  8
HL
 10
   74550.0000
 20
      41.0000
  0
VERTEX
  8
HL
 10
   78100.0000
 20
      51.2000
  0
VERTEX
  8
HL
 10
   81650.0000
 20
      66.4000
  0
VERTEX
  8
HL
 10
   85200.0000
 20
      87.5000
  0
VERTEX
  8
HL
 10
   88750.0000
 20
     114.8000
  0
VERTEX
  8
HL
 10
   92300.0000
 20
     148.7000
  0
VERTEX
  8
HL
 10
   95850.0000
 20
     190.9000
  0
VERTEX
  8
HL
 10
   99400.0000
 20
     244.4000
  0
VERTEX
  8
HL
 10
  102950.0000
 20
     306.4000
  0
VERTEX
  8
HL
 10
  106500.0000
 20
     378.4000
  0
VERTEX
  8
HL
 10
  110050.0000
 20
     465.7000
  0
VERTEX
  8
HL
 10
  111266.7031
 20
     500.0000
  0
VERTEX
  8
HL
 10
  113600.0000
 20
     572.9000
  0
VERTEX
  8
HL
 10
  117150.0000
 20
     707.2000
  0
VERTEX
  8
HL
 10
  120700.0000
 20
     880.8000
  0
SEQEND
  0
POLYLINE
  8
HL
 66
     1
 70
     0
  0
VERTEX
  8
HL
 10
   -1365.0000
 20
   11067.0000
  0
VERTEX
  8
HL
 10
   -1072.6000
 20
   10000.0000
  0
VERTEX
  8
HL
 10
    -798.5000
 20
    9000.0000
  0
VERTEX
  8
HL
 10
    -524.3000
 20
    8000.0000
  0
VERTEX
  8
HL
 10
    -250.2000
 20
    7000.0000
  0
VERTEX
  8
HL
 10
      23.9000
 20
    6000.0000
  0
VERTEX
  8
HL
 10
     120.0000
 20
    5650.0000
  0
SEQEND
  0
POLYLINE
  8
HL
 66
     1
 70
     0
  0
VERTEX
  8
HL
 10
     120.0000
 20
    5650.0000
  0
VERTEX
  8
HL
 10
    3550.0000
 20
    5336.6001
  0
VERTEX
  8
HL
 10
    6426.2002
 20
    5000.0000
  0
VERTEX
  8
HL
 10
    7100.0000
 20
    4921.2998
  0
VERTEX
  8
HL
 10
   10007.0000
 20
    4500.0000
  0
VERTEX
  8
HL
 10
   10650.0000
 20
    4413.0000
  0
VERTEX
  8
HL
 10
   13019.0000
 20
    4000.0000
  0
VERTEX
  8
HL
 10
   14200.0000
 20
    3809.8999
  0
VERTEX
  8
HL
 10
   15904.9004
 20
    3500.0000
  0
VERTEX
  8
HL
 10
   17750.0000
 20
    3113.3999
  0
VERTEX
  8
HL
 10
   18325.8008
 20
    3000.0000
  0
VERTEX
  8
HL
 10
   20954.0000
 20
    2500.0000
  0
VERTEX
  8
HL
 10
   21300.0000
 20
    2430.0000
  0
VERTEX
  8
HL
 10
   23632.1992
 20
    2000.0000
  0
VERTEX
  8
HL
 10
   24850.0000
 20
    1812.3000
  0
VERTEX
  8
HL
 10
   27051.3008
 20
    1500.0000
  0
VERTEX
  8
HL
 10
   28400.0000
 20
    1321.0000
  0
VERTEX
  8
HL
 10
   31632.1992
 20
    1000.0000
  0
VERTEX
  8
HL
 10
   31950.0000
 20
     973.9000
  0
VERTEX
  8
HL
 10
   35500.0000
 20
     749.4000
  0
VERTEX
  8
HL
 10
   39050.0000
 20
     593.0000
  0
VERTEX
  8
HL
 10
   41630.1016
 20
     500.0000
  0
VERTEX
  8
HL
 10
   42600.0000
 20
     467.4000
  0
VERTEX
  8
HL
 10
   46150.0000
 20
     359.8000
  0
VERTEX
  8
HL
 10
   49700.0000
 20
     276.7000
  0
VERTEX
  8
HL
 10
   53250.0000
 20
     213.9000
  0
VERTEX
  8
HL
 10
   56800.0000
 20
     170.2000
  0
VERTEX
  8
HL
 10
   60350.0000
 20
     138.8000
  0
VERTEX
  8
HL
 10
   63900.0000
 20
     117.2000
  0
VERTEX
  8
HL
 10
   67450.0000
 20
     107.5000
  0
VERTEX
  8
HL
 10
   71000.0000
 20
     108.8000
  0
VERTEX
  8
HL
 10
   74550.0000
 20
     120.2000
  0
VERTEX
  8
HL
 10
   78100.0000
 20
     142.2000
  0
VERTEX
  8
HL
 10
   81650.0000
 20
     176.2000
  0
VERTEX
  8
HL
 10
   85200.0000
 20
     223.4000
  0
VERTEX
  8
HL
 10
   88750.0000
 20
     284.8000
  0
VERTEX
  8
HL
 10
   92300.0000
 20
     360.7000
  0
VERTEX
  8
HL
 10
   95850.0000
 20
     456.3000
  0
VERTEX
  8
HL
 10
   97275.0000
 20
     500.0000
  0
VERTEX
  8
HL
 10
   99400.0000
 20
     570.2000
  0
VERTEX
  8
HL
 10
  102950.0000
 20
     701.7000
  0
VERTEX
  8
HL
 10
  106500.0000
 20
     855.9000
  0
VERTEX
  8
HL
 10
  109368.6016
 20
    1000.0000
  0
VERTEX
  8
HL
 10
  110050.0000
 20
    1037.3000
  0
VERTEX
  8
HL
 10
  113600.0000
 20
    1256.7000
  0
VERTEX
  8
HL
 10
  116761.2969
 20
    1500.0000
  0
VERTEX
  8
HL
 10
  117150.0000
 20
    1533.8000
  0
VERTEX
  8
HL
 10
  120700.0000
 20
    1895.4000
  0
SEQEND
  0
ENDSEC
  0
EOF
