  0
SECTION
  2
ENTITIES
  0
POLYLINE
  8
LB
 66
     1
 70
     0
  0
VERTEX
  8
LB
 10
   21197.0000
 20
       0.0000
  0
VERTEX
  8
LB
 10
   -1480.0000
 20
       0.0000
  0
SEQEND
  0
POLYLINE
  8
LB
 66
     1
 70
     0
  0
VERTEX
  8
LB
 10
   24775.0000
 20
       0.0000
  0
VERTEX
  8
LB
 10
       0.0000
 20
       0.0000
  0
SEQEND
  0
POLYLINE
  8
LB
 66
     1
 70
     0
  0
VERTEX
  8
LB
 10
   24775.0000
 20
       1.0000
  0
VERTEX
  8
LB
 10
   23659.3008
 20
     199.2000
  0
VERTEX
  8
LB
 10
   22404.5996
 20
     350.0000
  0
VERTEX
  8
LB
 10
   21052.8008
 20
     448.4000
  0
VERTEX
  8
LB
 10
   19512.6992
 20
     500.0000
  0
VERTEX
  8
LB
 10
   19315.0000
 20
     502.9000
  0
VERTEX
  8
LB
 10
   18569.1992
 20
     507.7000
  0
SEQEND
  0
POLYLINE
  8
LB
 66
     1
 70
     0
  0
VERTEX
  8
LB
 10
   18569.1992
 20
     507.7000
  0
VERTEX
  8
LB
 10
   17209.5000
 20
     493.7000
  0
VERTEX
  8
LB
 10
   15703.5996
 20
     450.0000
  0
VERTEX
  8
LB
 10
   14200.0000
 20
     384.6000
  0
VERTEX
  8
LB
 10
   12525.9004
 20
     302.4000
  0
VERTEX
  8
LB
 10
   10715.9004
 20
     220.0000
  0
VERTEX
  8
LB
 10
    7100.0000
 20
     103.9000
  0
VERTEX
  8
LB
 10
    4421.3999
 20
      50.0000
  0
VERTEX
  8
LB
 10
       0.0000
 20
       1.0000
  0
SEQEND
  0
POLYLINE
  8
LB
 66
     1
 70
     0
  0
VERTEX
  8
LB
 10
       0.0000
 20
       0.0000
  0
VERTEX
  8
LB
 10
   -1480.0000
 20
       0.0000
  0
SEQEND
  0
POLYLINE
  8
LB
 66
     1
 70
     0
  0
VERTEX
  8
LB
 10
       0.0000
 20
       1.0000
  0
VERTEX
  8
LB
 10
       8.4000
 20
     251.0000
  0
VERTEX
  8
LB
 10
      18.6000
 20
     501.0000
  0
VERTEX
  8
LB
 10
      30.8000
 20
     750.9000
  0
VERTEX
  8
LB
 10
      44.6000
 20
    1000.8000
  0
VERTEX
  8
LB
 10
     120.0000
 20
    2000.0000
  0
VERTEX
  8
LB
 10
     144.2000
 20
    2250.5000
  0
VERTEX
  8
LB
 10
     170.6000
 20
    2500.8999
  0
VERTEX
  8
LB
 10
     199.2000
 20
    2751.1001
  0
VERTEX
  8
LB
 10
     229.5000
 20
    3001.3000
  0
VERTEX
  8
LB
 10
     261.3000
 20
    3251.2000
  0
VERTEX
  8
LB
 10
     293.6000
 20
    3501.0000
  0
VERTEX
  8
LB
 10
     357.0000
 20
    4000.0000
  0
VERTEX
  8
LB
 10
     387.7000
 20
    4246.7998
  0
VERTEX
  8
LB
 10
     422.2000
 20
    4491.2002
  0
VERTEX
  8
LB
 10
     441.4000
 20
    4611.7998
  0
VERTEX
  8
LB
 10
     461.6000
 20
    4731.2002
  0
VERTEX
  8
LB
 10
     502.0000
 20
    4965.0000
  0
VERTEX
  8
LB
 10
     524.0000
 20
    5105.7998
  0
VERTEX
  8
LB
 10
     540.2000
 20
    5237.5000
  0
VERTEX
  8
LB
 10
     549.4000
 20
    5360.1001
  0
VERTEX
  8
LB
 10
     551.5000
 20
    5417.8999
  0
VERTEX
  8
LB
 10
     552.1000
 20
    5473.5000
  0
SEQEND
  0
POLYLINE
  8
LB
 66
     1
 70
     0
  0
VERTEX
  8
LB
 10
     552.1000
 20
    5473.5000
  0
VERTEX
  8
LB
 10
     552.0000
 20
    5495.0000
  0
SEQEND
  0
POLYLINE
  8
LB
 66
     1
 70
     0
  0
VERTEX
  8
LB
 10
     552.0000
 20
    5495.0000
  0
VERTEX
  8
LB
 10
     551.8000
 20
    5516.0000
  0
VERTEX
  8
LB
 10
     551.1000
 20
    5557.1001
  0
VERTEX
  8
LB
 10
     550.4000
 20
    5596.7998
  0
VERTEX
  8
LB
 10
     550.1000
 20
    5616.1001
  0
VERTEX
  8
LB
 10
     550.0000
 20
    5635.0000
  0
SEQEND
  0
POLYLINE
  8
LB
 66
     1
 70
     0
  0
VERTEX
  8
LB
 10
     550.0000
 20
    5635.0000
  0
VERTEX
  8
LB
 10
     531.5000
 20
    5755.5000
  0
VERTEX
  8
LB
 10
     510.0000
 20
    5865.2002
  0
VERTEX
  8
LB
 10
     485.2000
 20
    5964.0000
  0
VERTEX
  8
LB
 10
     457.0000
 20
    6052.0000
  0
VERTEX
  8
LB
 10
     388.7000
 20
    6200.7998
  0
VERTEX
  8
LB
 10
     349.7000
 20
    6264.5000
  0
VERTEX
  8
LB
 10
     308.0000
 20
    6325.0000
  0
VERTEX
  8
LB
 10
     124.0000
 20
    6560.0000
  0
VERTEX
  8
LB
 10
    -155.0000
 20
    6890.0000
  0
SEQEND
  0
POLYLINE
  8
LB
 66
     1
 70
     0
  0
VERTEX
  8
LB
 10
   -1480.0000
 20
       0.0000
  0
VERTEX
  8
LB
 10
   -1365.0000
 20
    2000.0000
  0
VERTEX
  8
LB
 10
   -1038.0000
 20
    4000.0000
  0
VERTEX
  8
LB
 10
    -600.0000
 20
    5635.0000
  0
VERTEX
  8
LB
 10
    -155.0000
 20
    6890.0000
  0
SEQEND
  0
POLYLINE
  8
LB
 66
     1
 70
     0
  0
VERTEX
  8
LB
 10
   21197.0000
 20
       0.0000
  0
VERTEX
  8
LB
 10
   71000.0000
 20
       0.0000
  0
SEQEND
  0
POLYLINE
  8
LB
 66
     1
 70
     0
  0
VERTEX
  8
LB
 10
   -1365.0000
 20
    2001.0000
  0
VERTEX
  8
LB
 10
     120.0000
 20
    2001.0000
  0
SEQEND
  0
POLYLINE
  8
LB
 66
     1
 70
     0
  0
VERTEX
  8
LB
 10
   -1048.0000
 20
    4001.0000
  0
VERTEX
  8
LB
 10
     357.0000
 20
    4001.0000
  0
SEQEND
  0
POLYLINE
  8
LB
 66
     1
 70
     0
  0
VERTEX
  8
LB
 10
    -595.0000
 20
    5635.0000
  0
VERTEX
  8
LB
 10
     550.0000
 20
    5635.0000
  0
SEQEND
  0
POLYLINE
  8
LB
 66
     1
 70
     0
  0
VERTEX
  8
LB
 10
   71000.0000
 20
       0.0000
  0
VERTEX
  8
LB
 10
  125660.0000
 20
       0.0000
  0
SEQEND
  0
POLYLINE
  8
LB
 66
     1
 70
     0
  0
VERTEX
  8
LB
 10
  125660.0000
 20
       0.0000
  0
VERTEX
  8
LB
 10
  139000.0000
 20
       0.0000
  0
SEQEND
  0
POLYLINE
  8
LB
 66
     1
 70
     0
  0
VERTEX
  8
LB
 10
  139000.0000
 20
       0.0000
  0
VERTEX
  8
LB
 10
  141935.0000
 20
       0.0000
  0
SEQEND
  0
POLYLINE
  8
LB
 66
     1
 70
     0
  0
VERTEX
  8
LB
 10
  141935.0000
 20
       0.0000
  0
VERTEX
  8
LB
 10
  141050.0000
 20
       0.0000
  0
SEQEND
  0
POLYLINE
  8
LB
 66
     1
 70
     0
  0
VERTEX
  8
LB
 10
  141050.0000
 20
       0.0000
  0
VERTEX
  8
LB
 10
  151750.0000
 20
       0.0000
  0
SEQEND
  0
POLYLINE
  8
LB
 66
     1
 70
     0
  0
VERTEX
  8
LB
 10
  125660.0000
 20
       1.0000
  0
VERTEX
  8
LB
 10
  126300.0000
 20
     185.4000
  0
SEQEND
  0
POLYLINE
  8
LB
 66
     1
 70
     0
  0
VERTEX
  8
LB
 10
  126300.0000
 20
     185.4000
  0
VERTEX
  8
LB
 10
  129575.0000
 20
     292.2000
  0
VERTEX
  8
LB
 10
  133125.0000
 20
     396.7000
  0
VERTEX
  8
LB
 10
  136675.0000
 20
     477.8000
  0
VERTEX
  8
LB
 10
  139000.0000
 20
     500.0000
  0
SEQEND
  0
POLYLINE
  8
LB
 66
     1
 70
     0
  0
VERTEX
  8
LB
 10
  139000.0000
 20
     500.0000
  0
VERTEX
  8
LB
 10
  140225.0000
 20
     480.2000
  0
VERTEX
  8
LB
 10
  140878.0938
 20
     444.9000
  0
VERTEX
  8
LB
 10
  141240.0000
 20
     409.6000
  0
VERTEX
  8
LB
 10
  141570.5938
 20
     358.5000
  0
VERTEX
  8
LB
 10
  141775.0000
 20
     307.4000
  0
VERTEX
  8
LB
 10
  141845.0938
 20
     281.8000
  0
VERTEX
  8
LB
 10
  141895.2031
 20
     256.2000
  0
VERTEX
  8
LB
 10
  141912.5938
 20
     243.4000
  0
VERTEX
  8
LB
 10
  141925.0938
 20
     230.6000
  0
VERTEX
  8
LB
 10
  141932.5000
 20
     217.8000
  0
VERTEX
  8
LB
 10
  141935.0000
 20
     205.0000
  0
SEQEND
  0
POLYLINE
  8
LB
 66
     1
 70
     0
  0
VERTEX
  8
LB
 10
  141935.0000
 20
     205.0000
  0
VERTEX
  8
LB
 10
  141928.7031
 20
     179.5000
  0
VERTEX
  8
LB
 10
  141909.0000
 20
     154.0000
  0
VERTEX
  8
LB
 10
  141874.9062
 20
     128.6000
  0
VERTEX
  8
LB
 10
  141825.0000
 20
     103.1000
  0
VERTEX
  8
LB
 10
  141758.7969
 20
      77.6000
  0
VERTEX
  8
LB
 10
  141680.2969
 20
      52.0000
  0
VERTEX
  8
LB
 10
  141515.0000
 20
       1.0000
  0
SEQEND
  0
POLYLINE
  8
LB
 66
     1
 70
     0
  0
VERTEX
  8
LB
 10
  141515.0000
 20
       1.0000
  0
VERTEX
  8
LB
 10
  141272.9062
 20
       3.8000
  0
VERTEX
  8
LB
 10
  141135.0000
 20
      10.0000
  0
VERTEX
  8
LB
 10
  141096.0000
 20
      13.9000
  0
VERTEX
  8
LB
 10
  141069.5938
 20
      18.6000
  0
VERTEX
  8
LB
 10
  141054.7031
 20
      23.9000
  0
VERTEX
  8
LB
 10
  141051.2031
 20
      26.9000
  0
VERTEX
  8
LB
 10
  141050.0000
 20
      30.0000
  0
SEQEND
  0
POLYLINE
  8
LB
 66
     1
 70
     0
  0
VERTEX
  8
LB
 10
  141050.0000
 20
      30.0000
  0
VERTEX
  8
LB
 10
  141053.7031
 20
      33.3000
  0
VERTEX
  8
LB
 10
  141064.5000
 20
      36.7000
  0
VERTEX
  8
LB
 10
  141106.0938
 20
      43.9000
  0
VERTEX
  8
LB
 10
  141171.7031
 20
      51.7000
  0
VERTEX
  8
LB
 10
  141258.0000
 20
      60.0000
  0
VERTEX
  8
LB
 10
  141315.0000
 20
      65.0000
  0
VERTEX
  8
LB
 10
  141579.4062
 20
      86.0000
  0
VERTEX
  8
LB
 10
  141912.0938
 20
     110.0000
  0
VERTEX
  8
LB
 10
  141975.0000
 20
     114.4000
  0
VERTEX
  8
LB
 10
  142908.2031
 20
     179.0000
  0
VERTEX
  8
LB
 10
  143675.0000
 20
     234.3000
  0
VERTEX
  8
LB
 10
  144289.2969
 20
     278.0000
  0
VERTEX
  8
LB
 10
  145550.0000
 20
     363.9000
  0
VERTEX
  8
LB
 10
  146141.2031
 20
     404.0000
  0
VERTEX
  8
LB
 10
  148530.5000
 20
     570.0000
  0
VERTEX
  8
LB
 10
  148630.0000
 20
     577.0000
  0
VERTEX
  8
LB
 10
  151750.0000
 20
     800.0000
  0
SEQEND
  0
POLYLINE
  8
LB
 66
     1
 70
     0
  0
VERTEX
  8
LB
 10
    -155.0000
 20
    6890.0000
  0
VERTEX
  8
LB
 10
    7100.0000
 20
    7883.0000
  0
VERTEX
  8
LB
 10
   14200.0000
 20
    8569.0000
  0
VERTEX
  8
LB
 10
   21300.0000
 20
    9078.0000
  0
VERTEX
  8
LB
 10
   28400.0000
 20
    9476.0000
  0
VERTEX
  8
LB
 10
   35500.0000
 20
    9779.0000
  0
VERTEX
  8
LB
 10
   42600.0000
 20
    9980.0000
  0
VERTEX
  8
LB
 10
   49700.0000
 20
   10102.0000
  0
VERTEX
  8
LB
 10
   56800.0000
 20
   10188.0000
  0
VERTEX
  8
LB
 10
   63900.0000
 20
   10249.0000
  0
VERTEX
  8
LB
 10
   70999.0000
 20
   10275.0000
  0
SEQEND
  0
POLYLINE
  8
LB
 66
     1
 70
     0
  0
VERTEX
  8
LB
 10
   71000.0000
 20
   10275.0000
  0
VERTEX
  8
LB
 10
   78100.0000
 20
   10224.0000
  0
VERTEX
  8
LB
 10
   85200.0000
 20
   10136.0000
  0
VERTEX
  8
LB
 10
   92300.0000
 20
    9980.0000
  0
VERTEX
  8
LB
 10
   99400.0000
 20
    9749.0000
  0
VERTEX
  8
LB
 10
  106500.0000
 20
    9414.0000
  0
VERTEX
  8
LB
 10
  113600.0000
 20
    8941.0000
  0
VERTEX
  8
LB
 10
  120700.0000
 20
    8319.0000
  0
VERTEX
  8
LB
 10
  127800.0000
 20
    7501.0000
  0
VERTEX
  8
LB
 10
  128691.2031
 20
    7377.6001
  0
VERTEX
  8
LB
 10
  129581.3984
 20
    7248.5000
  0
VERTEX
  8
LB
 10
  130470.7031
 20
    7113.2998
  0
VERTEX
  8
LB
 10
  131358.9062
 20
    6971.7998
  0
VERTEX
  8
LB
 10
  132246.0000
 20
    6823.3999
  0
VERTEX
  8
LB
 10
  133131.9062
 20
    6667.8999
  0
VERTEX
  8
LB
 10
  134016.5938
 20
    6504.8999
  0
VERTEX
  8
LB
 10
  134900.0000
 20
    6334.0000
  0
VERTEX
  8
LB
 10
  135796.2031
 20
    6151.8999
  0
VERTEX
  8
LB
 10
  136690.2969
 20
    5960.7002
  0
VERTEX
  8
LB
 10
  137581.9062
 20
    5760.0000
  0
VERTEX
  8
LB
 10
  138471.0938
 20
    5549.1001
  0
VERTEX
  8
LB
 10
  139357.7031
 20
    5327.5000
  0
VERTEX
  8
LB
 10
  140241.4062
 20
    5094.5000
  0
VERTEX
  8
LB
 10
  141122.2031
 20
    4849.5000
  0
VERTEX
  8
LB
 10
  142000.0000
 20
    4592.0000
  0
VERTEX
  8
LB
 10
  145550.0000
 20
    3406.0000
  0
VERTEX
  8
LB
 10
  149100.0000
 20
    1991.0000
  0
VERTEX
  8
LB
 10
  151750.0000
 20
     800.0000
  0
SEQEND
  0
POLYLINE
  8
LB
 66
     1
 70
     0
  0
VERTEX
  8
LB
 10
       0.0000
 20
       0.0000
  0
VERTEX
  8
LB
 10
       0.0000
 20
    6890.0000
  0
SEQEND
  0
POLYLINE
  8
LB
 66
     1
 70
     0
  0
VERTEX
  8
LB
 10
    7100.0000
 20
       0.0000
  0
VERTEX
  8
LB
 10
    7100.0000
 20
    7883.0000
  0
SEQEND
  0
POLYLINE
  8
LB
 66
     1
 70
     0
  0
VERTEX
  8
LB
 10
   14200.0000
 20
       0.0000
  0
VERTEX
  8
LB
 10
   14200.0000
 20
    8569.0000
  0
SEQEND
  0
POLYLINE
  8
LB
 66
     1
 70
     0
  0
VERTEX
  8
LB
 10
   21300.0000
 20
       0.0000
  0
VERTEX
  8
LB
 10
   21300.0000
 20
    9078.0000
  0
SEQEND
  0
POLYLINE
  8
LB
 66
     1
 70
     0
  0
VERTEX
  8
LB
 10
   28400.0000
 20
       0.0000
  0
VERTEX
  8
LB
 10
   28400.0000
 20
    9476.0000
  0
SEQEND
  0
POLYLINE
  8
LB
 66
     1
 70
     0
  0
VERTEX
  8
LB
 10
   35500.0000
 20
       0.0000
  0
VERTEX
  8
LB
 10
   35500.0000
 20
    9779.0000
  0
SEQEND
  0
POLYLINE
  8
LB
 66
     1
 70
     0
  0
VERTEX
  8
LB
 10
   42600.0000
 20
       0.0000
  0
VERTEX
  8
LB
 10
   42600.0000
 20
    9980.0000
  0
SEQEND
  0
POLYLINE
  8
LB
 66
     1
 70
     0
  0
VERTEX
  8
LB
 10
   49700.0000
 20
       0.0000
  0
VERTEX
  8
LB
 10
   49700.0000
 20
   10102.0000
  0
SEQEND
  0
POLYLINE
  8
LB
 66
     1
 70
     0
  0
VERTEX
  8
LB
 10
   56800.0000
 20
       0.0000
  0
VERTEX
  8
LB
 10
   56800.0000
 20
   10188.0000
  0
SEQEND
  0
POLYLINE
  8
LB
 66
     1
 70
     0
  0
VERTEX
  8
LB
 10
   63900.0000
 20
       0.0000
  0
VERTEX
  8
LB
 10
   63900.0000
 20
   10249.0000
  0
SEQEND
  0
POLYLINE
  8
LB
 66
     1
 70
     0
  0
VERTEX
  8
LB
 10
   71000.0000
 20
       0.0000
  0
VERTEX
  8
LB
 10
   71000.0000
 20
   10275.0000
  0
SEQEND
  0
POLYLINE
  8
LB
 66
     1
 70
     0
  0
VERTEX
  8
LB
 10
   78100.0000
 20
       0.0000
  0
VERTEX
  8
LB
 10
   78100.0000
 20
   10224.0000
  0
SEQEND
  0
POLYLINE
  8
LB
 66
     1
 70
     0
  0
VERTEX
  8
LB
 10
   85200.0000
 20
       0.0000
  0
VERTEX
  8
LB
 10
   85200.0000
 20
   10136.0000
  0
SEQEND
  0
POLYLINE
  8
LB
 66
     1
 70
     0
  0
VERTEX
  8
LB
 10
   92300.0000
 20
       0.0000
  0
VERTEX
  8
LB
 10
   92300.0000
 20
    9980.0000
  0
SEQEND
  0
POLYLINE
  8
LB
 66
     1
 70
     0
  0
VERTEX
  8
LB
 10
   99400.0000
 20
       0.0000
  0
VERTEX
  8
LB
 10
   99400.0000
 20
    9749.0000
  0
SEQEND
  0
POLYLINE
  8
LB
 66
     1
 70
     0
  0
VERTEX
  8
LB
 10
  106500.0000
 20
       0.0000
  0
VERTEX
  8
LB
 10
  106500.0000
 20
    9414.0000
  0
SEQEND
  0
POLYLINE
  8
LB
 66
     1
 70
     0
  0
VERTEX
  8
LB
 10
  113600.0000
 20
       0.0000
  0
VERTEX
  8
LB
 10
  113600.0000
 20
    8941.0000
  0
SEQEND
  0
POLYLINE
  8
LB
 66
     1
 70
     0
  0
VERTEX
  8
LB
 10
  120700.0000
 20
       0.0000
  0
VERTEX
  8
LB
 10
  120700.0000
 20
    8319.0000
  0
SEQEND
  0
POLYLINE
  8
LB
 66
     1
 70
     0
  0
VERTEX
  8
LB
 10
  127800.0000
 20
       0.0000
  0
VERTEX
  8
LB
 10
  127800.0000
 20
    7501.0000
  0
SEQEND
  0
POLYLINE
  8
LB
 66
     1
 70
     0
  0
VERTEX
  8
LB
 10
  131350.0000
 20
       0.0000
  0
VERTEX
  8
LB
 10
  131350.0000
 20
    6973.2002
  0
SEQEND
  0
POLYLINE
  8
LB
 66
     1
 70
     0
  0
VERTEX
  8
LB
 10
  134900.0000
 20
       0.0000
  0
VERTEX
  8
LB
 10
  134900.0000
 20
    6334.0000
  0
SEQEND
  0
POLYLINE
  8
LB
 66
     1
 70
     0
  0
VERTEX
  8
LB
 10
  136675.0000
 20
       0.0000
  0
VERTEX
  8
LB
 10
  136675.0000
 20
    5964.1001
  0
SEQEND
  0
POLYLINE
  8
LB
 66
     1
 70
     0
  0
VERTEX
  8
LB
 10
  138450.0000
 20
       0.0000
  0
VERTEX
  8
LB
 10
  138450.0000
 20
    5554.2998
  0
SEQEND
  0
POLYLINE
  8
LB
 66
     1
 70
     0
  0
VERTEX
  8
LB
 10
  140225.0000
 20
       0.0000
  0
VERTEX
  8
LB
 10
  140225.0000
 20
    5098.8999
  0
SEQEND
  0
POLYLINE
  8
LB
 66
     1
 70
     0
  0
VERTEX
  8
LB
 10
  142000.0000
 20
       0.0000
  0
VERTEX
  8
LB
 10
  142000.0000
 20
    4592.0000
  0
SEQEND
  0
POLYLINE
  8
LB
 66
     1
 70
     0
  0
VERTEX
  8
LB
 10
  145550.0000
 20
       0.0000
  0
VERTEX
  8
LB
 10
  145550.0000
 20
    3406.0000
  0
SEQEND
  0
POLYLINE
  8
LB
 66
     1
 70
     0
  0
VERTEX
  8
LB
 10
    3550.0000
 20
       0.0000
  0
VERTEX
  8
LB
 10
    3550.0000
 20
    7437.2998
  0
SEQEND
  0
POLYLINE
  8
LB
 66
     1
 70
     0
  0
VERTEX
  8
LB
 10
   10650.0000
 20
       0.0000
  0
VERTEX
  8
LB
 10
   10650.0000
 20
    8255.2998
  0
SEQEND
  0
POLYLINE
  8
LB
 66
     1
 70
     0
  0
VERTEX
  8
LB
 10
   17750.0000
 20
       0.0000
  0
VERTEX
  8
LB
 10
   17750.0000
 20
    8840.2002
  0
SEQEND
  0
POLYLINE
  8
LB
 66
     1
 70
     0
  0
VERTEX
  8
LB
 10
   24850.0000
 20
       0.0000
  0
VERTEX
  8
LB
 10
   24850.0000
 20
    9289.0000
  0
SEQEND
  0
POLYLINE
  8
LB
 66
     1
 70
     0
  0
VERTEX
  8
LB
 10
   31950.0000
 20
       0.0000
  0
VERTEX
  8
LB
 10
   31950.0000
 20
    9639.9004
  0
SEQEND
  0
POLYLINE
  8
LB
 66
     1
 70
     0
  0
VERTEX
  8
LB
 10
   39050.0000
 20
       0.0000
  0
VERTEX
  8
LB
 10
   39050.0000
 20
    9891.5996
  0
SEQEND
  0
POLYLINE
  8
LB
 66
     1
 70
     0
  0
VERTEX
  8
LB
 10
   46150.0000
 20
       0.0000
  0
VERTEX
  8
LB
 10
   46150.0000
 20
   10048.0000
  0
SEQEND
  0
POLYLINE
  8
LB
 66
     1
 70
     0
  0
VERTEX
  8
LB
 10
   53250.0000
 20
       0.0000
  0
VERTEX
  8
LB
 10
   53250.0000
 20
   10148.0996
  0
SEQEND
  0
POLYLINE
  8
LB
 66
     1
 70
     0
  0
VERTEX
  8
LB
 10
   60350.0000
 20
       0.0000
  0
VERTEX
  8
LB
 10
   60350.0000
 20
   10222.2002
  0
SEQEND
  0
POLYLINE
  8
LB
 66
     1
 70
     0
  0
VERTEX
  8
LB
 10
   67450.0000
 20
       0.0000
  0
VERTEX
  8
LB
 10
   67450.0000
 20
   10266.7002
  0
SEQEND
  0
POLYLINE
  8
LB
 66
     1
 70
     0
  0
VERTEX
  8
LB
 10
   74550.0000
 20
       0.0000
  0
VERTEX
  8
LB
 10
   74550.0000
 20
   10253.0996
  0
SEQEND
  0
POLYLINE
  8
LB
 66
     1
 70
     0
  0
VERTEX
  8
LB
 10
   81650.0000
 20
       0.0000
  0
VERTEX
  8
LB
 10
   81650.0000
 20
   10186.7002
  0
SEQEND
  0
POLYLINE
  8
LB
 66
     1
 70
     0
  0
VERTEX
  8
LB
 10
   88750.0000
 20
       0.0000
  0
VERTEX
  8
LB
 10
   88750.0000
 20
   10067.0996
  0
SEQEND
  0
POLYLINE
  8
LB
 66
     1
 70
     0
  0
VERTEX
  8
LB
 10
   95850.0000
 20
       0.0000
  0
VERTEX
  8
LB
 10
   95850.0000
 20
    9875.0996
  0
SEQEND
  0
POLYLINE
  8
LB
 66
     1
 70
     0
  0
VERTEX
  8
LB
 10
  102950.0000
 20
       0.0000
  0
VERTEX
  8
LB
 10
  102950.0000
 20
    9597.0000
  0
SEQEND
  0
POLYLINE
  8
LB
 66
     1
 70
     0
  0
VERTEX
  8
LB
 10
  110050.0000
 20
       0.0000
  0
VERTEX
  8
LB
 10
  110050.0000
 20
    9195.5996
  0
SEQEND
  0
POLYLINE
  8
LB
 66
     1
 70
     0
  0
VERTEX
  8
LB
 10
  117150.0000
 20
       0.0000
  0
VERTEX
  8
LB
 10
  117150.0000
 20
    8649.7998
  0
SEQEND
  0
POLYLINE
  8
LB
 66
     1
 70
     0
  0
VERTEX
  8
LB
 10
  124250.0000
 20
       0.0000
  0
VERTEX
  8
LB
 10
  124250.0000
 20
    7942.2002
  0
SEQEND
  0
POLYLINE
  8
LB
 66
     1
 70
     0
  0
VERTEX
  8
LB
 10
  125945.7031
 20
       0.0000
  0
VERTEX
  8
LB
 10
  125945.7031
 20
      83.3000
  0
SEQEND
  0
POLYLINE
  8
LB
 66
     1
 70
     0
  0
VERTEX
  8
LB
 10
  125945.7031
 20
      83.3000
  0
VERTEX
  8
LB
 10
  127800.0000
 20
     313.6000
  0
VERTEX
  8
LB
 10
  128700.2969
 20
     512.1000
  0
VERTEX
  8
LB
 10
  129589.2031
 20
     751.8000
  0
VERTEX
  8
LB
 10
  130471.0000
 20
    1017.3000
  0
VERTEX
  8
LB
 10
  131350.0000
 20
    1293.1000
  0
VERTEX
  8
LB
 10
  134900.0000
 20
    2335.0000
  0
VERTEX
  8
LB
 10
  136675.0000
 20
    2747.0000
  0
VERTEX
  8
LB
 10
  138450.0000
 20
    2909.3999
  0
VERTEX
  8
LB
 10
  139357.0000
 20
    2810.2000
  0
VERTEX
  8
LB
 10
  140225.0000
 20
    2528.8999
  0
VERTEX
  8
LB
 10
  141094.0938
 20
    1937.0000
  0
VERTEX
  8
LB
 10
  141610.5938
 20
    1121.8000
  0
VERTEX
  8
LB
 10
  141774.5938
 20
      83.2000
  0
SEQEND
  0
POLYLINE
  8
LB
 66
     1
 70
     0
  0
VERTEX
  8
LB
 10
  141774.5938
 20
      83.2000
  0
VERTEX
  8
LB
 10
  141774.5938
 20
       0.0000
  0
SEQEND
  0
POLYLINE
  8
LB
 66
     1
 70
     0
  0
VERTEX
  8
LB
 10
  125665.7031
 20
       0.0000
  0
VERTEX
  8
LB
 10
  125665.7031
 20
       2.6000
  0
SEQEND
  0
POLYLINE
  8
LB
 66
     1
 70
     0
  0
VERTEX
  8
LB
 10
  125665.7031
 20
       2.6000
  0
VERTEX
  8
LB
 10
  127800.0000
 20
     290.9000
  0
VERTEX
  8
LB
 10
  131350.0000
 20
     853.4000
  0
VERTEX
  8
LB
 10
  134900.0000
 20
    1796.8000
  0
VERTEX
  8
LB
 10
  136675.0000
 20
    2284.6001
  0
VERTEX
  8
LB
 10
  137554.9062
 20
    2464.5000
  0
VERTEX
  8
LB
 10
  138450.0000
 20
    2537.7000
  0
VERTEX
  8
LB
 10
  139365.5000
 20
    2435.5000
  0
VERTEX
  8
LB
 10
  140225.0000
 20
    2104.2000
  0
VERTEX
  8
LB
 10
  140918.5938
 20
    1565.1000
  0
VERTEX
  8
LB
 10
  141350.2969
 20
     864.6000
  0
VERTEX
  8
LB
 10
  141520.0000
 20
       2.6000
  0
SEQEND
  0
POLYLINE
  8
LB
 66
     1
 70
     0
  0
VERTEX
  8
LB
 10
  141520.0000
 20
       2.6000
  0
VERTEX
  8
LB
 10
  141520.0000
 20
       0.0000
  0
SEQEND
  0
POLYLINE
  8
LB
 66
     1
 70
     0
  0
VERTEX
  8
LB
 10
   20776.5000
 20
       0.0000
  0
VERTEX
  8
LB
 10
   23639.8008
 20
       0.0000
  0
SEQEND
  0
POLYLINE
  8
LB
 66
     1
 70
     0
  0
VERTEX
  8
LB
 10
   23639.8008
 20
       0.0000
  0
VERTEX
  8
LB
 10
   23639.8008
 20
     202.1000
  0
SEQEND
  0
POLYLINE
  8
LB
 66
     1
 70
     0
  0
VERTEX
  8
LB
 10
   23639.8008
 20
     202.1000
  0
VERTEX
  8
LB
 10
   24850.0000
 20
     350.0000
  0
VERTEX
  8
LB
 10
   28400.0000
 20
     710.8000
  0
VERTEX
  8
LB
 10
   31950.0000
 20
    1054.1000
  0
VERTEX
  8
LB
 10
   35500.0000
 20
    1369.3000
  0
VERTEX
  8
LB
 10
   39050.0000
 20
    1709.5000
  0
VERTEX
  8
LB
 10
   42600.0000
 20
    2120.3000
  0
VERTEX
  8
LB
 10
   46150.0000
 20
    2604.0000
  0
VERTEX
  8
LB
 10
   49700.0000
 20
    3106.8999
  0
VERTEX
  8
LB
 10
   53250.0000
 20
    3567.7000
  0
VERTEX
  8
LB
 10
   56800.0000
 20
    3948.8000
  0
VERTEX
  8
LB
 10
   60350.0000
 20
    4243.2002
  0
VERTEX
  8
LB
 10
   63900.0000
 20
    4445.2998
  0
VERTEX
  8
LB
 10
   67450.0000
 20
    4538.6001
  0
VERTEX
  8
LB
 10
   71000.0000
 20
    4512.8999
  0
VERTEX
  8
LB
 10
   74550.0000
 20
    4373.0000
  0
VERTEX
  8
LB
 10
   78100.0000
 20
    4136.0000
  0
VERTEX
  8
LB
 10
   81650.0000
 20
    3813.6001
  0
VERTEX
  8
LB
 10
   85200.0000
 20
    3408.3999
  0
VERTEX
  8
LB
 10
   88750.0000
 20
    2962.2000
  0
VERTEX
  8
LB
 10
   92300.0000
 20
    2533.3000
  0
VERTEX
  8
LB
 10
   95850.0000
 20
    2142.3000
  0
VERTEX
  8
LB
 10
   99400.0000
 20
    1804.4000
  0
VERTEX
  8
LB
 10
  102950.0000
 20
    1518.9000
  0
VERTEX
  8
LB
 10
  106500.0000
 20
    1276.6000
  0
VERTEX
  8
LB
 10
  110050.0000
 20
    1065.9000
  0
VERTEX
  8
LB
 10
  113600.0000
 20
     882.2000
  0
VERTEX
  8
LB
 10
  117150.0000
 20
     723.4000
  0
VERTEX
  8
LB
 10
  120700.0000
 20
     584.5000
  0
VERTEX
  8
LB
 10
  124250.0000
 20
     477.1000
  0
VERTEX
  8
LB
 10
  127800.0000
 20
     486.1000
  0
VERTEX
  8
LB
 10
  131350.0000
 20
     740.0000
  0
VERTEX
  8
LB
 10
  134900.0000
 20
    1248.0000
  0
VERTEX
  8
LB
 10
  136675.0000
 20
    1586.7000
  0
VERTEX
  8
LB
 10
  137555.5938
 20
    1748.9000
  0
VERTEX
  8
LB
 10
  138450.0000
 20
    1791.6000
  0
VERTEX
  8
LB
 10
  139383.7031
 20
    1589.8000
  0
VERTEX
  8
LB
 10
  140225.0000
 20
    1137.5000
  0
VERTEX
  8
LB
 10
  140822.5000
 20
     622.7000
  0
VERTEX
  8
LB
 10
  141310.4062
 20
       3.0000
  0
SEQEND
  0
POLYLINE
  8
LB
 66
     1
 70
     0
  0
VERTEX
  8
LB
 10
  141310.4062
 20
       3.0000
  0
VERTEX
  8
LB
 10
  141310.4062
 20
       0.0000
  0
SEQEND
  0
POLYLINE
  8
LB
 66
     1
 70
     0
  0
VERTEX
  8
LB
 10
  141310.4062
 20
       0.0000
  0
VERTEX
  8
LB
 10
   21300.0000
 20
     283.2000
  0
SEQEND
  0
POLYLINE
  8
LB
 66
     1
 70
     0
  0
VERTEX
  8
LB
 10
   20356.0000
 20
       0.0000
  0
VERTEX
  8
LB
 10
   21300.0000
 20
     349.5000
  0
VERTEX
  8
LB
 10
   21852.3008
 20
     401.6000
  0
VERTEX
  8
LB
 10
   22404.5996
 20
     350.0000
  0
SEQEND
  0
POLYLINE
  8
LB
 66
     1
 70
     0
  0
VERTEX
  8
LB
 10
   22404.5996
 20
     350.0000
  0
VERTEX
  8
LB
 10
   22404.5996
 20
       0.0000
  0
VERTEX
  8
LB
 10
   23204.5000
 20
     324.1000
  0
VERTEX
  8
LB
 10
   24019.5996
 20
     603.9000
  0
SEQEND
  0
POLYLINE
  8
LB
 66
     1
 70
     0
  0
VERTEX
  8
LB
 10
   22404.5996
 20
       0.0000
  0
VERTEX
  8
LB
 10
   23204.5000
 20
     324.1000
  0
VERTEX
  8
LB
 10
   24019.5996
 20
     603.9000
  0
VERTEX
  8
LB
 10
   24850.0000
 20
     839.2000
  0
VERTEX
  8
LB
 10
   28400.0000
 20
    1480.8000
  0
VERTEX
  8
LB
 10
   31950.0000
 20
    2050.8000
  0
VERTEX
  8
LB
 10
   35500.0000
 20
    2596.3999
  0
VERTEX
  8
LB
 10
   39050.0000
 20
    3159.3000
  0
VERTEX
  8
LB
 10
   42600.0000
 20
    3750.3999
  0
VERTEX
  8
LB
 10
   46150.0000
 20
    4344.3999
  0
VERTEX
  8
LB
 10
   49700.0000
 20
    4889.7002
  0
VERTEX
  8
LB
 10
   53250.0000
 20
    5335.3999
  0
VERTEX
  8
LB
 10
   56800.0000
 20
    5675.3999
  0
VERTEX
  8
LB
 10
   60350.0000
 20
    5913.7002
  0
VERTEX
  8
LB
 10
   63900.0000
 20
    6057.0000
  0
VERTEX
  8
LB
 10
   67450.0000
 20
    6102.8999
  0
VERTEX
  8
LB
 10
   71000.0000
 20
    6051.6001
  0
VERTEX
  8
LB
 10
   74550.0000
 20
    5905.1001
  0
VERTEX
  8
LB
 10
   78100.0000
 20
    5670.8999
  0
VERTEX
  8
LB
 10
   81650.0000
 20
    5356.7998
  0
VERTEX
  8
LB
 10
   85200.0000
 20
    4963.7998
  0
VERTEX
  8
LB
 10
   88750.0000
 20
    4496.8999
  0
VERTEX
  8
LB
 10
   92300.0000
 20
    3992.5000
  0
VERTEX
  8
LB
 10
   95850.0000
 20
    3495.3999
  0
VERTEX
  8
LB
 10
   99400.0000
 20
    3035.3000
  0
VERTEX
  8
LB
 10
  102950.0000
 20
    2626.5000
  0
VERTEX
  8
LB
 10
  106500.0000
 20
    2263.8999
  0
VERTEX
  8
LB
 10
  110050.0000
 20
    1940.4000
  0
VERTEX
  8
LB
 10
  113600.0000
 20
    1644.7000
  0
VERTEX
  8
LB
 10
  117150.0000
 20
    1371.6000
  0
VERTEX
  8
LB
 10
  120700.0000
 20
    1125.4000
  0
VERTEX
  8
LB
 10
  124250.0000
 20
     917.3000
  0
VERTEX
  8
LB
 10
  127800.0000
 20
     776.4000
  0
VERTEX
  8
LB
 10
  131350.0000
 20
     754.9000
  0
VERTEX
  8
LB
 10
  134900.0000
 20
     930.9000
  0
VERTEX
  8
LB
 10
  136675.0000
 20
    1026.7000
  0
VERTEX
  8
LB
 10
  138450.0000
 20
     917.6000
  0
VERTEX
  8
LB
 10
  139350.4062
 20
     729.6000
  0
VERTEX
  8
LB
 10
  140225.0000
 20
     444.8000
  0
VERTEX
  8
LB
 10
  141178.9062
 20
       7.2000
  0
SEQEND
  0
POLYLINE
  8
LB
 66
     1
 70
     0
  0
VERTEX
  8
LB
 10
  141178.9062
 20
       7.2000
  0
VERTEX
  8
LB
 10
  141178.9062
 20
       0.0000
  0
SEQEND
  0
POLYLINE
  8
LB
 66
     1
 70
     0
  0
VERTEX
  8
LB
 10
   19935.5996
 20
       0.0000
  0
VERTEX
  8
LB
 10
   21042.8008
 20
       0.0000
  0
SEQEND
  0
POLYLINE
  8
LB
 66
     1
 70
     0
  0
VERTEX
  8
LB
 10
   21042.8008
 20
       0.0000
  0
VERTEX
  8
LB
 10
   21042.8008
 20
     448.9000
  0
SEQEND
  0
POLYLINE
  8
LB
 66
     1
 70
     0
  0
VERTEX
  8
LB
 10
   21042.8008
 20
     448.9000
  0
VERTEX
  8
LB
 10
   21300.0000
 20
     553.3000
  0
VERTEX
  8
LB
 10
   22170.5996
 20
     854.6000
  0
VERTEX
  8
LB
 10
   23056.1992
 20
    1099.7000
  0
VERTEX
  8
LB
 10
   23951.3008
 20
    1309.8000
  0
VERTEX
  8
LB
 10
   24850.0000
 20
    1506.2000
  0
VERTEX
  8
LB
 10
   28400.0000
 20
    2296.8999
  0
VERTEX
  8
LB
 10
   31950.0000
 20
    3004.8000
  0
VERTEX
  8
LB
 10
   35500.0000
 20
    3693.1001
  0
VERTEX
  8
LB
 10
   39050.0000
 20
    4364.3999
  0
VERTEX
  8
LB
 10
   42600.0000
 20
    5011.6001
  0
VERTEX
  8
LB
 10
   46150.0000
 20
    5609.7002
  0
VERTEX
  8
LB
 10
   49700.0000
 20
    6100.3999
  0
VERTEX
  8
LB
 10
   53250.0000
 20
    6493.2998
  0
VERTEX
  8
LB
 10
   56800.0000
 20
    6769.2002
  0
VERTEX
  8
LB
 10
   60350.0000
 20
    6952.0000
  0
VERTEX
  8
LB
 10
   63900.0000
 20
    7049.0000
  0
VERTEX
  8
LB
 10
   67450.0000
 20
    7059.5000
  0
VERTEX
  8
LB
 10
   71000.0000
 20
    6995.0000
  0
VERTEX
  8
LB
 10
   74550.0000
 20
    6856.8999
  0
VERTEX
  8
LB
 10
   78100.0000
 20
    6637.7998
  0
VERTEX
  8
LB
 10
   81650.0000
 20
    6333.7998
  0
VERTEX
  8
LB
 10
   85200.0000
 20
    5952.5000
  0
VERTEX
  8
LB
 10
   88750.0000
 20
    5504.2998
  0
VERTEX
  8
LB
 10
   92300.0000
 20
    5010.8999
  0
VERTEX
  8
LB
 10
   95850.0000
 20
    4492.7002
  0
VERTEX
  8
LB
 10
   99400.0000
 20
    3987.8000
  0
VERTEX
  8
LB
 10
  102950.0000
 20
    3513.8999
  0
VERTEX
  8
LB
 10
  106500.0000
 20
    3085.5000
  0
VERTEX
  8
LB
 10
  110050.0000
 20
    2689.3000
  0
VERTEX
  8
LB
 10
  113600.0000
 20
    2317.7000
  0
VERTEX
  8
LB
 10
  117150.0000
 20
    1962.0000
  0
VERTEX
  8
LB
 10
  120700.0000
 20
    1628.5000
  0
VERTEX
  8
LB
 10
  124250.0000
 20
    1324.4000
  0
VERTEX
  8
LB
 10
  127800.0000
 20
    1055.6000
  0
VERTEX
  8
LB
 10
  131350.0000
 20
     844.7000
  0
VERTEX
  8
LB
 10
  134900.0000
 20
     772.3000
  0
VERTEX
  8
LB
 10
  136675.0000
 20
     713.5000
  0
VERTEX
  8
LB
 10
  138450.0000
 20
     537.3000
  0
VERTEX
  8
LB
 10
  140225.0000
 20
     223.4000
  0
VERTEX
  8
LB
 10
  141099.0938
 20
      13.5000
  0
SEQEND
  0
POLYLINE
  8
LB
 66
     1
 70
     0
  0
VERTEX
  8
LB
 10
  141099.0938
 20
      13.5000
  0
VERTEX
  8
LB
 10
  141099.0938
 20
       0.0000
  0
SEQEND
  0
POLYLINE
  8
LB
 66
     1
 70
     0
  0
VERTEX
  8
LB
 10
   19480.8008
 20
       0.0000
  0
VERTEX
  8
LB
 10
   19512.8008
 20
       0.0000
  0
SEQEND
  0
POLYLINE
  8
LB
 66
     1
 70
     0
  0
VERTEX
  8
LB
 10
   19512.8008
 20
       0.0000
  0
VERTEX
  8
LB
 10
   19512.8008
 20
     500.0000
  0
SEQEND
  0
POLYLINE
  8
LB
 66
     1
 70
     0
  0
VERTEX
  8
LB
 10
   19512.8008
 20
     500.0000
  0
VERTEX
  8
LB
 10
   21300.0000
 20
    1275.1000
  0
VERTEX
  8
LB
 10
   22175.0000
 20
    1576.8000
  0
VERTEX
  8
LB
 10
   23060.1992
 20
    1843.1000
  0
VERTEX
  8
LB
 10
   23952.9004
 20
    2084.1001
  0
VERTEX
  8
LB
 10
   24850.0000
 20
    2309.8000
  0
VERTEX
  8
LB
 10
   28400.0000
 20
    3147.7000
  0
VERTEX
  8
LB
 10
   31950.0000
 20
    3936.0000
  0
VERTEX
  8
LB
 10
   35500.0000
 20
    4684.0000
  0
VERTEX
  8
LB
 10
   39050.0000
 20
    5377.2002
  0
VERTEX
  8
LB
 10
   42600.0000
 20
    5998.0000
  0
VERTEX
  8
LB
 10
   46150.0000
 20
    6518.7998
  0
VERTEX
  8
LB
 10
   49700.0000
 20
    6934.6001
  0
VERTEX
  8
LB
 10
   53250.0000
 20
    7253.3999
  0
VERTEX
  8
LB
 10
   56800.0000
 20
    7481.8999
  0
VERTEX
  8
LB
 10
   60350.0000
 20
    7627.6001
  0
VERTEX
  8
LB
 10
   63900.0000
 20
    7699.2002
  0
VERTEX
  8
LB
 10
   67450.0000
 20
    7704.3999
  0
VERTEX
  8
LB
 10
   71000.0000
 20
    7645.0000
  0
VERTEX
  8
LB
 10
   74550.0000
 20
    7519.3999
  0
VERTEX
  8
LB
 10
   78100.0000
 20
    7320.0000
  0
VERTEX
  8
LB
 10
   81650.0000
 20
    7039.8999
  0
VERTEX
  8
LB
 10
   85200.0000
 20
    6681.3999
  0
VERTEX
  8
LB
 10
   88750.0000
 20
    6255.2998
  0
VERTEX
  8
LB
 10
   92300.0000
 20
    5780.5000
  0
VERTEX
  8
LB
 10
   95850.0000
 20
    5279.7002
  0
VERTEX
  8
LB
 10
   99400.0000
 20
    4768.0000
  0
VERTEX
  8
LB
 10
  102950.0000
 20
    4267.5000
  0
VERTEX
  8
LB
 10
  106500.0000
 20
    3798.3999
  0
VERTEX
  8
LB
 10
  110050.0000
 20
    3351.7000
  0
VERTEX
  8
LB
 10
  113600.0000
 20
    2921.5000
  0
VERTEX
  8
LB
 10
  117150.0000
 20
    2502.1001
  0
VERTEX
  8
LB
 10
  120700.0000
 20
    2094.3000
  0
VERTEX
  8
LB
 10
  124250.0000
 20
    1700.3000
  0
VERTEX
  8
LB
 10
  127800.0000
 20
    1320.8000
  0
VERTEX
  8
LB
 10
  131350.0000
 20
     977.7000
  0
VERTEX
  8
LB
 10
  134900.0000
 20
     713.4000
  0
VERTEX
  8
LB
 10
  136675.0000
 20
     562.2000
  0
VERTEX
  8
LB
 10
  138450.0000
 20
     375.7000
  0
VERTEX
  8
LB
 10
  140225.0000
 20
     145.0000
  0
VERTEX
  8
LB
 10
  141058.7031
 20
      22.0000
  0
SEQEND
  0
POLYLINE
  8
LB
 66
     1
 70
     0
  0
VERTEX
  8
LB
 10
  141058.7031
 20
      22.0000
  0
VERTEX
  8
LB
 10
  141058.7031
 20
       0.0000
  0
SEQEND
  0
POLYLINE
  8
LB
 66
     1
 70
     0
  0
VERTEX
  8
LB
 10
   17660.8008
 20
       0.0000
  0
VERTEX
  8
LB
 10
   17751.3008
 20
       0.0000
  0
SEQEND
  0
POLYLINE
  8
LB
 66
     1
 70
     0
  0
VERTEX
  8
LB
 10
   17751.3008
 20
       0.0000
  0
VERTEX
  8
LB
 10
   17751.3008
 20
     502.5000
  0
VERTEX
  8
LB
 10
   18612.6992
 20
     964.9000
  0
VERTEX
  8
LB
 10
   19491.3008
 20
    1389.9000
  0
VERTEX
  8
LB
 10
   20387.0996
 20
    1777.5000
  0
SEQEND
  0
POLYLINE
  8
LB
 66
     1
 70
     0
  0
VERTEX
  8
LB
 10
   17751.3008
 20
     502.5000
  0
VERTEX
  8
LB
 10
   18612.6992
 20
     964.9000
  0
VERTEX
  8
LB
 10
   19491.3008
 20
    1389.9000
  0
VERTEX
  8
LB
 10
   20387.0996
 20
    1777.5000
  0
VERTEX
  8
LB
 10
   21300.0000
 20
    2127.5000
  0
VERTEX
  8
LB
 10
   24850.0000
 20
    3173.7000
  0
VERTEX
  8
LB
 10
   28400.0000
 20
    4032.2000
  0
VERTEX
  8
LB
 10
   31950.0000
 20
    4841.0000
  0
VERTEX
  8
LB
 10
   35500.0000
 20
    5571.2002
  0
VERTEX
  8
LB
 10
   39050.0000
 20
    6209.6001
  0
VERTEX
  8
LB
 10
   42600.0000
 20
    6747.3999
  0
VERTEX
  8
LB
 10
   46150.0000
 20
    7178.5000
  0
VERTEX
  8
LB
 10
   49700.0000
 20
    7521.8999
  0
VERTEX
  8
LB
 10
   53250.0000
 20
    7784.0000
  0
VERTEX
  8
LB
 10
   56800.0000
 20
    7975.6001
  0
VERTEX
  8
LB
 10
   60350.0000
 20
    8097.5000
  0
VERTEX
  8
LB
 10
   63900.0000
 20
    8158.2002
  0
VERTEX
  8
LB
 10
   67450.0000
 20
    8166.1001
  0
VERTEX
  8
LB
 10
   71000.0000
 20
    8117.7998
  0
VERTEX
  8
LB
 10
   74550.0000
 20
    8009.5000
  0
VERTEX
  8
LB
 10
   78100.0000
 20
    7833.1001
  0
VERTEX
  8
LB
 10
   81650.0000
 20
    7583.1001
  0
VERTEX
  8
LB
 10
   85200.0000
 20
    7256.7998
  0
VERTEX
  8
LB
 10
   88750.0000
 20
    6860.2998
  0
VERTEX
  8
LB
 10
   92300.0000
 20
    6412.3999
  0
VERTEX
  8
LB
 10
   95850.0000
 20
    5934.0000
  0
VERTEX
  8
LB
 10
   99400.0000
 20
    5434.5000
  0
VERTEX
  8
LB
 10
  102950.0000
 20
    4929.2002
  0
VERTEX
  8
LB
 10
  106500.0000
 20
    4433.2002
  0
VERTEX
  8
LB
 10
  110050.0000
 20
    3950.2000
  0
VERTEX
  8
LB
 10
  113600.0000
 20
    3471.1001
  0
VERTEX
  8
LB
 10
  117150.0000
 20
    2997.5000
  0
VERTEX
  8
LB
 10
  120700.0000
 20
    2523.3999
  0
VERTEX
  8
LB
 10
  124250.0000
 20
    2047.8000
  0
VERTEX
  8
LB
 10
  127800.0000
 20
    1574.8000
  0
VERTEX
  8
LB
 10
  131350.0000
 20
    1123.2000
  0
VERTEX
  8
LB
 10
  134900.0000
 20
     715.0000
  0
VERTEX
  8
LB
 10
  136675.0000
 20
     507.6000
  0
VERTEX
  8
LB
 10
  138450.0000
 20
     315.4000
  0
VERTEX
  8
LB
 10
  140225.0000
 20
     125.7000
  0
VERTEX
  8
LB
 10
  141051.2031
 20
      31.8000
  0
SEQEND
  0
POLYLINE
  8
LB
 66
     1
 70
     0
  0
VERTEX
  8
LB
 10
  141051.2031
 20
      31.8000
  0
VERTEX
  8
LB
 10
  141051.2031
 20
       0.0000
  0
SEQEND
  0
POLYLINE
  8
LB
 66
     1
 70
     0
  0
VERTEX
  8
LB
 10
   15650.0000
 20
       0.0000
  0
VERTEX
  8
LB
 10
   15703.5996
 20
       0.0000
  0
SEQEND
  0
POLYLINE
  8
LB
 66
     1
 70
     0
  0
VERTEX
  8
LB
 10
   15703.5996
 20
       0.0000
  0
VERTEX
  8
LB
 10
   15703.5996
 20
     450.0000
  0
SEQEND
  0
POLYLINE
  8
LB
 66
     1
 70
     0
  0
VERTEX
  8
LB
 10
   15703.5996
 20
     450.0000
  0
VERTEX
  8
LB
 10
   17750.0000
 20
    1720.2000
  0
VERTEX
  8
LB
 10
   18613.3008
 20
    2129.3999
  0
VERTEX
  8
LB
 10
   19495.3008
 20
    2490.5000
  0
VERTEX
  8
LB
 10
   20392.1992
 20
    2813.7000
  0
VERTEX
  8
LB
 10
   21300.0000
 20
    3109.1001
  0
VERTEX
  8
LB
 10
   24850.0000
 20
    4099.2002
  0
VERTEX
  8
LB
 10
   28400.0000
 20
    4948.2002
  0
VERTEX
  8
LB
 10
   31950.0000
 20
    5700.7998
  0
VERTEX
  8
LB
 10
   35500.0000
 20
    6341.5000
  0
VERTEX
  8
LB
 10
   39050.0000
 20
    6880.7002
  0
VERTEX
  8
LB
 10
   42600.0000
 20
    7325.6001
  0
VERTEX
  8
LB
 10
   46150.0000
 20
    7682.3999
  0
VERTEX
  8
LB
 10
   49700.0000
 20
    7963.8999
  0
VERTEX
  8
LB
 10
   53250.0000
 20
    8182.7002
  0
VERTEX
  8
LB
 10
   56800.0000
 20
    8343.0996
  0
VERTEX
  8
LB
 10
   60350.0000
 20
    8448.0996
  0
VERTEX
  8
LB
 10
   63900.0000
 20
    8503.2998
  0
VERTEX
  8
LB
 10
   67450.0000
 20
    8513.4004
  0
VERTEX
  8
LB
 10
   71000.0000
 20
    8475.9004
  0
VERTEX
  8
LB
 10
   74550.0000
 20
    8385.9004
  0
VERTEX
  8
LB
 10
   78100.0000
 20
    8235.0996
  0
VERTEX
  8
LB
 10
   81650.0000
 20
    8015.8999
  0
VERTEX
  8
LB
 10
   85200.0000
 20
    7725.3999
  0
VERTEX
  8
LB
 10
   88750.0000
 20
    7365.1001
  0
VERTEX
  8
LB
 10
   92300.0000
 20
    6950.2002
  0
VERTEX
  8
LB
 10
   95850.0000
 20
    6496.1001
  0
VERTEX
  8
LB
 10
   99400.0000
 20
    6014.7002
  0
VERTEX
  8
LB
 10
  102950.0000
 20
    5514.5000
  0
VERTEX
  8
LB
 10
  106500.0000
 20
    5006.5000
  0
VERTEX
  8
LB
 10
  110050.0000
 20
    4494.7002
  0
VERTEX
  8
LB
 10
  113600.0000
 20
    3977.6001
  0
VERTEX
  8
LB
 10
  117150.0000
 20
    3454.3999
  0
VERTEX
  8
LB
 10
  120700.0000
 20
    2920.3000
  0
VERTEX
  8
LB
 10
  124250.0000
 20
    2372.8000
  0
VERTEX
  8
LB
 10
  127800.0000
 20
    1818.6000
  0
VERTEX
  8
LB
 10
  131350.0000
 20
    1269.8000
  0
VERTEX
  8
LB
 10
  134900.0000
 20
     753.7000
  0
VERTEX
  8
LB
 10
  136675.0000
 20
     516.6000
  0
VERTEX
  8
LB
 10
  138450.0000
 20
     306.6000
  0
VERTEX
  8
LB
 10
  140225.0000
 20
     124.7000
  0
VERTEX
  8
LB
 10
  141083.0938
 20
      40.4000
  0
SEQEND
  0
POLYLINE
  8
LB
 66
     1
 70
     0
  0
VERTEX
  8
LB
 10
  141083.0938
 20
      40.4000
  0
VERTEX
  8
LB
 10
  141083.0938
 20
       0.0000
  0
SEQEND
  0
POLYLINE
  8
LB
 66
     1
 70
     0
  0
VERTEX
  8
LB
 10
   13355.5996
 20
       0.0000
  0
VERTEX
  8
LB
 10
   13378.7998
 20
       0.0000
  0
SEQEND
  0
POLYLINE
  8
LB
 66
     1
 70
     0
  0
VERTEX
  8
LB
 10
   13378.7998
 20
       0.0000
  0
VERTEX
  8
LB
 10
   13355.5996
 20
     343.3000
  0
SEQEND
  0
POLYLINE
  8
LB
 66
     1
 70
     0
  0
VERTEX
  8
LB
 10
   13355.5996
 20
     343.3000
  0
VERTEX
  8
LB
 10
   14200.0000
 20
     915.8000
  0
VERTEX
  8
LB
 10
   14885.9004
 20
    1367.3000
  0
VERTEX
  8
LB
 10
   15580.0996
 20
    1804.5000
  0
VERTEX
  8
LB
 10
   16286.2998
 20
    2220.8999
  0
VERTEX
  8
LB
 10
   17008.3008
 20
    2609.8000
  0
VERTEX
  8
LB
 10
   17750.0000
 20
    2964.7000
  0
VERTEX
  8
LB
 10
   18618.3008
 20
    3321.0000
  0
VERTEX
  8
LB
 10
   19502.0000
 20
    3631.3000
  0
VERTEX
  8
LB
 10
   20397.1992
 20
    3907.5000
  0
VERTEX
  8
LB
 10
   21300.0000
 20
    4161.5000
  0
VERTEX
  8
LB
 10
   24850.0000
 20
    5057.7998
  0
VERTEX
  8
LB
 10
   28400.0000
 20
    5839.8999
  0
VERTEX
  8
LB
 10
   31950.0000
 20
    6463.6001
  0
VERTEX
  8
LB
 10
   35500.0000
 20
    6983.2998
  0
VERTEX
  8
LB
 10
   39050.0000
 20
    7421.0000
  0
VERTEX
  8
LB
 10
   42600.0000
 20
    7785.7998
  0
VERTEX
  8
LB
 10
   46150.0000
 20
    8080.2998
  0
VERTEX
  8
LB
 10
   49700.0000
 20
    8312.2002
  0
VERTEX
  8
LB
 10
   53250.0000
 20
    8495.7002
  0
VERTEX
  8
LB
 10
   56800.0000
 20
    8630.9004
  0
VERTEX
  8
LB
 10
   60350.0000
 20
    8721.5000
  0
VERTEX
  8
LB
 10
   63900.0000
 20
    8771.0000
  0
VERTEX
  8
LB
 10
   67450.0000
 20
    8782.2002
  0
VERTEX
  8
LB
 10
   71000.0000
 20
    8753.4004
  0
VERTEX
  8
LB
 10
   74550.0000
 20
    8680.5000
  0
VERTEX
  8
LB
 10
   78100.0000
 20
    8554.7998
  0
VERTEX
  8
LB
 10
   81650.0000
 20
    8366.7998
  0
VERTEX
  8
LB
 10
   85200.0000
 20
    8112.7998
  0
VERTEX
  8
LB
 10
   88750.0000
 20
    7792.5000
  0
VERTEX
  8
LB
 10
   92300.0000
 20
    7412.7002
  0
VERTEX
  8
LB
 10
   95850.0000
 20
    6987.5000
  0
VERTEX
  8
LB
 10
   99400.0000
 20
    6524.2998
  0
VERTEX
  8
LB
 10
  102950.0000
 20
    6033.1001
  0
VERTEX
  8
LB
 10
  106500.0000
 20
    5521.7998
  0
VERTEX
  8
LB
 10
  110050.0000
 20
    4991.0000
  0
VERTEX
  8
LB
 10
  113600.0000
 20
    4444.7998
  0
VERTEX
  8
LB
 10
  117150.0000
 20
    3878.1001
  0
VERTEX
  8
LB
 10
  120700.0000
 20
    3290.6001
  0
VERTEX
  8
LB
 10
  124250.0000
 20
    2680.3999
  0
VERTEX
  8
LB
 10
  127800.0000
 20
    2052.3000
  0
VERTEX
  8
LB
 10
  131350.0000
 20
    1417.8000
  0
VERTEX
  8
LB
 10
  134900.0000
 20
     820.5000
  0
VERTEX
  8
LB
 10
  136675.0000
 20
     560.4000
  0
VERTEX
  8
LB
 10
  138450.0000
 20
     330.3000
  0
VERTEX
  8
LB
 10
  140225.0000
 20
     136.4000
  0
VERTEX
  8
LB
 10
  141154.0938
 20
      49.8000
  0
SEQEND
  0
POLYLINE
  8
LB
 66
     1
 70
     0
  0
VERTEX
  8
LB
 10
  141154.0938
 20
      49.8000
  0
VERTEX
  8
LB
 10
  141154.0938
 20
       0.0000
  0
SEQEND
  0
POLYLINE
  8
LB
 66
     1
 70
     0
  0
VERTEX
  8
LB
 10
   10716.0000
 20
       0.0000
  0
VERTEX
  8
LB
 10
   10762.2002
 20
       0.0000
  0
SEQEND
  0
POLYLINE
  8
LB
 66
     1
 70
     0
  0
VERTEX
  8
LB
 10
   10762.2002
 20
       0.0000
  0
VERTEX
  8
LB
 10
   10716.0000
 20
     220.0000
  0
VERTEX
  8
LB
 10
   11364.7002
 20
     784.1000
  0
VERTEX
  8
LB
 10
   12037.5000
 20
    1314.5000
  0
VERTEX
  8
LB
 10
   12734.2998
 20
    1811.2000
  0
VERTEX
  8
LB
 10
   13455.2002
 20
    2274.3000
  0
SEQEND
  0
POLYLINE
  8
LB
 66
     1
 70
     0
  0
VERTEX
  8
LB
 10
   10716.0000
 20
     220.0000
  0
VERTEX
  8
LB
 10
   11364.7002
 20
     784.1000
  0
VERTEX
  8
LB
 10
   12037.5000
 20
    1314.5000
  0
VERTEX
  8
LB
 10
   12734.2998
 20
    1811.2000
  0
VERTEX
  8
LB
 10
   13455.2002
 20
    2274.3000
  0
VERTEX
  8
LB
 10
   14200.0000
 20
    2703.6001
  0
VERTEX
  8
LB
 10
   15061.5000
 20
    3144.5000
  0
VERTEX
  8
LB
 10
   15941.5996
 20
    3541.8000
  0
VERTEX
  8
LB
 10
   16838.4004
 20
    3900.1001
  0
VERTEX
  8
LB
 10
   17750.0000
 20
    4223.7998
  0
VERTEX
  8
LB
 10
   21300.0000
 20
    5215.2998
  0
VERTEX
  8
LB
 10
   24850.0000
 20
    5977.0000
  0
VERTEX
  8
LB
 10
   28400.0000
 20
    6592.7002
  0
VERTEX
  8
LB
 10
   31950.0000
 20
    7092.0000
  0
VERTEX
  8
LB
 10
   35500.0000
 20
    7506.8999
  0
VERTEX
  8
LB
 10
   39050.0000
 20
    7861.3999
  0
VERTEX
  8
LB
 10
   42600.0000
 20
    8159.8999
  0
VERTEX
  8
LB
 10
   46150.0000
 20
    8402.4004
  0
VERTEX
  8
LB
 10
   49700.0000
 20
    8595.7998
  0
VERTEX
  8
LB
 10
   53250.0000
 20
    8747.5996
  0
VERTEX
  8
LB
 10
   56800.0000
 20
    8861.2998
  0
VERTEX
  8
LB
 10
   60350.0000
 20
    8939.0000
  0
VERTEX
  8
LB
 10
   63900.0000
 20
    8982.5000
  0
VERTEX
  8
LB
 10
   67450.0000
 20
    8993.2998
  0
VERTEX
  8
LB
 10
   71000.0000
 20
    8970.7998
  0
VERTEX
  8
LB
 10
   74550.0000
 20
    8912.7998
  0
VERTEX
  8
LB
 10
   78100.0000
 20
    8809.4004
  0
VERTEX
  8
LB
 10
   81650.0000
 20
    8650.4004
  0
VERTEX
  8
LB
 10
   85200.0000
 20
    8431.2998
  0
VERTEX
  8
LB
 10
   88750.0000
 20
    8149.7998
  0
VERTEX
  8
LB
 10
   92300.0000
 20
    7808.7002
  0
VERTEX
  8
LB
 10
   95850.0000
 20
    7412.8999
  0
VERTEX
  8
LB
 10
   99400.0000
 20
    6971.1001
  0
VERTEX
  8
LB
 10
  102950.0000
 20
    6492.1001
  0
VERTEX
  8
LB
 10
  106500.0000
 20
    5982.0000
  0
VERTEX
  8
LB
 10
  110050.0000
 20
    5442.6001
  0
VERTEX
  8
LB
 10
  113600.0000
 20
    4874.3999
  0
VERTEX
  8
LB
 10
  117150.0000
 20
    4272.2002
  0
VERTEX
  8
LB
 10
  120700.0000
 20
    3637.5000
  0
VERTEX
  8
LB
 10
  124250.0000
 20
    2970.2000
  0
VERTEX
  8
LB
 10
  127800.0000
 20
    2275.8999
  0
VERTEX
  8
LB
 10
  131350.0000
 20
    1567.9000
  0
VERTEX
  8
LB
 10
  134900.0000
 20
     906.6000
  0
VERTEX
  8
LB
 10
  136675.0000
 20
     621.5000
  0
VERTEX
  8
LB
 10
  138450.0000
 20
     371.0000
  0
VERTEX
  8
LB
 10
  140225.0000
 20
     159.0000
  0
VERTEX
  8
LB
 10
  141258.0000
 20
      60.0000
  0
SEQEND
  0
POLYLINE
  8
LB
 66
     1
 70
     0
  0
VERTEX
  8
LB
 10
  141258.0000
 20
      60.0000
  0
VERTEX
  8
LB
 10
  141258.0000
 20
       0.0000
  0
SEQEND
  0
POLYLINE
  8
LB
 66
     1
 70
     0
  0
VERTEX
  8
LB
 10
    7748.2002
 20
       0.0000
  0
VERTEX
  8
LB
 10
    7758.2998
 20
       0.0000
  0
SEQEND
  0
POLYLINE
  8
LB
 66
     1
 70
     0
  0
VERTEX
  8
LB
 10
    7758.2998
 20
       0.0000
  0
VERTEX
  8
LB
 10
    7748.2002
 20
     120.5000
  0
VERTEX
  8
LB
 10
    8437.2998
 20
     748.2000
  0
VERTEX
  8
LB
 10
    9150.7002
 20
    1345.7000
  0
VERTEX
  8
LB
 10
    9888.2002
 20
    1913.1000
  0
SEQEND
  0
POLYLINE
  8
LB
 66
     1
 70
     0
  0
VERTEX
  8
LB
 10
    7748.2002
 20
     120.5000
  0
VERTEX
  8
LB
 10
    8437.2998
 20
     748.2000
  0
VERTEX
  8
LB
 10
    9150.7002
 20
    1345.7000
  0
VERTEX
  8
LB
 10
    9888.2002
 20
    1913.1000
  0
VERTEX
  8
LB
 10
   10650.0000
 20
    2450.3000
  0
VERTEX
  8
LB
 10
   11328.0000
 20
    2889.8000
  0
VERTEX
  8
LB
 10
   12020.9004
 20
    3301.5000
  0
VERTEX
  8
LB
 10
   12729.7998
 20
    3683.3000
  0
VERTEX
  8
LB
 10
   13455.7998
 20
    4033.1001
  0
VERTEX
  8
LB
 10
   14200.0000
 20
    4348.8999
  0
VERTEX
  8
LB
 10
   15071.9004
 20
    4666.6001
  0
VERTEX
  8
LB
 10
   15956.2002
 20
    4942.7998
  0
VERTEX
  8
LB
 10
   16849.9004
 20
    5187.5000
  0
VERTEX
  8
LB
 10
   17750.0000
 20
    5410.7998
  0
VERTEX
  8
LB
 10
   21300.0000
 20
    6165.5000
  0
VERTEX
  8
LB
 10
   24850.0000
 20
    6740.6001
  0
VERTEX
  8
LB
 10
   28400.0000
 20
    7198.2998
  0
VERTEX
  8
LB
 10
   31950.0000
 20
    7593.2998
  0
VERTEX
  8
LB
 10
   35500.0000
 20
    7931.5000
  0
VERTEX
  8
LB
 10
   39050.0000
 20
    8222.7002
  0
VERTEX
  8
LB
 10
   42600.0000
 20
    8466.7002
  0
VERTEX
  8
LB
 10
   46150.0000
 20
    8666.7998
  0
VERTEX
  8
LB
 10
   49700.0000
 20
    8828.2002
  0
VERTEX
  8
LB
 10
   53250.0000
 20
    8953.5996
  0
VERTEX
  8
LB
 10
   56800.0000
 20
    9048.0996
  0
VERTEX
  8
LB
 10
   60350.0000
 20
    9114.2998
  0
VERTEX
  8
LB
 10
   63900.0000
 20
    9151.9004
  0
VERTEX
  8
LB
 10
   67450.0000
 20
    9161.0000
  0
VERTEX
  8
LB
 10
   71000.0000
 20
    9142.7002
  0
VERTEX
  8
LB
 10
   74550.0000
 20
    9096.4004
  0
VERTEX
  8
LB
 10
   78100.0000
 20
    9011.7998
  0
VERTEX
  8
LB
 10
   81650.0000
 20
    8877.5000
  0
VERTEX
  8
LB
 10
   85200.0000
 20
    8689.5000
  0
VERTEX
  8
LB
 10
   88750.0000
 20
    8444.0000
  0
VERTEX
  8
LB
 10
   92300.0000
 20
    8140.7998
  0
VERTEX
  8
LB
 10
   95850.0000
 20
    7776.5000
  0
VERTEX
  8
LB
 10
   99400.0000
 20
    7359.7998
  0
VERTEX
  8
LB
 10
  102950.0000
 20
    6897.7002
  0
VERTEX
  8
LB
 10
  106500.0000
 20
    6393.7002
  0
VERTEX
  8
LB
 10
  110050.0000
 20
    5852.5000
  0
VERTEX
  8
LB
 10
  113600.0000
 20
    5268.6001
  0
VERTEX
  8
LB
 10
  117150.0000
 20
    4639.2002
  0
VERTEX
  8
LB
 10
  120700.0000
 20
    3962.8000
  0
VERTEX
  8
LB
 10
  124250.0000
 20
    3241.8000
  0
VERTEX
  8
LB
 10
  127800.0000
 20
    2488.6001
  0
VERTEX
  8
LB
 10
  131350.0000
 20
    1720.7000
  0
VERTEX
  8
LB
 10
  134900.0000
 20
    1007.1000
  0
VERTEX
  8
LB
 10
  136675.0000
 20
     697.5000
  0
VERTEX
  8
LB
 10
  138450.0000
 20
     424.6000
  0
VERTEX
  8
LB
 10
  140225.0000
 20
     191.9000
  0
VERTEX
  8
LB
 10
  141388.2031
 20
      71.1000
  0
SEQEND
  0
POLYLINE
  8
LB
 66
     1
 70
     0
  0
VERTEX
  8
LB
 10
  141388.2031
 20
      71.1000
  0
VERTEX
  8
LB
 10
  141388.2031
 20
       0.0000
  0
SEQEND
  0
POLYLINE
  8
LB
 66
     1
 70
     0
  0
VERTEX
  8
LB
 10
    4394.6001
 20
       0.0000
  0
VERTEX
  8
LB
 10
    4421.5000
 20
       0.0000
  0
SEQEND
  0
POLYLINE
  8
LB
 66
     1
 70
     0
  0
VERTEX
  8
LB
 10
    4421.5000
 20
       0.0000
  0
VERTEX
  8
LB
 10
    4421.5000
 20
      50.0000
  0
VERTEX
  8
LB
 10
    5045.0000
 20
     721.4000
  0
VERTEX
  8
LB
 10
    5699.2998
 20
    1359.7000
  0
VERTEX
  8
LB
 10
    6384.2998
 20
    1964.9000
  0
SEQEND
  0
POLYLINE
  8
LB
 66
     1
 70
     0
  0
VERTEX
  8
LB
 10
    4421.5000
 20
      50.0000
  0
VERTEX
  8
LB
 10
    5045.0000
 20
     721.4000
  0
VERTEX
  8
LB
 10
    5699.2998
 20
    1359.7000
  0
VERTEX
  8
LB
 10
    6384.2998
 20
    1964.9000
  0
VERTEX
  8
LB
 10
    7100.0000
 20
    2537.0000
  0
VERTEX
  8
LB
 10
    7767.7998
 20
    3021.1001
  0
VERTEX
  8
LB
 10
    8455.4004
 20
    3471.0000
  0
VERTEX
  8
LB
 10
    9164.0996
 20
    3884.6001
  0
VERTEX
  8
LB
 10
    9895.2002
 20
    4259.5000
  0
VERTEX
  8
LB
 10
   10650.0000
 20
    4593.3999
  0
VERTEX
  8
LB
 10
   11519.7002
 20
    4916.2998
  0
VERTEX
  8
LB
 10
   12403.5996
 20
    5191.1001
  0
VERTEX
  8
LB
 10
   13298.2998
 20
    5429.7002
  0
VERTEX
  8
LB
 10
   14200.0000
 20
    5644.2998
  0
VERTEX
  8
LB
 10
   17750.0000
 20
    6361.3999
  0
VERTEX
  8
LB
 10
   21300.0000
 20
    6910.2998
  0
VERTEX
  8
LB
 10
   24850.0000
 20
    7331.3999
  0
VERTEX
  8
LB
 10
   28400.0000
 20
    7682.3999
  0
VERTEX
  8
LB
 10
   31950.0000
 20
    7995.7002
  0
VERTEX
  8
LB
 10
   35500.0000
 20
    8275.4004
  0
VERTEX
  8
LB
 10
   39050.0000
 20
    8517.4004
  0
VERTEX
  8
LB
 10
   42600.0000
 20
    8718.0000
  0
VERTEX
  8
LB
 10
   46150.0000
 20
    8883.5996
  0
VERTEX
  8
LB
 10
   49700.0000
 20
    9017.2998
  0
VERTEX
  8
LB
 10
   53250.0000
 20
    9121.7002
  0
VERTEX
  8
LB
 10
   56800.0000
 20
    9200.5000
  0
VERTEX
  8
LB
 10
   60350.0000
 20
    9256.7002
  0
VERTEX
  8
LB
 10
   63900.0000
 20
    9288.9004
  0
VERTEX
  8
LB
 10
   67450.0000
 20
    9295.7998
  0
VERTEX
  8
LB
 10
   71000.0000
 20
    9280.0000
  0
VERTEX
  8
LB
 10
   74550.0000
 20
    9242.0996
  0
VERTEX
  8
LB
 10
   78100.0000
 20
    9172.5000
  0
VERTEX
  8
LB
 10
   81650.0000
 20
    9060.0000
  0
VERTEX
  8
LB
 10
   85200.0000
 20
    8899.5000
  0
VERTEX
  8
LB
 10
   88750.0000
 20
    8686.5000
  0
VERTEX
  8
LB
 10
   92300.0000
 20
    8416.0000
  0
VERTEX
  8
LB
 10
   95850.0000
 20
    8084.3999
  0
VERTEX
  8
LB
 10
   99400.0000
 20
    7695.3999
  0
VERTEX
  8
LB
 10
  102950.0000
 20
    7254.0000
  0
VERTEX
  8
LB
 10
  106500.0000
 20
    6762.7002
  0
VERTEX
  8
LB
 10
  110050.0000
 20
    6222.7002
  0
VERTEX
  8
LB
 10
  113600.0000
 20
    5629.7998
  0
VERTEX
  8
LB
 10
  117150.0000
 20
    4979.5000
  0
VERTEX
  8
LB
 10
  120700.0000
 20
    4268.2002
  0
VERTEX
  8
LB
 10
  124250.0000
 20
    3498.1001
  0
VERTEX
  8
LB
 10
  127800.0000
 20
    2690.6001
  0
VERTEX
  8
LB
 10
  131350.0000
 20
    1877.1000
  0
VERTEX
  8
LB
 10
  134900.0000
 20
    1120.3000
  0
VERTEX
  8
LB
 10
  136675.0000
 20
     786.8000
  0
VERTEX
  8
LB
 10
  138450.0000
 20
     490.9000
  0
VERTEX
  8
LB
 10
  140225.0000
 20
     235.6000
  0
VERTEX
  8
LB
 10
  141541.0938
 20
      83.1000
  0
SEQEND
  0
POLYLINE
  8
LB
 66
     1
 70
     0
  0
VERTEX
  8
LB
 10
  141541.0938
 20
      83.1000
  0
VERTEX
  8
LB
 10
  141541.0938
 20
       0.0000
  0
SEQEND
  0
POLYLINE
  8
LB
 66
     1
 70
     0
  0
VERTEX
  8
LB
 10
    -114.3000
 20
       0.0000
  0
VERTEX
  8
LB
 10
      24.1000
 20
    2001.0000
  0
VERTEX
  8
LB
 10
     306.9000
 20
    4001.0000
  0
VERTEX
  8
LB
 10
     487.0000
 20
    4877.2002
  0
SEQEND
  0
POLYLINE
  8
LB
 66
     1
 70
     0
  0
VERTEX
  8
LB
 10
     487.0000
 20
    4877.2002
  0
VERTEX
  8
LB
 10
    3550.0000
 20
    5416.3999
  0
VERTEX
  8
LB
 10
    7100.0000
 20
    6026.0000
  0
VERTEX
  8
LB
 10
   10650.0000
 20
    6585.5000
  0
VERTEX
  8
LB
 10
   14200.0000
 20
    7069.2002
  0
VERTEX
  8
LB
 10
   17750.0000
 20
    7481.1001
  0
VERTEX
  8
LB
 10
   21300.0000
 20
    7827.0000
  0
VERTEX
  8
LB
 10
   24850.0000
 20
    8112.6001
  0
VERTEX
  8
LB
 10
   28400.0000
 20
    8359.0996
  0
VERTEX
  8
LB
 10
   31950.0000
 20
    8580.0000
  0
VERTEX
  8
LB
 10
   35500.0000
 20
    8778.2998
  0
VERTEX
  8
LB
 10
   39050.0000
 20
    8948.9004
  0
VERTEX
  8
LB
 10
   42600.0000
 20
    9090.5996
  0
VERTEX
  8
LB
 10
   46150.0000
 20
    9205.7998
  0
VERTEX
  8
LB
 10
   49700.0000
 20
    9298.0000
  0
VERTEX
  8
LB
 10
   53250.0000
 20
    9371.4004
  0
VERTEX
  8
LB
 10
   56800.0000
 20
    9429.0996
  0
VERTEX
  8
LB
 10
   60350.0000
 20
    9472.5000
  0
VERTEX
  8
LB
 10
   63900.0000
 20
    9497.7998
  0
VERTEX
  8
LB
 10
   67450.0000
 20
    9501.5996
  0
VERTEX
  8
LB
 10
   71000.0000
 20
    9487.2998
  0
VERTEX
  8
LB
 10
   74550.0000
 20
    9458.2002
  0
VERTEX
  8
LB
 10
   78100.0000
 20
    9409.0000
  0
VERTEX
  8
LB
 10
   81650.0000
 20
    9332.0000
  0
VERTEX
  8
LB
 10
   85200.0000
 20
    9217.0996
  0
VERTEX
  8
LB
 10
   88750.0000
 20
    9054.5000
  0
VERTEX
  8
LB
 10
   92300.0000
 20
    8837.9004
  0
VERTEX
  8
LB
 10
   95850.0000
 20
    8562.5996
  0
VERTEX
  8
LB
 10
   99400.0000
 20
    8228.0996
  0
VERTEX
  8
LB
 10
  102950.0000
 20
    7833.7002
  0
VERTEX
  8
LB
 10
  106500.0000
 20
    7375.7002
  0
VERTEX
  8
LB
 10
  110050.0000
 20
    6849.6001
  0
VERTEX
  8
LB
 10
  113600.0000
 20
    6253.0000
  0
VERTEX
  8
LB
 10
  117150.0000
 20
    5581.7002
  0
VERTEX
  8
LB
 10
  120700.0000
 20
    4824.7998
  0
VERTEX
  8
LB
 10
  124250.0000
 20
    3980.0000
  0
VERTEX
  8
LB
 10
  127800.0000
 20
    3089.7000
  0
VERTEX
  8
LB
 10
  131350.0000
 20
    2206.8999
  0
VERTEX
  8
LB
 10
  134900.0000
 20
    1380.1000
  0
VERTEX
  8
LB
 10
  136675.0000
 20
    1003.5000
  0
VERTEX
  8
LB
 10
  138450.0000
 20
     661.7000
  0
VERTEX
  8
LB
 10
  140225.0000
 20
     357.4000
  0
VERTEX
  8
LB
 10
  141912.0938
 20
     110.0000
  0
SEQEND
  0
POLYLINE
  8
LB
 66
     1
 70
     0
  0
VERTEX
  8
LB
 10
  141912.0938
 20
     110.0000
  0
VERTEX
  8
LB
 10
  141912.0938
 20
       0.0000
  0
SEQEND
  0
POLYLINE
  8
LB
 66
     1
 70
     0
  0
VERTEX
  8
LB
 10
    -383.1000
 20
       0.0000
  0
VERTEX
  8
LB
 10
    -250.1000
 20
    2001.0000
  0
VERTEX
  8
LB
 10
      37.6000
 20
    4001.0000
  0
VERTEX
  8
LB
 10
     440.7000
 20
    5635.0000
  0
VERTEX
  8
LB
 10
     513.0000
 20
    5851.3999
  0
SEQEND
  0
POLYLINE
  8
LB
 66
     1
 70
     0
  0
VERTEX
  8
LB
 10
     513.0000
 20
    5851.3999
  0
VERTEX
  8
LB
 10
    3550.0000
 20
    6307.3999
  0
VERTEX
  8
LB
 10
    7100.0000
 20
    6802.1001
  0
VERTEX
  8
LB
 10
   10650.0000
 20
    7253.1001
  0
VERTEX
  8
LB
 10
   14200.0000
 20
    7651.6001
  0
VERTEX
  8
LB
 10
   17750.0000
 20
    7995.2002
  0
VERTEX
  8
LB
 10
   21300.0000
 20
    8289.0996
  0
VERTEX
  8
LB
 10
   24850.0000
 20
    8541.7002
  0
VERTEX
  8
LB
 10
   28400.0000
 20
    8760.4004
  0
VERTEX
  8
LB
 10
   31950.0000
 20
    8950.0000
  0
VERTEX
  8
LB
 10
   35500.0000
 20
    9111.5000
  0
VERTEX
  8
LB
 10
   39050.0000
 20
    9242.7002
  0
VERTEX
  8
LB
 10
   42600.0000
 20
    9348.5996
  0
VERTEX
  8
LB
 10
   46150.0000
 20
    9433.7998
  0
VERTEX
  8
LB
 10
   49700.0000
 20
    9502.7002
  0
VERTEX
  8
LB
 10
   53250.0000
 20
    9558.7002
  0
VERTEX
  8
LB
 10
   56800.0000
 20
    9604.5000
  0
VERTEX
  8
LB
 10
   60350.0000
 20
    9641.4004
  0
VERTEX
  8
LB
 10
   63900.0000
 20
    9663.7002
  0
VERTEX
  8
LB
 10
   67450.0000
 20
    9666.7998
  0
VERTEX
  8
LB
 10
   71000.0000
 20
    9653.9004
  0
VERTEX
  8
LB
 10
   74550.0000
 20
    9629.2002
  0
VERTEX
  8
LB
 10
   78100.0000
 20
    9590.7002
  0
VERTEX
  8
LB
 10
   81650.0000
 20
    9533.5000
  0
VERTEX
  8
LB
 10
   85200.0000
 20
    9446.0996
  0
VERTEX
  8
LB
 10
   88750.0000
 20
    9317.0000
  0
VERTEX
  8
LB
 10
   92300.0000
 20
    9140.0000
  0
VERTEX
  8
LB
 10
   95850.0000
 20
    8910.4004
  0
VERTEX
  8
LB
 10
   99400.0000
 20
    8620.5996
  0
VERTEX
  8
LB
 10
  102950.0000
 20
    8263.7002
  0
VERTEX
  8
LB
 10
  106500.0000
 20
    7836.8999
  0
VERTEX
  8
LB
 10
  110050.0000
 20
    7337.2998
  0
VERTEX
  8
LB
 10
  113600.0000
 20
    6758.2002
  0
VERTEX
  8
LB
 10
  117150.0000
 20
    6090.7998
  0
VERTEX
  8
LB
 10
  120700.0000
 20
    5322.0000
  0
VERTEX
  8
LB
 10
  124250.0000
 20
    4446.7998
  0
VERTEX
  8
LB
 10
  127800.0000
 20
    3513.2000
  0
VERTEX
  8
LB
 10
  131350.0000
 20
    2574.0000
  0
VERTEX
  8
LB
 10
  134900.0000
 20
    1687.1000
  0
VERTEX
  8
LB
 10
  136675.0000
 20
    1273.3000
  0
VERTEX
  8
LB
 10
  138450.0000
 20
     887.8000
  0
VERTEX
  8
LB
 10
  140225.0000
 20
     531.5000
  0
VERTEX
  8
LB
 10
  142000.0000
 20
     204.2000
  0
VERTEX
  8
LB
 10
  142366.5000
 20
     141.3000
  0
SEQEND
  0
POLYLINE
  8
LB
 66
     1
 70
     0
  0
VERTEX
  8
LB
 10
  142366.5000
 20
     141.3000
  0
VERTEX
  8
LB
 10
  142366.5000
 20
       0.0000
  0
SEQEND
  0
POLYLINE
  8
LB
 66
     1
 70
     0
  0
VERTEX
  8
LB
 10
    -652.0000
 20
       0.0000
  0
VERTEX
  8
LB
 10
    -524.2000
 20
    2001.0000
  0
VERTEX
  8
LB
 10
    -231.7000
 20
    4001.0000
  0
VERTEX
  8
LB
 10
     180.5000
 20
    5635.0000
  0
VERTEX
  8
LB
 10
     388.2000
 20
    6201.7002
  0
SEQEND
  0
POLYLINE
  8
LB
 66
     1
 70
     0
  0
VERTEX
  8
LB
 10
     388.2000
 20
    6201.7002
  0
VERTEX
  8
LB
 10
    3550.0000
 20
    6675.3999
  0
VERTEX
  8
LB
 10
    7100.0000
 20
    7159.1001
  0
VERTEX
  8
LB
 10
   10650.0000
 20
    7589.7998
  0
VERTEX
  8
LB
 10
   14200.0000
 20
    7967.7002
  0
VERTEX
  8
LB
 10
   17750.0000
 20
    8291.2998
  0
VERTEX
  8
LB
 10
   21300.0000
 20
    8570.2998
  0
VERTEX
  8
LB
 10
   24850.0000
 20
    8811.9004
  0
VERTEX
  8
LB
 10
   28400.0000
 20
    9023.2998
  0
VERTEX
  8
LB
 10
   31950.0000
 20
    9205.5996
  0
VERTEX
  8
LB
 10
   35500.0000
 20
    9354.7998
  0
VERTEX
  8
LB
 10
   39050.0000
 20
    9469.2002
  0
VERTEX
  8
LB
 10
   42600.0000
 20
    9559.0000
  0
VERTEX
  8
LB
 10
   46150.0000
 20
    9630.0000
  0
VERTEX
  8
LB
 10
   49700.0000
 20
    9686.7002
  0
VERTEX
  8
LB
 10
   53250.0000
 20
    9733.0996
  0
VERTEX
  8
LB
 10
   56800.0000
 20
    9771.0000
  0
VERTEX
  8
LB
 10
   60350.0000
 20
    9800.2998
  0
VERTEX
  8
LB
 10
   63900.0000
 20
    9818.0000
  0
VERTEX
  8
LB
 10
   67450.0000
 20
    9820.0000
  0
VERTEX
  8
LB
 10
   71000.0000
 20
    9808.9004
  0
VERTEX
  8
LB
 10
   74550.0000
 20
    9786.0996
  0
VERTEX
  8
LB
 10
   78100.0000
 20
    9751.0996
  0
VERTEX
  8
LB
 10
   81650.0000
 20
    9701.2002
  0
VERTEX
  8
LB
 10
   85200.0000
 20
    9626.5996
  0
VERTEX
  8
LB
 10
   88750.0000
 20
    9517.2998
  0
VERTEX
  8
LB
 10
   92300.0000
 20
    9368.0000
  0
VERTEX
  8
LB
 10
   95850.0000
 20
    9173.0000
  0
VERTEX
  8
LB
 10
   99400.0000
 20
    8919.2002
  0
VERTEX
  8
LB
 10
  102950.0000
 20
    8594.5996
  0
VERTEX
  8
LB
 10
  106500.0000
 20
    8198.5996
  0
VERTEX
  8
LB
 10
  110050.0000
 20
    7731.2998
  0
VERTEX
  8
LB
 10
  113600.0000
 20
    7181.6001
  0
VERTEX
  8
LB
 10
  117150.0000
 20
    6535.7998
  0
VERTEX
  8
LB
 10
  120700.0000
 20
    5780.2998
  0
VERTEX
  8
LB
 10
  124250.0000
 20
    4910.7998
  0
VERTEX
  8
LB
 10
  127800.0000
 20
    3964.8999
  0
VERTEX
  8
LB
 10
  131350.0000
 20
    2991.8999
  0
VERTEX
  8
LB
 10
  134900.0000
 20
    2051.3000
  0
VERTEX
  8
LB
 10
  136675.0000
 20
    1604.8000
  0
VERTEX
  8
LB
 10
  138450.0000
 20
    1178.0000
  0
VERTEX
  8
LB
 10
  140225.0000
 20
     768.8000
  0
VERTEX
  8
LB
 10
  142000.0000
 20
     375.4000
  0
VERTEX
  8
LB
 10
  142908.2031
 20
     179.0000
  0
SEQEND
  0
POLYLINE
  8
LB
 66
     1
 70
     0
  0
VERTEX
  8
LB
 10
  142908.2031
 20
     179.0000
  0
VERTEX
  8
LB
 10
  142908.2031
 20
       0.0000
  0
SEQEND
  0
POLYLINE
  8
LB
 66
     1
 70
     0
  0
VERTEX
  8
LB
 10
    -920.8000
 20
       0.0000
  0
VERTEX
  8
LB
 10
    -798.4000
 20
    2001.0000
  0
VERTEX
  8
LB
 10
    -501.0000
 20
    4001.0000
  0
VERTEX
  8
LB
 10
     -79.8000
 20
    5635.0000
  0
VERTEX
  8
LB
 10
     218.7000
 20
    6443.0000
  0
SEQEND
  0
POLYLINE
  8
LB
 66
     1
 70
     0
  0
VERTEX
  8
LB
 10
     218.7000
 20
    6443.0000
  0
VERTEX
  8
LB
 10
    3550.0000
 20
    6955.7998
  0
VERTEX
  8
LB
 10
    7100.0000
 20
    7439.8999
  0
VERTEX
  8
LB
 10
   10650.0000
 20
    7861.3999
  0
VERTEX
  8
LB
 10
   14200.0000
 20
    8223.7002
  0
VERTEX
  8
LB
 10
   17750.0000
 20
    8534.7998
  0
VERTEX
  8
LB
 10
   21300.0000
 20
    8802.9004
  0
VERTEX
  8
LB
 10
   24850.0000
 20
    9038.2002
  0
VERTEX
  8
LB
 10
   28400.0000
 20
    9244.2002
  0
VERTEX
  8
LB
 10
   31950.0000
 20
    9419.9004
  0
VERTEX
  8
LB
 10
   35500.0000
 20
    9563.0996
  0
VERTEX
  8
LB
 10
   39050.0000
 20
    9674.2998
  0
VERTEX
  8
LB
 10
   42600.0000
 20
    9758.0000
  0
VERTEX
  8
LB
 10
   46150.0000
 20
    9819.4004
  0
VERTEX
  8
LB
 10
   49700.0000
 20
    9867.5000
  0
VERTEX
  8
LB
 10
   53250.0000
 20
    9906.5000
  0
VERTEX
  8
LB
 10
   56800.0000
 20
    9937.7998
  0
VERTEX
  8
LB
 10
   60350.0000
 20
    9960.5996
  0
VERTEX
  8
LB
 10
   63900.0000
 20
    9973.5000
  0
VERTEX
  8
LB
 10
   67450.0000
 20
    9975.5996
  0
VERTEX
  8
LB
 10
   71000.0000
 20
    9964.2998
  0
VERTEX
  8
LB
 10
   74550.0000
 20
    9940.0000
  0
VERTEX
  8
LB
 10
   78100.0000
 20
    9902.9004
  0
VERTEX
  8
LB
 10
   81650.0000
 20
    9852.5996
  0
VERTEX
  8
LB
 10
   85200.0000
 20
    9782.5996
  0
VERTEX
  8
LB
 10
   88750.0000
 20
    9684.7002
  0
VERTEX
  8
LB
 10
   92300.0000
 20
    9553.0996
  0
VERTEX
  8
LB
 10
   95850.0000
 20
    9381.0996
  0
VERTEX
  8
LB
 10
   99400.0000
 20
    9155.0996
  0
VERTEX
  8
LB
 10
  102950.0000
 20
    8862.7002
  0
VERTEX
  8
LB
 10
  106500.0000
 20
    8502.5000
  0
VERTEX
  8
LB
 10
  110050.0000
 20
    8072.5000
  0
VERTEX
  8
LB
 10
  113600.0000
 20
    7558.7998
  0
VERTEX
  8
LB
 10
  117150.0000
 20
    6945.2998
  0
VERTEX
  8
LB
 10
  120700.0000
 20
    6221.0000
  0
VERTEX
  8
LB
 10
  124250.0000
 20
    5383.6001
  0
VERTEX
  8
LB
 10
  127800.0000
 20
    4453.8999
  0
VERTEX
  8
LB
 10
  131350.0000
 20
    3471.8000
  0
VERTEX
  8
LB
 10
  134900.0000
 20
    2489.6001
  0
VERTEX
  8
LB
 10
  136675.0000
 20
    2010.5000
  0
VERTEX
  8
LB
 10
  138450.0000
 20
    1543.5000
  0
VERTEX
  8
LB
 10
  140225.0000
 20
    1081.7000
  0
VERTEX
  8
LB
 10
  142000.0000
 20
     623.0000
  0
VERTEX
  8
LB
 10
  143545.7969
 20
     225.0000
  0
SEQEND
  0
POLYLINE
  8
LB
 66
     1
 70
     0
  0
VERTEX
  8
LB
 10
  143545.7969
 20
     225.0000
  0
VERTEX
  8
LB
 10
  143545.7969
 20
       0.0000
  0
SEQEND
  0
POLYLINE
  8
LB
 66
     1
 70
     0
  0
VERTEX
  8
LB
 10
   -1189.6000
 20
       0.0000
  0
VERTEX
  8
LB
 10
   -1072.5000
 20
    2001.0000
  0
VERTEX
  8
LB
 10
    -770.3000
 20
    4001.0000
  0
VERTEX
  8
LB
 10
    -340.0000
 20
    5635.0000
  0
VERTEX
  8
LB
 10
      27.5000
 20
    6676.1001
  0
SEQEND
  0
POLYLINE
  8
LB
 66
     1
 70
     0
  0
VERTEX
  8
LB
 10
      27.5000
 20
    6676.1001
  0
VERTEX
  8
LB
 10
    3550.0000
 20
    7224.0000
  0
VERTEX
  8
LB
 10
    7100.0000
 20
    7706.3999
  0
VERTEX
  8
LB
 10
   10650.0000
 20
    8118.6001
  0
VERTEX
  8
LB
 10
   14200.0000
 20
    8469.0996
  0
VERTEX
  8
LB
 10
   17750.0000
 20
    8770.4004
  0
VERTEX
  8
LB
 10
   21300.0000
 20
    9029.9004
  0
VERTEX
  8
LB
 10
   24850.0000
 20
    9256.2998
  0
VERTEX
  8
LB
 10
   28400.0000
 20
    9452.7002
  0
VERTEX
  8
LB
 10
   31950.0000
 20
    9620.5000
  0
VERTEX
  8
LB
 10
   35500.0000
 20
    9759.0000
  0
VERTEX
  8
LB
 10
   39050.0000
 20
    9867.5000
  0
VERTEX
  8
LB
 10
   42600.0000
 20
    9948.4004
  0
VERTEX
  8
LB
 10
   46150.0000
 20
   10005.5996
  0
VERTEX
  8
LB
 10
   49700.0000
 20
   10047.4004
  0
VERTEX
  8
LB
 10
   53250.0000
 20
   10080.0000
  0
VERTEX
  8
LB
 10
   56800.0000
 20
   10105.5996
  0
VERTEX
  8
LB
 10
   60350.0000
 20
   10123.5996
  0
VERTEX
  8
LB
 10
   63900.0000
 20
   10133.0996
  0
VERTEX
  8
LB
 10
   67450.0000
 20
   10134.0000
  0
VERTEX
  8
LB
 10
   71000.0000
 20
   10122.2002
  0
VERTEX
  8
LB
 10
   74550.0000
 20
   10092.2002
  0
VERTEX
  8
LB
 10
   78100.0000
 20
   10049.4004
  0
VERTEX
  8
LB
 10
   81650.0000
 20
    9994.5996
  0
VERTEX
  8
LB
 10
   85200.0000
 20
    9925.9004
  0
VERTEX
  8
LB
 10
   88750.0000
 20
    9834.7998
  0
VERTEX
  8
LB
 10
   92300.0000
 20
    9714.4004
  0
VERTEX
  8
LB
 10
   95850.0000
 20
    9557.0996
  0
VERTEX
  8
LB
 10
   99400.0000
 20
    9354.0000
  0
VERTEX
  8
LB
 10
  102950.0000
 20
    9096.2998
  0
VERTEX
  8
LB
 10
  106500.0000
 20
    8777.0996
  0
VERTEX
  8
LB
 10
  110050.0000
 20
    8388.2998
  0
VERTEX
  8
LB
 10
  113600.0000
 20
    7914.1001
  0
VERTEX
  8
LB
 10
  117150.0000
 20
    7338.8999
  0
VERTEX
  8
LB
 10
  120700.0000
 20
    6658.2998
  0
VERTEX
  8
LB
 10
  124250.0000
 20
    5869.2002
  0
VERTEX
  8
LB
 10
  127800.0000
 20
    4982.8999
  0
VERTEX
  8
LB
 10
  131350.0000
 20
    4016.5000
  0
VERTEX
  8
LB
 10
  134900.0000
 20
    3010.8000
  0
VERTEX
  8
LB
 10
  136675.0000
 20
    2502.8999
  0
VERTEX
  8
LB
 10
  138450.0000
 20
    1995.1000
  0
VERTEX
  8
LB
 10
  140225.0000
 20
    1483.3000
  0
VERTEX
  8
LB
 10
  142000.0000
 20
     964.6000
  0
VERTEX
  8
LB
 10
  144289.2969
 20
     278.0000
  0
SEQEND
  0
POLYLINE
  8
LB
 66
     1
 70
     0
  0
VERTEX
  8
LB
 10
  144289.2969
 20
     278.0000
  0
VERTEX
  8
LB
 10
  144289.2969
 20
       0.0000
  0
SEQEND
  0
POLYLINE
  8
LB
 66
     1
 70
     0
  0
VERTEX
  8
LB
 10
   72210.8984
 20
   10268.2998
  0
VERTEX
  8
LB
 10
   74550.0000
 20
   10239.0996
  0
VERTEX
  8
LB
 10
   78100.0000
 20
   10190.0000
  0
VERTEX
  8
LB
 10
   81650.0000
 20
   10132.2998
  0
VERTEX
  8
LB
 10
   85200.0000
 20
   10062.4004
  0
VERTEX
  8
LB
 10
   88750.0000
 20
    9973.7002
  0
VERTEX
  8
LB
 10
   92300.0000
 20
    9860.5000
  0
VERTEX
  8
LB
 10
   95850.0000
 20
    9717.0000
  0
VERTEX
  8
LB
 10
   99400.0000
 20
    9536.4004
  0
VERTEX
  8
LB
 10
  102950.0000
 20
    9311.0000
  0
VERTEX
  8
LB
 10
  106500.0000
 20
    9030.5996
  0
VERTEX
  8
LB
 10
  110050.0000
 20
    8683.2998
  0
VERTEX
  8
LB
 10
  113600.0000
 20
    8252.0996
  0
VERTEX
  8
LB
 10
  117150.0000
 20
    7721.7998
  0
VERTEX
  8
LB
 10
  120700.0000
 20
    7091.7002
  0
VERTEX
  8
LB
 10
  124250.0000
 20
    6361.0000
  0
VERTEX
  8
LB
 10
  127800.0000
 20
    5532.6001
  0
VERTEX
  8
LB
 10
  131350.0000
 20
    4610.2998
  0
VERTEX
  8
LB
 10
  134900.0000
 20
    3605.5000
  0
VERTEX
  8
LB
 10
  136675.0000
 20
    3078.5000
  0
VERTEX
  8
LB
 10
  138450.0000
 20
    2536.0000
  0
VERTEX
  8
LB
 10
  140225.0000
 20
    1979.4000
  0
VERTEX
  8
LB
 10
  142000.0000
 20
    1405.6000
  0
VERTEX
  8
LB
 10
  145150.2969
 20
     336.9000
  0
SEQEND
  0
POLYLINE
  8
LB
 66
     1
 70
     0
  0
VERTEX
  8
LB
 10
  145150.2969
 20
     336.9000
  0
VERTEX
  8
LB
 10
  145150.2969
 20
       0.0000
  0
SEQEND
  0
POLYLINE
  8
LB
 66
     1
 70
     0
  0
VERTEX
  8
LB
 10
   94493.7969
 20
    9917.5000
  0
VERTEX
  8
LB
 10
   95850.0000
 20
    9865.2998
  0
VERTEX
  8
LB
 10
   99400.0000
 20
    9706.7002
  0
VERTEX
  8
LB
 10
  102950.0000
 20
    9509.0000
  0
VERTEX
  8
LB
 10
  106500.0000
 20
    9264.0000
  0
VERTEX
  8
LB
 10
  110050.0000
 20
    8957.7998
  0
VERTEX
  8
LB
 10
  113600.0000
 20
    8573.2998
  0
VERTEX
  8
LB
 10
  117150.0000
 20
    8095.6001
  0
VERTEX
  8
LB
 10
  120700.0000
 20
    7522.0000
  0
VERTEX
  8
LB
 10
  124250.0000
 20
    6852.7998
  0
VERTEX
  8
LB
 10
  127800.0000
 20
    6087.0000
  0
VERTEX
  8
LB
 10
  131350.0000
 20
    5224.5000
  0
VERTEX
  8
LB
 10
  134900.0000
 20
    4248.0000
  0
VERTEX
  8
LB
 10
  136675.0000
 20
    3716.3999
  0
VERTEX
  8
LB
 10
  138450.0000
 20
    3153.1001
  0
VERTEX
  8
LB
 10
  140225.0000
 20
    2562.3000
  0
VERTEX
  8
LB
 10
  142000.0000
 20
    1943.3000
  0
VERTEX
  8
LB
 10
  145550.0000
 20
     631.9000
  0
VERTEX
  8
LB
 10
  146141.2031
 20
     404.0000
  0
SEQEND
  0
POLYLINE
  8
LB
 66
     1
 70
     0
  0
VERTEX
  8
LB
 10
  146141.2031
 20
     404.0000
  0
VERTEX
  8
LB
 10
  146141.2031
 20
       0.0000
  0
SEQEND
  0
POLYLINE
  8
LB
 66
     1
 70
     0
  0
VERTEX
  8
LB
 10
  110842.2969
 20
    9141.9004
  0
VERTEX
  8
LB
 10
  113600.0000
 20
    8877.2998
  0
VERTEX
  8
LB
 10
  117150.0000
 20
    8460.0996
  0
VERTEX
  8
LB
 10
  120700.0000
 20
    7951.2002
  0
VERTEX
  8
LB
 10
  124250.0000
 20
    7344.1001
  0
VERTEX
  8
LB
 10
  127800.0000
 20
    6638.5000
  0
VERTEX
  8
LB
 10
  131350.0000
 20
    5829.8999
  0
VERTEX
  8
LB
 10
  134900.0000
 20
    4899.7998
  0
VERTEX
  8
LB
 10
  136675.0000
 20
    4377.5000
  0
VERTEX
  8
LB
 10
  138450.0000
 20
    3816.2000
  0
VERTEX
  8
LB
 10
  140225.0000
 20
    3211.0000
  0
VERTEX
  8
LB
 10
  142000.0000
 20
    2566.0000
  0
VERTEX
  8
LB
 10
  145550.0000
 20
    1180.3000
  0
VERTEX
  8
LB
 10
  147269.2969
 20
     481.7000
  0
SEQEND
  0
POLYLINE
  8
LB
 66
     1
 70
     0
  0
VERTEX
  8
LB
 10
  147269.2969
 20
     481.7000
  0
VERTEX
  8
LB
 10
  147269.2969
 20
       0.0000
  0
SEQEND
  0
POLYLINE
  8
LB
 66
     1
 70
     0
  0
VERTEX
  8
LB
 10
  122129.3984
 20
    8173.7002
  0
VERTEX
  8
LB
 10
  124250.0000
 20
    7835.7002
  0
VERTEX
  8
LB
 10
  127800.0000
 20
    7183.7998
  0
VERTEX
  8
LB
 10
  131350.0000
 20
    6420.7002
  0
VERTEX
  8
LB
 10
  134900.0000
 20
    5534.0000
  0
VERTEX
  8
LB
 10
  136675.0000
 20
    5036.0000
  0
VERTEX
  8
LB
 10
  138450.0000
 20
    4492.0000
  0
VERTEX
  8
LB
 10
  140225.0000
 20
    3898.0000
  0
VERTEX
  8
LB
 10
  142000.0000
 20
    3254.1001
  0
VERTEX
  8
LB
 10
  145550.0000
 20
    1838.4000
  0
VERTEX
  8
LB
 10
  148530.5000
 20
     570.0000
  0
SEQEND
  0
POLYLINE
  8
LB
 66
     1
 70
     0
  0
VERTEX
  8
LB
 10
  148530.5000
 20
     570.0000
  0
VERTEX
  8
LB
 10
  148530.5000
 20
       0.0000
  0
SEQEND
  0
POLYLINE
  8
LB
 66
     1
 70
     0
  0
VERTEX
  8
LB
 10
  133723.7031
 20
       0.0000
  0
VERTEX
  8
LB
 10
  133723.7031
 20
     412.7000
  0
VERTEX
  8
LB
 10
  134260.0000
 20
    1003.6000
  0
SEQEND
  0
POLYLINE
  8
LB
 66
     1
 70
     0
  0
VERTEX
  8
LB
 10
  133723.7031
 20
     412.7000
  0
VERTEX
  8
LB
 10
  134260.0000
 20
    1003.6000
  0
VERTEX
  8
LB
 10
  134900.0000
 20
    1480.2000
  0
VERTEX
  8
LB
 10
  135759.2031
 20
    1885.9000
  0
VERTEX
  8
LB
 10
  136675.0000
 20
    2139.0000
  0
VERTEX
  8
LB
 10
  138450.0000
 20
    2315.1001
  0
VERTEX
  8
LB
 10
  139364.2031
 20
    2233.3999
  0
VERTEX
  8
LB
 10
  140225.0000
 20
    1915.0000
  0
VERTEX
  8
LB
 10
  140906.0938
 20
    1286.4000
  0
VERTEX
  8
LB
 10
  141215.0938
 20
     412.6000
  0
SEQEND
  0
POLYLINE
  8
LB
 66
     1
 70
     0
  0
VERTEX
  8
LB
 10
  141215.0938
 20
     412.6000
  0
VERTEX
  8
LB
 10
  141215.0938
 20
       0.0000
  0
SEQEND
  0
POLYLINE
  8
LB
 66
     1
 70
     0
  0
VERTEX
  8
LB
 10
  130817.3984
 20
       0.0000
  0
VERTEX
  8
LB
 10
  130817.3984
 20
     330.4000
  0
SEQEND
  0
POLYLINE
  8
LB
 66
     1
 70
     0
  0
VERTEX
  8
LB
 10
  130817.3984
 20
     330.4000
  0
VERTEX
  8
LB
 10
  131350.0000
 20
     883.6000
  0
VERTEX
  8
LB
 10
  132157.5938
 20
    1441.3000
  0
VERTEX
  8
LB
 10
  133035.0000
 20
    1828.0000
  0
VERTEX
  8
LB
 10
  133957.4062
 20
    2104.3999
  0
VERTEX
  8
LB
 10
  134900.0000
 20
    2331.2000
  0
VERTEX
  8
LB
 10
  136675.0000
 20
    2709.8999
  0
VERTEX
  8
LB
 10
  138450.0000
 20
    2827.0000
  0
VERTEX
  8
LB
 10
  139355.0000
 20
    2736.8000
  0
VERTEX
  8
LB
 10
  140225.0000
 20
    2471.7000
  0
VERTEX
  8
LB
 10
  141006.2031
 20
    1957.7000
  0
VERTEX
  8
LB
 10
  141496.5000
 20
    1243.8000
  0
VERTEX
  8
LB
 10
  141695.7969
 20
     330.2000
  0
SEQEND
  0
POLYLINE
  8
LB
 66
     1
 70
     0
  0
VERTEX
  8
LB
 10
  141695.7969
 20
     330.2000
  0
VERTEX
  8
LB
 10
  141695.7969
 20
       0.0000
  0
SEQEND
  0
POLYLINE
  8
LB
 66
     1
 70
     0
  0
VERTEX
  8
LB
 10
  128188.7969
 20
       0.0000
  0
VERTEX
  8
LB
 10
  128188.7969
 20
     248.0000
  0
SEQEND
  0
POLYLINE
  8
LB
 66
     1
 70
     0
  0
VERTEX
  8
LB
 10
  128188.7969
 20
     248.0000
  0
VERTEX
  8
LB
 10
  131350.0000
 20
    1562.6000
  0
VERTEX
  8
LB
 10
  132225.2969
 20
    1868.6000
  0
VERTEX
  8
LB
 10
  133108.0938
 20
    2149.8000
  0
VERTEX
  8
LB
 10
  133999.4062
 20
    2402.7000
  0
VERTEX
  8
LB
 10
  134900.0000
 20
    2624.2000
  0
VERTEX
  8
LB
 10
  136675.0000
 20
    2948.6001
  0
VERTEX
  8
LB
 10
  138450.0000
 20
    3058.7000
  0
VERTEX
  8
LB
 10
  139355.2031
 20
    2957.0000
  0
VERTEX
  8
LB
 10
  140225.0000
 20
    2686.5000
  0
VERTEX
  8
LB
 10
  141120.7969
 20
    2104.7000
  0
VERTEX
  8
LB
 10
  141681.5938
 20
    1291.8000
  0
VERTEX
  8
LB
 10
  141907.2969
 20
     247.7000
  0
SEQEND
  0
POLYLINE
  8
LB
 66
     1
 70
     0
  0
VERTEX
  8
LB
 10
  141907.2969
 20
     247.7000
  0
VERTEX
  8
LB
 10
  141907.2969
 20
       0.0000
  0
SEQEND
  0
POLYLINE
  8
LB
 66
     1
 70
     0
  0
VERTEX
  8
LB
 10
  126231.3984
 20
       0.0000
  0
VERTEX
  8
LB
 10
  126231.3984
 20
     165.7000
  0
SEQEND
  0
POLYLINE
  8
LB
 66
     1
 70
     0
  0
VERTEX
  8
LB
 10
  126231.3984
 20
     165.7000
  0
VERTEX
  8
LB
 10
  127800.0000
 20
     533.5000
  0
VERTEX
  8
LB
 10
  131350.0000
 20
    1640.3000
  0
VERTEX
  8
LB
 10
  134900.0000
 20
    2617.1001
  0
VERTEX
  8
LB
 10
  136675.0000
 20
    2959.8999
  0
VERTEX
  8
LB
 10
  138450.0000
 20
    3078.3999
  0
VERTEX
  8
LB
 10
  139355.9062
 20
    2971.6001
  0
VERTEX
  8
LB
 10
  140225.0000
 20
    2694.8999
  0
VERTEX
  8
LB
 10
  140947.4062
 20
    2262.7000
  0
VERTEX
  8
LB
 10
  141470.5938
 20
    1697.0000
  0
VERTEX
  8
LB
 10
  141794.7031
 20
     997.9000
  0
VERTEX
  8
LB
 10
  141919.5000
 20
     165.4000
  0
SEQEND
  0
POLYLINE
  8
LB
 66
     1
 70
     0
  0
VERTEX
  8
LB
 10
  141919.5000
 20
     165.4000
  0
VERTEX
  8
LB
 10
  141919.5000
 20
       0.0000
  0
SEQEND
  0
POLYLINE
  8
LB
 66
     1
 70
     0
  0
VERTEX
  8
LB
 10
  141113.0000
 20
       0.0000
  0
VERTEX
  8
LB
 10
  141113.0000
 20
    4852.1001
  0
SEQEND
  0
POLYLINE
  8
LB
 66
     1
 70
     0
  0
VERTEX
  8
LB
 10
   -1229.1000
 20
    3000.0000
  0
VERTEX
  8
LB
 10
  146626.9062
 20
    3000.0000
  0
SEQEND
  0
POLYLINE
  8
LB
 66
     1
 70
     0
  0
VERTEX
  8
LB
 10
   -1038.0000
 20
    4000.0000
  0
VERTEX
  8
LB
 10
  143859.2031
 20
    4000.0000
  0
SEQEND
  0
POLYLINE
  8
LB
 66
     1
 70
     0
  0
VERTEX
  8
LB
 10
    -788.9000
 20
    5000.0000
  0
VERTEX
  8
LB
 10
  140586.7031
 20
    5000.0000
  0
SEQEND
  0
POLYLINE
  8
LB
 66
     1
 70
     0
  0
VERTEX
  8
LB
 10
    -480.6000
 20
    6000.0000
  0
VERTEX
  8
LB
 10
  136510.2031
 20
    6000.0000
  0
SEQEND
  0
POLYLINE
  8
LB
 66
     1
 70
     0
  0
VERTEX
  8
LB
 10
     545.9000
 20
    7000.0000
  0
VERTEX
  8
LB
 10
  131185.0938
 20
    7000.0000
  0
SEQEND
  0
POLYLINE
  8
LB
 66
     1
 70
     0
  0
VERTEX
  8
LB
 10
    8147.7002
 20
    8000.0000
  0
VERTEX
  8
LB
 10
  123738.1016
 20
    8000.0000
  0
SEQEND
  0
POLYLINE
  8
LB
 66
     1
 70
     0
  0
VERTEX
  8
LB
 10
   20086.6992
 20
    9000.0000
  0
VERTEX
  8
LB
 10
  112820.3984
 20
    9000.0000
  0
SEQEND
  0
POLYLINE
  8
LB
 66
     1
 70
     0
  0
VERTEX
  8
LB
 10
   -1448.3000
 20
    1000.0000
  0
VERTEX
  8
LB
 10
  120700.0000
 20
    1000.0000
  0
SEQEND
  0
POLYLINE
  8
LB
 66
     1
 70
     0
  0
VERTEX
  8
LB
 10
   -1365.0000
 20
    2000.0000
  0
VERTEX
  8
LB
 10
  120700.0000
 20
    2000.0000
  0
SEQEND
  0
ENDSEC
  0
EOF
